<?xml version="1.0" encoding="UTF-8" standalone="no"?>
<!-- Created with Inkscape (http://www.inkscape.org/) -->

<svg
   width="47.558796mm"
   height="16.734886mm"
   viewBox="0 0 47.558796 16.734886"
   version="1.1"
   id="svg1"
   sodipodi:docname="10h00.svg"
   inkscape:version="1.3 (0e150ed6c4, 2023-07-21)"
   xmlns:inkscape="http://www.inkscape.org/namespaces/inkscape"
   xmlns:sodipodi="http://sodipodi.sourceforge.net/DTD/sodipodi-0.dtd"
   xmlns="http://www.w3.org/2000/svg"
   xmlns:svg="http://www.w3.org/2000/svg">
  <sodipodi:namedview
     id="namedview1"
     pagecolor="#ffffff"
     bordercolor="#000000"
     borderopacity="0.25"
     inkscape:showpageshadow="2"
     inkscape:pageopacity="0.0"
     inkscape:pagecheckerboard="0"
     inkscape:deskcolor="#d1d1d1"
     inkscape:document-units="mm"
     inkscape:zoom="1"
     inkscape:cx="202.5"
     inkscape:cy="352.5"
     inkscape:window-width="2560"
     inkscape:window-height="1369"
     inkscape:window-x="-8"
     inkscape:window-y="-8"
     inkscape:window-maximized="1"
     inkscape:current-layer="layer1" />
  <defs
     id="defs1" />
  <g
     inkscape:label="Layer 1"
     inkscape:groupmode="layer"
     id="layer1">
    <path
       id="text1"
       style="font-size:22.0486px;line-height:1.46;font-family:Columbia-Serial;-inkscape-font-specification:Columbia-Serial;text-align:center;text-anchor:middle;stroke-width:3.746"
       d="m -47.558798,-5.4349795 q 1.212672,-0.396875 1.631595,-0.551215 0.727605,-0.264583 1.322917,-0.551215 0.926041,-0.440972 1.433159,-0.727604 0.529166,-0.30868 1.763887,-1.10243 l -0.132291,2.756075 -0.06615,5.490102 0.02205,3.395484 q 0,0.330729 0.110243,2.689929 0.0441,0.94809 0.0441,2.138714 -0.661458,-0.06615 -0.992188,-0.06615 h -0.308679 q -0.352779,0 -0.705555,0 -0.330729,0.0441 -0.551215,0.06615 l 0.110243,-2.425346 q 0,-0.94809 0.06615,-3.064755 0.08819,-2.116666 0.08819,-2.800172 l -0.08819,-5.269615 -3.042706,1.71979 q -0.06615,-0.264583 -0.132292,-0.418923 -0.06615,-0.176389 -0.15434,-0.352778 z m 8.290252,5.600344 q 0,-3.990796 1.322915,-6.063364 1.344965,-2.094617 3.880554,-2.094617 1.653645,0 2.844269,0.992187 2.337152,1.852082 2.337152,7.408329 0,3.77031 -1.367013,5.842879 -1.344965,2.050519 -3.814408,2.050519 -2.51354,0 -3.858505,-2.094616 -1.344964,-2.094617 -1.344964,-6.041317 z m 2.535588,-4.189234 q -0.220485,1.697743 -0.220485,4.189234 0,3.064756 0.242535,4.431769 0.242535,1.344964 0.903993,2.072568 0.683505,0.727604 1.741839,0.727604 1.102429,0 1.785936,-0.771701 0.683506,-0.79375 0.859895,-2.425346 0.198438,-1.653645 0.198438,-3.660067 0,-3.329339 -0.242534,-4.740449 -0.242536,-1.411111 -0.94809,-2.182812 -0.617362,-0.683506 -1.675695,-0.683506 -1.10243,0 -1.807985,0.793749 -0.683506,0.79375 -0.837847,2.248957 z m 9.701379,7.2980841 q 0,-0.573263 0.396876,-0.992186 0.418923,-0.440972 1.014235,-0.440972 0.573263,0 0.992187,0.418923 0.418923,0.418923 0.418923,0.992187 0,0.595312 -0.418923,1.014235 -0.396874,0.396875 -0.992187,0.396875 -0.573264,0 -0.992187,-0.396875 -0.418924,-0.396874 -0.418924,-0.992187 z m 0.06615,-5.8649252 q 0,-0.573264 0.374826,-0.970139 0.396875,-0.418923 0.992187,-0.418923 0.595312,0 0.992188,0.418923 0.418923,0.396875 0.418923,0.970139 0,0.5953121 -0.418923,1.0142351 -0.396876,0.396875 -0.992188,0.396875 -0.573263,0 -0.970137,-0.418923 -0.396876,-0.418924 -0.396876,-0.9921871 z m 4.475864,2.7560751 q 0,-3.990796 1.322917,-6.063364 1.344963,-2.094617 3.880552,-2.094617 1.653645,0 2.84427,0.992187 2.337152,1.852082 2.337152,7.408329 0,3.77031 -1.367013,5.842879 -1.344966,2.050519 -3.814409,2.050519 -2.513539,0 -3.858505,-2.094616 -1.344964,-2.094617 -1.344964,-6.041317 z m 2.535589,-4.189234 q -0.220486,1.697743 -0.220486,4.189234 0,3.064756 0.242534,4.431769 0.242535,1.344964 0.903994,2.072568 0.683506,0.727604 1.741838,0.727604 1.10243,0 1.785937,-0.771701 0.683506,-0.79375 0.859895,-2.425346 0.198438,-1.653645 0.198438,-3.660067 0,-3.329339 -0.242535,-4.740449 -0.242535,-1.411111 -0.94809,-2.182812 -0.617361,-0.683506 -1.675693,-0.683506 -1.10243,0 -1.807985,0.793749 -0.683507,0.79375 -0.837847,2.248957 z m 9.569087,4.189234 q 0,-3.990796 1.322916,-6.063364 1.344965,-2.094617 3.880554,-2.094617 1.653645,0 2.844269,0.992187 Q 0,-5.1483475 0,0.4078995 q 0,3.77031 -1.367013,5.842879 -1.344963,2.050519 -3.814407,2.050519 -2.513541,0 -3.858505,-2.094616 -1.344965,-2.094617 -1.344964,-6.041317 z m 2.535589,-4.189234 q -0.220486,1.697743 -0.220486,4.189234 0,3.064756 0.242534,4.431769 0.242534,1.344964 0.903992,2.072568 0.683507,0.727604 1.741841,0.727604 1.10243,0 1.785936,-0.771701 0.683507,-0.79375 0.859896,-2.425346 0.198437,-1.653645 0.198437,-3.660067 0,-3.329339 -0.242535,-4.740449 -0.242534,-1.411111 -0.948089,-2.182812 -0.617362,-0.683506 -1.675694,-0.683506 -1.10243,0 -1.807986,0.793749 -0.683507,0.79375 -0.837846,2.248957 z" />
  </g>
</svg>
