<?xml version="1.0" encoding="UTF-8" standalone="no"?>
<!-- Created with Inkscape (http://www.inkscape.org/) -->

<svg
   width="39.533127mm"
   height="16.36006mm"
   viewBox="0 0 39.533127 16.36006"
   version="1.1"
   id="svg1"
   sodipodi:docname="2h30.svg"
   inkscape:version="1.3 (0e150ed6c4, 2023-07-21)"
   xmlns:inkscape="http://www.inkscape.org/namespaces/inkscape"
   xmlns:sodipodi="http://sodipodi.sourceforge.net/DTD/sodipodi-0.dtd"
   xmlns="http://www.w3.org/2000/svg"
   xmlns:svg="http://www.w3.org/2000/svg">
  <sodipodi:namedview
     id="namedview1"
     pagecolor="#ffffff"
     bordercolor="#000000"
     borderopacity="0.25"
     inkscape:showpageshadow="2"
     inkscape:pageopacity="0.0"
     inkscape:pagecheckerboard="0"
     inkscape:deskcolor="#d1d1d1"
     inkscape:document-units="mm"
     inkscape:zoom="1.0449705"
     inkscape:cx="-410.05942"
     inkscape:cy="203.35502"
     inkscape:window-width="2560"
     inkscape:window-height="1369"
     inkscape:window-x="-8"
     inkscape:window-y="-8"
     inkscape:window-maximized="1"
     inkscape:current-layer="layer1" />
  <defs
     id="defs1" />
  <g
     inkscape:label="Layer 1"
     inkscape:groupmode="layer"
     id="layer1">
    <path
       id="text1"
       style="font-size:22.0486px;line-height:1.46;font-family:Columbia-Serial;-inkscape-font-specification:Columbia-Serial;text-align:center;text-anchor:middle;stroke-width:3.746"
       d="m -39.136256,6.4271685 q 1.807986,-1.322916 3.020658,-2.447394 2.160763,-2.05052 3.219096,-4.012845 1.080381,-1.962326 1.080381,-3.814408 0,-1.344965 -0.771701,-2.271006 -0.749652,-0.948089 -1.830034,-0.948089 -1.036284,0 -1.763888,0.881944 -0.727603,0.881944 -0.727603,2.138714 l -0.176389,0.08819 -0.595312,-0.727604 -0.727604,-0.727603 q 0.264583,-0.551215 0.46302,-0.837847 0.220486,-0.308681 0.551215,-0.617361 1.389062,-1.322916 3.439582,-1.322916 1.940277,0 3.174998,1.190624 1.234723,1.190625 1.234723,3.042707 0,2.05052 -1.631598,4.343574 -1.609547,2.271006 -5.33576,5.534199 l 2.182811,0.0441 0.903993,-0.02205 q 0.48507,0 1.87413,-0.08819 1.389063,-0.08819 2.07257,-0.08819 l -0.06615,1.168576 0.0441,0.992187 q -1.521353,0 -3.086805,-0.02205 -1.565449,-0.0441 -1.587499,-0.0441 -1.609547,0 -2.756075,0.02205 -1.124479,0.02205 -2.20486,0.0441 l 0.02205,-0.683507 z m 12.104677,-3.3293409 q 0,-0.573263 0.396875,-0.992186 0.418924,-0.440972 1.014236,-0.440972 0.573263,0 0.992187,0.418923 0.418923,0.418923 0.418923,0.992187 0,0.595312 -0.418923,1.014235 -0.396875,0.396875 -0.992187,0.396875 -0.573264,0 -0.992187,-0.396875 -0.418924,-0.396874 -0.418924,-0.992187 z m 0.06615,-5.8649252 q 0,-0.573264 0.374826,-0.970139 0.396875,-0.418923 0.992187,-0.418923 0.595313,0 0.992187,0.418923 0.418924,0.396875 0.418924,0.970139 0,0.595312 -0.418924,1.0142351 -0.396874,0.396875 -0.992187,0.396875 -0.573263,0 -0.970138,-0.418923 -0.396875,-0.4189241 -0.396875,-0.9921871 z m 4.762495,9.5470441 q 0.176389,-0.264583 0.286632,-0.463021 0.110243,-0.198437 0.198437,-0.396874 0.110243,-0.198438 0.220486,-0.48507 0.110243,-0.30868 0.242535,-0.61736 h 0.220486 q 0.881943,2.226908 2.800172,2.226908 1.389061,0 2.248957,-1.014235 0.881944,-1.036285 0.881944,-2.645832 0,-1.565451 -0.79375,-2.425346 -0.771702,-0.881944 -2.226908,-0.881944 -0.440972,0 -1.146528,0.15434 l 0.02205,-0.573264 -0.02205,-0.683506 q 0.440972,0.08819 0.705556,0.08819 1.278818,0 2.028471,-0.837847 0.749652,-0.837846 0.749652,-2.337151 0,-1.367013 -0.661458,-2.20486 -0.661458,-0.837847 -1.719791,-0.837847 -1.852082,0 -2.138714,2.381249 l -0.176388,0.02205 q -0.176389,-0.286631 -0.286632,-0.418923 -0.08819,-0.15434 -0.198438,-0.286632 -0.110243,-0.15434 -0.30868,-0.352777 -0.176389,-0.220486 -0.396875,-0.418924 0.08819,-0.132291 0.286632,-0.352777 0.110243,-0.132292 0.15434,-0.198438 0.63941,-0.661458 1.565451,-1.036284 0.948089,-0.374826 1.962325,-0.374826 1.89618,0 3.020658,1.058333 1.146526,1.036284 1.146526,2.734026 0,1.300867 -0.771701,2.293054 -0.749651,0.970139 -2.160761,1.499305 3.660067,0.573264 3.660067,3.880554 0,2.050519 -1.587499,3.46163 -1.565451,1.41111 -3.858505,1.41111 -2.138714,0 -3.946699,-1.367013 z m 11.818044,-6.790969 q 0,-3.990796 1.322916,-6.063364 1.344965,-2.094617 3.880554,-2.094617 1.653645,0 2.844269,0.992187 Q 0,-5.3247345 0,0.2315125 q 0,3.77031 -1.367013,5.842879 -1.344964,2.050519 -3.814407,2.050519 -2.513541,0 -3.858505,-2.094616 -1.344965,-2.094617 -1.344965,-6.041317 z m 2.535589,-4.189234 q -0.220485,1.697743 -0.220485,4.189234 0,3.064756 0.242535,4.431769 0.242534,1.344964 0.903992,2.072568 0.683507,0.727604 1.74184,0.727604 1.10243,0 1.785936,-0.771701 0.683507,-0.79375 0.859896,-2.425346 0.198437,-1.653645 0.198437,-3.660067 0,-3.329339 -0.242535,-4.740449 -0.242534,-1.411111 -0.948089,-2.182812 -0.617361,-0.683506 -1.675694,-0.683506 -1.10243,0 -1.807985,0.793749 -0.683507,0.79375 -0.837848,2.248957 z" />
  </g>
</svg>
