<?xml version="1.0" encoding="UTF-8" standalone="no"?>
<!-- Created with Inkscape (http://www.inkscape.org/) -->

<svg
   width="39.533127mm"
   height="16.36006mm"
   viewBox="0 0 39.533127 16.36006"
   version="1.1"
   id="svg1"
   inkscape:version="1.3 (0e150ed6c4, 2023-07-21)"
   sodipodi:docname="4h00.svg"
   xmlns:inkscape="http://www.inkscape.org/namespaces/inkscape"
   xmlns:sodipodi="http://sodipodi.sourceforge.net/DTD/sodipodi-0.dtd"
   xmlns="http://www.w3.org/2000/svg"
   xmlns:svg="http://www.w3.org/2000/svg">
  <sodipodi:namedview
     id="namedview1"
     pagecolor="#ffffff"
     bordercolor="#000000"
     borderopacity="0.25"
     inkscape:showpageshadow="2"
     inkscape:pageopacity="0.0"
     inkscape:pagecheckerboard="0"
     inkscape:deskcolor="#d1d1d1"
     inkscape:document-units="mm"
     inkscape:zoom="5.9112458"
     inkscape:cx="-66.737201"
     inkscape:cy="56.417887"
     inkscape:window-width="2560"
     inkscape:window-height="1369"
     inkscape:window-x="-8"
     inkscape:window-y="-8"
     inkscape:window-maximized="1"
     inkscape:current-layer="layer1" />
  <defs
     id="defs1" />
  <g
     inkscape:label="Layer 1"
     inkscape:groupmode="layer"
     id="layer1">
    <path
       id="text1"
       style="font-size:22.0486px;line-height:1.46;font-family:Columbia-Serial;-inkscape-font-specification:Columbia-Serial;text-align:center;text-anchor:middle;stroke-width:3.746"
       d="m -39.533131,3.20486 q 1.300868,-1.741839 1.962326,-2.667881 0.661458,-0.948089 1.587499,-2.337151 0.926041,-1.389062 1.852082,-2.910415 0.440972,-0.749653 1.367013,-2.271006 0.132292,0.02205 0.396875,0.0441 0.264583,0.02205 0.595312,0.02205 l 1.014236,-0.0441 q 0,1.234721 -0.0441,2.094617 -0.132292,2.557637 -0.132292,2.778123 l -0.02205,2.711978 v 2.160762 h 0.308681 q 0.264583,0 0.859895,-0.0441 0.595312,-0.0441 1.036284,-0.0441 l -0.0441,0.859895 0.0441,1.036285 -1.41111,-0.06615 -0.815798,-0.02205 v 0.330729 q 0,1.521354 0.242534,4.078991 l -1.322916,-0.06615 q -0.352777,0 -0.683506,0 -0.330729,0.0441 -0.551215,0.06615 0.132292,-1.344965 0.176389,-2.05052 0.0441,-0.727603 0.0441,-1.697742 V 4.505717 h -1.565451 -1.10243 l -3.726213,0.132292 V 4.219085 q 0,-0.418923 -0.06615,-1.014235 z m 4.123088,-3.968748 q -0.595312,0.881944 -1.058332,1.587499 -0.374827,0.573264 -1.234722,1.962325 l 2.226909,0.06615 h 0.705555 l 1.675693,-0.02205 0.02205,-2.20486 V 0.140107 l -0.02205,-1.74184 v -1.212675 l -0.02205,-1.212673 q -1.367013,1.874131 -2.293055,3.263193 z m 8.378463,4.8506891 q 0,-0.573263 0.396875,-0.992186 0.418924,-0.440972 1.014236,-0.440972 0.573263,0 0.992187,0.418923 0.418923,0.418923 0.418923,0.992187 0,0.595312 -0.418923,1.014235 -0.396875,0.396875 -0.992187,0.396875 -0.573264,0 -0.992187,-0.396875 -0.418924,-0.396874 -0.418924,-0.992187 z m 0.06615,-5.8649251 q 0,-0.5732641 0.374826,-0.9701391 0.396875,-0.418923 0.992187,-0.418923 0.595313,0 0.992187,0.418923 0.418924,0.396875 0.418924,0.9701391 0,0.595312 -0.418924,1.01423497 -0.396874,0.39687502 -0.992187,0.39687502 -0.573263,0 -0.970138,-0.41892302 Q -26.96543,-1.204861 -26.96543,-1.778124 Z m 4.475863,2.756075 q 0,-3.990796 1.322916,-6.063364 1.344964,-2.094617 3.880553,-2.094617 1.653645,0 2.84427,0.992187 2.337151,1.852082 2.337151,7.408329 0,3.77031 -1.367013,5.842879 -1.344964,2.050519 -3.814408,2.050519 -2.51354,0 -3.858504,-2.094616 -1.344965,-2.094617 -1.344965,-6.041317 z m 2.535589,-4.189234 q -0.220486,1.697743 -0.220486,4.189234 0,3.064756 0.242534,4.431769 0.242535,1.344964 0.903993,2.072568 0.683507,0.727604 1.741839,0.727604 1.10243,0 1.785937,-0.771701 0.683507,-0.79375 0.859895,-2.425346 0.198438,-1.653645 0.198438,-3.660067 0,-3.329339 -0.242535,-4.740449 -0.242534,-1.411111 -0.94809,-2.182812 -0.61736,-0.683506 -1.675693,-0.683506 -1.10243,0 -1.807985,0.793749 -0.683507,0.79375 -0.837847,2.248957 z m 9.569088,4.189234 q 0,-3.990796 1.322916,-6.063364 1.344965,-2.094617 3.880554,-2.094617 1.653645,0 2.844269,0.992187 Q 0,-4.335761 0,1.220486 q 0,3.77031 -1.367013,5.842879 -1.344964,2.050519 -3.814407,2.050519 -2.513541,0 -3.858505,-2.094616 -1.344965,-2.094617 -1.344965,-6.041317 z m 2.535589,-4.189234 q -0.220486,1.697743 -0.220486,4.189234 0,3.064756 0.242535,4.431769 0.242534,1.344964 0.903992,2.072568 0.683507,0.727604 1.74184,0.727604 1.10243,0 1.785936,-0.771701 0.683507,-0.79375 0.859896,-2.425346 0.198437,-1.653645 0.198437,-3.660067 0,-3.329339 -0.242535,-4.740449 -0.242534,-1.411111 -0.948089,-2.182812 -0.617361,-0.683506 -1.675694,-0.683506 -1.10243,0 -1.807985,0.793749 -0.683507,0.79375 -0.837847,2.248957 z" />
  </g>
</svg>
