<?xml version="1.0" encoding="UTF-8" standalone="no"?>
<!-- Created with Inkscape (http://www.inkscape.org/) -->

<svg
   width="320.77954mm"
   height="148.04004mm"
   viewBox="0 0 320.77954 148.04004"
   version="1.1"
   id="svg5"
   inkscape:version="1.2.2 (b0a8486541, 2022-12-01)"
   sodipodi:docname="MerryChristmas.svg"
   xmlns:inkscape="http://www.inkscape.org/namespaces/inkscape"
   xmlns:sodipodi="http://sodipodi.sourceforge.net/DTD/sodipodi-0.dtd"
   xmlns="http://www.w3.org/2000/svg"
   xmlns:svg="http://www.w3.org/2000/svg">
  <sodipodi:namedview
     id="namedview7"
     pagecolor="#ffffff"
     bordercolor="#666666"
     borderopacity="1.0"
     inkscape:showpageshadow="2"
     inkscape:pageopacity="0.0"
     inkscape:pagecheckerboard="0"
     inkscape:deskcolor="#d1d1d1"
     inkscape:document-units="mm"
     showgrid="false"
     inkscape:zoom="0.5"
     inkscape:cx="179"
     inkscape:cy="280"
     inkscape:window-width="2560"
     inkscape:window-height="1510"
     inkscape:window-x="0"
     inkscape:window-y="54"
     inkscape:window-maximized="1"
     inkscape:current-layer="layer1" />
  <defs
     id="defs2" />
  <g
     inkscape:label="Layer 1"
     inkscape:groupmode="layer"
     id="layer1"
     transform="translate(-0.56479562,-74.432698)">
    <path
       id="path240"
       style="font-weight:bold;font-size:77.611px;line-height:1.25;font-family:'Berkshire Swash';-inkscape-font-specification:'Berkshire Swash Bold';stroke-width:0.264583"
       d="m -22.63413,148.92447 c 0.939831,-1.25309 -3.188005,0.31615 -4.864667,0.94775 -1.651402,0.6316 -3.454935,1.64182 -5.410478,3.03134 -1.921833,1.36425 -4.041976,3.13292 -6.360649,5.30562 -2.293404,2.1727 -4.865437,4.8 -7.715821,7.8822 -2.850385,3.08221 -6.029809,6.65743 -9.538334,10.72493 -3.474805,4.04223 -7.371229,8.62768 -11.68957,13.75627 l -3.20754,-20.31246 c -0.158669,-1.03582 -0.384949,-2.02112 -0.678489,-2.95589 -0.293542,-0.93477 -0.793458,-1.74305 -1.499969,-2.42518 -0.698058,-0.70739 -1.674339,-1.26337 -2.928597,-1.66759 -1.245803,-0.42949 -2.904656,-0.64441 -4.976305,-0.64441 -2.576929,0 -5.225939,0.32861 -7.946878,0.98547 -2.687221,0.6316 -5.235662,1.60444 -7.64586,2.91817 -2.410197,1.31372 -4.551293,2.95572 -6.423373,4.92631 -1.86362,1.94533 -3.23499,4.23156 -4.1142,6.85901 -0.37197,1.11162 -0.54585,2.16025 -0.52186,3.14555 0.024,0.98529 0.25408,1.84445 0.69104,2.5771 0.43696,0.73266 1.06384,1.31356 1.88015,1.74305 0.85004,0.40422 1.88145,0.60616 3.09413,0.60616 0.78318,0 1.60459,-0.11368 2.46386,-0.34106 0.892984,-0.25264 1.722505,-0.61863 2.489467,-1.09864 0.800678,-0.50528 1.513028,-1.1246 2.137151,-1.85725 0.649389,-0.73266 1.14351,-1.60427 1.481666,-2.61483 0.23671,-0.70739 0.334035,-1.30075 0.292547,-1.78077 -0.03303,-0.50528 -0.150527,-0.90968 -0.352247,-1.21285 -0.176457,-0.30316 -0.420172,-0.51808 -0.731597,-0.6444 -0.277709,-0.15159 -0.567978,-0.22738 -0.871145,-0.22738 -0.378961,0 -0.75807,0.11369 -1.137324,0.34107 -0.345534,0.20211 -0.724791,0.42949 -1.137763,0.68213 -0.404517,0.22737 -0.847106,0.45475 -1.327416,0.68212 -0.471855,0.20212 -1.023299,0.30335 -1.654899,0.30335 -0.12632,0 -0.33273,-0.0255 -0.61899,-0.076 -0.25254,-0.0758 -0.49253,-0.22738 -0.71961,-0.45476 -0.19336,-0.25264 -0.32319,-0.61862 -0.38995,-1.09864 -0.0415,-0.48001 0.0729,-1.12425 0.34339,-1.9327 0.3128,-0.93476 0.79394,-1.80638 1.44343,-2.61482 0.67475,-0.80845 1.425137,-1.54146 2.251276,-2.19832 0.859856,-0.68213 1.76598,-1.27549 2.718242,-1.78077 0.985981,-0.53054 1.929805,-0.97284 2.831344,-1.32653 0.926804,-0.3537 1.785957,-0.61897 2.57779,-0.79582 0.825552,-0.20211 1.491202,-0.30334 1.996483,-0.30334 0.606336,0 1.106885,0.0509 1.502556,0.15193 0.395673,0.10105 0.720038,0.30299 0.972287,0.60616 0.260703,0.27791 0.462279,0.69476 0.604726,1.25057 0.150898,0.53055 0.293093,1.23811 0.426693,2.12235 -0.321153,0.88424 -0.709774,1.93236 -1.166089,3.14503 -0.431053,1.21267 -0.938442,2.57693 -1.52147,4.09277 -0.557763,1.51584 -1.183179,3.15836 -1.87601,4.92683 -0.684377,1.74322 -1.415092,3.58716 -2.192365,5.53248 -0.549113,1.33899 -1.07681,2.61501 -1.583654,3.82768 -0.473127,1.1874 -0.955006,2.36219 -1.444943,3.52433 -0.489937,1.16214 -0.983759,2.33692 -1.48215,3.52433 -0.489937,1.16214 -0.996958,2.37482 -1.52071,3.63802 -0.988231,2.27376 -2.009728,4.30718 -3.064706,6.10092 -1.05498,1.79374 -2.22326,3.32257 -3.50494,4.58577 -1.28167,1.26319 -2.70602,2.23552 -4.27327,2.91765 -1.53353,0.65686 -3.27303,0.98547 -5.21836,0.98547 -0.9853,0 -1.76,-0.13913 -2.32387,-0.41703 -0.56387,-0.27791 -1.01819,-0.61898 -1.36294,-1.0232 -0.31103,-0.42949 -0.53783,-0.88424 -0.68037,-1.36425 -0.11728,-0.48002 -0.22175,-0.92179 -0.31386,-1.32602 -0.0837,-0.42949 -0.19257,-0.78353 -0.32695,-1.06143 -0.10912,-0.2779 -0.30309,-0.41652 -0.581,-0.41652 -0.45475,0 -0.90084,0.12615 -1.33908,0.37879 -0.45504,0.22737 -0.87681,0.543 -1.26471,0.94723 -0.37945,0.37896 -0.71277,0.8088 -0.99971,1.28881 -0.27849,0.45475 -0.49348,0.90951 -0.64565,1.36426 -0.20289,0.60633 -0.11537,1.17477 0.2629,1.70532 0.36147,0.50528 0.93367,0.94706 1.71636,1.32602 0.7827,0.37896 1.72989,0.68213 2.84121,0.9095 1.11978,0.20212 2.32351,0.30334 3.61197,0.30334 2.93063,0 5.50794,-0.41685 7.73225,-1.25057 2.24957,-0.83371 4.22581,-1.98305 5.92881,-3.44836 1.736719,-1.49058 3.259333,-3.24678 4.567248,-5.2679 1.33318,-2.02112 2.544524,-4.20612 3.633909,-6.55567 1.097837,-2.37481 2.132553,-4.8635 3.104364,-7.46569 1.005528,-2.62746 2.02798,-5.26722 3.067227,-7.91993 l 3.548693,-9.13329 4.550378,27.17146 h 3.713991 c 1.74615,-2.27375 3.331626,-4.33261 4.757212,-6.17688 1.450849,-1.84427 2.775249,-3.53714 3.973068,-5.07824 1.223081,-1.54111 2.370288,-2.96819 3.441494,-4.28191 1.071204,-1.31373 2.108476,-2.5643 3.112152,-3.75171 1.012121,-1.21267 2.024552,-2.38746 3.036574,-3.52433 1.045741,-1.16215 2.154423,-2.36237 3.326585,-3.6003 -0.363911,1.38952 -0.782531,3.01906 -1.256532,4.88859 -0.474011,1.86953 -0.977881,3.86557 -1.511172,5.98775 -0.499561,2.09691 -1.007282,4.25648 -1.523852,6.47971 -0.508121,2.19796 -0.999392,4.34559 -1.473683,6.4425 -0.44059,2.07164 -0.839191,4.01681 -1.19523,5.83581 -0.356044,1.81901 -0.635608,3.37275 -0.839386,4.66122 -0.09338,0.58107 -0.174692,1.23828 -0.243006,1.97093 -0.0346,0.7074 0.103645,1.38953 0.414388,2.04639 0.34446,0.6316 0.946123,1.17461 1.804504,1.62936 0.866852,0.42949 2.171663,0.6444 3.914876,0.6444 1.237942,0 2.429674,-0.12666 3.575295,-0.3793 1.170892,-0.25264 2.261814,-0.56827 3.272865,-0.94723 1.036312,-0.37896 1.963113,-0.77038 2.780504,-1.17461 0.851101,-0.42948 1.559332,-0.80844 2.123993,-1.13688 l -0.13738,-1.40249 c -0.564551,0.25263 -1.192162,0.50545 -1.883033,0.75809 -0.682421,0.22737 -1.364702,0.34106 -2.046833,0.34106 -0.656861,0 -1.039691,-0.21492 -1.148621,-0.6444 -0.100471,-0.45476 -0.103851,-1.04812 -0.0103,-1.78077 0.0596,-0.48002 0.21645,-1.36461 0.47075,-2.65307 0.262761,-1.31373 0.605871,-2.90536 1.029352,-4.7749 0.43194,-1.8948 0.910351,-4.00401 1.435472,-6.32829 0.550381,-2.32429 1.122131,-4.74965 1.714882,-7.27605 0.592751,-2.52639 1.198072,-5.09088 1.816193,-7.69307 0.643381,-2.60219 1.257112,-5.1158 1.841313,-7.54114 0.617921,-2.4506 1.193461,-4.73684 1.726752,-6.85901 0.541731,-2.14744 1.028322,-4.01733 1.459862,-5.60896 0.363901,-1.38952 0.866512,-2.66501 1.508032,-3.82716 0.641521,-1.16214 1.342292,-2.19831 2.101384,-3.10782 0.759091,-0.9095 1.555942,-1.70532 2.390533,-2.38745 0.834591,-0.68213 1.631152,-1.25057 2.389654,-1.70532 0.783771,-0.45475 1.504242,-0.79582 2.161403,-1.02319 0.657151,-0.22738 1.187851,-0.34107 1.592072,-0.34107 0.682131,0 1.136292,0.18948 1.363182,0.56844 0.23534,0.3537 0.394901,0.74564 0.478561,1.17512 0.10892,0.42949 0.22659,0.83337 0.35242,1.21233 0.13428,0.3537 0.441041,0.53072 0.921052,0.53072 0.58107,0 1.145791,-0.32861 1.694022,-0.98547 0.548231,-0.65686 0.991781,-1.49058 1.329942,-2.50114 0.380421,-1.13688 0.24671,-1.98305 -0.401011,-2.53886 -0.639281,-0.58107 -3.770915,0.19941 -2.967524,-0.87178 z m 12.414968,30.96142 c -1.414792,0 -2.960324,0.20194 -4.636687,0.60616 -1.642652,0.37896 -3.327444,0.95987 -5.054827,1.74305 -1.718932,0.75792 -3.442465,1.7183 -5.170338,2.88044 -1.702612,1.16215 -3.317104,2.51344 -4.843357,4.05454 -1.500992,1.5411 -2.862984,3.27187 -4.086566,5.19193 -1.223561,1.92006 -2.220073,4.02927 -2.989374,6.32829 -1.065191,3.18326 -1.515062,5.96266 -1.349692,8.33748 0.19062,2.37481 0.827971,4.35788 1.912273,5.94951 1.084301,1.59163 2.527144,2.79185 4.328256,3.60029 1.834843,0.78318 3.850976,1.17461 6.048949,1.17461 2.197963,0 4.244886,-0.26528 6.140369,-0.79582 1.903943,-0.5558 3.635585,-1.23793 5.194578,-2.04638 1.567452,-0.83371 2.962264,-1.71778 4.184576,-2.65256 1.2222915,-0.93476 2.254733,-1.79392 3.0978742,-2.5771 l -0.6428909,-0.9095 c -0.7838612,0.53054 -1.5592223,1.03565 -2.3261833,1.51567 -0.758501,0.45475 -1.525612,0.85915 -2.300833,1.21284 -0.775202,0.3537 -1.575203,0.63143 -2.400754,0.83354 -0.825551,0.20211 -1.680692,0.30334 -2.564934,0.30334 -1.263192,0 -2.357933,-0.20194 -3.283765,-0.60616 -0.925831,-0.40423 -1.716282,-0.94775 -2.372263,-1.62988 -0.630721,-0.68212 -1.143832,-1.4525 -1.538532,-2.31148 -0.360971,-0.88424 -0.607931,-1.80622 -0.741431,-2.76624 -0.133501,-0.96003 -0.170521,-1.90744 -0.11036,-2.84221 0.0939,-0.96003 0.27618,-1.84462 0.54671,-2.65306 l 17.9236665,-8.82944 c 1.373592,-0.70739 2.5579137,-1.52865 3.5528451,-2.46341 1.0033715,-0.96004 1.7036725,-2.03359 2.1010131,-3.221 0.3297005,-0.98529 0.4151706,-1.92024 0.2563104,-2.80448 -0.1504102,-0.9095 -0.5787009,-1.70532 -1.2852119,-2.38745 -0.681251,-0.68212 -1.6494024,-1.22513 -2.9036642,-1.62936 -1.2542619,-0.40422 -2.8162241,-0.60616 -4.685757,-0.60616 z m 23.874545,0 c -1.061092,0 -2.109363,0.11369 -3.145475,0.34106 -1.0361211,0.22738 -2.0302726,0.51757 -2.982344,0.87127 -0.9520614,0.35369 -1.8749127,0.77055 -2.768204,1.25057 -0.8595613,0.45475 -1.6603124,0.92248 -2.4020135,1.4025 l 0.4788607,0.94723 c 0.4466906,-0.27791 0.8472112,-0.49283 1.2011017,-0.64441 0.3538905,-0.15158 0.7457611,-0.22738 1.1752517,-0.22738 0.8084412,0 1.2837819,0.27825 1.4262221,0.83406 0.1761703,0.53054 0.1414402,1.1618 -0.1037301,1.89446 l -9.7896143,29.25558 c -0.093,0.2779 -0.1647602,0.64441 -0.2158703,1.09916 -0.0511,0.45475 0.0532,0.89704 0.3136804,1.32653 0.2605104,0.42949 0.7194711,0.79547 1.375942,1.09864 0.673281,0.32843 1.67930249,0.49299 3.0182944,0.49299 1.339002,0 2.4378436,-0.15158 3.2972049,-0.45475 0.8761812,-0.2779 1.5717422,-0.61897 2.085963,-1.02319 0.5394808,-0.40422 0.9356114,-0.83406 1.1888317,-1.28881 0.2532304,-0.45475 0.4350807,-0.84617 0.5449808,-1.17461 l 8.2298618,-24.59436 c 0.682711,-0.45475 1.424312,-0.93494 2.224983,-1.44022 0.825942,-0.50528 1.664413,-0.9725 2.515524,-1.40199 0.876381,-0.42948 1.739623,-0.78301 2.590544,-1.06091 0.859351,-0.30317 1.680982,-0.45476 2.464174,-0.45476 1.061081,0 1.780602,0.26528 2.158873,0.79582 0.38673,0.50528 0.52467,1.14952 0.41419,1.9327 h 1.061442 c 0.784641,-1.13688 1.371292,-2.09726 1.759682,-2.88044 0.422111,-0.80845 0.776882,-1.64217 1.064322,-2.50114 0.464961,-1.38952 0.457701,-2.46308 -0.0213,-3.221 -0.470581,-0.78318 -1.350342,-1.1746 -2.638814,-1.1746 -0.606331,0 -1.250722,0.11369 -1.933143,0.34106 -0.682431,0.22738 -1.377232,0.53055 -2.085113,0.90951 -0.682611,0.37896 -1.369282,0.80828 -2.060453,1.28829 -0.691171,0.48002 -1.349182,0.97267 -1.973023,1.47795 -1.483682,1.1874 -2.950204,2.51377 -4.400566,3.97908 0.12681,-0.37896 0.26601,-0.83371 0.41828,-1.36425 0.160721,-0.55581 0.262691,-1.12426 0.305541,-1.70533 0.0766,-0.60633 0.0734,-1.20021 -0.0101,-1.78128 -0.0835,-0.58107 -0.302221,-1.09865 -0.655331,-1.5534 -0.3194,-0.48001 -0.823851,-0.85897 -1.514042,-1.13688 -0.656461,-0.30317 -1.528222,-0.45475 -2.614574,-0.45475 z m 30.809535,0 c 1.061091,0 -2.109883,0.11369 -3.145995,0.34106 -1.036121,0.22738 -2.029753,0.51757 -2.981824,0.87127 -0.952071,0.35369 -1.874923,0.77055 -2.768204,1.25057 -0.859561,0.45475 -1.660313,0.92248 -2.402014,1.4025 l 0.478861,0.94723 c 0.446691,-0.27791 0.847211,-0.49283 1.201102,-0.64441 0.35389,-0.15158 0.745241,-0.22738 1.174732,-0.22738 0.808441,0 1.283781,0.27825 1.426222,0.83406 0.17616,0.53054 0.14196,1.1618 -0.103211,1.89446 l -9.789614,29.25558 c -0.093,0.2779 -0.16528,0.64441 -0.21639,1.09916 -0.0511,0.45475 0.0537,0.89704 0.3142,1.32653 0.260501,0.42949 0.718951,0.79547 1.375422,1.09864 0.673281,0.32843 1.679303,0.49299 3.018305,0.49299 1.338992,0 2.438353,-0.15158 3.297715,-0.45475 0.876181,-0.2779 1.571222,-0.61897 2.085443,-1.02319 0.53948,-0.40422 0.936131,-0.83406 1.189351,-1.28881 0.253231,-0.45475 0.434561,-0.84617 0.544461,-1.17461 l 8.229862,-24.59436 c 0.682711,-0.45475 1.424832,-0.93494 2.225503,-1.44022 0.825942,-0.50528 1.664413,-0.9725 2.515524,-1.40199 0.876371,-0.42948 1.739623,-0.78301 2.590534,-1.06091 0.859361,-0.30317 1.681002,-0.45476 2.464183,-0.45476 1.061092,0 1.780603,0.26528 2.158874,0.79582 0.38673,0.50528 0.52467,1.14952 0.41419,1.9327 h 1.061432 c 0.784661,-1.13688 1.371302,-2.09726 1.759692,-2.88044 0.422111,-0.80845 0.776881,-1.64217 1.064322,-2.50114 0.0456,-0.1364 0.0851,-0.26864 0.1216,-0.39895 0.579461,0.18291 1.072992,0.83246 1.480252,1.95286 0.520431,1.31372 0.918232,3.06941 1.193302,5.26738 0.30034,2.19796 0.503521,4.72455 0.609321,7.57938 0.13951,2.82956 0.20337,5.77249 0.191,8.82943 0.0129,3.05694 -0.0336,6.10162 -0.13856,9.1333 -0.0712,3.00641 -0.17987,5.7853 -0.326321,8.33695 -1.643822,1.28847 -3.270884,2.45079 -4.880697,3.48661 -1.593002,1.06109 -3.143584,1.95762 -4.651936,2.69028 -1.483103,0.73265 -2.906755,1.28864 -4.271497,1.6676 -1.373202,0.40422 -2.628544,0.60616 -3.765425,0.60616 -0.884241,0 -1.498572,-0.23983 -1.843233,-0.71985 -0.34465,-0.48001 -0.596431,-1.01056 -0.755691,-1.59163 -0.1677,-0.55581 -0.32295,-1.0739 -0.465491,-1.55392 -0.16781,-0.48001 -0.49195,-0.71985 -0.971971,-0.71985 -0.404221,0 -0.817061,0.10123 -1.238392,0.30334 -0.429791,0.22738 -0.830051,0.51757 -1.201052,0.87127 -0.37099,0.35369 -0.708261,0.75809 -1.012011,1.21284 -0.303751,0.45476 -0.535881,0.92197 -0.696511,1.40198 -0.422691,1.2632 -0.15041,2.26148 0.817111,2.99414 0.959051,0.75792 2.550034,1.13688 4.773267,1.13688 2.905354,0 5.980249,-0.61931 9.224063,-1.85725 3.269075,-1.23793 6.55115,-2.96819 9.846775,-5.19142 3.295595,-2.22323 6.554329,-4.9014 9.775324,-8.03413 3.212535,-3.10747 6.231709,-6.54357 9.057713,-10.3079 2.859724,-3.7896 5.450368,-7.83152 7.771772,-12.12639 2.355133,-4.32014 4.306246,-8.7919 5.853308,-13.4152 0.304341,-0.90951 0.566171,-1.73076 0.786081,-2.46342 0.219901,-0.73265 0.326251,-1.35145 0.318471,-1.85673 6.9e-4,-0.53055 -0.14223,-0.93495 -0.428201,-1.21285 -0.26071,-0.2779 -0.731891,-0.41651 -1.414022,-0.41651 -0.30316,0 -0.694821,0.0379 -1.174932,0.11369 -0.4464,0.0505 -0.909931,0.15124 -1.390142,0.30282 -0.48021,0.15158 -0.918111,0.3665 -1.314272,0.64441 -0.38771,0.25264 -0.644911,0.56827 -0.771721,0.94723 -0.12681,0.37895 -0.18656,0.82125 -0.17879,1.32653 0.0162,0.48001 0.0194,1.07389 0.0101,1.78129 -8.8e-4,0.68212 -0.0774,1.51584 -0.23026,2.50114 -0.152851,0.98529 -0.461881,2.17253 -0.926842,3.56205 -1.301912,3.89065 -3.050194,7.68028 -5.244497,11.36882 -2.185853,3.66327 -4.611207,7.13675 -7.276581,10.42107 0.13869,-3.05694 0.23105,-5.97495 0.276741,-8.75399 0.0794,-2.8043 0.0909,-5.40617 0.035,-7.80624 -0.0559,-2.40008 -0.188011,-4.57263 -0.396041,-6.51795 -0.18276,-1.94533 -0.433091,-3.61276 -0.751301,-5.00228 -0.460761,-1.86953 -1.246452,-3.14555 -2.357194,-3.82767 -1.077011,-0.7074 -2.386313,-1.06092 -3.927415,-1.06092 -1.414782,0 -2.669684,0.12615 -3.764786,0.37879 -1.086641,0.22737 -2.072173,0.53054 -2.956894,0.9095 -0.406571,0.17415 -0.792121,0.3571 -1.161362,0.54726 -0.0607,-0.2419 -0.15305,-0.46239 -0.27854,-0.66095 -0.470581,-0.78318 -1.350342,-1.1746 -2.638814,-1.1746 -0.606331,0 -1.250722,0.11369 -1.933143,0.34106 -0.682421,0.22738 -1.377232,0.53055 -2.085113,0.90951 -0.682611,0.37896 -1.369802,0.80828 -2.060973,1.28829 -0.691171,0.48002 -1.348662,0.97267 -1.972503,1.47795 -1.483692,1.1874 -2.950724,2.51377 -4.401086,3.97908 0.12681,-0.37896 0.26653,-0.83371 0.4188,-1.36425 0.160711,-0.55581 0.262681,-1.12426 0.305541,-1.70533 0.0766,-0.60633 0.0728,-1.20021 -0.0106,-1.78128 -0.0835,-0.58107 -0.301701,-1.09865 -0.654811,-1.5534 -0.319401,-0.48001 -0.824361,-0.85897 -1.514552,-1.13688 -0.656471,-0.30317 -3.700416,-0.45475 -2.614064,-0.45475 z m -58.251315,3.8654 c -0.707401,0 1.237652,0.22737 1.590762,0.68213 0.353111,0.45475 0.579751,1.02319 0.679931,1.70532 0.10018,0.68212 0.0824,1.41461 -0.0533,2.1978 -0.10203,0.75792 -0.25866,1.45251 -0.470011,2.08411 -0.19444,0.58107 -0.39719,1.07372 -0.60825,1.47794 -0.177331,0.37896 -0.375541,0.70757 -0.594861,0.98547 -0.210861,0.25264 -0.463961,0.48002 -0.758971,0.68213 -0.261291,0.17685 -0.589971,0.36633 -0.986032,0.56844 l -9.530244,4.58525 c 0.236711,-0.70739 0.536491,-1.56603 0.899922,-2.57658 0.37187,-1.03583 0.807071,-2.1099 1.305362,-3.22151 0.49829,-1.11162 1.043061,-2.21061 1.633962,-3.29696 0.624611,-1.11161 1.282932,-2.09692 1.974583,-2.95589 0.716921,-0.85898 1.479892,-1.55357 2.289023,-2.08411 0.842851,-0.55581 3.537635,-0.83354 2.628134,-0.83354 z m -82.058185,44.37713 c -1.061088,0 -2.109872,0.11369 -3.145991,0.34107 -1.036117,0.22737 -2.042737,0.51757 -3.020067,0.87126 -0.95207,0.3537 -1.86194,0.77056 -2.72996,1.25057 -0.85956,0.45475 -1.66031,0.92249 -2.40201,1.4025 l 0.45375,0.90951 c 0.44669,-0.27791 0.84253,-0.48037 1.18797,-0.60669 0.37915,-0.15158 0.78348,-0.22737 1.21297,-0.22737 0.80844,0 1.28378,0.27825 1.42622,0.83406 0.17617,0.53053 0.14196,1.16179 -0.10321,1.89445 l -16.35838,48.88591 c -0.093,0.2779 -0.16528,0.6444 -0.2164,1.09916 -0.0511,0.45474 0.0414,0.89652 0.27666,1.32601 0.2605,0.42949 0.73123,0.79599 1.41297,1.09916 0.67328,0.32843 1.67948,0.49248 3.01847,0.49248 1.33899,0 2.43836,-0.15159 3.29773,-0.45476 0.87617,-0.2779 1.5712,-0.61896 2.08543,-1.02319 0.54794,-0.42948 0.94858,-0.87127 1.20181,-1.32602 0.26168,-0.48002 0.44736,-0.88441 0.55726,-1.21284 l 8.470911,-25.31474 c 0.286652,-0.25264 0.653815,-0.6316 1.100798,-1.13688 0.472247,-0.50528 0.994794,-1.01039 1.568098,-1.51567 0.598567,-0.50528 1.239219,-0.94757 1.921837,-1.32653 0.691073,-0.40423 1.402883,-0.60617 2.135539,-0.60617 0.606337,0 1.145323,0.16405 1.616495,0.49248 0.504887,0.30317 0.815519,0.96038 0.932113,1.97094 0.150311,0.9853 0.04323,2.43782 -0.321364,4.35787 -0.330878,1.8948 -1.028919,4.43385 -2.094114,7.61711 -1.547066,4.6233 -2.975558,8.40047 -4.284646,11.33109 -1.283824,2.93062 -2.520457,5.26721 -3.710117,7.01043 -1.1812,1.71795 -2.34045,2.95606 -3.47831,3.71398 -1.13786,0.75792 -2.32196,1.27601 -3.55184,1.55391 l -0.14101,1.55339 c 0.91796,-0.0253 2.05522,-0.17685 3.41141,-0.45475 1.34774,-0.25264 2.81799,-0.71985 4.410502,-1.40198 1.592513,-0.68213 3.260824,-1.62953 5.005606,-2.8422 1.736327,-1.18741 3.452302,-2.7287 5.147432,-4.62349 1.695134,-1.8948 3.323488,-4.1935 4.884922,-6.89674 1.561432,-2.70324 2.954726,-5.88653 4.180543,-9.5498 1.259635,-3.76433 2.07232,-6.90972 2.437697,-9.43612 0.373833,-2.55167 0.364011,-4.59806 -0.0298,-6.13916 -0.393811,-1.54111 -1.150496,-2.64009 -2.269684,-3.29696 -1.119191,-0.65686 -2.525082,-0.98547 -4.217771,-0.98547 -0.783184,0 -1.587444,0.10123 -2.412994,0.30334 -0.800288,0.20211 -1.600792,0.47984 -2.401277,0.83354 -0.766767,0.32844 -1.525355,0.7074 -2.275408,1.13689 -0.724787,0.42948 -1.403339,0.87178 -2.035525,1.32653 -1.542475,1.06109 -3.005019,2.26079 -4.387845,3.59978 l 6.885562,-20.57704 c 0.185984,-0.5558 0.347037,-1.18758 0.48269,-1.89497 0.169373,-0.73266 0.144817,-1.41479 -0.07332,-2.04639 -0.209684,-0.65687 -0.69714,-1.19987 -1.462926,-1.62936 -0.757334,-0.45475 -1.957262,-0.68213 -3.599423,-0.68213 z m -25.595258,2.31149 c -3.30958,0 -6.66683,0.70757 -10.07087,2.12235 -3.39559,1.38952 -6.64456,3.47381 -9.74719,6.25285 -3.09419,2.75378 -5.96161,6.18936 -8.6028,10.30738 -2.64119,4.11803 -4.87494,8.90541 -6.70098,14.36243 -1.94441,5.81072 -3.02025,10.80056 -3.22774,14.96911 -0.18222,4.16856 0.33146,7.57923 1.54072,10.23194 1.22606,2.67798 3.04237,4.64858 5.44924,5.91178 2.43213,1.2632 5.30278,1.89498 8.61237,1.89498 2.12218,0 4.13949,-0.25282 6.05178,-0.7581 1.9123,-0.50528 3.69825,-1.16197 5.3583,-1.97042 1.67685,-0.78319 3.21098,-1.66778 4.60177,-2.65307 1.38233,-0.96003 2.60887,-1.90744 3.67958,-2.8422 l -1.13468,-1.70532 c -1.0538,0.88423 -2.14966,1.6676 -3.28741,2.34972 -1.1125,0.68213 -2.24183,1.26303 -3.38775,1.74305 -1.12066,0.48001 -2.22861,0.84652 -3.32371,1.09916 -1.0951,0.25264 -2.13507,0.37879 -3.12037,0.37879 -0.93477,0 -1.88615,-0.13861 -2.85424,-0.41652 -0.9681,-0.2779 -1.85583,-0.79599 -2.6633,-1.55391 -0.81592,-0.73266 -1.4801,-1.76832 -1.99208,-3.1073 -0.51198,-1.33899 -0.79614,-3.0573 -0.85239,-5.15421 -0.0225,-2.12217 0.24208,-4.68614 0.79334,-7.69255 0.57653,-3.00641 1.54945,-6.5562 2.91899,-10.64896 1.43717,-4.29488 2.89899,-8.02117 4.38522,-11.17917 1.51149,-3.15799 2.98858,-5.83617 4.43146,-8.03413 1.4766,-2.22323 2.90221,-4.02927 4.27668,-5.41879 1.37447,-1.38952 2.65585,-2.46359 3.84423,-3.22151 1.22211,-0.78318 2.33459,-1.31373 3.33709,-1.59164 1.00249,-0.2779 1.8447,-0.41651 2.52683,-0.41651 0.9095,0 1.55749,0.1765 1.94442,0.5302 0.38692,0.3537 0.60937,0.82143 0.66757,1.4025 0.0835,0.58107 0.0366,1.25023 -0.14126,2.00815 -0.14411,0.73265 -0.33439,1.49057 -0.5712,2.27376 -0.2368,0.78318 -0.45687,1.55408 -0.65996,2.312 -0.16937,0.73266 -0.25051,1.38935 -0.24284,1.97043 0.0329,0.58106 0.2052,1.04828 0.51634,1.40198 0.33639,0.35369 0.90894,0.53071 1.71738,0.53071 0.90951,0 1.76873,-0.18948 2.57767,-0.56844 0.81739,-0.40422 1.55486,-0.90933 2.21251,-1.51567 0.69136,-0.6316 1.27314,-1.31373 1.74568,-2.04638 0.481,-0.75792 0.83562,-1.47795 1.06388,-2.16008 0.49878,-1.49058 0.57611,-2.81694 0.23234,-3.97908 -0.31006,-1.18742 -0.99057,-2.17272 -2.04224,-2.95589 -1.0432,-0.80845 -2.40703,-1.41479 -4.09077,-1.81902 -1.65003,-0.42948 -3.57364,-0.6444 -5.77161,-0.6444 z m 96.403297,3.41064 c -0.884242,0 -1.752053,0.13913 -2.602964,0.41703 -0.825661,0.27791 -1.609173,0.65687 -2.350854,1.13688 -0.716441,0.48002 -1.348952,1.04847 -1.897182,1.70533 -0.514521,0.6316 -0.890012,1.30075 -1.126722,2.00814 -0.24517,0.73266 -0.321841,1.41479 -0.23002,2.04639 0.11708,0.6316 0.37332,1.18759 0.768521,1.6676 0.42889,0.45475 0.962951,0.82126 1.602622,1.09916 0.664921,0.2779 1.439792,0.41651 2.324033,0.41651 0.858982,0 1.701183,-0.13861 2.526834,-0.41651 0.850911,-0.2779 1.630252,-0.64441 2.338234,-1.09916 0.716421,-0.48001 1.331791,-1.036 1.846312,-1.6676 0.539781,-0.6316 0.932592,-1.31373 1.177762,-2.04639 0.23671,-0.70739 0.29606,-1.37654 0.17898,-2.00814 -0.0834,-0.65686 -0.32247,-1.22531 -0.717651,-1.70533 -0.39519,-0.48001 -0.925081,-0.85897 -1.590002,-1.13688 -0.639661,-0.2779 -1.388922,-0.41703 -2.247903,-0.41703 z m 52.949057,3.25924 c -1.190152,2.12217 -2.594944,3.90329 -4.213706,5.34334 -1.618753,1.44005 -3.240965,2.58939 -4.867377,3.44837 -1.601163,0.85897 -3.096705,1.47777 -4.486717,1.85673 -1.381542,0.3537 -2.426094,0.53072 -3.133485,0.53072 l -0.913031,2.72852 h 4.244196 l -9.3965535,28.08097 c -0.4987807,1.49057 -0.685751,2.76607 -0.5608108,3.82715 0.1249502,1.0611 0.4607207,1.94569 1.0071915,2.65307 0.5717408,0.7074 1.3080619,1.22496 2.2087232,1.5534 0.9259214,0.32843 1.9444129,0.49299 3.0560246,0.49299 1.970593,0 3.693245,-0.27825 5.167697,-0.83406 1.499713,-0.5558 2.814505,-1.23794 3.944006,-2.04638 1.137962,-0.83372 2.120093,-1.73025 2.946624,-2.69028 0.851792,-0.96003 1.602553,-1.84462 2.252044,-2.65307 l -0.997202,-0.5302 c -0.565141,0.70739 -1.164141,1.32619 -1.796422,1.85674 -0.539591,0.48001 -1.138012,0.90933 -1.795363,1.28829 -0.657351,0.37896 -1.327092,0.56844 -2.009223,0.56844 -0.884241,0 -1.494402,-0.2523 -1.830613,-0.75758 -0.32774,-0.53054 -0.2677,-1.46549 0.180361,-2.80448 l 9.371133,-28.005 h 5.874069 c 2.096903,0 3.773445,-0.4802 5.029467,-1.44023 1.289732,-0.9853 2.209423,-2.29868 2.758934,-3.94084 0.13526,-0.40422 0.207241,-0.80862 0.216181,-1.21285 0.0342,-0.40422 -0.0115,-0.75774 -0.137461,-1.06091 -0.11748,-0.32843 -0.32359,-0.58125 -0.6181,-0.7581 -0.260821,-0.2021 -0.618361,-0.30334 -1.073112,-0.30334 -0.707391,0 -1.356572,0.20246 -1.946573,0.60668 -0.564751,0.40423 -0.965021,0.95969 -1.201732,1.66708 -0.19444,0.58107 -0.20778,0.99793 -0.0397,1.25057 0.168101,0.25264 0.378081,0.4551 0.630531,0.60669 0.286161,0.12632 0.539001,0.23949 0.757821,0.34054 0.227281,0.0758 0.298361,0.24036 0.213821,0.493 -0.228251,0.68212 -1.352602,1.02319 -3.373725,1.02319 h -6.177409 l 3.740815,-11.17916 z m -88.564357,10.64844 c -1.061092,0 -2.109356,0.11369 -3.145475,0.34107 -1.036117,0.22738 -2.030448,0.51809 -2.982522,0.87178 -0.952065,0.35369 -1.874917,0.77055 -2.768194,1.25057 -0.859572,0.45475 -1.660145,0.92197 -2.401839,1.40198 l 0.478856,0.94723 c 0.446685,-0.27791 0.847039,-0.49231 1.200933,-0.64389 0.353885,-0.15159 0.745747,-0.22738 1.175237,-0.22738 0.808451,0 1.283954,0.27774 1.42641,0.83354 0.176157,0.53055 0.141259,1.16233 -0.103904,1.89498 l -9.789613,29.25558 c -0.09299,0.2779 -0.164762,0.6444 -0.215885,1.09916 -0.05111,0.45474 0.05336,0.89652 0.313866,1.32601 0.260513,0.42949 0.719284,0.79599 1.375758,1.09916 0.67328,0.32843 1.679487,0.49248 3.018478,0.49248 1.338992,0 2.43784,-0.15159 3.297209,-0.45476 0.876183,-0.2779 1.571721,-0.61896 2.085946,-1.02319 0.539482,-0.40422 0.935444,-0.83354 1.188674,-1.28829 0.253223,-0.45476 0.435082,-0.84618 0.544983,-1.17461 l 8.230034,-24.59488 c 0.682701,-0.45474 1.424122,-0.93442 2.224803,-1.4397 0.825931,-0.50528 1.664593,-0.97301 2.515694,-1.4025 0.876371,-0.42949 1.740142,-0.78302 2.591054,-1.06092 0.859371,-0.30317 1.680472,-0.45475 2.463663,-0.45475 1.061082,0 1.780603,0.26527 2.158883,0.79581 0.386731,0.50528 0.525191,1.14952 0.414711,1.9327 h 1.060911 c 0.784652,-1.13688 1.371122,-2.09674 1.759513,-2.87992 0.422111,-0.80845 0.776881,-1.64216 1.064322,-2.50114 0.46496,-1.38952 0.45786,-2.46359 -0.0212,-3.22151 -0.470591,-0.78318 -1.349832,-1.17461 -2.638294,-1.17461 -0.606341,0 -1.250722,0.11369 -1.933143,0.34107 -0.682411,0.22738 -1.377752,0.53054 -2.085633,0.9095 -0.682611,0.37896 -1.369282,0.80828 -2.060453,1.2883 -0.691171,0.48001 -1.348682,0.97266 -1.972503,1.47794 -1.483682,1.18741 -2.950724,2.51378 -4.401076,3.97909 0.12681,-0.37896 0.266,-0.83372 0.41827,-1.36426 0.16073,-0.55581 0.262681,-1.12425 0.305541,-1.70532 0.0766,-0.60634 0.0732,-1.19971 -0.0103,-1.78077 -0.0835,-0.58108 -0.302041,-1.09916 -0.655151,-1.55391 -0.319381,-0.48002 -0.823832,-0.85898 -1.514033,-1.13688 -0.656471,-0.30317 -1.528232,-0.45476 -2.614581,-0.45476 z m 30.809523,0 c -1.061082,0 -2.109344,0.11369 -3.145465,0.34107 -1.036112,0.22738 -2.030443,0.51809 -2.982524,0.87178 -0.952062,0.35369 -1.874913,0.77055 -2.768194,1.25057 -0.859572,0.45475 -1.660143,0.92197 -2.401834,1.40198 l 0.478841,0.94723 c 0.4467,-0.27791 0.847051,-0.49231 1.200932,-0.64389 0.3539,-0.15159 0.745761,-0.22738 1.175251,-0.22738 0.808451,0 1.283952,0.27774 1.426402,0.83354 0.176161,0.53055 0.141261,1.16233 -0.10391,1.89498 l -9.789604,29.25558 c -0.093,0.2779 -0.17774,0.6444 -0.25412,1.09916 -0.0511,0.45474 0.0414,0.89652 0.27666,1.32601 0.23524,0.42949 0.681041,0.79599 1.337512,1.09916 0.648021,0.32843 1.641252,0.49248 2.980244,0.49248 1.338992,0 2.450814,-0.15159 3.335445,-0.45476 0.876181,-0.2779 1.584192,-0.61896 2.123673,-1.02319 0.573211,-0.42948 0.986312,-0.87127 1.239532,-1.32602 0.28695,-0.48002 0.485611,-0.88441 0.595511,-1.21284 l 9.916534,-29.63489 c 0.185981,-0.5558 0.350681,-1.20004 0.494791,-1.93269 0.16937,-0.73266 0.14534,-1.41479 -0.0728,-2.04639 -0.20969,-0.65686 -0.697651,-1.19987 -1.463432,-1.62936 -0.757341,-0.45475 -1.957273,-0.68213 -3.599435,-0.68213 z m 25.5421468,0 c -1.4653122,0 -2.9604743,0.20195 -4.4852666,0.60617 -1.4910622,0.37896 -2.9107542,0.96037 -4.2591862,1.74356 -1.323162,0.78319 -2.512014,1.76849 -3.566215,2.95589 -1.028942,1.18741 -1.809423,2.57659 -2.342024,4.16822 -0.47341,1.41478 -0.6143,2.77904 -0.42231,4.09278 0.192,1.31372 0.560841,2.58974 1.106631,3.82767 0.545791,1.23793 1.179832,2.43815 1.902563,3.6003 0.722731,1.16214 1.382832,2.28605 1.979343,3.3724 0.596511,1.08635 1.037272,2.14744 1.322252,3.18327 0.29345,1.01056 0.27937,1.99586 -0.0419,2.95589 -0.574861,1.71795 -1.591272,3.0194 -3.049305,3.90364 -1.449572,0.85898 -3.084164,1.28829 -4.903177,1.28829 -0.732661,0 -1.414652,-0.11368 -2.045943,-0.34106 -0.622861,-0.25264 -1.186391,-0.56827 -1.691192,-0.94723 -0.479531,-0.37896 -0.900191,-0.78336 -1.261752,-1.21285 -0.35311,-0.45475 -0.630481,-0.87161 -0.832101,-1.25057 l -1.642973,0.94723 c 0.209671,0.65687 0.570221,1.38987 1.082882,2.19832 0.512661,0.80844 1.189822,1.57882 2.031003,2.31148 0.874901,0.70739 1.935043,1.31374 3.180755,1.81901 1.254151,0.48002 2.753084,0.71986 4.496306,0.71986 1.995853,0 3.886846,-0.2523 5.672818,-0.75758 1.819703,-0.53055 3.4624955,-1.28847 4.9290776,-2.27376 1.4918522,-0.98529 2.7780641,-2.18551 3.8578257,-3.6003 1.1050216,-1.41478 1.9617628,-3.03186 2.5704437,-4.85087 0.54105079,-1.61689 0.681781,-3.13274 0.42255062,-4.54752 -0.23397034,-1.41478 -0.686671,-2.74115 -1.35878202,-3.97909 -0.6383909,-1.2632 -1.403442,-2.45044 -2.2946733,-3.56205 -0.8575013,-1.13688 -1.6562424,-2.22341 -2.3959835,-3.25924 -0.706031,-1.06108 -1.2645318,-2.0713 -1.6759224,-3.03134 -0.3776906,-0.98529 -0.4020306,-1.9706 -0.0723,-2.95589 0.2367103,-0.70739 0.5533008,-1.31373 0.9497513,-1.81901 0.4049106,-0.53054 0.8648913,-0.96038 1.379012,-1.28881 0.5225808,-0.35369 1.0617616,-0.60599 1.6177524,-0.75757 0.5812709,-0.15158 1.1621017,-0.22738 1.7431825,-0.22738 1.1874018,0 2.08851309,0.2144 2.70270399,0.64389 0.62266091,0.40422 0.81558121,0.96021 0.57887084,1.6676 -0.0761001,0.22738 -0.2786204,0.41686 -0.60724088,0.56844 -0.29491043,0.12632 -0.63999094,0.29036 -1.03606151,0.49247 -0.38761054,0.17685 -0.77121114,0.4172 -1.15056164,0.72037 -0.3540806,0.30317 -0.6202409,0.72003 -0.7977812,1.25057 -0.2705204,0.80845 -0.2078503,1.45269 0.1873403,1.9327 0.4289006,0.45475 1.1865317,0.68213 2.27288328,0.68213 1.13688166,0 2.13942312,-0.35404 3.00773442,-1.06143 0.8683112,-0.7074 1.4629221,-1.54111 1.7841726,-2.50114 0.4142406,-1.23794 0.4999107,-2.32395 0.2569003,-3.25872 -0.2177503,-0.93477 -0.730171,-1.70566 -1.5378422,-2.312 -0.7739411,-0.6316 -1.8053626,-1.09882 -3.09343451,-1.40198 -1.28807189,-0.30317 -2.77812409,-0.45476 -4.47081649,-0.45476 z m 50.8941342,0 c -1.061092,0 -2.109353,0.11369 -3.145475,0.34107 -1.036121,0.22738 -2.030443,0.51809 -2.982524,0.87178 -0.952051,0.35369 -1.874903,0.77055 -2.768194,1.25057 -0.859571,0.45475 -1.660152,0.92197 -2.401833,1.40198 l 0.47885,0.94723 c 0.446701,-0.27791 0.847041,-0.49231 1.200932,-0.64389 0.35389,-0.15159 0.745761,-0.22738 1.175242,-0.22738 0.808451,0 1.283952,0.27774 1.426412,0.83354 0.17616,0.53055 0.14126,1.16233 -0.10391,1.89498 l -9.789605,29.25558 c -0.093,0.2779 -0.16477,0.6444 -0.21589,1.09916 -0.0511,0.45474 0.0534,0.89652 0.31387,1.32601 0.260511,0.42949 0.719282,0.79599 1.375752,1.09916 0.673281,0.32843 1.679493,0.49248 3.018485,0.49248 1.338992,0 2.437833,-0.15159 3.297205,-0.45476 0.876171,-0.2779 1.571722,-0.61896 2.085943,-1.02319 0.539501,-0.40422 0.935461,-0.83354 1.188681,-1.28829 0.253231,-0.45476 0.435081,-0.84618 0.544981,-1.17461 l 8.496333,-25.3907 c 0.26138,-0.25264 0.678391,-0.6316 1.251681,-1.13688 0.598581,-0.50528 1.260242,-1.01039 1.985133,-1.51567 0.750151,-0.50528 1.517473,-0.94757 2.301144,-1.32653 0.792141,-0.40423 1.528862,-0.60617 2.210993,-0.60617 0.404221,0 0.724391,0.10123 0.959921,0.30335 0.244001,0.17684 0.416031,0.41668 0.516701,0.71985 0.10067,0.30317 0.13813,0.64423 0.11237,1.02319 -0.0173,0.35369 -0.0847,0.70723 -0.20308,1.06092 l -8.965463,26.79268 c -0.093,0.2779 -0.16529,0.6444 -0.2164,1.09916 -0.0511,0.45474 0.0409,0.89652 0.27614,1.32601 0.26051,0.42949 0.719291,0.79599 1.375752,1.09916 0.673281,0.32843 1.679492,0.49248 3.018484,0.49248 1.338992,0 2.450814,-0.15159 3.335445,-0.45476 0.876182,-0.2779 1.571213,-0.61896 2.085433,-1.02319 0.539491,-0.40422 0.935972,-0.83354 1.189192,-1.28829 0.25322,-0.45476 0.434561,-0.84618 0.544461,-1.17461 l 8.496332,-25.3907 c 0.261401,-0.25264 0.678911,-0.6316 1.252202,-1.13688 0.573311,-0.50528 1.222002,-1.01039 1.946893,-1.51567 0.750151,-0.50528 1.517472,-0.94757 2.301143,-1.32653 0.817401,-0.40423 1.567103,-0.60617 2.249234,-0.60617 0.40422,0 0.723871,0.10123 0.959401,0.30335 0.244,0.17684 0.40358,0.41668 0.478981,0.71985 0.10067,0.30317 0.13813,0.64423 0.11237,1.02319 -0.0173,0.35369 -0.0847,0.70723 -0.203081,1.06092 l -8.470912,25.31473 c -0.25362,0.75792 -0.35594,1.47795 -0.3063,2.16008 0.0581,0.65686 0.28058,1.23776 0.667311,1.74304 0.42044,0.48002 0.988741,0.85898 1.704202,1.13688 0.732261,0.30317 1.653873,0.45476 2.765484,0.45476 1.313722,0 2.556084,-0.20194 3.727176,-0.60617 1.187891,-0.37896 2.271063,-0.85915 3.248694,-1.44022 1.002882,-0.58107 1.900363,-1.18741 2.692794,-1.81901 0.800861,-0.65687 1.466642,-1.25023 1.997873,-1.78077 l -0.643211,-0.79582 c -0.44678,0.3537 -0.918601,0.70722 -1.415922,1.06092 -0.488861,0.32843 -0.973081,0.49248 -1.453102,0.49248 -0.35369,0 -0.619041,-0.0758 -0.795691,-0.22738 -0.15137,-0.15159 -0.23956,-0.34107 -0.26454,-0.56844 -0.0165,-0.25264 0.005,-0.50494 0.0639,-0.75758 0.0677,-0.2779 0.13986,-0.53072 0.21594,-0.75809 l 7.849431,-23.45748 c 0.371981,-1.11162 0.592491,-2.22359 0.661291,-3.3352 0.0941,-1.11161 -0.0268,-2.10938 -0.36253,-2.99362 -0.335711,-0.88423 -0.932652,-1.5918 -1.790953,-2.12235 -0.849841,-0.5558 -2.007473,-0.83354 -3.472795,-0.83354 -0.757911,0 -1.549712,0.10123 -2.375263,0.30334 -0.800282,0.20211 -1.625713,0.47984 -2.476724,0.83354 -0.817301,0.32844 -1.626242,0.7074 -2.426813,1.13689 -0.800592,0.42948 -1.554933,0.87178 -2.262904,1.32653 -1.694072,1.06109 -3.371535,2.26079 -5.032257,3.59978 0.20289,-0.60634 0.28791,-1.31339 0.25526,-2.12183 0.001,-0.83372 -0.19155,-1.61708 -0.577981,-2.34973 -0.37799,-0.75792 -0.996121,-1.40215 -1.854422,-1.9327 -0.858292,-0.53054 -2.020093,-0.79582 -3.485415,-0.79582 -0.757921,0 -1.549713,0.10123 -2.375264,0.30334 -0.825551,0.20211 -1.650982,0.47984 -2.476723,0.83354 -0.817302,0.32844 -1.639223,0.7074 -2.465064,1.13689 -0.800581,0.42948 -1.554922,0.87178 -2.262903,1.32653 -1.719323,1.06109 -3.396275,2.26079 -5.031728,3.59978 0.185981,-0.55581 0.363371,-1.23793 0.532841,-2.04639 0.20318,-0.8337 0.21719,-1.62953 0.0413,-2.38745 -0.17586,-0.75792 -0.629951,-1.40215 -1.361932,-1.9327 -0.723521,-0.5558 -1.906603,-0.83354 -3.548755,-0.83354 z m 71.017469,0 c -1.64216,0 -3.34392,0.17703 -5.10442,0.53072 -1.75207,0.32843 -3.40322,0.846 -4.95365,1.55339 -1.52518,0.7074 -2.87764,1.61691 -4.05807,2.72852 -1.17196,1.08635 -2.01603,2.40026 -2.53172,3.94136 -0.53259,1.59163 -0.53025,2.86764 0.007,3.82767 0.56298,0.96004 1.55233,1.43971 2.96711,1.43971 0.53056,0 1.06521,-0.0883 1.60439,-0.2651 0.57291,-0.20211 1.091,-0.46739 1.5546,-0.79582 0.49732,-0.35369 0.91899,-0.74511 1.26483,-1.1746 0.37955,-0.45475 0.65808,-0.9474 0.83562,-1.47795 0.27052,-0.80845 0.26731,-1.40233 -0.0101,-1.78129 -0.2437,-0.40422 -0.57209,-0.70739 -0.98447,-0.9095 -0.40394,-0.22737 -0.78231,-0.41686 -1.13581,-0.56844 -0.31978,-0.17685 -0.41632,-0.45458 -0.28952,-0.83354 0.10991,-0.32844 0.37563,-0.6695 0.79714,-1.0232 0.42998,-0.37896 0.96097,-0.72002 1.59295,-1.02319 0.63199,-0.30317 1.34785,-0.55598 2.14815,-0.75809 0.80028,-0.20212 1.62998,-0.30334 2.48895,-0.30334 1.8948,0 3.19552,0.56844 3.90144,1.70532 0.73965,1.11161 0.79622,2.60254 0.17062,4.47208 -0.40579,1.21267 -1.14413,2.39991 -2.21513,3.56205 -1.03729,1.13688 -2.38588,1.99603 -4.04563,2.57711 -2.23267,0.78318 -4.41466,1.52813 -6.54617,2.23552 -2.10625,0.70739 -4.07363,1.56654 -5.902372,2.5771 -1.795003,0.9853 -3.392215,2.21044 -4.792057,3.67575 -1.399832,1.46531 -2.484464,3.34766 -3.253765,5.64668 -0.634051,1.8948 -0.905551,3.4989 -0.814611,4.81263 0.11621,1.31372 0.47683,2.38779 1.082091,3.22151 0.638971,0.80844 1.463622,1.40181 2.473694,1.78077 1.010071,0.37896 2.121453,0.56844 3.334125,0.56844 0.934771,0 1.890443,-0.10071 2.867575,-0.30283 1.0024,-0.20211 2.03432,-0.53071 3.096,-0.98547 1.06169,-0.45474 2.14501,-1.04862 3.24914,-1.78128 1.12941,-0.73266 2.27993,-1.64217 3.45189,-2.72852 -0.28045,1.97059 0.0374,3.43608 0.95413,4.39612 0.92515,0.93476 2.18395,1.40198 3.77558,1.40198 1.28846,0 2.50121,-0.18948 3.63859,-0.56844 1.13737,-0.37896 2.17778,-0.84618 3.12169,-1.40199 0.9439,-0.5558 1.78686,-1.14968 2.52876,-1.78128 0.74189,-0.6316 1.39103,-1.2125 1.94752,-1.74305 l -0.68092,-0.79581 c -0.42153,0.35369 -0.89336,0.70722 -1.41594,1.06091 -0.48886,0.32844 -0.96079,0.493 -1.41554,0.493 -0.37896,0 -0.6443,-0.0758 -0.79569,-0.22738 -0.1514,-0.15158 -0.23957,-0.34106 -0.26455,-0.56844 -0.025,-0.22737 -0.004,-0.48019 0.064,-0.75809 0.0677,-0.2779 0.13987,-0.53072 0.21596,-0.7581 l 7.16466,-21.41109 c 0.68477,-2.04639 0.85122,-3.78961 0.49939,-5.22966 -0.32658,-1.44004 -1.02829,-2.62728 -2.10501,-3.56206 -1.05146,-0.93476 -2.40239,-1.6169 -4.05242,-2.04638 -1.65002,-0.42949 -3.45994,-0.64441 -5.43054,-0.64441 z m 34.10649,0 c -1.46531,0 -2.96048,0.20195 -4.48526,0.60617 -1.49107,0.37896 -2.91077,0.96037 -4.25919,1.74356 -1.32316,0.78319 -2.51202,1.76849 -3.56621,2.95589 -1.02895,1.18741 -1.80943,2.57659 -2.34203,4.16822 -0.47341,1.41478 -0.6143,2.77904 -0.42231,4.09278 0.192,1.31372 0.56084,2.58974 1.10663,3.82767 0.54579,1.23793 1.17984,2.43815 1.90256,3.6003 0.72274,1.16214 1.38283,2.28605 1.97934,3.3724 0.59652,1.08635 1.03728,2.14744 1.32225,3.18327 0.29345,1.01056 0.27937,1.99586 -0.0419,2.95589 -0.57486,1.71795 -1.59126,3.0194 -3.04929,3.90364 -1.44958,0.85898 -3.08418,1.28829 -4.90318,1.28829 -0.73266,0 -1.41464,-0.11368 -2.04595,-0.34106 -0.62284,-0.25264 -1.18638,-0.56827 -1.69119,-0.94723 -0.47953,-0.37896 -0.90019,-0.78336 -1.26175,-1.21285 -0.35311,-0.45475 -0.63048,-0.87161 -0.8321,-1.25057 l -1.64349,0.94723 c 0.20968,0.65687 0.57074,1.38987 1.0834,2.19832 0.51265,0.80844 1.18981,1.57882 2.031,2.31148 0.8749,0.70739 1.93504,1.31374 3.18076,1.81901 1.25415,0.48002 2.75309,0.71986 4.4963,0.71986 1.99587,0 3.88684,-0.2523 5.67282,-0.75758 1.8197,-0.53055 3.4625,-1.28847 4.92908,-2.27376 1.49185,-0.98529 2.77806,-2.18551 3.85782,-3.6003 1.10502,-1.41478 1.96176,-3.03186 2.57044,-4.85087 0.54105,-1.61689 0.68179,-3.13274 0.42256,-4.54752 -0.23398,-1.41478 -0.68668,-2.74115 -1.35878,-3.97909 -0.6384,-1.2632 -1.40344,-2.45044 -2.29468,-3.56205 -0.8575,-1.13688 -1.65625,-2.22341 -2.39599,-3.25924 -0.70602,-1.06108 -1.26451,-2.0713 -1.67591,-3.03134 -0.3777,-0.98529 -0.40204,-1.9706 -0.0723,-2.95589 0.23671,-0.70739 0.5533,-1.31373 0.94976,-1.81901 0.4049,-0.53054 0.86488,-0.96038 1.379,-1.28881 0.52258,-0.35369 1.06176,-0.60599 1.61776,-0.75757 0.58129,-0.15158 1.16211,-0.22738 1.74318,-0.22738 1.18741,0 2.08851,0.2144 2.70271,0.64389 0.62266,0.40422 0.81557,0.96021 0.57886,1.6676 -0.0761,0.22738 -0.27861,0.41686 -0.60724,0.56844 -0.29491,0.12632 -0.63999,0.29036 -1.03605,0.49247 -0.38761,0.17685 -0.77121,0.4172 -1.15057,0.72037 -0.35408,0.30317 -0.62023,0.72003 -0.79777,1.25057 -0.27052,0.80845 -0.20785,1.45269 0.18734,1.9327 0.4289,0.45475 1.18652,0.68213 2.27288,0.68213 1.13688,0 2.13942,-0.35404 3.00773,-1.06143 0.86832,-0.7074 1.46293,-1.54111 1.78418,-2.50114 0.41424,-1.23794 0.49991,-2.32395 0.2569,-3.25872 -0.21775,-0.93477 -0.73017,-1.70566 -1.53784,-2.312 -0.77395,-0.6316 -1.80538,-1.09882 -3.09344,-1.40198 -1.28807,-0.30317 -2.77812,-0.45476 -4.47082,-0.45476 z m -38.95513,17.77308 c 0.6316,0 1.09461,0.16456 1.38894,0.49299 0.29432,0.32843 0.33575,0.80811 0.1244,1.43971 l -3.09426,9.24698 c -0.21981,0.65686 -0.5657,1.31356 -1.03814,1.97042 -0.47245,0.65687 -1.01223,1.25075 -1.61926,1.78129 -0.60702,0.53054 -1.25996,0.97232 -1.95938,1.32601 -0.69096,0.32844 -1.36535,0.493 -2.02222,0.493 -0.53056,0 -0.99763,-0.11369 -1.40155,-0.34107 -0.40392,-0.22738 -0.70209,-0.61931 -0.89507,-1.17512 -0.15926,-0.58107 -0.19218,-1.35146 -0.0983,-2.31149 0.11913,-0.96003 0.42369,-2.17271 0.91402,-3.63802 0.50723,-1.51584 1.12808,-2.8422 1.86222,-3.97908 0.74257,-1.16215 1.54831,-2.13499 2.41671,-2.91817 0.86841,-0.78319 1.76156,-1.37655 2.68,-1.78077 0.94371,-0.40423 1.85765,-0.60668 2.74189,-0.60668 z"
       sodipodi:nodetypes="scccscccsccscscssscscccscccscccscccscccccssccccccccsccsscssccccscccscscscccccccccccscccscccsccccsccccccscccccsccccssscsscccssscsssccccsscscsccscccssssccsccccsccssssscccsscccsscsccscccccsccccscsscsccccsccssssscccsscccsscsccscccccsccccsccccccccccssccscssscscscccssccscscsccsscccscccscsccsscscccccccssssscsccccccscccsssscccccscscsccsccccccccscccsccscccscssscssscccccscccsssccsscccssccccccssscsccsccscsssccscccscccscccsscccscccscccscscscscccccssccsccccccsscccscscccscssccssccccsscccsscscsscsccscccccsccccscsscsccccsccccssscccssccccscscscsccccssscccssssscscscccccsccscccscccccscccscscccscsssccsssssscccsscccsscsccssccccscscccsccsccsscsccsccccccccsccccccsccccccscsccsccccssscccccscssccccscscccscccscssscsccccssccsscscccsssscccsssccsccsccscccssssscscscccccsccscccscccccscccscscccscsssccssssssssscssccscscs" />
  </g>
</svg>
