<?xml version="1.0" encoding="UTF-8" standalone="no"?>
<!-- Created with Inkscape (http://www.inkscape.org/) -->

<svg
   width="210mm"
   height="297mm"
   viewBox="0 0 210 297"
   version="1.1"
   id="svg1"
   sodipodi:docname="arabic numerals 45.svg"
   inkscape:version="1.3 (0e150ed6c4, 2023-07-21)"
   xmlns:inkscape="http://www.inkscape.org/namespaces/inkscape"
   xmlns:sodipodi="http://sodipodi.sourceforge.net/DTD/sodipodi-0.dtd"
   xmlns="http://www.w3.org/2000/svg"
   xmlns:svg="http://www.w3.org/2000/svg">
  <sodipodi:namedview
     id="namedview1"
     pagecolor="#ffffff"
     bordercolor="#000000"
     borderopacity="0.25"
     inkscape:showpageshadow="2"
     inkscape:pageopacity="0.0"
     inkscape:pagecheckerboard="0"
     inkscape:deskcolor="#d1d1d1"
     inkscape:document-units="mm"
     inkscape:zoom="4"
     inkscape:cx="136.75"
     inkscape:cy="56.125"
     inkscape:window-width="2560"
     inkscape:window-height="1369"
     inkscape:window-x="-8"
     inkscape:window-y="-8"
     inkscape:window-maximized="1"
     inkscape:current-layer="layer1" />
  <defs
     id="defs1" />
  <g
     inkscape:label="Layer 1"
     inkscape:groupmode="layer"
     id="layer1">
    <path
       id="path218"
       style="font-size:5.29167px;font-family:'Kingthings Gothique';-inkscape-font-specification:'Kingthings Gothique';opacity:0.4;fill:#1a1a1a;stroke-width:0.264583"
       d="m -1.7358954,-1.8923283 q 0.01809,0.7570602 -0.847494,2.5941585 l 0.06976,0.1266073 1.080038,-0.00775 q -0.02067,0.4702566 -0.100769,0.8087376 l 0.03876,0.09302 0.61494996,-0.198955 -0.0026,-0.361734 -0.0026,-0.3358979 q 0.643372,0.023254 0.661459,-0.1912029 0.02067,-0.2144573 0.14211,-0.4960941 l -0.103353,-0.051676 q -0.28422,0.1369426 -0.697632,0.093018 l -0.0026,-0.715719 -0.03876,-0.1059368 -0.61494996,0.2945559 q 0.12144,0.1007691 0.100769,0.5064293 l -0.444418,0.010335 q 0.661459,-1.007691 0.98960496,-2.2840997 l -0.0956,-0.046509 z m 0.260967,0.072347 q 0.07235,-0.036174 0.160197,0.00517 0.09043,0.038757 0.113688,0.1188559 0.02584,0.080099 -0.01292,0.1550294 -0.03876,0.074931 -0.105937,0.1059367 -0.06718,0.028422 -0.147278,0 -0.07751,-0.031006 -0.116272,-0.1111044 -0.03617,-0.080099 0,-0.1576132 0.03876,-0.080099 0.108521,-0.116272 z m 0.57877596,3.3538024 q 0.227376,0.421163 0.113688,0.558106 -0.113688,0.139526 -0.22995996,-0.0026 -0.116272,-0.14211 0.11627196,-0.555522 z M -1.8056624,0.484789 q 0.661459,-0.3255617 1.25573796,-0.00775 -0.60719796,0.3255617 -1.25573796,0.00775 z m 0.64854,-0.627869 q 0.32556096,0.6614587 0.0078,1.2557381 -0.325561,-0.6071985 -0.0078,-1.2557381 z m -1.214397,0.7363896 q 0.0155,-0.010335 0.03617,0 0.02325,0.00775 0.02842,0.028422 0.0078,0.02067 -0.0026,0.038757 -0.01034,0.015503 -0.02584,0.023254 -0.0155,0.00775 -0.03359,0 -0.01809,-0.00775 -0.02842,-0.025838 -0.0078,-0.020671 0,-0.038757 0.01034,-0.018087 0.02584,-0.025838 z m 1.2299,0.5736085 q 0.105936,0.206706 0.04909,0.273886 -0.05684,0.06718 -0.113688,-0.0052 -0.05426,-0.06976 0.0646,-0.268718 z m -0.826824,-1.4960334 q 0.03876,-0.02067 0.08785,0.00258 0.04909,0.023254 0.06201,0.067179 0.01292,0.043925 -0.01034,0.085266 -0.02067,0.041341 -0.05684,0.056844 -0.03617,0.015503 -0.0801,0 -0.04134,-0.015503 -0.06201,-0.059428 -0.02067,-0.046509 0,-0.08785 0.02067,-0.043925 0.05943,-0.064596 z m 0.3514,-0.935344 q 0.06201,-0.031006 0.139527,0.00517 0.07751,0.03359 0.09818,0.1033529 0.02067,0.069763 -0.01292,0.1343588 -0.03359,0.064596 -0.09302,0.090434 -0.05684,0.025838 -0.126607,0 -0.06718,-0.025838 -0.100769,-0.095601 -0.03101,-0.069763 0,-0.1369426 0.03359,-0.069763 0.0956,-0.1007692 z m -0.519348,1.2944955 q 0.03101,-0.018087 0.07235,0 0.04134,0.015503 0.05168,0.051676 0.01292,0.03359 -0.0026,0.067179 -0.0155,0.03359 -0.04393,0.049093 -0.02842,0.012919 -0.0646,0.00258 -0.03359,-0.010335 -0.05426,-0.046509 -0.01809,-0.036174 -0.0026,-0.069763 0.0155,-0.036174 0.04393,-0.05426 z m 0.348816,-0.7958176 q 0.05168,-0.025838 0.116272,0.00517 0.06718,0.028422 0.08268,0.08785 0.01809,0.056844 -0.01033,0.1111044 -0.02842,0.05426 -0.07752,0.074931 -0.04909,0.020671 -0.105936,0 -0.05426,-0.020671 -0.08268,-0.080099 -0.02584,-0.059428 0,-0.116272 0.02842,-0.056844 0.07751,-0.082682 z m -0.459921,1.111044 q 0.02325,-0.012919 0.05168,0 0.02842,0.012919 0.03617,0.038757 0.0078,0.025838 -0.0052,0.049093 -0.01292,0.023254 -0.03359,0.03359 -0.02067,0.00775 -0.04651,0 -0.02325,-0.010335 -0.03617,-0.036174 -0.01034,-0.025838 0,-0.049093 0.01292,-0.025838 0.03359,-0.036174 z M 0.75490356,-2.101618 q -0.180868,0.2842206 -0.413412,0.4159956 l -0.14211,1.1187954 0.07235,0.05426 q 0.400493,-0.1576132 0.622702,-0.1472779 0.22479204,0.010335 0.50384504,0.2635499 0.279053,0.2532147 0.421163,0.6123661 0.144694,0.3591514 -0.06459,0.4883426 -0.20929,0.1291912 -0.56069,-0.012919 -0.34881604,-0.1421103 -0.51676504,-0.3514 -0.165364,-0.2118735 -0.0801,-0.4857587 l -0.12144,-0.056844 -0.40566,0.5710249 q -0.108521,0.2454632 0.0646,0.4650882 0.175699,0.2170411 0.348816,0.333313 0.1757,0.113688 0.457336,0.183452 0.28163704,0.06976 0.53485204,-0.07493 0.253214,-0.147278 0.444417,-0.3333135 0.193787,-0.1860352 0.400493,-0.5090131 0.20929,-0.3255617 -0.0078,-0.8061529 -0.214419,-0.480592 -0.462466,-0.6485405 -0.248047,-0.1705323 -0.529684,-0.1550294 -0.279053,0.015503 -0.62786904,0.1214397 l 0.05943,-0.4883426 1.07745504,0.015503 q 0.03359,0.3333132 0.14211,0.4444176 0.10852,0.1085205 0.248047,0.077515 0.14211,-0.03359 0.149862,-0.2092897 -0.03876,-0.1162721 -0.07752,-0.1188559 l -0.05426,0.043925 q 0.06201,0.064596 0.05168,0.131775 -0.0078,0.067179 -0.103353,0.077515 -0.0956,0.00775 -0.1757,-0.085266 -0.07751,-0.095601 -0.04651,-0.2971396 0.222209,-0.43925 0.485759,-0.5813602 l -0.03617,-0.080099 z m -0.19637,0.3849897 0.03876,0.511597 -0.160197,0.5193484 -0.03359,-0.540019 z m 1.43660504,-0.08785 q -0.612366,0.2945558 -1.16013604,-0.00517 0.56327304,-0.2945559 1.16013604,0.00517 z M 0.30531856,0.3194244 q 0.07235,-0.036174 0.160197,0.00517 0.09043,0.038757 0.113688,0.1188559 0.02584,0.080098 -0.01292,0.1550294 -0.03876,0.074931 -0.105937,0.1059367 -0.06718,0.028422 -0.147278,0 -0.07751,-0.031006 -0.116272,-0.1111044 -0.03617,-0.080099 0,-0.1576132 0.03876,-0.080099 0.108521,-0.116272 z M 2.4318046,-2.0370224 q 0.227377,0.4211632 0.113689,0.5606897 -0.113689,0.1369426 -0.229961,-0.00517 -0.116272,-0.1421103 0.116272,-0.555522 z m -1.297079,1.2531543 q 0.291972,-0.1421103 0.555522,-0.00258 -0.268718,0.1446941 -0.555522,0.00258 z m 0.286804,-0.2764691 q 0.144695,0.291972 0.0026,0.555522 -0.14211,-0.2687176 -0.0026,-0.555522 z m 1.036114,-0.7260543 q -0.105937,0.204122 -0.04651,0.2738852 0.06201,0.067179 0.113688,-0.00258 0.05168,-0.072347 -0.06718,-0.2713014 z m -1.03353,2.6975114 q 0.03876,-0.020671 0.08785,0.00258 0.04909,0.023254 0.06201,0.067179 0.01292,0.043925 -0.01033,0.085266 -0.02067,0.041341 -0.05684,0.056844 -0.03617,0.0155 -0.0801,0 -0.04134,-0.0155 -0.06201,-0.059428 -0.02067,-0.046509 0,-0.08785 0.02067,-0.043925 0.05943,-0.064596 z M 0.64121556,0.6966625 q 0.06201,-0.031006 0.139526,0.00517 0.07751,0.03359 0.09819,0.1033529 0.02067,0.069763 -0.01292,0.1343588 -0.03359,0.064596 -0.09302,0.090434 -0.05684,0.025838 -0.126607,0 -0.06718,-0.025838 -0.10077,-0.095601 -0.03101,-0.069763 0,-0.1369427 0.03359,-0.069763 0.0956,-0.1007691 z M 2.0804046,0.1954008 q 0.03101,-0.018087 0.07235,0 0.04134,0.015503 0.05168,0.051676 0.01292,0.03359 -0.0026,0.067179 -0.0155,0.03359 -0.04393,0.049093 -0.02842,0.012919 -0.0646,0.00258 -0.03359,-0.010335 -0.05426,-0.046509 -0.01809,-0.036174 -0.0026,-0.069763 0.0155,-0.036173 0.04393,-0.05426 z m -1.025777,0.6898808 q 0.05168,-0.025838 0.116272,0.00517 0.06718,0.028422 0.08268,0.08785 0.01809,0.056844 -0.01033,0.1111045 -0.02842,0.05426 -0.07751,0.07493 -0.04909,0.02067 -0.105937,0 -0.05426,-0.02067 -0.08268,-0.0801 -0.02584,-0.059428 0,-0.1162718 0.02842,-0.056844 0.07751,-0.082682 z m 0.217041,-2.8086158 q 0.134359,-0.03359 0.297139,-0.00517 0.0026,0.08785 -0.02584,0.1421103 -0.02584,0.051676 -0.07493,0.074931 -0.04651,0.020671 -0.103353,0 -0.05426,-0.023254 -0.08268,-0.080099 -0.02584,-0.056844 -0.01033,-0.131775 z m 0.268717,1.3461719 q 0.291972,-0.1446941 0.555522,-0.00517 -0.268717,0.1446941 -0.555522,0.00517 z m 0.286805,-0.2790529 q 0.144694,0.291972 0.0026,0.555522 -0.142111,-0.2687176 -0.0026,-0.555522 z m -0.124024,0.7389734 q 0.291972,-0.1421102 0.555522,-0.00258 -0.268717,0.1446941 -0.555522,0.00258 z m 0.286805,-0.276469 q 0.144694,0.291972 0.0026,0.5555219 -0.14211,-0.2687176 -0.0026,-0.5555219 z M 0.95902556,-0.990574 q 0.03101,-0.018087 0.07235,0 0.04134,0.015503 0.05168,0.051677 0.01292,0.03359 -0.0026,0.067179 -0.0155,0.03359 -0.04393,0.049093 -0.02842,0.012919 -0.0646,0.00258 -0.03359,-0.010335 -0.05426,-0.046509 -0.01809,-0.036174 -0.0026,-0.069763 0.0155,-0.036173 0.04393,-0.05426 z M 1.6979996,0.8129346 q 0.03101,-0.018087 0.07235,0 0.04134,0.015503 0.05168,0.051676 0.01292,0.03359 -0.0026,0.067179 -0.0155,0.03359 -0.04393,0.049093 -0.02842,0.012919 -0.06459,0.00258 -0.03359,-0.010335 -0.05426,-0.046509 -0.01809,-0.036174 -0.0026,-0.069763 0.0155,-0.036174 0.04392,-0.05426 z" />
  </g>
</svg>
