<?xml version="1.0" encoding="UTF-8" standalone="no"?>
<!-- Created with Inkscape (http://www.inkscape.org/) -->

<svg
   width="210mm"
   height="297mm"
   viewBox="0 0 210 297"
   version="1.1"
   id="svg1"
   sodipodi:docname="arabic numerals.svg"
   inkscape:version="1.3 (0e150ed6c4, 2023-07-21)"
   xmlns:inkscape="http://www.inkscape.org/namespaces/inkscape"
   xmlns:sodipodi="http://sodipodi.sourceforge.net/DTD/sodipodi-0.dtd"
   xmlns="http://www.w3.org/2000/svg"
   xmlns:svg="http://www.w3.org/2000/svg">
  <sodipodi:namedview
     id="namedview1"
     pagecolor="#ffffff"
     bordercolor="#000000"
     borderopacity="0.25"
     inkscape:showpageshadow="2"
     inkscape:pageopacity="0.0"
     inkscape:pagecheckerboard="0"
     inkscape:deskcolor="#d1d1d1"
     inkscape:document-units="mm"
     inkscape:zoom="2.8284273"
     inkscape:cx="35.885667"
     inkscape:cy="0.35355337"
     inkscape:window-width="2560"
     inkscape:window-height="1392"
     inkscape:window-x="0"
     inkscape:window-y="0"
     inkscape:window-maximized="1"
     inkscape:current-layer="layer1"
     showgrid="false" />
  <defs
     id="defs1" />
  <g
     inkscape:label="Layer 1"
     inkscape:groupmode="layer"
     id="layer1">
    <path
       id="text14"
       style="font-size:5.29167px;font-family:'Kingthings Italique';-inkscape-font-specification:'Kingthings Italique';opacity:0.4;fill:#1a1a1a;stroke-width:0.264583"
       d="m -0.70476848,-48.356479 q -0.31264262,0.325561 -0.52968372,0.831991 -0.2170412,0.503845 -0.2661338,0.808736 -0.049093,0.302308 -0.012919,0.627869 0.036173,0.325562 0.1188558,0.573609 0.085266,0.245463 0.54518672,0.870749 0.48317493,-0.738974 0.58394403,-1.049033 0.10076911,-0.310058 0.0620118,-0.620117 -0.0361735,-0.312643 -0.18861909,-0.503846 -0.14986174,-0.193786 -0.24804703,-0.268717 l -0.50126173,0.837158 q -0.098185,-0.51418 0.03359,-1.095541 0.13177502,-0.583944 0.46767203,-0.968933 z m -0.15761322,1.83193 q 0.17053233,0.152446 0.26613379,0.377239 0.0956015,0.222208 0.0775147,0.475423 -0.0155029,0.250631 -0.16278086,0.447001 -0.13952645,-0.165364 -0.2454632,-0.413411 -0.10593673,-0.250631 -0.16794853,-0.493511 z m 1.60972181,-1.54771 q -1.09812485,1.304831 -0.77773077,2.136822 0.32297789,0.829407 0.72863813,1.240235 0.56844113,-1.064535 0.72605433,-1.45986 0.160197,-0.397909 0.074931,-0.883667 -0.082682,-0.485759 -0.75189269,-1.03353 z m -0.22479262,0.545187 q 0.87074841,0.622701 0.49351021,1.935284 l -0.16278084,0.312642 q -0.9585984,-1.268657 -0.33072937,-2.247926 z m -0.1343588,0.945679 q 0.20153821,0.193787 0.24804702,0.415996 l 0.3565676,-0.325562 Q 0.88428274,-46.806185 0.72925335,-46.93796 Z m -24.59839469,4.60848 -0.400493,0.532268 v 1.361675 l 0.08268,0.03101 q 0.105936,-0.196371 0.387573,-0.459921 0.397909,0.56069 0.408244,0.84491 0.01034,0.281637 -0.103353,0.532268 -0.116272,-0.188619 -0.322978,-0.320394 -0.204122,-0.134359 -0.180867,-0.374655 l 0.14211,-0.160197 -0.06718,-0.06976 -0.490927,0.602031 q 0,0.322978 0.258383,0.524516 0.258382,0.198954 0.299723,0.361735 0.180868,-0.14211 0.545187,-0.700216 0.364319,-0.558106 0.348816,-0.826823 -0.01292,-0.271302 -0.149862,-0.403077 -0.134359,-0.134358 -0.188619,-0.266133 -0.05168,-0.131775 -0.02584,-0.353984 l -0.638204,0.658875 -0.0026,-0.971518 h 0.607198 l 0.356568,-0.472839 -0.03101,-0.06976 z m 1.558045,0 -0.400492,0.532268 v 1.361675 l 0.08268,0.03101 q 0.105937,-0.196371 0.387574,-0.459921 0.397908,0.56069 0.408244,0.84491 0.01034,0.281637 -0.103353,0.532268 -0.116272,-0.188619 -0.322978,-0.320394 -0.204122,-0.134359 -0.180868,-0.374655 l 0.142111,-0.160197 -0.06718,-0.06976 -0.490926,0.602031 q 0,0.322978 0.258382,0.524516 0.258382,0.198954 0.299724,0.361735 0.180867,-0.14211 0.545186,-0.700216 0.364319,-0.558106 0.348816,-0.826823 -0.01292,-0.271302 -0.149861,-0.403077 -0.134359,-0.134358 -0.18862,-0.266133 -0.05168,-0.131775 -0.02584,-0.353984 l -0.638204,0.658875 -0.0026,-0.971518 h 0.607199 l 0.356567,-0.472839 -0.03101,-0.06976 z m -18.676701,17.020165 -0.400493,0.532267 v 1.361675 l 0.08268,0.03101 q 0.105936,-0.19637 0.387573,-0.45992 0.397909,0.560689 0.408244,0.84491 0.01034,0.281637 -0.103353,0.532267 -0.116272,-0.188619 -0.322978,-0.320394 -0.204122,-0.134358 -0.180867,-0.374654 l 0.14211,-0.160197 -0.06718,-0.06976 -0.490927,0.60203 q 0,0.322978 0.258382,0.524517 0.258383,0.198954 0.299724,0.361735 0.180868,-0.14211 0.545187,-0.700216 0.364319,-0.558106 0.348816,-0.826824 -0.01292,-0.271301 -0.149862,-0.403076 -0.134359,-0.134359 -0.188619,-0.266134 -0.05168,-0.131775 -0.02584,-0.353984 l -0.638205,0.658875 -0.0026,-0.971517 h 0.607198 l 0.356568,-0.47284 -0.03101,-0.06976 z m 1.881023,0 q -1.098125,1.304831 -0.777731,2.136822 0.322978,0.829407 0.728638,1.240235 0.568442,-1.064535 0.726055,-1.45986 0.160197,-0.397909 0.07493,-0.883668 -0.08268,-0.485759 -0.751893,-1.033529 z m -0.224792,0.545187 q 0.870748,0.622701 0.49351,1.935283 l -0.162781,0.312643 q -0.958599,-1.268657 -0.330729,-2.247926 z m -0.134359,0.945679 q 0.201538,0.193787 0.248047,0.415995 l 0.356567,-0.325561 q -0.10852,-0.315227 -0.26355,-0.447002 z m -7.693264,22.1376727 q -0.421163,2.32027317 -0.620118,2.5011408 l 0.07235,0.082682 q 0.105936,-0.2299602 0.72347,-0.1756999 v 0.2092896 l -0.421163,0.4935103 0.780314,-0.00517 0.436667,-0.5219323 -0.07751,-0.038757 q -0.20929,0.1524456 -0.573609,0.090434 0.186035,-0.1111044 0.219625,-0.2377117 h 0.403076 l 0.281637,-0.57102495 -0.03617,-0.0620118 q -0.268718,0.17311615 -0.635621,0.15502939 v -0.72088666 q -0.04393,-0.29972349 0.124024,-0.52968375 l -0.02842,-0.0620118 -0.493511,0.6020308 0.0052,0.72605431 -0.346232,-0.002584 q 0.555522,-2.18591444 0.798401,-2.36161444 l -0.02067,-0.080099 z m 1.713075,-0.2480471 -0.400493,0.5322676 v 1.36167483 l 0.08268,0.0310059 q 0.105936,-0.19637056 0.387573,-0.45992052 0.397909,0.56068963 0.408244,0.84491018 0.01033,0.28163671 -0.103353,0.53226751 Q -45.528797,1.08133 -45.735503,0.94955506 -45.939625,0.81519625 -45.91637,0.5749007 l 0.14211,-0.16019704 -0.06718,-0.0697632 -0.490927,0.60203079 q 0,0.32297785 0.258382,0.52451605 0.258383,0.1989544 0.299724,0.3617353 0.180868,-0.1421103 0.545187,-0.7002161 0.364319,-0.55810578 0.348816,-0.82682339 -0.01292,-0.27130143 -0.149862,-0.40307642 -0.134359,-0.1343588 -0.188619,-0.26613378 -0.05168,-0.13177498 -0.02584,-0.35398378 l -0.638205,0.65887491 -0.0026,-0.97151754 h 0.607198 l 0.356568,-0.4728396 -0.03101,-0.069763 z m 4.41828,23.5122374 q -0.421163,2.320273 -0.620117,2.501141 l 0.07235,0.08268 q 0.105937,-0.22996 0.72347,-0.1757 v 0.20929 l -0.421163,0.49351 0.780315,-0.0052 0.436666,-0.521932 -0.07751,-0.03876 q -0.20929,0.152445 -0.573609,0.09043 0.186036,-0.111104 0.219625,-0.237711 h 0.403077 l 0.281636,-0.571025 -0.03617,-0.06201 q -0.268718,0.173116 -0.635621,0.155029 v -0.720886 q -0.04393,-0.299724 0.124024,-0.529684 l -0.02842,-0.06201 -0.49351,0.602031 0.0052,0.726054 -0.346232,-0.0026 q 0.555522,-2.185915 0.798401,-2.361615 l -0.02067,-0.0801 z m 2.036053,-0.248047 q -1.098125,1.304831 -0.777731,2.136822 0.322978,0.829407 0.728638,1.240235 0.568441,-1.064535 0.726055,-1.45986 0.160197,-0.397909 0.07493,-0.883668 -0.08268,-0.485759 -0.751893,-1.033529 z m -0.224793,0.545187 q 0.870749,0.622701 0.493511,1.935283 l -0.162781,0.312643 q -0.958599,-1.268657 -0.33073,-2.247926 z m -0.134358,0.945679 q 0.201538,0.193787 0.248047,0.415995 l 0.356567,-0.325561 q -0.10852,-0.315227 -0.26355,-0.447002 z m 15.360349,15.37688 -0.503846,0.664043 0.06718,0.05684 0.180867,-0.222209 h 0.780315 l -0.661459,0.894003 0.08268,0.03101 q 0.175699,-0.224793 0.431498,-0.07493 0.255798,0.149862 0.387573,0.578776 0.131775,0.428915 -0.25063,0.91209 -0.116272,-0.689881 -0.571025,-1.17564 l -0.421163,0.509013 q 0.441833,0.289389 0.738973,1.255739 0.498678,-0.731222 0.715719,-1.0542 0.219625,-0.325562 0.147278,-0.795818 -0.0646,-0.506429 -0.661459,-0.793234 l 0.563274,-0.788066 z m 1.759583,-0.0078 -0.400492,0.532267 v 1.361675 l 0.08268,0.03101 q 0.105937,-0.196371 0.387574,-0.459921 0.397908,0.56069 0.408244,0.844911 0.01033,0.281636 -0.103353,0.532267 -0.116272,-0.188619 -0.322978,-0.320394 -0.204122,-0.134359 -0.180868,-0.374654 l 0.142111,-0.160197 -0.06718,-0.06976 -0.490926,0.60203 q 0,0.322978 0.258382,0.524516 0.258382,0.198955 0.299724,0.361736 0.180867,-0.142111 0.545186,-0.700216 0.364319,-0.558106 0.348816,-0.826824 -0.01292,-0.271301 -0.149861,-0.403076 -0.134359,-0.134359 -0.18862,-0.266134 -0.05168,-0.131775 -0.02584,-0.353984 l -0.638204,0.658875 -0.0026,-0.971517 h 0.607199 l 0.356567,-0.47284 -0.03101,-0.06976 z m 21.3919514,6.237617 -0.5038456,0.664042 0.067179,0.05684 0.1808677,-0.222208 h 0.78031456 l -0.66145876,0.894002 0.082682,0.03101 q 0.1756999,-0.224792 0.43149844,-0.07493 0.25579849,0.149862 0.38757347,0.578777 0.13177498,0.428914 -0.25063085,0.912089 -0.11627204,-0.68988 -0.57102496,-1.175639 l -0.4211631,0.509013 q 0.4418337,0.289388 0.73897339,1.255738 0.49867787,-0.731222 0.71571902,-1.0542 0.21962497,-0.325562 0.14727792,-0.795817 -0.06459558,-0.50643 -0.66145873,-0.793234 l 0.56327345,-0.788066 z m 2.08256144,-0.0078 q -1.09812484,1.304831 -0.77773077,2.136822 0.3229779,0.829407 0.72863813,1.240235 0.5684411,-1.064535 0.7260543,-1.45986 0.1601971,-0.397909 0.074931,-0.883668 -0.082682,-0.48571 -0.75189266,-1.033481 z M 0.67765523,45.326932 Q 1.5484036,45.949633 1.1711655,47.262215 L 1.0083846,47.574858 Q 0.0497862,46.306201 0.67765523,45.326932 Z m -0.13435881,0.945679 q 0.20153821,0.193787 0.24804703,0.415996 L 1.147911,46.363045 Q 1.0393905,46.047819 0.88436108,45.916044 Z M 22.598106,38.545479 q -0.560689,0.555522 -0.720886,0.940512 -0.160197,0.38499 -0.05426,0.705384 0.108521,0.31781 0.382406,0.480591 l 0.299724,-0.454753 q -0.664043,-0.594279 -0.152446,-1.216981 0.255799,0.260966 0.408244,0.775147 0.152446,0.514181 -1.018026,2.172995 l 0.958598,-0.0052 0.496094,-0.609782 -0.8785,-0.0052 q 0.788066,-0.956015 0.883668,-1.49345 0.09819,-0.540019 -0.604615,-1.289328 z m 1.201478,0.04393 -0.400493,0.532268 v 1.361675 l 0.08268,0.03101 q 0.105937,-0.196371 0.387573,-0.459921 0.397909,0.56069 0.408244,0.84491 0.01034,0.281637 -0.103353,0.532268 Q 24.057963,41.243 23.851258,41.111225 23.647135,40.976866 23.67039,40.73657 l 0.14211,-0.160197 -0.06718,-0.06976 -0.490927,0.602031 q 0,0.322978 0.258383,0.524516 0.258382,0.198954 0.299723,0.361735 0.180868,-0.14211 0.545187,-0.700216 0.364319,-0.558106 0.348816,-0.826823 -0.01292,-0.271302 -0.149862,-0.403077 -0.134359,-0.134358 -0.188619,-0.266133 -0.05168,-0.131775 -0.02584,-0.353984 l -0.638204,0.658875 -0.0026,-0.971518 h 0.607198 l 0.356568,-0.472839 -0.03101,-0.06976 z M 39.544821,21.539507 q -0.56069,0.555522 -0.720887,0.940512 -0.160197,0.38499 -0.05426,0.705384 0.10852,0.31781 0.382406,0.480591 l 0.299723,-0.454753 q -0.664042,-0.594279 -0.152445,-1.216981 0.255798,0.260966 0.408244,0.775147 0.152445,0.514181 -1.018027,2.172996 l 0.958599,-0.0052 0.496094,-0.609782 -0.8785,-0.0052 q 0.788066,-0.956015 0.883667,-1.49345 0.09819,-0.540019 -0.604614,-1.289328 z m 1.524455,0.04392 q -1.098124,1.304831 -0.77773,2.136822 0.322977,0.829407 0.728638,1.240235 0.568441,-1.064535 0.726054,-1.45986 0.160197,-0.397909 0.07493,-0.883667 -0.08268,-0.485759 -0.751893,-1.03353 z m -0.224792,0.545187 q 0.870748,0.622701 0.49351,1.935284 l -0.162781,0.312642 q -0.958598,-1.268657 -0.330729,-2.247926 z m -0.134359,0.945679 q 0.201538,0.193787 0.248047,0.415996 l 0.356568,-0.325562 q -0.108521,-0.315226 -0.26355,-0.447001 z m 5.346434,-24.7460266 -0.06718,-0.046509 -0.713135,0.74672494 0.07493,0.0361735 0.219625,-0.21445734 -0.0026,2.2918512 -0.374654,0.5322676 h 0.888835 l 0.356567,-0.5012617 -0.741557,-0.00517 q 0.206706,-0.1653647 0.3514,-0.5012617 z m 0.842326,-0.015503 -0.400493,0.5322676 v 1.36167481 l 0.08268,0.0310059 q 0.105936,-0.19637056 0.387573,-0.45992052 0.397909,0.56068963 0.408244,0.84491018 0.01034,0.28163672 -0.103353,0.53226753 Q 47.157267,0.96634982 46.950561,0.83457484 46.746439,0.70021603 46.769694,0.45992048 l 0.14211,-0.16019704 -0.06718,-0.0697632 -0.490927,0.6020308 q 0,0.32297786 0.258382,0.52451606 0.258383,0.1989544 0.299724,0.3617353 0.180868,-0.1421103 0.545187,-0.7002161 0.364319,-0.55810579 0.348816,-0.8268234 -0.01292,-0.27130144 -0.149862,-0.40307642 -0.134359,-0.1343588 -0.188619,-0.26613378 -0.05168,-0.13177498 -0.02584,-0.35398378 l -0.638205,0.65887491 -0.0026,-0.97151753 h 0.607198 l 0.356568,-0.4728396 -0.03101,-0.069763 z m -7.170616,-23.2202904 -0.06718,-0.04651 -0.713135,0.746725 0.07493,0.03617 0.219625,-0.214457 -0.0026,2.291851 -0.374654,0.532267 h 0.888835 l 0.356567,-0.501261 -0.741557,-0.0052 q 0.206706,-0.165365 0.3514,-0.501262 z m 1.165305,-0.0155 q -1.098125,1.304831 -0.777731,2.136822 0.322978,0.829407 0.728638,1.240235 0.568441,-1.064535 0.726054,-1.45986 0.160197,-0.397909 0.07493,-0.883667 -0.08268,-0.485759 -0.751892,-1.03353 z m -0.224793,0.545187 q 0.870748,0.622701 0.49351,1.935284 l -0.162781,0.312642 q -0.958598,-1.268657 -0.330729,-2.247926 z m -0.134359,0.945679 q 0.201538,0.193787 0.248047,0.415996 l 0.356568,-0.325562 q -0.108521,-0.315226 -0.26355,-0.447001 z m -17.465608,-18.540572 -0.400492,0.532267 v 1.361675 l 0.08268,0.03101 q 0.105937,-0.196371 0.387574,-0.459921 0.397908,0.56069 0.408244,0.844911 0.01034,0.281636 -0.103353,0.532267 -0.116272,-0.188619 -0.322978,-0.320394 -0.204122,-0.134359 -0.180868,-0.374654 l 0.14211,-0.160197 -0.06718,-0.06976 -0.490926,0.60203 q 0,0.322978 0.258382,0.524516 0.258382,0.198955 0.299723,0.361736 0.180868,-0.142111 0.545187,-0.700216 0.364319,-0.558106 0.348816,-0.826824 -0.01292,-0.271301 -0.149862,-0.403076 -0.134358,-0.134359 -0.188619,-0.266134 -0.05168,-0.131775 -0.02584,-0.353984 l -0.638204,0.658875 -0.0026,-0.971517 h 0.607198 l 0.356568,-0.47284 -0.03101,-0.06976 z" />
  </g>
</svg>
