<?xml version="1.0" encoding="UTF-8" standalone="no"?>
<!-- Created with Inkscape (http://www.inkscape.org/) -->

<svg
   width="210mm"
   height="297mm"
   viewBox="0 0 210 297"
   version="1.1"
   id="svg1"
   sodipodi:docname="arabic numerals 20.svg"
   inkscape:version="1.3 (0e150ed6c4, 2023-07-21)"
   xmlns:inkscape="http://www.inkscape.org/namespaces/inkscape"
   xmlns:sodipodi="http://sodipodi.sourceforge.net/DTD/sodipodi-0.dtd"
   xmlns="http://www.w3.org/2000/svg"
   xmlns:svg="http://www.w3.org/2000/svg">
  <sodipodi:namedview
     id="namedview1"
     pagecolor="#ffffff"
     bordercolor="#000000"
     borderopacity="0.25"
     inkscape:showpageshadow="2"
     inkscape:pageopacity="0.0"
     inkscape:pagecheckerboard="0"
     inkscape:deskcolor="#d1d1d1"
     inkscape:document-units="mm"
     inkscape:zoom="4"
     inkscape:cx="136.75"
     inkscape:cy="76.125"
     inkscape:window-width="2560"
     inkscape:window-height="1369"
     inkscape:window-x="-8"
     inkscape:window-y="-8"
     inkscape:window-maximized="1"
     inkscape:current-layer="layer1" />
  <defs
     id="defs1" />
  <g
     inkscape:label="Layer 1"
     inkscape:groupmode="layer"
     id="layer1">
    <path
       id="path66"
       style="font-size:5.29167px;font-family:'Kingthings Gothique';-inkscape-font-specification:'Kingthings Gothique';opacity:0.4;fill:#1a1a1a;stroke-width:0.264583"
       d="m -1.1983302,-2.1403753 q -0.299723,0.023254 -0.558106,0.2118735 -0.255798,0.1860353 -0.418579,0.4082441 -0.162781,0.2222087 -0.193787,0.5761925 -0.03101,0.3514 0.147278,0.5968632 0.178284,0.2428794 0.353984,0.2506308 0.328145,-0.3384808 0.423747,-0.5193484 v -0.062012 q -0.465088,-0.3100588 -0.478007,-0.6769617 -0.01034,-0.3669029 0.328145,-0.3074749 0.338481,0.056844 0.5271,0.3229779 0.18861903,0.2635499 0.08785,0.6097822 -0.10335303,0.2506309 -1.47019503,1.9585382 l 0.06201,0.111104 1.79575803,-0.01034 q 0.312643,-0.6020257 0.50643,-0.728633 l -0.06976,-0.090434 q -0.142114,0.1007693 -0.589115,0.1033531 -0.44700103,0.002584 -0.86816503,-0.0180868 1.39009703,-1.563213 1.32808603,-2.0257173 -0.06201,-0.4650882 -0.338481,-0.599447 -0.276469,-0.1343588 -0.57619303,-0.1111044 z m 0.61236603,3.0799172 q -0.47283903,0.2325442 -0.89917003,0.00517 0.434082,-0.2325441 0.89917003,-0.00517 z m -0.315226,-2.7672746 q 0.07235,-0.036174 0.160197,0.00517 0.09043,0.038757 0.113688,0.1188559 0.02584,0.080099 -0.01292,0.1550294 -0.03876,0.074931 -0.105937,0.1059368 -0.06718,0.028422 -0.147278,0 -0.07751,-0.031006 -0.11627203,-0.1111044 -0.03617,-0.080099 0,-0.1576133 0.03876,-0.080099 0.10852103,-0.116272 z m 0.798401,2.4442967 q 0.227377,0.4211632 0.113688,0.5606901 -0.113688,0.136942 -0.22996,-0.0052 -0.116272,-0.1421104 0.116272,-0.5555221 z M -2.0975002,0.9498772 q 0.312642,-0.1524456 0.594279,-0.00258 -0.286804,0.1524459 -0.594279,0.00258 z m 0.307475,-0.2971397 q 0.152445,0.3126426 0.0026,0.5942796 -0.152445,-0.2868046 -0.0026,-0.5942796 z m 1.72599303,0.2661338 q -0.0801,0.1627808 -0.03359,0.2144578 0.04651,0.05168 0.08527,-0.0026 0.04134,-0.056844 -0.05168,-0.2118738 z M -2.1259222,-0.8872211 q 0.434082,0.2041221 0.423747,0.3824059 -0.01034,0.1782838 -0.188619,0.1343588 -0.1757,-0.046509 -0.235128,-0.5167647 z m 1.37976103,-0.1550294 q 0.03876,-0.02067 0.08785,0.00258 0.04909,0.023254 0.06201,0.067179 0.01292,0.043925 -0.01034,0.085266 -0.02067,0.041341 -0.05684,0.056844 -0.03617,0.015503 -0.0801,0 -0.04134,-0.015503 -0.06201,-0.059428 -0.02067,-0.046509 0,-0.08785 0.02067,-0.043925 0.05943,-0.064596 z M -1.1621562,0.8491081 q 0.113688,-0.028422 0.25063003,-0.00517 0.0026,0.074931 -0.02067,0.1214396 -0.02326,0.043925 -0.0646,0.062012 -0.03876,0.018087 -0.08785,0 -0.04651,-0.018087 -0.06976,-0.064596 -0.02067,-0.049093 -0.0078,-0.1136882 z m -0.05684,-2.834454 q 0.05168,-0.025838 0.116272,0.00517 0.06718,0.028422 0.08268,0.08785 0.01809,0.056844 -0.01034,0.1111044 -0.02842,0.05426 -0.07751,0.074931 -0.04909,0.020671 -0.105937,0 -0.05426,-0.020671 -0.08268,-0.080099 -0.02584,-0.059428 0,-0.1162721 0.02842,-0.056844 0.07752,-0.082682 z m 0.50642903,0.5684411 q 0.05168,-0.025838 0.116272,0.00517 0.06718,0.028422 0.08268,0.08785 0.01809,0.056844 -0.01033,0.1111044 -0.02842,0.05426 -0.07752,0.074931 -0.04909,0.020671 -0.105936,0 -0.05426,-0.020671 -0.08268,-0.080099 -0.02584,-0.059428 0,-0.1162721 0.02842,-0.056844 0.07752,-0.082682 z M -1.5187242,-1.969843 q 0.03876,-0.020671 0.08785,0.00258 0.04909,0.023255 0.06201,0.067179 0.01292,0.043925 -0.01034,0.085266 -0.02067,0.041341 -0.05684,0.056844 -0.03617,0.015503 -0.0801,0 -0.04134,-0.015503 -0.06201,-0.059428 -0.02067,-0.046509 0,-0.08785 0.02067,-0.043925 0.05943,-0.064596 z m 3.061832,-0.1033529 q -0.27647,-0.08785 -0.55293897,0.046509 -0.276469,0.131775 -0.653707,0.6149499 -0.374654,0.483175 -0.333313,1.2557381 0.04393,0.7699793 0.558106,1.1859748 0.51418097,0.4134112 0.85524497,0.2997232 0.343649,-0.113688 0.596863,-0.5245158 0.253215,-0.4108279 0.356568,-0.803569 0.105937,-0.3953249 0.06976,-0.8113205 -0.03359,-0.4159957 -0.328142,-0.7958177 -0.291972,-0.379822 -0.568441,-0.467672 z m -0.83457497,0.7105514 q 0.268717,-0.2454632 0.58135997,-0.041341 0.312642,0.2015382 0.457337,0.5090132 0.144694,0.3074749 0.16278,0.8190719 0.02067,0.5090132 -0.201538,0.6821293 -0.219625,0.1731162 -0.436666,0.051677 -0.214457,-0.1214404 -0.47542297,-0.4134124 -0.258383,-0.291972 -0.307475,-0.8268234 -0.04651,-0.5374353 0.219625,-0.7803146 z m -0.43925,0.3281455 0.160197,0.7544764 -0.131775,0.8087366 -0.160197,-0.7984013 z m -0.134359,0.7648117 q 0.149862,-0.072347 0.28422,-0.00258 -0.136942,0.074931 -0.28422,0.00258 z m 0.147278,-0.1421103 q 0.07235,0.1498617 0.0026,0.2842205 -0.07493,-0.1369426 -0.0026,-0.2842205 z M 1.3260658,-0.099155 q 0.118856,-0.059428 0.266134,0.00775 0.147278,0.067179 0.186035,0.1989544 0.04134,0.1317749 -0.02325,0.2557984 -0.0646,0.1240236 -0.1757,0.1757 -0.111104,0.049093 -0.242879,0 -0.129191,-0.051676 -0.191203,-0.1834514 -0.06201,-0.131775 0,-0.26355 0.06201,-0.131775 0.180867,-0.1912029 z m 0.222209,0.1860353 q -0.03101,0.015503 -0.04651,0.049093 -0.0155,0.03359 0,0.069763 0.0155,0.03359 0.04909,0.046509 0.03359,0.012919 0.06201,0 0.02842,-0.012919 0.04651,-0.043925 0.01809,-0.031006 0.0078,-0.067179 -0.01034,-0.036174 -0.04909,-0.051677 -0.03876,-0.018087 -0.06976,-0.00258 z m 0.12144,0.6821293 q 0.105937,0.2067058 0.04909,0.2738852 -0.05685,0.067179 -0.113689,-0.00258 -0.05426,-0.072347 0.0646,-0.2713014 z m 0.253215,-2.0696424 q 0.03876,-0.020671 0.08785,0.00258 0.04909,0.023254 0.06201,0.067179 0.01292,0.043925 -0.01034,0.085266 -0.02067,0.041341 -0.05684,0.056844 -0.03617,0.015503 -0.0801,0 -0.04134,-0.015503 -0.06201,-0.059428 -0.02067,-0.046509 0,-0.08785 0.02067,-0.043925 0.05943,-0.064596 z m -0.638205,-0.6201175 q 0.06201,-0.031006 0.139527,0.00517 0.07751,0.03359 0.09818,0.1033529 0.02067,0.069763 -0.01292,0.1343588 -0.03359,0.064596 -0.09302,0.090434 -0.05684,0.025838 -0.126607,0 -0.06718,-0.025838 -0.100769,-0.095602 -0.03101,-0.069763 0,-0.1369426 0.03359,-0.069763 0.0956,-0.1007691 z m 0.855246,1.255738 q 0.02325,-0.012919 0.05168,0 0.03101,0.010335 0.03876,0.036174 0.0078,0.025838 -0.0052,0.051677 -0.01034,0.023254 -0.03101,0.03359 -0.01809,0.010335 -0.04393,0.00258 -0.02584,-0.00775 -0.03876,-0.03359 -0.01292,-0.025838 -0.0026,-0.051676 0.01034,-0.025838 0.03101,-0.038757 z m -0.475424,-0.9766851 q 0.05168,-0.025838 0.116272,0.00517 0.06718,0.028422 0.08268,0.08785 0.01809,0.056844 -0.01034,0.1111044 -0.02842,0.05426 -0.07751,0.074931 -0.04909,0.020671 -0.105937,0 -0.05426,-0.020671 -0.08268,-0.080099 -0.02584,-0.059428 0,-0.1162721 0.02842,-0.056844 0.07751,-0.082682 z m 0.457337,1.2815763 q 0.0155,-0.010335 0.03876,0 0.02325,0.00775 0.02842,0.028422 0.0078,0.018087 -0.0026,0.036174 -0.0078,0.018087 -0.02326,0.025838 -0.0155,0.00775 -0.03359,0.00258 -0.01809,-0.00517 -0.03101,-0.025838 -0.01034,-0.020671 -0.0026,-0.038757 0.01034,-0.020671 0.02584,-0.028422 z m -0.05684,-0.6071985 q 0.03101,-0.018087 0.07235,0 0.04134,0.015503 0.05168,0.051677 0.01292,0.03359 -0.0026,0.067179 -0.0155,0.03359 -0.04393,0.049093 -0.02842,0.012919 -0.0646,0.00258 -0.03359,-0.010335 -0.05426,-0.046509 -0.01809,-0.036174 -0.0026,-0.069763 0.0155,-0.036173 0.04393,-0.05426 z" />
  </g>
</svg>
