<?xml version="1.0" encoding="UTF-8" standalone="no"?>
<!-- Created with Inkscape (http://www.inkscape.org/) -->

<svg
   width="210mm"
   height="297mm"
   viewBox="0 0 210 297"
   version="1.1"
   id="svg1"
   sodipodi:docname="arabic numerals 30.svg"
   inkscape:version="1.3 (0e150ed6c4, 2023-07-21)"
   xmlns:inkscape="http://www.inkscape.org/namespaces/inkscape"
   xmlns:sodipodi="http://sodipodi.sourceforge.net/DTD/sodipodi-0.dtd"
   xmlns="http://www.w3.org/2000/svg"
   xmlns:svg="http://www.w3.org/2000/svg">
  <sodipodi:namedview
     id="namedview1"
     pagecolor="#ffffff"
     bordercolor="#000000"
     borderopacity="0.25"
     inkscape:showpageshadow="2"
     inkscape:pageopacity="0.0"
     inkscape:pagecheckerboard="0"
     inkscape:deskcolor="#d1d1d1"
     inkscape:document-units="mm"
     inkscape:zoom="4"
     inkscape:cx="136.75"
     inkscape:cy="56.125"
     inkscape:window-width="2560"
     inkscape:window-height="1369"
     inkscape:window-x="-8"
     inkscape:window-y="-8"
     inkscape:window-maximized="1"
     inkscape:current-layer="layer1" />
  <defs
     id="defs1" />
  <g
     inkscape:label="Layer 1"
     inkscape:groupmode="layer"
     id="layer1">
    <path
       id="path125"
       style="font-size:5.29167px;font-family:'Kingthings Gothique';-inkscape-font-specification:'Kingthings Gothique';opacity:0.4;fill:#1a1a1a;stroke-width:0.264583"
       d="m -2.0015923,-1.9775944 q -0.03876,-0.00258 -0.05426,-0.00517 l -0.550354,0.6821293 0.07493,0.074931 q 0.180867,-0.1007691 0.431498,-0.090434 l 0.02842,0.1834514 0.0155,0.335897 0.02584,0.020671 0.01292,-0.4211631 0.01034,-0.1188559 q 0.633036,-0.041341 0.8785,0.031006 -0.03876,0.1576132 -0.633037,0.6795455 l 0.0646,0.08785 q 0.266133,-0.098185 0.664042,0.08785 0.40049301,0.1860353 0.43149901,0.6614588 0.03101,0.4728396 -0.284221,0.6924646 Q -1.8362223,0.722499 -1.9860843,0.3323417 q -0.149861,-0.3927412 0.03617,-0.6485396 l -0.0646,-0.093018 q -0.462504,0.2351279 -0.571025,0.5865279 -0.10852,0.3513999 0.188619,0.7570602 0.29714,0.4056599 0.899171,0.4521689 0.55293801,-0.250631 0.71830301,-0.3410645 0.165364,-0.093018 0.511597,-0.4366662 0.348819,-0.3436463 0.328148,-0.6382022 -0.01809,-0.2945558 -0.240295,-0.6330367 -0.222209,-0.3384808 -0.87333201,-0.3927411 0.74414101,-0.788066 0.82940701,-0.8423263 l -0.01292,-0.085266 q -0.483175,0.043925 -1.10587701,0.025838 -0.620117,-0.018087 -0.658875,-0.02067 z m 1.22731601,0.320394 q -0.68471301,0.3048912 -1.29966301,0.00258 0.627869,-0.3023074 1.29966301,-0.00258 z m -0.222208,0.7622279 q 0.07235,-0.036174 0.160197,0.00517 0.09043,0.038757 0.113688,0.1188559 0.02584,0.080099 -0.01292,0.1550294 -0.03876,0.074931 -0.105937,0.1059367 -0.06718,0.028422 -0.147278,0 -0.07751,-0.031006 -0.11627201,-0.1111044 -0.03617,-0.080099 0,-0.1576132 0.03876,-0.080099 0.10852101,-0.116272 z m -0.69504901,0.3772381 q 0.227377,0.4211632 0.113688,0.5606897 -0.113688,0.1369426 -0.22996,-0.00517 -0.116272,-0.1421102 0.116272,-0.555522 z m 0.08268,0.8604132 q 0.472839,-0.2325441 0.89917001,-0.00517 -0.43408201,0.2325441 -0.89917001,0.00517 z m 0.465091,-0.4495853 q 0.23254401,0.4728397 0.0052,0.8991705 -0.232544,-0.4340823 -0.0052,-0.8991705 z m -0.50643,-0.1653647 q -0.116272,0.1989544 -0.05943,0.2713015 0.05685,0.069763 0.111105,0.00258 0.05684,-0.069763 -0.05168,-0.2738853 z m 1.32033401,0.3539838 q 0.03876,-0.020671 0.08785,0.00258 0.04909,0.023255 0.06201,0.067179 0.01292,0.043925 -0.01034,0.085266 -0.02067,0.041341 -0.05684,0.056844 -0.03617,0.015503 -0.0801,0 -0.04134,-0.015503 -0.06201,-0.059428 -0.02067,-0.046509 0,-0.08785 0.02067,-0.043925 0.05943,-0.064596 z m -0.266134,-0.7493087 q 0.06201,-0.031006 0.139527,0.00517 0.07751,0.03359 0.09819,0.103353 0.02067,0.069763 -0.01292,0.1343588 -0.03359,0.064596 -0.09302,0.090434 -0.05684,0.025838 -0.126607,0 -0.06718,-0.025838 -0.100769,-0.095602 -0.03101,-0.069763 0,-0.1369426 0.03359,-0.069763 0.0956,-0.1007691 z m 0.180868,1.0386969 q 0.03101,-0.018087 0.07235,0 0.04134,0.015503 0.05168,0.051676 0.01292,0.03359 -0.0026,0.067179 -0.0155,0.03359 -0.04393,0.049093 -0.02842,0.012919 -0.0646,0.00258 -0.03359,-0.010335 -0.05426,-0.046509 -0.01809,-0.036174 -0.0026,-0.069763 0.0155,-0.036174 0.04393,-0.05426 z m 0.02325,-0.6562911 q 0.05168,-0.025838 0.116272,0.00517 0.06718,0.028422 0.08268,0.08785 0.01809,0.056844 -0.01034,0.1111044 -0.02842,0.05426 -0.07751,0.074931 -0.04909,0.020671 -0.105937,0 -0.05426,-0.020671 -0.08268,-0.080099 -0.02584,-0.059428 0,-0.116272 0.02842,-0.056844 0.07751,-0.082682 z M -1.5881843,-1.7734724 q 0.14211,-0.03359 0.320394,-0.00517 0.0052,0.095601 -0.02584,0.1550294 -0.02842,0.056844 -0.0801,0.080099 -0.05168,0.023255 -0.113688,0 -0.06201,-0.023254 -0.09043,-0.085266 -0.02842,-0.062012 -0.01034,-0.1446941 z m -0.05684,2.6354996 q 0.07235,-0.036174 0.160197,0.00517 0.09043,0.038757 0.113688,0.1188558 0.02584,0.080099 -0.01292,0.1550291 -0.03876,0.07493 -0.105937,0.105937 -0.06718,0.02842 -0.147278,0 -0.07751,-0.03101 -0.116272,-0.111105 -0.03617,-0.080098 0,-0.1576125 0.03876,-0.080099 0.108521,-0.1162721 z m -0.400493,-0.1757 q 0.06201,-0.031006 0.139527,0.00517 0.07751,0.03359 0.09819,0.1033529 0.02067,0.069763 -0.01292,0.1343588 -0.03359,0.064596 -0.09302,0.090434 -0.05684,0.025838 -0.126607,0 -0.06718,-0.025838 -0.100769,-0.095601 -0.03101,-0.069763 0,-0.1369427 0.03359,-0.069763 0.0956,-0.1007691 z m -0.258382,-0.2583823 q 0.05168,-0.025838 0.116272,0.00517 0.06718,0.028422 0.08268,0.08785 0.01809,0.056844 -0.01033,0.1111044 -0.02842,0.05426 -0.07751,0.074931 -0.04909,0.020671 -0.105936,0 -0.05426,-0.020671 -0.08268,-0.080099 -0.02584,-0.059428 0,-0.116272 0.02842,-0.056844 0.07751,-0.082682 z m -0.04392,-0.2816367 q 0.03876,-0.020671 0.08785,0.00258 0.04909,0.023254 0.06201,0.067179 0.01292,0.043925 -0.01033,0.085266 -0.02067,0.041341 -0.05685,0.056844 -0.03617,0.015503 -0.0801,0 -0.04134,-0.015503 -0.06201,-0.059428 -0.02067,-0.046509 0,-0.08785 0.02067,-0.043925 0.05943,-0.064596 z m 0.06201,-0.2377117 q 0.03101,-0.018087 0.07235,0 0.04134,0.015503 0.05168,0.051676 0.01292,0.03359 -0.0026,0.067179 -0.0155,0.03359 -0.04392,0.049093 -0.02842,0.012919 -0.0646,0.00258 -0.03359,-0.010335 -0.05426,-0.046509 -0.01809,-0.036174 -0.0026,-0.069763 0.0155,-0.036174 0.04392,-0.05426 z m 3.994586,-1.9817924 q -0.276469,-0.08785 -0.552938,0.046509 -0.27646899,0.131775 -0.65370699,0.6149499 -0.374654,0.483175 -0.333313,1.2557381 0.04393,0.7699793 0.558106,1.1859748 0.51417999,0.4134112 0.85524499,0.2997232 0.343649,-0.113688 0.596863,-0.524516 0.253215,-0.4108279 0.356568,-0.803569 0.105937,-0.3953249 0.06976,-0.8113205 -0.03359,-0.4159955 -0.328146,-0.7958175 -0.291972,-0.379822 -0.568441,-0.467672 z m -0.83457399,0.7105514 q 0.26871699,-0.2454632 0.58135999,-0.041341 0.312642,0.2015382 0.457336,0.5090132 0.144695,0.3074749 0.162781,0.8190719 0.02067,0.5090132 -0.201538,0.6821293 -0.219625,0.1731162 -0.436666,0.051677 -0.214457,-0.1214404 -0.47542299,-0.4134124 -0.258383,-0.291972 -0.307475,-0.8268234 -0.04651,-0.5374353 0.219625,-0.7803146 z m -0.43925,0.3281455 0.160197,0.7544764 -0.131775,0.8087366 -0.160197,-0.7984013 z m -0.134359,0.7648117 q 0.149862,-0.072347 0.28422,-0.00258 -0.136942,0.074931 -0.28422,0.00258 z m 0.147278,-0.1421103 q 0.07235,0.1498617 0.0026,0.2842205 -0.07493,-0.1369426 -0.0026,-0.2842205 z M 1.4917357,-0.099155 q 0.118856,-0.059428 0.266134,0.00775 0.147278,0.067179 0.186035,0.1989544 0.04134,0.1317749 -0.02325,0.2557984 -0.0646,0.1240236 -0.1757,0.1757 -0.111104,0.049093 -0.242879,0 -0.129192,-0.051676 -0.191203,-0.1834514 -0.06201,-0.131775 0,-0.26355 0.06201,-0.131775 0.180867,-0.1912029 z m 0.222209,0.1860353 q -0.03101,0.015503 -0.04651,0.049093 -0.0155,0.03359 0,0.069763 0.0155,0.03359 0.04909,0.046509 0.03359,0.012919 0.06201,0 0.02842,-0.012919 0.04651,-0.043925 0.01809,-0.031006 0.0078,-0.067179 -0.01034,-0.036174 -0.04909,-0.051677 -0.03876,-0.018087 -0.06976,-0.00258 z m 0.12144,0.6821293 q 0.105936,0.2067058 0.04909,0.2738852 -0.05684,0.067179 -0.113688,-0.00258 -0.05426,-0.072347 0.0646,-0.2713014 z m 0.253214,-2.0696424 q 0.03876,-0.020671 0.08785,0.00258 0.04909,0.023254 0.06201,0.067179 0.01292,0.043925 -0.01033,0.085266 -0.02067,0.041341 -0.05684,0.056844 -0.03617,0.015503 -0.0801,0 -0.04134,-0.015503 -0.06201,-0.059428 -0.02067,-0.046509 0,-0.08785 0.02067,-0.043925 0.05943,-0.064596 z m -0.638204,-0.6201175 q 0.06201,-0.031006 0.139527,0.00517 0.07751,0.03359 0.09819,0.1033529 0.02067,0.069763 -0.01292,0.1343588 -0.03359,0.064596 -0.09302,0.090434 -0.05684,0.025838 -0.126607,0 -0.06718,-0.025838 -0.100769,-0.095602 -0.03101,-0.069763 0,-0.1369426 0.03359,-0.069763 0.0956,-0.1007691 z m 0.855246,1.255738 q 0.02325,-0.012919 0.05168,0 0.03101,0.010335 0.03876,0.036174 0.0078,0.025838 -0.0052,0.051677 -0.01034,0.023254 -0.03101,0.03359 -0.01809,0.010335 -0.04393,0.00258 -0.02584,-0.00775 -0.03876,-0.03359 -0.01292,-0.025838 -0.0026,-0.051676 0.01033,-0.025838 0.03101,-0.038757 z m -0.475424,-0.9766851 q 0.05168,-0.025838 0.116272,0.00517 0.06718,0.028422 0.08268,0.08785 0.01809,0.056844 -0.01034,0.1111044 -0.02842,0.05426 -0.07751,0.074931 -0.04909,0.020671 -0.105936,0 -0.05426,-0.020671 -0.08268,-0.080099 -0.02584,-0.059428 0,-0.1162721 0.02842,-0.056844 0.07752,-0.082682 z m 0.457337,1.2815763 q 0.0155,-0.010335 0.03876,0 0.02325,0.00775 0.02842,0.028422 0.0078,0.018087 -0.0026,0.036174 -0.0078,0.018087 -0.02325,0.025838 -0.0155,0.00775 -0.03359,0.00258 -0.01809,-0.00517 -0.03101,-0.025838 -0.01033,-0.020671 -0.0026,-0.038757 0.01034,-0.020671 0.02584,-0.028422 z m -0.05684,-0.6071985 q 0.03101,-0.018087 0.07235,0 0.04134,0.015503 0.05168,0.051677 0.01292,0.03359 -0.0026,0.067179 -0.0155,0.03359 -0.04393,0.049093 -0.02842,0.012919 -0.0646,0.00258 -0.03359,-0.010335 -0.05426,-0.046509 -0.01809,-0.036174 -0.0026,-0.069763 0.0155,-0.036173 0.04393,-0.05426 z" />
  </g>
</svg>
