<?xml version="1.0" encoding="UTF-8" standalone="no"?>
<!-- Created with Inkscape (http://www.inkscape.org/) -->

<svg
   width="210mm"
   height="297mm"
   viewBox="0 0 210 297"
   version="1.1"
   id="svg1"
   sodipodi:docname="arabic numerals 25.svg"
   inkscape:version="1.3 (0e150ed6c4, 2023-07-21)"
   xmlns:inkscape="http://www.inkscape.org/namespaces/inkscape"
   xmlns:sodipodi="http://sodipodi.sourceforge.net/DTD/sodipodi-0.dtd"
   xmlns="http://www.w3.org/2000/svg"
   xmlns:svg="http://www.w3.org/2000/svg">
  <sodipodi:namedview
     id="namedview1"
     pagecolor="#ffffff"
     bordercolor="#000000"
     borderopacity="0.25"
     inkscape:showpageshadow="2"
     inkscape:pageopacity="0.0"
     inkscape:pagecheckerboard="0"
     inkscape:deskcolor="#d1d1d1"
     inkscape:document-units="mm"
     inkscape:zoom="4"
     inkscape:cx="136.75"
     inkscape:cy="76.125"
     inkscape:window-width="2560"
     inkscape:window-height="1369"
     inkscape:window-x="-8"
     inkscape:window-y="-8"
     inkscape:window-maximized="1"
     inkscape:current-layer="layer1" />
  <defs
     id="defs1" />
  <g
     inkscape:label="Layer 1"
     inkscape:groupmode="layer"
     id="layer1">
    <path
       id="path93"
       style="font-size:5.29167px;font-family:'Kingthings Gothique';-inkscape-font-specification:'Kingthings Gothique';opacity:0.4;fill:#1a1a1a;stroke-width:0.264583"
       d="m -1.2656415,-2.1403753 q -0.299723,0.023254 -0.558106,0.2118735 -0.255798,0.1860353 -0.418579,0.4082441 -0.162781,0.2222087 -0.193787,0.5761925 -0.03101,0.3514 0.147278,0.5968632 0.178284,0.2428794 0.353984,0.2506308 0.328145,-0.3384808 0.423747,-0.5193484 v -0.062012 q -0.465088,-0.3100588 -0.478007,-0.6769617 -0.01034,-0.3669029 0.328145,-0.3074749 0.338481,0.056844 0.5271,0.3229779 0.188619,0.2635499 0.08785,0.6097822 -0.103353,0.2506309 -1.470195,1.9585382 l 0.06201,0.111104 1.795758,-0.01034 q 0.312639,-0.6020257 0.506426,-0.728633 l -0.06976,-0.090434 q -0.142111,0.1007691 -0.589112,0.1033529 -0.447001,0.00258 -0.868165,-0.018087 1.390097,-1.563213 1.328085,-2.0257173 -0.06201,-0.4650882 -0.33848,-0.599447 -0.276469,-0.1343588 -0.576193,-0.1111044 z m 0.612366,3.0799172 q -0.472839,0.2325442 -0.89917,0.00517 0.434082,-0.2325441 0.89917,-0.00517 z m -0.31523,-2.7672746 q 0.07235,-0.036174 0.160197,0.00517 0.09043,0.038757 0.113688,0.1188559 0.02584,0.080099 -0.01292,0.1550294 -0.03876,0.074931 -0.105937,0.1059368 -0.06718,0.028422 -0.147278,0 -0.07751,-0.031006 -0.116272,-0.1111044 -0.03617,-0.080099 0,-0.1576133 0.03876,-0.080099 0.108521,-0.116272 z m 0.798401,2.4442967 q 0.227377,0.4211632 0.113688,0.5606901 -0.113688,0.136942 -0.22996,-0.0052 -0.116272,-0.1421104 0.116272,-0.5555221 z m -1.994711,0.3333132 q 0.312642,-0.1524456 0.594279,-0.00258 -0.286804,0.1524459 -0.594279,0.00258 z m 0.307475,-0.2971397 q 0.152445,0.3126426 0.0026,0.5942796 -0.152445,-0.2868046 -0.0026,-0.5942796 z m 1.725993,0.2661338 q -0.0801,0.1627808 -0.03359,0.2144578 0.04651,0.05168 0.08527,-0.0026 0.04134,-0.056844 -0.05168,-0.2118738 z m -2.06189,-1.8060924 q 0.434082,0.2041221 0.423747,0.3824059 -0.01034,0.1782838 -0.18862,0.1343588 -0.1757,-0.046509 -0.235127,-0.5167647 z m 1.379761,-0.1550294 q 0.03876,-0.02067 0.08785,0.00258 0.04909,0.023254 0.06201,0.067179 0.01292,0.043925 -0.01033,0.085266 -0.02067,0.041341 -0.05685,0.056844 -0.03617,0.015503 -0.0801,0 -0.04134,-0.015503 -0.06201,-0.059428 -0.02067,-0.046509 0,-0.08785 0.02067,-0.043925 0.05943,-0.064596 z m -0.415995,1.8913586 q 0.113688,-0.028422 0.25063,-0.00517 0.0026,0.074931 -0.02067,0.1214396 -0.02325,0.043925 -0.0646,0.062012 -0.03876,0.018087 -0.08785,0 -0.04651,-0.018087 -0.06976,-0.064596 -0.02067,-0.049093 -0.0078,-0.1136882 z m -0.05684,-2.834454 q 0.05168,-0.025838 0.116273,0.00517 0.06718,0.028422 0.08268,0.08785 0.01809,0.056844 -0.01033,0.1111044 -0.02842,0.05426 -0.07752,0.074931 -0.04909,0.020671 -0.105937,0 -0.05426,-0.020671 -0.08268,-0.080099 -0.02584,-0.059428 0,-0.1162721 0.02842,-0.056844 0.07751,-0.082682 z m 0.50643,0.5684411 q 0.05168,-0.025838 0.116272,0.00517 0.06718,0.028422 0.08268,0.08785 0.01809,0.056844 -0.01033,0.1111044 -0.02842,0.05426 -0.07751,0.074931 -0.04909,0.020671 -0.105937,0 -0.05426,-0.020671 -0.08268,-0.080099 -0.02584,-0.059428 0,-0.1162721 0.02842,-0.056844 0.07751,-0.082682 z m -0.806158,-0.5529382 q 0.03876,-0.020671 0.08785,0.00258 0.04909,0.023255 0.06201,0.067179 0.01292,0.043925 -0.01034,0.085266 -0.02067,0.041341 -0.05684,0.056844 -0.03617,0.015503 -0.0801,0 -0.04134,-0.015503 -0.06201,-0.059428 -0.02067,-0.046509 0,-0.08785 0.02067,-0.043925 0.05943,-0.064596 z m 2.273765,-0.131775 q -0.180867,0.2842206 -0.413411,0.4159956 l -0.142111,1.1187954 0.07235,0.05426 q 0.400493,-0.1576132 0.622702,-0.1472779 0.224792,0.010335 0.503845,0.2635499 0.279053,0.2532147 0.421164,0.6123661 0.144694,0.3591514 -0.0646,0.4883426 -0.20929,0.1291912 -0.56069,-0.012919 -0.348816,-0.1421103 -0.516764,-0.3514 -0.165365,-0.2118735 -0.0801,-0.4857587 L 0.4086735,-0.2025079 0.0030125,0.368517 q -0.10852,0.2454632 0.0646,0.4650882 0.1757,0.2170411 0.348816,0.3333129 0.1757,0.113688 0.457337,0.183452 0.281636,0.06976 0.534851,-0.07493 0.253215,-0.147278 0.444418,-0.3333134 0.193786,-0.1860352 0.400492,-0.5090131 0.20929,-0.3255617 -0.0078,-0.8061529 -0.214413,-0.4805921 -0.46246,-0.6485406 -0.248047,-0.1705323 -0.529683,-0.1550294 -0.279053,0.015503 -0.627869,0.1214397 l 0.05943,-0.4883426 1.077454,0.015503 q 0.03359,0.3333132 0.14211,0.4444176 0.108521,0.1085205 0.248047,0.077515 0.14211,-0.03359 0.149862,-0.2092897 -0.03876,-0.1162721 -0.07752,-0.1188559 l -0.05426,0.043925 q 0.06201,0.064596 0.05168,0.131775 -0.0078,0.067179 -0.103353,0.077515 -0.0956,0.00775 -0.1757,-0.085266 -0.07751,-0.095601 -0.04651,-0.2971396 0.222208,-0.43925 0.485758,-0.5813602 l -0.03617,-0.080099 z m -0.19637,0.3849897 0.03876,0.511597 -0.160197,0.5193484 -0.03359,-0.540019 z m 1.436606,-0.08785 q -0.612367,0.2945558 -1.160137,-0.00517 0.563273,-0.2945559 1.160137,0.00517 z m -1.689821,2.1239027 q 0.07235,-0.036174 0.160197,0.00517 0.09043,0.038757 0.113688,0.1188559 0.02584,0.080098 -0.01292,0.1550294 -0.03876,0.074931 -0.105936,0.1059367 -0.06718,0.028422 -0.147278,0 -0.07751,-0.031006 -0.116272,-0.1111044 -0.03617,-0.080099 0,-0.1576132 0.03876,-0.080099 0.10852,-0.116272 z m 2.126487,-2.3564468 q 0.227376,0.4211632 0.113688,0.5606897 -0.113688,0.1369426 -0.22996,-0.00517 -0.116272,-0.1421103 0.116272,-0.555522 z m -1.29708,1.2531543 q 0.291972,-0.1421103 0.555522,-0.00258 -0.268717,0.1446941 -0.555522,0.00258 z m 0.286805,-0.2764691 q 0.144694,0.291972 0.0026,0.555522 -0.142111,-0.2687176 -0.0026,-0.555522 z m 1.036113,-0.7260543 q -0.105937,0.204122 -0.04651,0.2738852 0.06201,0.067179 0.113688,-0.00258 0.05168,-0.072347 -0.06718,-0.2713014 z m -1.033529,2.6975114 q 0.03876,-0.020671 0.08785,0.00258 0.04909,0.023254 0.06201,0.067179 0.01292,0.043925 -0.01033,0.085266 -0.02067,0.041341 -0.05684,0.056844 -0.03617,0.0155 -0.0801,0 -0.04134,-0.0155 -0.06201,-0.059428 -0.02067,-0.046509 0,-0.08785 0.02067,-0.043925 0.05943,-0.064596 z M 0.5740375,0.6966625 q 0.06201,-0.031006 0.139527,0.00517 0.07751,0.03359 0.09819,0.1033529 0.02067,0.069763 -0.01292,0.1343588 -0.03359,0.064596 -0.09302,0.090434 -0.05684,0.025838 -0.126607,0 -0.06718,-0.025838 -0.100769,-0.095601 -0.03101,-0.069763 0,-0.1369427 0.03359,-0.069763 0.0956,-0.1007691 z m 1.43919,-0.5012617 q 0.03101,-0.018087 0.07235,0 0.04134,0.015503 0.05168,0.051676 0.01292,0.03359 -0.0026,0.067179 -0.0155,0.03359 -0.04393,0.049093 -0.02842,0.012919 -0.0646,0.00258 -0.03359,-0.010335 -0.05426,-0.046509 -0.01809,-0.036174 -0.0026,-0.069763 0.0155,-0.036173 0.04393,-0.05426 z m -1.025778,0.6898808 q 0.05168,-0.025838 0.116272,0.00517 0.06718,0.028422 0.08268,0.08785 0.01809,0.056844 -0.01033,0.1111045 -0.02842,0.05426 -0.07751,0.07493 -0.04909,0.02067 -0.105936,0 -0.05426,-0.02067 -0.08268,-0.0801 -0.02584,-0.059428 0,-0.1162718 0.02842,-0.056844 0.07751,-0.082682 z m 0.217041,-2.8086158 q 0.134359,-0.03359 0.29714,-0.00517 0.0026,0.08785 -0.02584,0.1421103 -0.02584,0.051676 -0.07493,0.074931 -0.04651,0.020671 -0.103353,0 -0.05426,-0.023254 -0.08268,-0.080099 -0.02584,-0.056844 -0.01033,-0.131775 z m 0.268718,1.3461719 q 0.291972,-0.1446941 0.555522,-0.00517 -0.268718,0.1446941 -0.555522,0.00517 z m 0.286804,-0.2790529 q 0.144694,0.291972 0.0026,0.555522 -0.14211,-0.2687176 -0.0026,-0.555522 z m -0.124023,0.7389734 q 0.291972,-0.1421102 0.555522,-0.00258 -0.268718,0.1446941 -0.555522,0.00258 z m 0.286804,-0.276469 q 0.144694,0.291972 0.0026,0.5555219 -0.142111,-0.2687176 -0.0026,-0.5555219 z M 0.8918475,-0.990574 q 0.03101,-0.018087 0.07235,0 0.04134,0.015503 0.05168,0.051677 0.01292,0.03359 -0.0026,0.067179 -0.0155,0.03359 -0.04392,0.049093 -0.02842,0.012919 -0.0646,0.00258 -0.03359,-0.010335 -0.05426,-0.046509 -0.01809,-0.036174 -0.0026,-0.069763 0.0155,-0.036173 0.04393,-0.05426 z m 0.738974,1.8035086 q 0.03101,-0.018087 0.07235,0 0.04134,0.015503 0.05168,0.051676 0.01292,0.03359 -0.0026,0.067179 -0.0155,0.03359 -0.04392,0.049093 -0.02842,0.012919 -0.0646,0.00258 -0.03359,-0.010335 -0.05426,-0.046509 -0.01809,-0.036174 -0.0026,-0.069763 0.0155,-0.036174 0.04392,-0.05426 z" />
  </g>
</svg>
