<?xml version="1.0" encoding="UTF-8" standalone="no"?>
<!-- Created with Inkscape (http://www.inkscape.org/) -->

<svg
   width="210mm"
   height="297mm"
   viewBox="0 0 210 297"
   version="1.1"
   id="svg1"
   sodipodi:docname="arabic numerals 40.svg"
   inkscape:version="1.3 (0e150ed6c4, 2023-07-21)"
   xmlns:inkscape="http://www.inkscape.org/namespaces/inkscape"
   xmlns:sodipodi="http://sodipodi.sourceforge.net/DTD/sodipodi-0.dtd"
   xmlns="http://www.w3.org/2000/svg"
   xmlns:svg="http://www.w3.org/2000/svg">
  <sodipodi:namedview
     id="namedview1"
     pagecolor="#ffffff"
     bordercolor="#000000"
     borderopacity="0.25"
     inkscape:showpageshadow="2"
     inkscape:pageopacity="0.0"
     inkscape:pagecheckerboard="0"
     inkscape:deskcolor="#d1d1d1"
     inkscape:document-units="mm"
     inkscape:zoom="4"
     inkscape:cx="136.75"
     inkscape:cy="56.125"
     inkscape:window-width="2560"
     inkscape:window-height="1369"
     inkscape:window-x="-8"
     inkscape:window-y="-8"
     inkscape:window-maximized="1"
     inkscape:current-layer="layer1" />
  <defs
     id="defs1" />
  <g
     inkscape:label="Layer 1"
     inkscape:groupmode="layer"
     id="layer1">
    <path
       id="path192"
       style="font-size:5.29167px;font-family:'Kingthings Gothique';-inkscape-font-specification:'Kingthings Gothique';opacity:0.4;fill:#1a1a1a;stroke-width:0.264583"
       d="m -1.668584,-1.8923283 q 0.01809,0.7570602 -0.847494,2.5941585 l 0.06976,0.1266073 1.080038,-0.00775 q -0.02067,0.4702566 -0.100769,0.8087376 l 0.03876,0.09302 0.61495002,-0.198955 -0.0026,-0.361734 -0.0026,-0.3358979 q 0.643372,0.023254 0.661459,-0.1912029 0.02067,-0.2144573 0.14211,-0.4960941 l -0.10332,-0.051681 q -0.28422,0.1369426 -0.697632,0.093018 l -0.0026,-0.715719 -0.03876,-0.1059368 -0.61495002,0.2945559 q 0.12144,0.1007691 0.100769,0.5064293 l -0.444417,0.010335 q 0.661458,-1.007691 0.98960402,-2.2840997 l -0.0956,-0.046509 z m 0.260967,0.072347 q 0.07235,-0.036174 0.160197,0.00517 0.09043,0.038757 0.113688,0.1188559 0.02584,0.080099 -0.01292,0.1550294 -0.03876,0.074931 -0.105937,0.1059367 -0.06718,0.028422 -0.147278,0 -0.07752,-0.031006 -0.116272,-0.1111044 -0.03617,-0.080099 0,-0.1576132 0.03876,-0.080099 0.108521,-0.116272 z m 0.57877602,3.3538024 q 0.227376,0.421163 0.113688,0.558106 -0.113688,0.139526 -0.22996,-0.0026 -0.11627202,-0.14211 0.116272,-0.555522 z M -1.738347,0.484789 Q -1.076888,0.1592273 -0.48260898,0.477039 -1.089807,0.8026007 -1.738347,0.484789 Z m 0.64854,-0.627869 q 0.32556202,0.6614587 0.0078,1.2557381 -0.325561,-0.6071985 -0.0078,-1.2557381 z m -1.214397,0.7363896 q 0.0155,-0.010335 0.03617,0 0.02325,0.00775 0.02842,0.028422 0.0078,0.02067 -0.0026,0.038757 -0.01034,0.015503 -0.02584,0.023254 -0.0155,0.00775 -0.03359,0 -0.01809,-0.00775 -0.02842,-0.025838 -0.0078,-0.020671 0,-0.038757 0.01033,-0.018087 0.02584,-0.025838 z m 1.2299,0.5736085 q 0.10593702,0.206706 0.04909,0.273886 -0.05684,0.06718 -0.113688,-0.0052 -0.05426,-0.06976 0.0646,-0.268718 z m -0.826824,-1.4960334 q 0.03876,-0.02067 0.08785,0.00258 0.04909,0.023254 0.06201,0.067179 0.01292,0.043925 -0.01033,0.085266 -0.02067,0.041341 -0.05684,0.056844 -0.03617,0.015503 -0.0801,0 -0.04134,-0.015503 -0.06201,-0.059428 -0.02067,-0.046509 0,-0.08785 0.02067,-0.043925 0.05943,-0.064596 z m 0.3514,-0.935344 q 0.06201,-0.031006 0.139527,0.00517 0.07751,0.03359 0.09819,0.1033529 0.02067,0.069763 -0.01292,0.1343588 -0.03359,0.064596 -0.09302,0.090434 -0.05684,0.025838 -0.126607,0 -0.06718,-0.025838 -0.100769,-0.095601 -0.03101,-0.069763 0,-0.1369426 0.03359,-0.069763 0.0956,-0.1007692 z m -0.519348,1.2944955 q 0.03101,-0.018087 0.07235,0 0.04134,0.015503 0.05168,0.051676 0.01292,0.03359 -0.0026,0.067179 -0.0155,0.03359 -0.04393,0.049093 -0.02842,0.012919 -0.0646,0.00258 -0.03359,-0.010335 -0.05426,-0.046509 -0.01809,-0.036174 -0.0026,-0.069763 0.0155,-0.036174 0.04393,-0.05426 z m 0.348816,-0.7958176 q 0.05168,-0.025838 0.116272,0.00517 0.06718,0.028422 0.08268,0.08785 0.01809,0.056844 -0.01034,0.1111044 -0.02842,0.05426 -0.07751,0.074931 -0.04909,0.020671 -0.105936,0 -0.05426,-0.020671 -0.08268,-0.080099 -0.02584,-0.059428 0,-0.116272 0.02842,-0.056844 0.07752,-0.082682 z m -0.459921,1.111044 q 0.02325,-0.012919 0.05168,0 0.02842,0.012919 0.03617,0.038757 0.0078,0.025838 -0.0052,0.049093 -0.01292,0.023254 -0.03359,0.03359 -0.02067,0.00775 -0.04651,0 -0.02325,-0.010335 -0.03617,-0.036174 -0.01034,-0.025838 0,-0.049093 0.01292,-0.025838 0.03359,-0.036174 z m 3.790466,-2.4184585 q -0.276469,-0.08785 -0.552938,0.046509 -0.27646898,0.131775 -0.65370698,0.6149499 -0.374655,0.483175 -0.333313,1.2557381 0.04393,0.7699793 0.558105,1.1859748 Q 1.142613,1.4433871 1.483678,1.3296991 1.827326,1.2160111 2.080541,0.8051833 2.333756,0.3943554 2.437109,0.0016143 2.543045,-0.3937106 2.506869,-0.8097062 2.473279,-1.2257019 2.178726,-1.6055239 1.886754,-1.9853459 1.610285,-2.0731959 Z M 0.77571002,-1.3626445 Q 1.044428,-1.6081077 1.357071,-1.4039855 1.669713,-1.2024473 1.814407,-0.8949723 1.959101,-0.5874974 1.977188,-0.0759004 1.997858,0.4331128 1.77565,0.6062289 1.556025,0.7793451 1.338984,0.6579059 1.124526,0.5364655 0.86356002,0.2444935 q -0.258382,-0.291972 -0.307475,-0.8268234 -0.04651,-0.5374353 0.219625,-0.7803146 z m -0.43925,0.3281455 0.160197,0.7544764 -0.131775,0.8087366 -0.160197,-0.7984013 z m -0.134358,0.7648117 q 0.149861,-0.072347 0.28422,-0.00258 -0.136942,0.074931 -0.28422,0.00258 z m 0.147278,-0.1421103 q 0.07235,0.1498617 0.0026,0.2842205 -0.07493,-0.1369426 -0.0026,-0.2842205 z M 1.393244,-0.099155 q 0.118856,-0.059428 0.266134,0.00775 0.147278,0.067179 0.186035,0.1989544 0.04134,0.1317749 -0.02325,0.2557984 -0.0646,0.1240236 -0.1757,0.1757 -0.111105,0.049093 -0.24288,0 -0.129191,-0.051676 -0.191203,-0.1834514 -0.06201,-0.131775 0,-0.26355 0.06201,-0.131775 0.180868,-0.1912029 z m 0.222209,0.1860353 q -0.03101,0.015503 -0.04651,0.049093 -0.0155,0.03359 0,0.069763 0.0155,0.03359 0.04909,0.046509 0.03359,0.012919 0.06201,0 0.02842,-0.012919 0.04651,-0.043925 0.01809,-0.031006 0.0078,-0.067179 -0.01034,-0.036174 -0.04909,-0.051677 -0.03876,-0.018087 -0.06976,-0.00258 z m 0.12144,0.6821293 q 0.105936,0.2067058 0.04909,0.2738852 -0.05684,0.067179 -0.113688,-0.00258 -0.05426,-0.072347 0.0646,-0.2713014 z m 0.253214,-2.0696424 q 0.03876,-0.020671 0.08785,0.00258 0.04909,0.023254 0.06201,0.067179 0.01292,0.043925 -0.01033,0.085266 -0.02067,0.041341 -0.05684,0.056844 -0.03617,0.015503 -0.0801,0 -0.04134,-0.015503 -0.06201,-0.059428 -0.02067,-0.046509 0,-0.08785 0.02067,-0.043925 0.05943,-0.064596 z M 1.351903,-1.9207503 q 0.06201,-0.031006 0.139526,0.00517 0.07751,0.03359 0.09819,0.1033529 0.02067,0.069763 -0.01292,0.1343588 -0.03359,0.064596 -0.09302,0.090434 -0.05684,0.025838 -0.126607,0 -0.06718,-0.025838 -0.10077,-0.095602 -0.03101,-0.069763 0,-0.1369426 0.03359,-0.069763 0.0956,-0.1007691 z m 0.855245,1.255738 q 0.02325,-0.012919 0.05168,0 0.03101,0.010335 0.03876,0.036174 0.0078,0.025838 -0.0052,0.051677 -0.01034,0.023254 -0.03101,0.03359 -0.01809,0.010335 -0.04393,0.00258 -0.02584,-0.00775 -0.03876,-0.03359 -0.01292,-0.025838 -0.0026,-0.051676 0.01034,-0.025838 0.03101,-0.038757 z M 1.731725,-1.6416974 q 0.05168,-0.025838 0.116272,0.00517 0.06718,0.028422 0.08268,0.08785 0.01809,0.056844 -0.01034,0.1111044 -0.02842,0.05426 -0.07751,0.074931 -0.04909,0.020671 -0.105936,0 -0.05426,-0.020671 -0.08268,-0.080099 -0.02584,-0.059428 0,-0.1162721 0.02842,-0.056844 0.07752,-0.082682 z m 0.457337,1.2815763 q 0.0155,-0.010335 0.03876,0 0.02325,0.00775 0.02842,0.028422 0.0078,0.018087 -0.0026,0.036174 -0.0078,0.018087 -0.02325,0.025838 -0.0155,0.00775 -0.03359,0.00258 -0.01809,-0.00517 -0.03101,-0.025838 -0.01033,-0.020671 -0.0026,-0.038757 0.01034,-0.020671 0.02584,-0.028422 z m -0.05684,-0.6071985 q 0.03101,-0.018087 0.07235,0 0.04134,0.015503 0.05168,0.051677 0.01292,0.03359 -0.0026,0.067179 -0.0155,0.03359 -0.04393,0.049093 -0.02842,0.012919 -0.0646,0.00258 -0.03359,-0.010335 -0.05426,-0.046509 -0.01809,-0.036174 -0.0026,-0.069763 0.0155,-0.036173 0.04393,-0.05426 z" />
  </g>
</svg>
