<?xml version="1.0" encoding="UTF-8" standalone="no"?>
<!-- Created with Inkscape (http://www.inkscape.org/) -->

<svg
   width="210mm"
   height="297mm"
   viewBox="0 0 210 297"
   version="1.1"
   id="svg1"
   sodipodi:docname="arabic numerals alternate larger.svg"
   inkscape:version="1.3 (0e150ed6c4, 2023-07-21)"
   xmlns:inkscape="http://www.inkscape.org/namespaces/inkscape"
   xmlns:sodipodi="http://sodipodi.sourceforge.net/DTD/sodipodi-0.dtd"
   xmlns="http://www.w3.org/2000/svg"
   xmlns:svg="http://www.w3.org/2000/svg">
  <sodipodi:namedview
     id="namedview1"
     pagecolor="#ffffff"
     bordercolor="#000000"
     borderopacity="0.25"
     inkscape:showpageshadow="2"
     inkscape:pageopacity="0.0"
     inkscape:pagecheckerboard="0"
     inkscape:deskcolor="#d1d1d1"
     inkscape:document-units="mm"
     inkscape:zoom="2"
     inkscape:cx="-86.25"
     inkscape:cy="-26.75"
     inkscape:window-width="2560"
     inkscape:window-height="1369"
     inkscape:window-x="-8"
     inkscape:window-y="-8"
     inkscape:window-maximized="1"
     inkscape:current-layer="layer1"
     showgrid="false" />
  <defs
     id="defs1" />
  <g
     inkscape:label="Layer 1"
     inkscape:groupmode="layer"
     id="layer1">
    <path
       id="text4"
       style="font-size:5.29167px;font-family:'Genzsch Et Heyse';-inkscape-font-specification:'Genzsch Et Heyse';text-align:center;text-anchor:middle;opacity:0.4;fill:#1a1a1a;stroke-width:0.529166"
       d="m 41.936975,19.293396 c -0.02117,0 -0.06691,0.03918 -0.137459,0.116789 -0.06349,0.07057 -0.140811,0.165837 -0.232544,0.28577 -0.09172,0.119948 -0.194065,0.253878 -0.306958,0.402043 -0.105827,0.14111 -0.21197,0.282118 -0.31781,0.42323 -0.09877,0.141108 -0.19732,0.271761 -0.296106,0.391707 -0.09172,0.112896 -0.169554,0.20109 -0.233061,0.264584 -0.112898,0.162278 -0.204372,0.334871 -0.274919,0.518314 -0.07056,0.183445 -0.123366,0.353275 -0.158646,0.508496 -0.03528,0.155216 -0.06359,0.28535 -0.08475,0.391191 -0.01411,0.105826 -0.02497,0.162432 -0.03204,0.169499 0,0.04233 -0.0071,0.09515 -0.02119,0.158646 -0.0071,0.06351 -0.01034,0.102166 -0.01034,0.116272 v 0.190686 0.201022 0.296622 c 0.007,0.07761 0.01412,0.154931 0.02119,0.232544 0.01411,0.07057 0.02826,0.141327 0.04237,0.211874 0.01411,0.07055 0.02826,0.147877 0.04237,0.232544 0,0.05644 0.02123,0.137556 0.06356,0.243396 0.04233,0.105826 0.08807,0.21197 0.137459,0.31781 0.05644,0.10582 0.109261,0.20109 0.158647,0.28577 0.04937,0.08467 0.07768,0.133688 0.08475,0.147795 0.05644,0.05644 0.123409,0.141355 0.201022,0.254248 0.07761,0.105827 0.134219,0.190741 0.169499,0.254248 l 0.105419,0.116272 c 0.162278,0.162277 0.317955,0.296209 0.466122,0.402043 0.155222,0.09877 0.306586,0.222348 0.454752,0.37052 h 0.05323 c 0.01473,-0.0063 0.0688,-0.01027 0.07907,0 h 0.05323 c 0.04939,-0.02117 0.112556,-0.07778 0.190169,-0.169499 0.08467,-0.09172 0.169582,-0.190266 0.254248,-0.296106 0.09172,-0.112893 0.176118,-0.219037 0.253731,-0.31781 0.08467,-0.09878 0.148353,-0.169023 0.190686,-0.211357 0.04939,-0.04938 0.105993,-0.123422 0.169499,-0.222208 0.07057,-0.105829 0.14081,-0.215252 0.211357,-0.328146 0.07056,-0.119942 0.141327,-0.240238 0.211873,-0.360184 0.07762,-0.126994 0.147863,-0.242976 0.211357,-0.348816 v -0.03204 c 0.05644,-0.155221 0.0989,-0.29623 0.127124,-0.42323 0.03528,-0.134053 0.06359,-0.260908 0.08475,-0.380855 0.02117,-0.127 0.0386,-0.254372 0.05271,-0.381372 0.02116,-0.127 0.04619,-0.260931 0.07441,-0.402043 v -0.444417 c 0,-0.225779 -0.03209,-0.447903 -0.0956,-0.666626 -0.0635,-0.21872 -0.133744,-0.430491 -0.211357,-0.635103 v -0.06356 c -0.09172,-0.261056 -0.197863,-0.472826 -0.31781,-0.635104 -0.119942,-0.169337 -0.239721,-0.303269 -0.359668,-0.402042 -0.112892,-0.105836 -0.215238,-0.183674 -0.306958,-0.233061 -0.08467,-0.04939 -0.137473,-0.08425 -0.158647,-0.10542 -0.02116,-0.01411 -0.05982,-0.04242 -0.116272,-0.08475 -0.05644,-0.04939 -0.09182,-0.08148 -0.105936,-0.0956 l -0.0739,-0.0739 c -0.02823,-0.04233 -0.06032,-0.08479 -0.0956,-0.127124 -0.02823,-0.04233 -0.05654,-0.06356 -0.08475,-0.06356 h -0.1323 z m -4.095357,0.169499 c -0.01411,0.0071 -0.0462,0.02121 -0.0956,0.04237 -0.04939,0.02117 -0.102206,0.0424 -0.158646,0.06356 -0.05644,0.02117 -0.116328,0.0386 -0.179834,0.05271 -0.05644,0.01411 -0.0989,0.02119 -0.127124,0.02119 h -0.105937 c 0,0.02823 -0.02451,0.07068 -0.0739,0.127124 -0.04233,0.04939 -0.09187,0.102206 -0.148312,0.158646 -0.04939,0.05644 -0.09841,0.109247 -0.147794,0.158647 -0.04233,0.04939 -0.06356,0.08476 -0.06356,0.105937 -0.07056,0.14111 -0.134246,0.275042 -0.190686,0.402042 -0.04939,0.119943 -0.0739,0.21901 -0.0739,0.296623 v 0.412895 c 0,0.03528 0.01035,0.0881 0.03152,0.158646 0.02823,0.07056 0.04237,0.130448 0.04237,0.179834 v 0.0739 c 0.01411,0.01411 0.02825,0.03913 0.04237,0.07441 0.01411,0.02823 0.03205,0.04237 0.126427,0.04237 0.09437,0 0.111802,-0.02503 0.111802,-0.07441 0.0071,-0.05644 0.02121,-0.0951 0.04237,-0.116272 v -0.306958 c 0,-0.02823 0.01415,-0.08105 0.04237,-0.158646 0.02823,-0.07761 0.06689,-0.15873 0.116272,-0.243396 0.05644,-0.08466 0.120126,-0.158702 0.190686,-0.222209 0.07761,-0.07056 0.15873,-0.105937 0.243396,-0.105937 h 0.375688 c 0.06349,0 0.162045,0.05661 0.296106,0.169499 0.134058,0.10584 0.247277,0.246848 0.338997,0.42323 l 0.03152,0.127124 c 0.02823,0.08466 0.05274,0.161984 0.0739,0.232544 v 0.08475 c -0.03527,0.204608 -0.05649,0.366846 -0.06356,0.486792 0,0.112895 -0.01035,0.21852 -0.03152,0.317294 -0.02117,0.09877 -0.05655,0.204916 -0.105936,0.31781 -0.04939,0.112893 -0.130503,0.268054 -0.243396,0.465604 -0.01411,0.01411 -0.06365,0.07399 -0.148312,0.179834 -0.08467,0.09878 -0.176145,0.211998 -0.274918,0.338998 -0.09172,0.126996 -0.179917,0.246775 -0.264584,0.359668 -0.07761,0.105826 -0.116271,0.165714 -0.116271,0.179834 -0.04233,0.04233 -0.09187,0.106019 -0.148312,0.190686 -0.04939,0.07761 -0.09893,0.15493 -0.148311,0.232544 -0.04233,0.07762 -0.07771,0.14838 -0.105937,0.211873 -0.02823,0.06351 -0.04186,0.102165 -0.04186,0.116272 -0.11995,0.225777 -0.211942,0.423396 -0.275435,0.592729 -0.05644,0.162278 -0.113046,0.345743 -0.169499,0.550354 l 0.0956,0.03152 h 0.08733 0.08733 c 0.01411,0 0.02446,-0.02123 0.03152,-0.06356 0.01411,-0.04233 0.02826,-0.09135 0.04237,-0.147794 0.02117,-0.05644 0.04948,-0.10926 0.08475,-0.158647 0.03528,-0.04939 0.08482,-0.08476 0.148312,-0.105937 0.0071,-0.01411 0.02121,-0.02119 0.04237,-0.02119 0.02823,-0.0071 0.04894,-0.01795 0.06305,-0.03204 h 0.01602 c 0.04939,0.04939 0.120154,0.102723 0.211874,0.159163 0.09877,0.05644 0.147794,0.116327 0.147794,0.179834 0.02823,0.05644 0.0674,0.12669 0.116789,0.211357 0.05644,0.07761 0.11961,0.155447 0.190169,0.23306 0.07762,0.07762 0.165811,0.14838 0.264584,0.211874 0.105833,0.05644 0.222333,0.0951 0.349332,0.116272 h 0.05271 c 0.02266,0 0.04312,-0.0021 0.0646,-0.0031 0.0051,9.1e-4 0.0099,0.0022 0.01499,0.0031 h 0.05271 c 0.183437,0 0.328242,-0.03158 0.434082,-0.09509 0.112896,-0.07056 0.20109,-0.138045 0.264583,-0.201538 l 0.105937,-0.116272 c 0.105833,-0.105827 0.179876,-0.211453 0.222209,-0.317293 0.04233,-0.10584 0.07392,-0.211984 0.09508,-0.31781 0.02116,-0.105826 0.03531,-0.208172 0.04237,-0.306958 0.01411,-0.09878 0.04242,-0.18697 0.08475,-0.264584 v -0.0739 c -0.0071,-0.01411 -0.02121,-0.02119 -0.04237,-0.02119 -0.01411,-0.0071 -0.02446,-0.01034 -0.08543,-0.0087 -0.06097,0.0016 -0.07132,-0.0016 -0.07839,-0.0016 -0.02823,0 -0.05325,0.02451 -0.07441,0.0739 -0.02116,0.04939 -0.03859,0.105992 -0.05271,0.169498 -0.01411,0.06351 -0.02825,0.126676 -0.04237,0.19017 -0.01411,0.06351 -0.03154,0.113044 -0.05271,0.148311 0,0.03528 -0.01795,0.07066 -0.05323,0.105937 -0.03528,0.03528 -0.07774,0.06686 -0.127124,0.09508 -0.04233,0.02117 -0.08427,0.03912 -0.126607,0.05323 -0.01147,0.0038 -0.01127,0.0029 -0.02015,0.0057 -0.03005,-0.01219 -0.0571,-0.03148 -0.08062,-0.05891 -0.04233,-0.05644 -0.09187,-0.12669 -0.148312,-0.211356 -0.04939,-0.08466 -0.112556,-0.18373 -0.190169,-0.296623 -0.07761,-0.112889 -0.176676,-0.232668 -0.296623,-0.359668 -0.09173,0 -0.183198,-0.03538 -0.274918,-0.105937 -0.09172,-0.07761 -0.176635,-0.116272 -0.254248,-0.116272 H 37.7248 37.68811 37.555818 c -0.04939,0 -0.120153,0.02123 -0.211873,0.06356 -0.0235,0.01175 -0.03503,0.01624 -0.05581,0.02635 l 0.0186,-0.03721 c 0.02117,-0.04939 0.06363,-0.116354 0.127124,-0.201021 0.06351,-0.09173 0.120112,-0.162487 0.169498,-0.211873 l 0.19017,-0.19017 c 0.105826,-0.07761 0.247351,-0.190833 0.423747,-0.338997 0.176389,-0.155222 0.345702,-0.313663 0.507979,-0.47594 0.169332,-0.169333 0.313619,-0.32829 0.433565,-0.476457 0.119947,-0.148162 0.180351,-0.257585 0.180351,-0.328145 l 0.03152,-0.06356 c 0.02116,-0.04939 0.04947,-0.112556 0.08475,-0.190169 0.03528,-0.08467 0.05979,-0.134205 0.0739,-0.148312 l 0.105937,-0.328145 c 0,-0.01411 0.0038,-0.04568 0.01085,-0.09508 0.01411,-0.05644 0.02067,-0.08853 0.02067,-0.0956 l 0.03204,-0.03152 c 0.01411,-0.01411 0.02119,-0.05277 0.02119,-0.116272 0.0071,-0.07056 0.01742,-0.116299 0.03152,-0.137459 v -0.190686 c 0,-0.225778 -0.03486,-0.426675 -0.10542,-0.603064 -0.06351,-0.176388 -0.148422,-0.328269 -0.254248,-0.455269 -0.09878,-0.127001 -0.211481,-0.233144 -0.338481,-0.31781 -0.11994,-0.09172 -0.236439,-0.16197 -0.349333,-0.211357 -0.105833,-0.05644 -0.201104,-0.0951 -0.28577,-0.116272 -0.07761,-0.02117 -0.127152,-0.03204 -0.148312,-0.03204 H 38.137724 37.97391 Z m 3.430281,0.99167 c 0.08059,0.01538 0.16126,0.05542 0.241846,0.11989 0.105833,0.07762 0.201104,0.16581 0.285771,0.264583 0.09172,0.09172 0.169554,0.176118 0.23306,0.253731 0.06351,0.07056 0.105965,0.09887 0.127125,0.08475 v 0.05271 c 0.218719,0.282221 0.388032,0.522297 0.507979,0.719852 0.127006,0.197556 0.222277,0.370665 0.285771,0.518832 0.06349,0.148164 0.109232,0.282096 0.137459,0.402042 0.02823,0.112899 0.0636,0.225601 0.105937,0.338481 0.03527,0.141104 0.05598,0.26468 0.06305,0.37052 0.0071,0.10584 0.01085,0.225619 0.01085,0.359668 0,0.141116 -0.0071,0.240183 -0.02119,0.296623 -0.01411,0.04939 -0.02119,0.105475 -0.02119,0.168982 v 0.137976 c 0,0.07762 -0.01743,0.165811 -0.05271,0.264583 -0.03528,0.09877 -0.07774,0.197319 -0.127124,0.296106 -0.04939,0.09172 -0.102207,0.179917 -0.158646,0.264583 -0.04939,0.07761 -0.09564,0.137501 -0.137977,0.179834 l -0.147794,0.13746 c -0.0022,0 -0.007,0.0024 -0.0098,0.0031 -0.022,-0.0087 -0.04506,-0.01918 -0.06976,-0.03462 -0.04939,-0.03528 -0.102207,-0.07774 -0.158647,-0.127124 -0.05644,-0.04939 -0.10926,-0.09513 -0.158646,-0.137459 -0.04939,-0.04233 -0.09513,-0.07391 -0.137459,-0.09509 l -0.444935,-0.444417 c -0.148163,-0.148172 -0.260867,-0.271747 -0.33848,-0.37052 -0.07056,-0.105833 -0.127166,-0.201104 -0.169499,-0.285771 -0.04233,-0.09171 -0.08099,-0.186984 -0.116272,-0.285771 -0.02823,-0.09877 -0.07776,-0.218552 -0.148311,-0.359668 -0.09172,-0.176389 -0.158688,-0.342422 -0.201022,-0.497644 -0.04233,-0.155219 -0.07064,-0.292948 -0.08475,-0.412894 -0.0071,-0.127003 -0.0071,-0.236426 0,-0.328146 0.0071,-0.09877 0.01085,-0.179889 0.01085,-0.243396 10e-7,-0.402165 0.05609,-0.719563 0.168982,-0.952396 0.119947,-0.232833 0.250598,-0.416298 0.391707,-0.550354 l 0.04237,-0.05271 c 0.01411,-0.0071 0.03205,-0.01793 0.05323,-0.03204 0.01495,-0.01121 0.02725,-0.01902 0.03824,-0.02429 z m -0.03307,0.236165 c -0.05644,0 -0.113045,0.03538 -0.169498,0.105936 -0.04939,0.06351 -0.09513,0.133757 -0.13746,0.211357 -0.04233,0.07056 -0.07771,0.137528 -0.105936,0.201021 -0.02117,0.05644 -0.03152,0.07439 -0.03152,0.05323 -0.0071,0.0071 -0.01793,0.03865 -0.03204,0.09509 -0.0071,0.04939 -0.01033,0.08096 -0.01033,0.09508 v 0.169499 0.148311 c 0,0.09877 0.03159,0.19732 0.09508,0.296106 0.07056,0.09877 0.113018,0.148312 0.127124,0.148312 0.04938,0.04939 0.123422,0.0739 0.222209,0.0739 h 0.03152 c 0.01588,0 0.03159,-9.72e-4 0.04703,-0.0036 0.01719,0.0018 0.03472,0.0036 0.05374,0.0036 h 0.03152 c 0.06351,0 0.123394,-0.02123 0.179834,-0.06356 0.05644,-0.04233 0.08475,-0.08427 0.08475,-0.126607 v -0.105937 c -0.01411,-0.02823 -0.04242,-0.04946 -0.08475,-0.06356 -0.03528,-0.02117 -0.05979,-0.0386 -0.0739,-0.05271 h -0.09793 c -0.01287,0.01287 -0.09792,0 -0.09792,0 -0.03528,0.03528 -0.06359,0.05979 -0.08475,0.0739 -0.01125,0.01125 -0.01684,0.04261 -0.01912,0.08527 -0.01001,-0.009 -0.01974,-0.01954 -0.02842,-0.03256 -0.02116,-0.04233 -0.03859,-0.08427 -0.05271,-0.126607 -0.01411,-0.04939 -0.02497,-0.09564 -0.03204,-0.137976 -0.0071,-0.04233 -0.01743,-0.06304 -0.03152,-0.06304 v -0.275436 c 0.06349,-0.162277 0.140811,-0.307082 0.232544,-0.434082 0.09172,-0.134058 0.130896,-0.225532 0.116789,-0.274918 h -0.132276 z m -0.348815,0.70745 c -2.84e-4,0.0024 -2.68e-4,0.0045 -5.17e-4,0.0067 v -0.0052 c 2.01e-4,-5.14e-4 3.15e-4,-0.001 5.17e-4,-0.0015 z m 1.96266,3.959915 c 0,-0.03528 0.01415,-0.08482 0.04237,-0.148311 0.03528,-0.06351 0.07066,-0.134274 0.105937,-0.211874 0.03528,-0.07761 0.06359,-0.15493 0.08475,-0.232544 0.02823,-0.07762 0.03479,-0.151662 0.02067,-0.222208 0,-0.162283 -0.03866,-0.292934 -0.116272,-0.391708 -0.07761,-0.105823 -0.17616,-0.186942 -0.296106,-0.243396 h -0.132292 -0.08992 l -0.132273,5e-5 c 0,0.01411 -0.02831,0.03534 -0.08475,0.06356 -0.0494,0.02117 -0.07063,0.0386 -0.06356,0.05271 v 0.158647 c 0.01411,0.0071 0.02826,0.02829 0.04237,0.06356 0.01411,0.02823 0.02826,0.04237 0.04237,0.04237 h 0.132292 0.03721 0.132292 c 0.01411,0 0.02774,-0.0033 0.04186,-0.01034 0.01411,-0.01411 0.02825,-0.02497 0.04237,-0.03204 l 0.0031,-0.0016 0.0026,0.0016 0.08423,0.158647 c 0.01411,0.01411 0.02119,0.04242 0.02119,0.08475 0,0.03528 0.01795,0.05323 0.05323,0.05323 v 0.147794 c -0.02823,0.07056 -0.04946,0.137528 -0.06356,0.201022 -0.01411,0.06351 -0.02825,0.12391 -0.04237,0.18035 -0.01411,0.05644 -0.03534,0.116328 -0.06356,0.179834 -0.02823,0.05644 -0.07068,0.116328 -0.127124,0.179834 l 0.108502,0.0315 z"
       sodipodi:nodetypes="ccccccccscccsccccccscsccccccccccccscccccccccsscccccccsccssccccsccccccsscscccccssccssccccccsscccccccscccccscccccccccccccsccscccsscccccsscccscscccsccsccsccccsccssccccccccccscccccsccccccccccsccsscsssccccccssccccccsccsccccccccccscsccsscsssscccccccccscccccccccccccccccccccccsccscscccsccsccccccscc" />
    <path
       id="text12"
       style="font-size:5.29167px;font-family:'Genzsch Et Heyse';-inkscape-font-specification:'Genzsch Et Heyse';text-align:center;text-anchor:middle;opacity:0.4;fill:#1a1a1a;stroke-width:0.529166"
       d="m 24.539587,-44.209705 c -0.04233,0 -0.08479,0.01415 -0.127124,0.04237 -0.04233,0.02117 -0.06356,0.05655 -0.06356,0.105937 l -0.08475,0.0739 c -0.08467,0.04939 -0.154917,0.102724 -0.211357,0.159163 -0.03155,0.03606 -0.06353,0.05578 -0.09508,0.06305 h -0.05323 -0.206706 c -0.01411,-0.0071 -0.05985,-0.01742 -0.137459,-0.03152 -0.07056,-0.02116 -0.12338,-0.03531 -0.158647,-0.04237 l -0.06356,-0.03152 -0.274918,-0.275436 h -0.06356 -0.06873 -0.06356 l -0.04237,0.05323 c 0,0.112889 -0.03538,0.232668 -0.105936,0.359668 -0.06351,0.126999 -0.137556,0.250574 -0.222209,0.37052 -0.08466,0.112891 -0.162501,0.215238 -0.233061,0.306958 -0.06351,0.08467 -0.09508,0.140755 -0.09508,0.168982 -0.169327,0.254 -0.285826,0.451618 -0.349333,0.592729 -0.06351,0.141106 -0.102165,0.24725 -0.116272,0.31781 -0.01413,0.07056 -0.01792,0.1125 -0.03557,0.133698 -0.01765,0.0212 -0.02095,0.0424 -0.02798,0.07766 0,0.02823 -0.0038,0.05982 -0.01085,0.09508 0,0.03528 -0.0033,0.07066 -0.01034,0.105937 v 0.07441 0.10542 c 0,0.18344 0.03158,0.332041 0.09508,0.444934 0.06351,0.105829 0.144623,0.194023 0.243396,0.264583 0.105831,0.06351 0.219051,0.116313 0.338998,0.158647 0.11994,0.04233 0.236439,0.08807 0.349332,0.137459 0.02823,0 0.07017,0.01035 0.126608,0.03152 0.05644,0.02117 0.113045,0.0462 0.169498,0.07441 0.06351,0.02823 0.120112,0.05654 0.169499,0.08475 0.04939,0.02823 0.08096,0.04946 0.09509,0.06356 l 0.328145,0.327629 c 0.02117,0.09878 0.04948,0.18697 0.08475,0.264583 0.04233,0.07761 0.08099,0.155448 0.116272,0.233061 0.03528,0.07761 0.06686,0.162011 0.09508,0.253731 0.02823,0.08467 0.04237,0.19081 0.04237,0.31781 0,0.04233 -0.0071,0.12345 -0.02119,0.243396 -0.0071,0.112887 -0.0245,0.229386 -0.05271,0.349333 -0.02116,0.119949 -0.04947,0.229372 -0.08475,0.328145 -0.03528,0.09172 -0.07394,0.137459 -0.116272,0.137459 -0.0071,0.01411 -0.02501,0.04242 -0.05323,0.08475 -0.02821,0.03528 -0.04564,0.05979 -0.05271,0.0739 l -0.222208,0.222209 c -0.09173,0.04233 -0.183716,0.08807 -0.275436,0.137459 -0.09172,0.04233 -0.179916,0.08151 -0.264583,0.116789 h -0.396875 c -0.0071,0 -0.03864,-0.01087 -0.09509,-0.03204 -0.05644,-0.02116 -0.0989,-0.03531 -0.127124,-0.04237 l -0.28577,-0.147795 h -0.04237 c -0.02116,-0.0071 -0.03859,-0.01085 -0.05271,-0.01085 0.02494,0.05624 -0.02131,0.0062 -0.03716,0.01086 h -0.04237 c -0.02116,-0.0071 -0.03859,-0.01085 -0.05271,-0.01085 0,0.0071 0.0038,0.03158 0.01085,0.0739 0.0071,0.04233 0.01034,0.07064 0.01034,0.08475 l 0.03152,0.03204 c 0.08467,0.08467 0.176662,0.147836 0.275436,0.190169 0.09877,0.04233 0.194037,0.07443 0.28577,0.0956 0.09172,0.01411 0.176118,0.02119 0.253732,0.02119 0.02491,-0.0023 0.0366,-0.0021 0.05788,-0.0036 0.02511,0.0013 0.05063,0.0036 0.07441,0.0036 0.07761,-0.0071 0.138018,-0.01085 0.180351,-0.01085 h 0.03152 c 0.155222,-0.02823 0.300026,-0.04946 0.434082,-0.06356 0.14111,-0.01411 0.275042,-0.04242 0.402042,-0.08475 0.126999,-0.04234 0.250574,-0.109302 0.37052,-0.201022 0.127,-0.09172 0.253856,-0.232727 0.380856,-0.42323 0,0.0071 0.0071,0.01085 0.02119,0.01085 0.04939,-0.01411 0.102207,-0.07071 0.158647,-0.169498 0.05644,-0.09878 0.109246,-0.208199 0.158646,-0.328146 0.04939,-0.11995 0.08856,-0.232654 0.116789,-0.33848 0.03528,-0.105844 0.05271,-0.176607 0.05271,-0.211874 0.01411,-0.0071 0.02119,-0.04952 0.02119,-0.127124 0.0071,-0.08467 0.01743,-0.147836 0.03152,-0.190169 v -0.105937 c -0.03528,-0.282222 -0.06307,-0.511424 -0.08423,-0.687813 -0.02117,-0.183444 -0.05655,-0.352757 -0.105936,-0.507979 l -0.03204,-0.04237 c -0.02117,-0.03528 -0.04568,-0.07446 -0.0739,-0.116789 -0.02116,-0.04233 -0.04239,-0.07719 -0.06356,-0.10542 -0.02117,-0.03528 -0.02825,-0.05323 -0.02119,-0.05323 -0.01411,-0.02117 -0.03154,-0.04948 -0.05271,-0.08475 -0.02117,-0.03528 -0.0424,-0.07014 -0.06356,-0.10542 -0.02116,-0.03528 -0.04239,-0.06739 -0.06356,-0.0956 -0.01411,-0.02823 -0.02446,-0.04237 -0.03152,-0.04237 l -0.159163,-0.158646 c -0.05644,-0.02823 -0.112529,-0.06689 -0.168982,-0.116272 -0.04939,-0.05644 -0.102207,-0.10218 -0.158647,-0.13746 -0.04233,-0.04233 -0.127248,-0.09187 -0.254248,-0.148311 -0.127,-0.06351 -0.26093,-0.120112 -0.402043,-0.169499 -0.13405,-0.05644 -0.257627,-0.102179 -0.37052,-0.137459 -0.112898,-0.03528 -0.18366,-0.05271 -0.211873,-0.05271 l -0.190169,-0.190686 c -0.02823,-0.02823 -0.05654,-0.07397 -0.08475,-0.137459 -0.02117,-0.06351 -0.03204,-0.113045 -0.03204,-0.148312 v -0.222208 c 0,-0.04939 0.01087,-0.102207 0.03204,-0.158647 0.02117,-0.06351 0.04948,-0.113045 0.08475,-0.148311 l 0.07338,-0.0615 c 0.03131,0.0129 0.04806,0.02331 0.04806,0.02997 l 0.222209,0.116272 h 0.132292 0.502811 0.132292 c 0.09877,0 0.204918,-0.03866 0.31781,-0.116272 0.112896,-0.08466 0.20109,-0.158702 0.264583,-0.222209 l 0.03152,-0.03204 c 0.141113,-0.134054 0.257613,-0.303367 0.349333,-0.507979 0.09877,-0.204611 0.148311,-0.416381 0.148311,-0.635104 h -0.132324 z"
       sodipodi:nodetypes="ccccccccccccccccccccsccccccsccscscccccscscccccccccsccccccccsccsccccsccscccsccccccccccccsscccccccscccsscccccccsccccccc" />
    <path
       id="text1"
       style="font-size:5.29167px;font-family:'Genzsch Et Heyse';-inkscape-font-specification:'Genzsch Et Heyse';text-align:center;text-anchor:middle;opacity:0.4;fill:#1a1a1a;stroke-width:0.529166"
       d="m 41.667741,-27.228829 c -0.02117,0 -0.06691,0.03918 -0.137459,0.116789 -0.06349,0.07057 -0.140811,0.165837 -0.232544,0.28577 -0.09172,0.119947 -0.194065,0.253878 -0.306958,0.402043 -0.105827,0.141111 -0.211971,0.282118 -0.31781,0.42323 -0.09877,0.141108 -0.19732,0.271761 -0.296106,0.391707 -0.09172,0.112896 -0.169554,0.201091 -0.233061,0.264584 -0.112897,0.162277 -0.204372,0.334869 -0.274919,0.518314 -0.07056,0.183444 -0.12338,0.352757 -0.158646,0.50798 -0.03528,0.155229 -0.06359,0.285881 -0.08475,0.391707 -0.01411,0.105827 -0.02497,0.162432 -0.03204,0.169499 0,0.04233 -0.0071,0.09515 -0.02119,0.158646 -0.0071,0.06351 -0.01034,0.102166 -0.01034,0.116272 v 0.190686 0.201022 0.296106 c 0.007,0.07761 0.01412,0.155447 0.02119,0.23306 0.01411,0.07057 0.02825,0.141327 0.04237,0.211874 0.01411,0.07055 0.02826,0.147877 0.04237,0.232544 0,0.05644 0.02123,0.137556 0.06356,0.243396 0.04233,0.105826 0.08807,0.21197 0.137459,0.31781 0.05644,0.105846 0.109247,0.201117 0.158647,0.28577 0.04937,0.08467 0.07768,0.133688 0.08475,0.147795 0.05644,0.05644 0.123408,0.141355 0.201022,0.254248 0.07761,0.105828 0.134218,0.190225 0.169498,0.253731 l 0.10542,0.116789 c 0.162277,0.162284 0.317955,0.296216 0.466122,0.402043 0.155222,0.09877 0.306586,0.222348 0.454752,0.37052 h 0.05323 0.07907 0.05323 c 0.04939,-0.02117 0.112556,-0.07778 0.190169,-0.169499 0.08467,-0.09172 0.169581,-0.190266 0.254248,-0.296106 0.09172,-0.112893 0.176118,-0.219037 0.253731,-0.31781 0.08467,-0.09878 0.148353,-0.169023 0.190686,-0.211357 0.04939,-0.04938 0.105992,-0.123938 0.169499,-0.222725 0.07057,-0.105843 0.14081,-0.214749 0.211357,-0.327629 0.07056,-0.119942 0.141326,-0.240238 0.211873,-0.360184 0.07762,-0.127007 0.147863,-0.243506 0.211357,-0.349333 v -0.03152 c 0.05644,-0.155222 0.0989,-0.29623 0.127124,-0.42323 0.03528,-0.134053 0.06359,-0.261425 0.08475,-0.381372 0.02117,-0.126999 0.0386,-0.253855 0.05271,-0.380855 0.02117,-0.127 0.0462,-0.260932 0.07441,-0.402043 v -0.444417 c 0,-0.225777 -0.03211,-0.447903 -0.0956,-0.666626 -0.06351,-0.218721 -0.133757,-0.430491 -0.211357,-0.635103 v -0.06356 c -0.09172,-0.261056 -0.197864,-0.472826 -0.31781,-0.635104 -0.119941,-0.169338 -0.239722,-0.303269 -0.359668,-0.402042 -0.112892,-0.105835 -0.215238,-0.183674 -0.306958,-0.233061 -0.08467,-0.04939 -0.137487,-0.08476 -0.158647,-0.105937 -0.02117,-0.01411 -0.05983,-0.0419 -0.116272,-0.08423 -0.05644,-0.04939 -0.09182,-0.08148 -0.105936,-0.0956 l -0.0739,-0.0739 c -0.02823,-0.04233 -0.06033,-0.08479 -0.0956,-0.127124 -0.02823,-0.04233 -0.05654,-0.06356 -0.08475,-0.06356 h -0.13229 z m -3.005501,0.222209 c -0.04233,0 -0.102221,0.03918 -0.179834,0.116788 -0.07056,0.07762 -0.148395,0.169093 -0.233061,0.274919 -0.07761,0.09877 -0.154931,0.197836 -0.232544,0.296623 -0.07056,0.09172 -0.130447,0.158688 -0.179834,0.201021 0,0.03528 -0.02831,0.07066 -0.08475,0.105937 -0.04939,0.02823 -0.105992,0.05602 -0.169499,0.08423 -0.05644,0.02117 -0.105978,0.03912 -0.148311,0.05323 -0.02233,0.0074 -0.03513,0.0125 -0.03979,0.01602 -0.0171,-0.0019 -0.04272,-0.0057 -0.05013,-0.0057 v -0.28577 c 0,-0.01411 -0.01035,-0.02825 -0.03152,-0.04237 l -0.04237,-0.04237 h -0.06356 -0.06873 -0.06356 c -0.06349,0.03528 -0.102152,0.06031 -0.116272,0.07441 -0.01411,0.01411 -0.03913,0.05277 -0.07441,0.116272 v 0.116272 c 0,0.11289 0.03918,0.190728 0.116788,0.233061 0.08466,0.04233 0.165783,0.07391 0.243396,0.09509 h 0.132292 0.02635 c 0.03528,0 0.07774,0.0071 0.127124,0.02119 l 0.08423,0.01085 v 3.513481 l 0.04237,0.0739 v 0.920874 c 0,0.218723 -0.04194,0.405984 -0.126607,0.561206 -0.07761,0.148163 -0.155448,0.278298 -0.233061,0.391191 l -0.306958,0.306958 v 0.04237 l 0.03204,0.0956 h 0.08423 0.04806 0.08423 c 0.04234,-0.07056 0.116899,-0.155475 0.222725,-0.254248 0.10582,-0.105836 0.221803,-0.204386 0.348816,-0.296106 0.126997,-0.09172 0.250574,-0.169554 0.37052,-0.233061 0.126999,-0.07056 0.229345,-0.105937 0.306958,-0.105937 0.141111,-0.05644 0.285916,-0.112528 0.434082,-0.168982 0.155223,-0.05644 0.306586,-0.109776 0.454753,-0.159163 v -0.116272 c 0,-0.0071 -0.02071,-0.02122 -0.06304,-0.04238 -0.04233,-0.02823 -0.09187,-0.0598 -0.148312,-0.09508 -0.04939,-0.04233 -0.09513,-0.08479 -0.137459,-0.127124 -0.04233,-0.04233 -0.06356,-0.08479 -0.06356,-0.127124 0,-0.03528 -0.0038,-0.0843 -0.01085,-0.147795 -0.0071,-0.07056 -0.01742,-0.138045 -0.03152,-0.201538 -0.007,-0.07056 -0.01412,-0.137528 -0.02119,-0.201021 -0.0071,-0.06351 -0.01085,-0.112528 -0.01085,-0.147795 v -4.879289 c 0,-0.01411 -0.01035,-0.02446 -0.03152,-0.03152 -0.02117,-0.0071 -0.0424,-0.01085 -0.06356,-0.01085 l -0.13229,4e-5 z m 2.339908,0.93896 c 0.08076,0.01531 0.161596,0.05476 0.242363,0.119373 0.105833,0.07762 0.201104,0.16581 0.285771,0.264583 0.09172,0.09172 0.169554,0.176635 0.23306,0.254248 0.06351,0.07056 0.105964,0.09887 0.127124,0.08475 v 0.05271 c 0.21872,0.282222 0.388033,0.522297 0.50798,0.719852 0.126993,0.197556 0.222264,0.370149 0.28577,0.518315 0.06351,0.148164 0.109246,0.282613 0.13746,0.402559 0.02823,0.112899 0.0636,0.225601 0.105936,0.338481 0.03527,0.141117 0.05598,0.264694 0.06305,0.37052 0.0071,0.10584 0.01085,0.225619 0.01085,0.359668 0,0.141116 -0.0071,0.239666 -0.02119,0.296106 -0.01411,0.04939 -0.02119,0.105992 -0.02119,0.169499 v 0.137459 c 0,0.07762 -0.01743,0.16581 -0.05271,0.264583 -0.03528,0.09877 -0.07774,0.197837 -0.127124,0.296623 -0.04939,0.09172 -0.102207,0.179917 -0.158647,0.264583 -0.04939,0.07761 -0.09564,0.137501 -0.137976,0.179834 l -0.147794,0.13746 c -0.0022,0 -0.007,0.0024 -0.0098,0.0031 -0.022,-0.0087 -0.04506,-0.01918 -0.06976,-0.03462 -0.04939,-0.03528 -0.102207,-0.07774 -0.158647,-0.127124 -0.05644,-0.04939 -0.109246,-0.09513 -0.158646,-0.137459 -0.04939,-0.04233 -0.09513,-0.07391 -0.13746,-0.09508 l -0.444934,-0.444934 c -0.148165,-0.148172 -0.260867,-0.27123 -0.33848,-0.370003 -0.07056,-0.105846 -0.127166,-0.201117 -0.169499,-0.285771 -0.04233,-0.09171 -0.08099,-0.186983 -0.116272,-0.285771 -0.02823,-0.09877 -0.07776,-0.219068 -0.148311,-0.360184 -0.09172,-0.176389 -0.158688,-0.341906 -0.201022,-0.497128 -0.04233,-0.155219 -0.07064,-0.292948 -0.08475,-0.412894 -0.0071,-0.127003 -0.0071,-0.236426 0,-0.328146 0.0071,-0.09877 0.01085,-0.179889 0.01085,-0.243396 0,-0.402166 0.05609,-0.719563 0.168982,-0.952396 0.119946,-0.232833 0.250598,-0.416298 0.391707,-0.550354 l 0.04237,-0.05271 c 0.01411,-0.0071 0.03154,-0.01793 0.05271,-0.03204 0.0147,-0.01102 0.02737,-0.01901 0.03824,-0.02429 z m -0.03256,0.236162 c -0.05644,0 -0.113045,0.03486 -0.169498,0.10542 -0.04939,0.06351 -0.09513,0.134273 -0.13746,0.211873 -0.04233,0.07056 -0.07771,0.137528 -0.105936,0.201021 -0.02117,0.05644 -0.03204,0.07439 -0.03204,0.05323 -0.0071,0.0071 -0.01742,0.03864 -0.03152,0.09509 -0.0071,0.04939 -0.01034,0.08096 -0.01034,0.09508 v 0.169499 0.148311 c 0,0.09877 0.03159,0.19732 0.09509,0.296106 0.07056,0.09877 0.113017,0.148312 0.127124,0.148312 0.04939,0.04939 0.123435,0.0739 0.222209,0.0739 h 0.03152 c 0.01465,0 0.02914,-0.0014 0.04341,-0.0036 0.01821,0.0021 0.03706,0.0036 0.05736,0.0036 h 0.03152 c 0.06351,0 0.123394,-0.02123 0.179834,-0.06356 0.05644,-0.04233 0.08475,-0.08479 0.08475,-0.127124 v -0.10542 c -0.01411,-0.02823 -0.04242,-0.04945 -0.08475,-0.06356 -0.03528,-0.02117 -0.05979,-0.03912 -0.0739,-0.05323 h -0.06356 -0.06873 -0.06356 c -0.03528,0.03528 -0.06359,0.06031 -0.08475,0.07441 -0.01125,0.01125 -0.01684,0.04261 -0.01912,0.08527 -0.01003,-0.009 -0.01973,-0.01952 -0.02842,-0.03256 -0.02117,-0.04233 -0.0386,-0.08479 -0.05271,-0.127124 -0.01411,-0.04939 -0.02497,-0.09513 -0.03204,-0.137459 -0.0071,-0.04233 -0.01742,-0.06356 -0.03152,-0.06356 v -0.274919 c 0.0635,-0.162277 0.140824,-0.307082 0.232544,-0.434082 0.227189,-0.317927 0.01257,-0.18771 -0.01549,-0.274918 z m -0.348816,0.70745 c -2.83e-4,0.0024 -2.68e-4,0.0045 -5.16e-4,0.0067 v -0.0052 c 2.01e-4,-5.14e-4 3.15e-4,-0.001 5.16e-4,-0.0015 z m 1.771985,4.033862 0.04237,0.03152 0.148311,-0.105937 c 0,-0.03528 0.01415,-0.0843 0.04237,-0.147794 0.03528,-0.06351 0.07066,-0.134274 0.105937,-0.211874 0.03528,-0.07761 0.06307,-0.155447 0.08423,-0.23306 0.02823,-0.07761 0.03531,-0.151649 0.02119,-0.222209 0,-0.162282 -0.03866,-0.292417 -0.116272,-0.391191 -0.07761,-0.105823 -0.17616,-0.186942 -0.296106,-0.243396 H 42.292509 42.202592 42.0703 c 0,0.01411 -0.02831,0.03482 -0.08475,0.06305 -0.0494,0.02117 -0.07063,0.03912 -0.06356,0.05323 v 0.158647 c 0.01411,0.0071 0.02825,0.02829 0.04237,0.06356 0.01411,0.02823 0.02825,0.04237 0.04237,0.04237 h 0.132292 0.03669 0.132292 c 0.01411,0 0.02826,-0.0038 0.04237,-0.01085 0.01411,-0.01411 0.02825,-0.02446 0.04237,-0.03152 l 0.0031,-0.0016 0.0026,0.0016 0.08423,0.158647 c 0.01411,0.01411 0.02119,0.04242 0.02119,0.08475 0,0.03528 0.01795,0.05271 0.05323,0.05271 v 0.148311 c -0.02823,0.07056 -0.04945,0.137528 -0.06356,0.201022 -0.01411,0.06351 -0.02825,0.123394 -0.04237,0.179834 -0.01411,0.05644 -0.03534,0.116844 -0.06356,0.18035 -0.02823,0.05644 -0.07068,0.116328 -0.127124,0.179834 l 0.04237,0.03152 z"
       sodipodi:nodetypes="scccccccccccsccccccsccccccccssccccscccccccccsccccccccsccsssccccccsccscccccccscccsccccscccccccccsccccsccssccsssssccccccccsccsscsssccccccssccccccsccscccccccccccscsccsscssssccccccccccsccccccccccccscccccccccccsccscscccsccsccccccccs" />
    <path
       id="text3"
       style="font-size:5.29167px;font-family:'Genzsch Et Heyse';-inkscape-font-specification:'Genzsch Et Heyse';text-align:center;text-anchor:middle;opacity:0.4;fill:#1a1a1a;stroke-width:0.529166"
       d="m 48.99856,-3.8948524 c -0.04233,0.021167 -0.06356,0.056547 -0.06356,0.1059367 l -0.08475,0.073897 c -0.08467,0.049389 -0.154916,0.1022027 -0.211356,0.1586466 -0.03148,0.035978 -0.06309,0.05625 -0.09457,0.063562 h -0.05374 -0.206705 c -0.01411,-0.00705 -0.05985,-0.017409 -0.13746,-0.031523 -0.07056,-0.021169 -0.12338,-0.035321 -0.158646,-0.042375 l -0.06356,-0.032039 -0.274919,-0.2749187 h -0.09792 -0.09793 l -0.04237,0.05271 c 0,0.1128889 -0.03538,0.2326681 -0.105937,0.359668 -0.0635,0.1270004 -0.137542,0.2505762 -0.222209,0.37052 -0.08466,0.1128899 -0.162501,0.2152368 -0.23306,0.306958 -0.06351,0.084667 -0.09508,0.1412761 -0.09508,0.1694987 -0.16934,0.2539999 -0.28584,0.4516175 -0.349333,0.5927287 -0.06349,0.141111 -0.102152,0.2467377 -0.116272,0.3172933 -0.01413,0.070555 -0.01792,0.1130127 -0.01085,0.127124 0.0071,0.014111 -0.0071,0.021187 -0.04237,0.021187 0,0.00706 -0.0033,0.028285 -0.01033,0.063562 0,0.028222 -0.0038,0.059807 -0.01085,0.095085 0,0.035277 -0.0033,0.070659 -0.01034,0.1059367 v 0.073897 0.1059366 c 0,0.18344446 0.03159,0.33152854 0.09509,0.44441736 0.0635,0.10583328 0.144622,0.1940278 0.243396,0.26458333 0.10583,0.0634999 0.21905,0.11631323 0.338997,0.15864665 0.119941,0.0423333 0.235923,0.0885872 0.348816,0.13797607 0.02823,0 0.07068,0.01035598 0.127124,0.03152263 0.05644,0.02116664 0.113045,0.04567507 0.169499,0.0738972957 0.06349,0.0282222143 0.120098,0.0565271343 0.169498,0.0847493443 0.04939,0.02822219 0.08096,0.0494509 0.09509,0.06356202 l 0.328145,0.32814534 c 0.02117,0.0987777 0.04948,0.18697221 0.08475,0.26458333 0.04233,0.0776112 0.08099,0.15544973 0.116272,0.23306071 0.03528,0.0776111 0.06687,0.16200912 0.09508,0.25373132 0.02823,0.084666 0.04237,0.1902933 0.04237,0.3172933 0,0.042333 -0.0071,0.1239683 -0.02119,0.2439127 -0.0071,0.1128888 -0.0245,0.2288715 -0.05271,0.3488159 -0.02116,0.1199449 -0.04947,0.2293682 -0.08475,0.3281454 -0.03528,0.091723 -0.07394,0.1374593 -0.116272,0.1374593 -0.0071,0.014111 -0.02501,0.042416 -0.05323,0.084749 -0.02821,0.035277 -0.04564,0.060302 -0.05271,0.074414 L 47.855477,2.984314 c -0.09172,0.042333 -0.183716,0.08807 -0.275435,0.1374593 -0.09172,0.042333 -0.179917,0.080995 -0.264584,0.1162719 h -0.396875 c -0.0071,0 -0.03866,-0.010356 -0.09508,-0.031523 -0.05644,-0.021169 -0.0989,-0.035321 -0.127124,-0.042375 L 46.410604,3.0158366 h -0.04237 c -0.02117,-0.00705 -0.0386,-0.010335 -0.06424,-0.00517 0,0.00306 -0.068,0.00517 -0.068,0.00517 -0.02117,-0.00705 -0.0386,-0.010335 -0.05271,-0.010335 0,0.00705 0.0038,0.031561 0.01085,0.073897 0.0071,0.042333 0.01033,0.070639 0.01033,0.084749 l 0.03204,0.031523 c 0.08467,0.084667 0.176146,0.1483527 0.274919,0.190686 0.09877,0.042333 0.194037,0.073918 0.285771,0.095085 0.09172,0.014111 0.176118,0.021187 0.253731,0.021187 0.02424,-0.0022 0.03553,-0.00159 0.05633,-0.0031 0.02565,0.00138 0.05169,0.0031 0.07596,0.0031 0.07761,-0.00705 0.138017,-0.010335 0.18035,-0.010335 h 0.03152 c 0.155221,-0.028223 0.300026,-0.049451 0.434082,-0.063562 0.141112,-0.014111 0.275043,-0.042416 0.402043,-0.084749 0.126997,-0.042333 0.250573,-0.1092987 0.37052,-0.2010213 0.126999,-0.091723 0.253855,-0.2327304 0.380855,-0.42323 0,0.00705 0.0071,0.010335 0.02119,0.010335 0.04939,-0.014111 0.102207,-0.070203 0.158647,-0.1689819 0.05644,-0.098777 0.109247,-0.2082001 0.158647,-0.3281454 0.04939,-0.1199444 0.08856,-0.233164 0.116788,-0.3389974 0.03528,-0.1058331 0.05271,-0.1760786 0.05271,-0.2113566 0.01411,-0.00706 0.02119,-0.049513 0.02119,-0.127124 0.0071,-0.084667 0.01795,-0.1483527 0.03204,-0.190686 V 1.2593547 C 49.508466,0.97713256 49.480157,0.74741339 49.458997,0.57102458 49.437823,0.3875802 49.402447,0.2182674 49.35306,0.06304525 L 49.32102,0.02067057 c -0.02117,-0.03527779 -0.04568,-0.07393868 -0.0739,-0.11627197 -0.02117,-0.04233329 -0.0424,-0.07771445 -0.06356,-0.10593669 -0.02117,-0.0352777 -0.02825,-0.05271 -0.02119,-0.05271 -0.01411,-0.0211666 -0.03154,-0.0494715 -0.05271,-0.0847494 -0.02117,-0.0352778 -0.0424,-0.070659 -0.06356,-0.10593668 -0.02117,-0.0352778 -0.0424,-0.0668625 -0.06356,-0.0950846 -0.01409,-0.0282222 -0.02446,-0.0423747 -0.03152,-0.0423747 l -0.159163,-0.15864665 c -0.05644,-0.0282222 -0.112529,-0.0668831 -0.168982,-0.11627197 -0.04939,-0.0564445 -0.102207,-0.10269838 -0.158647,-0.13797608 -0.04233,-0.0423331 -0.127248,-0.09135 -0.254248,-0.14779463 -0.127,-0.0635 -0.260932,-0.1201101 -0.402042,-0.1694987 -0.134052,-0.056444 -0.257627,-0.1021813 -0.37052,-0.1374593 -0.112898,-0.035278 -0.183661,-0.053227 -0.211874,-0.053227 l -0.190169,-0.1901693 c -0.02823,-0.028222 -0.05654,-0.074476 -0.08475,-0.1379761 -0.02117,-0.0635 -0.03152,-0.1125173 -0.03152,-0.1477946 V -2.201416 c 0,-0.049389 0.01035,-0.1027195 0.03152,-0.1591634 0.02117,-0.0635 0.04948,-0.1125173 0.08475,-0.1477946 l 0.07338,-0.061495 c 0.03131,0.012911 0.04806,0.022811 0.04806,0.029456 l 0.222208,0.116272 h 0.132292 0.502812 0.132291 c 0.09877,0 0.204917,-0.038661 0.31781,-0.116272 0.112896,-0.084667 0.20109,-0.1587087 0.264584,-0.2222087 l 0.03152,-0.031523 c 0.141113,-0.1340555 0.257613,-0.3033682 0.349333,-0.5079793 0.09877,-0.204611 0.148311,-0.4163813 0.148311,-0.6351034 -0.04233,0 -0.08479,0.014152 -0.129706,0.00708 -0.04492,-0.00708 -0.08738,0.00708 -0.12971,0.035299 z m -3.693832,0.1059364 c -0.04233,0 -0.102221,0.038661 -0.179834,0.116272 -0.07056,0.077611 -0.148394,0.1690853 -0.233061,0.2749186 -0.07761,0.098777 -0.15493,0.1978441 -0.232543,0.2966227 -0.07056,0.091722 -0.130448,0.158688 -0.179834,0.2010213 0,0.035277 -0.02831,0.070658 -0.08475,0.1059367 -0.04939,0.028223 -0.105992,0.056528 -0.169498,0.084749 -0.05644,0.021167 -0.105979,0.038599 -0.148312,0.05271 -0.02117,0.00706 -0.03398,0.012492 -0.03927,0.01602 -0.01737,-0.00198 -0.04317,-0.00568 -0.05064,-0.00568 v -0.2857707 c 0,-0.014111 -0.01035,-0.027746 -0.03152,-0.041858 l -0.04237,-0.042375 h -0.09793 c -0.01798,0.00999 -0.09793,0 -0.09793,0 -0.06349,0.035277 -0.102152,0.059785 -0.116272,0.073897 -0.01411,0.014111 -0.03913,0.052772 -0.07441,0.116272 v 0.1167888 c 0,0.1128888 0.03918,0.1902106 0.116789,0.2325439 0.08466,0.042333 0.165783,0.073918 0.243396,0.095085 h 0.132292 0.02636 c 0.03528,0 0.07774,0.00708 0.127124,0.021187 l 0.08475,0.010852 V 1.163757 l 0.04186,0.074414 v 0.9203573 c 0,0.2187222 -0.04194,0.4059839 -0.126607,0.561206 -0.07761,0.1481663 -0.155448,0.2788182 -0.233061,0.3917074 l -0.306958,0.3064412 v 0.042375 l 0.03204,0.095601 h 0.108521 c 0.0089,-0.0149 0.10852,0 0.10852,0 0.04234,-0.070556 0.116382,-0.1554708 0.222209,-0.254248 0.10582,-0.1058329 0.222319,-0.2043834 0.349333,-0.296106 0.126997,-0.091722 0.250056,-0.1695608 0.370003,-0.2330607 0.126998,-0.070556 0.229345,-0.1059367 0.306958,-0.1059367 0.14111,-0.056444 0.285915,-0.1125367 0.434082,-0.1689819 0.155222,-0.056444 0.307103,-0.1097742 0.455269,-0.1591634 v -0.116272 c 0,-0.00705 -0.02123,-0.021206 -0.06356,-0.042375 -0.04233,-0.028222 -0.09187,-0.059807 -0.148311,-0.095085 -0.04939,-0.042333 -0.09513,-0.084791 -0.137459,-0.127124 -0.04233,-0.042333 -0.06356,-0.084791 -0.06356,-0.1271241 0,-0.035278 -0.0038,-0.084295 -0.01085,-0.1477946 -0.0071,-0.070556 -0.01742,-0.1375213 -0.03152,-0.2010213 -0.007,-0.070556 -0.01412,-0.1380381 -0.02119,-0.2015381 -0.0071,-0.0635 -0.01085,-0.1125166 -0.01085,-0.1477946 v -4.8792887 c 0,-0.014113 -0.01035,-0.024469 -0.03152,-0.031523 -0.02117,-0.00705 -0.0424,-0.010335 -0.09793,-0.00869 -0.05553,0.00164 -0.07676,-0.00164 -0.09792,-0.00164 z"
       sodipodi:nodetypes="ccccccccccccccccccscscccccsccscscscccscscccccccccssccccccsccsccccsccscccsccccccccccccsccccccccscccsscccccccscscccccccccccsccsccccccscccsccccscccccccccccccsccssccsssscssc" />
    <path
       id="text6"
       style="font-size:5.29167px;font-family:'Genzsch Et Heyse';-inkscape-font-specification:'Genzsch Et Heyse';text-align:center;text-anchor:middle;opacity:0.4;fill:#1a1a1a;stroke-width:0.529166"
       d="m 26.077478,36.394678 c -0.04233,0.02117 -0.06356,0.05655 -0.06356,0.105936 l -0.08475,0.07441 c -0.08467,0.04939 -0.154917,0.102194 -0.211357,0.158647 -0.03217,0.03677 -0.06446,0.05674 -0.09663,0.06356 h -0.05168 -0.206706 c -0.01411,-0.0071 -0.05985,-0.01793 -0.137459,-0.03204 -0.07056,-0.02116 -0.12338,-0.03531 -0.158647,-0.04237 l -0.06356,-0.03152 -0.274919,-0.275435 h -0.09793 -0.09793 l -0.04237,0.05323 c 0,0.112889 -0.03538,0.232668 -0.105937,0.359668 -0.06351,0.126997 -0.137555,0.250573 -0.222208,0.37052 -0.08466,0.112892 -0.162501,0.215238 -0.233061,0.306958 -0.06351,0.08467 -0.09508,0.141272 -0.09508,0.169498 -0.169326,0.254 -0.285826,0.451101 -0.349332,0.592212 -0.06351,0.141107 -0.102166,0.247251 -0.116272,0.31781 -0.01413,0.07056 -0.01792,0.113018 -0.01085,0.127124 0.0071,0.01411 -0.0066,0.02119 -0.04186,0.02119 0,0.0071 -0.0038,0.02778 -0.01085,0.06304 0,0.02823 -0.0038,0.06034 -0.01085,0.0956 0,0.03528 -0.0033,0.07066 -0.01034,0.105937 v 0.0739 0.105937 c 0,0.183441 0.03158,0.331524 0.09509,0.444417 0.0635,0.105828 0.144623,0.194024 0.243396,0.264584 0.105831,0.06351 0.219051,0.116313 0.338997,0.158646 0.119942,0.04233 0.23644,0.08807 0.349333,0.13746 0.02823,0 0.07017,0.01087 0.126607,0.03204 0.05644,0.02117 0.113046,0.04568 0.169499,0.0739 0.06351,0.02823 0.120112,0.05654 0.169499,0.08475 0.04939,0.02823 0.08096,0.04946 0.09508,0.06356 l 0.328146,0.328145 c 0.02117,0.09878 0.04948,0.18697 0.08475,0.264583 0.04233,0.07761 0.08099,0.154931 0.116272,0.232544 0.03528,0.07761 0.06686,0.162529 0.09509,0.254248 0.02823,0.08467 0.04237,0.190294 0.04237,0.317294 0,0.04233 -0.0071,0.12345 -0.02119,0.243396 -0.0071,0.112887 -0.0245,0.229387 -0.05271,0.349332 -0.02117,0.11995 -0.04948,0.229372 -0.08475,0.328146 -0.03528,0.09172 -0.07394,0.137459 -0.116272,0.137459 -0.0071,0.01411 -0.02501,0.04242 -0.05323,0.08475 -0.02821,0.03528 -0.04564,0.05979 -0.05271,0.0739 l -0.222209,0.222208 c -0.09172,0.04233 -0.183715,0.08859 -0.275435,0.137976 -0.09172,0.04233 -0.179917,0.08099 -0.264583,0.116272 h -0.396875 c -0.0071,0 -0.03865,-0.01036 -0.09509,-0.03152 -0.05644,-0.02116 -0.0989,-0.03531 -0.127124,-0.04237 l -0.285771,-0.148311 h -0.04237 c -0.02117,-0.0071 -0.0386,-0.01085 -0.06426,-0.0054 0,0.0031 -0.06803,0.0054 -0.06803,0.0054 -0.02117,-0.0071 -0.0386,-0.01085 -0.05271,-0.01085 0,0.0071 0.0038,0.03209 0.01085,0.07441 0.0071,0.04233 0.01033,0.07064 0.01033,0.08475 l 0.03204,0.03152 c 0.08467,0.08467 0.176145,0.148353 0.274918,0.190686 0.09878,0.04233 0.194051,0.07391 0.285771,0.09508 0.09172,0.01411 0.176118,0.02119 0.253731,0.02119 0.02357,-0.0021 0.03446,-0.0016 0.05478,-0.0031 0.0262,0.0014 0.05275,0.0031 0.07751,0.0031 0.07761,-0.0071 0.138017,-0.01085 0.180351,-0.01085 h 0.03152 c 0.155222,-0.02823 0.300026,-0.04894 0.434082,-0.06305 0.141111,-0.01411 0.275043,-0.04242 0.402043,-0.08475 0.126999,-0.04233 0.250573,-0.109301 0.37052,-0.201021 0.127,-0.09172 0.253855,-0.233245 0.380855,-0.423747 0,0.0071 0.0071,0.01085 0.02119,0.01085 0.04939,-0.01411 0.102193,-0.07071 0.158646,-0.169499 0.05644,-0.09878 0.10926,-0.208198 0.158647,-0.328145 0.04939,-0.11995 0.08856,-0.232654 0.116789,-0.338481 0.03528,-0.105831 0.05271,-0.176593 0.05271,-0.211873 0.01411,-0.0071 0.02119,-0.04901 0.02119,-0.126607 0.0071,-0.08467 0.01795,-0.148353 0.03204,-0.190686 v -0.105937 c -0.03528,-0.282221 -0.06359,-0.511424 -0.08475,-0.687813 -0.02116,-0.183445 -0.05654,-0.352758 -0.105937,-0.50798 l -0.03204,-0.04237 c -0.02117,-0.03528 -0.04568,-0.07394 -0.0739,-0.116272 -0.02116,-0.04233 -0.04239,-0.07771 -0.06356,-0.105937 -0.02117,-0.03528 -0.02825,-0.05323 -0.02119,-0.05323 -0.01411,-0.02116 -0.03154,-0.04895 -0.05271,-0.08423 -0.02117,-0.03528 -0.0424,-0.07066 -0.06356,-0.105937 -0.02117,-0.03528 -0.0424,-0.06686 -0.06356,-0.09508 -0.01409,-0.02823 -0.02446,-0.04237 -0.03152,-0.04237 L 25.870772,39.54849 c -0.05644,-0.02823 -0.112528,-0.06688 -0.168982,-0.116272 -0.04939,-0.05644 -0.102206,-0.102179 -0.158646,-0.137459 -0.04233,-0.04233 -0.127248,-0.09187 -0.254248,-0.148311 -0.127,-0.06351 -0.260932,-0.120112 -0.402043,-0.169499 -0.134052,-0.05644 -0.257627,-0.102179 -0.37052,-0.137459 -0.112897,-0.03528 -0.18366,-0.05271 -0.211873,-0.05271 l -0.19017,-0.190686 c -0.02823,-0.02823 -0.05654,-0.07397 -0.08475,-0.13746 -0.02117,-0.06351 -0.03204,-0.113044 -0.03204,-0.148311 v -0.222209 c 0,-0.04939 0.01087,-0.102206 0.03204,-0.158646 0.02117,-0.06351 0.04948,-0.113045 0.08475,-0.148312 l 0.07338,-0.0615 c 0.03131,0.01291 0.04806,0.02331 0.04806,0.02997 l 0.222209,0.116272 h 0.132291 0.502812 0.132292 c 0.09877,0 0.204916,-0.03866 0.31781,-0.116272 0.112896,-0.08466 0.20109,-0.158702 0.264583,-0.222209 l 0.03152,-0.03204 c 0.141113,-0.134056 0.257612,-0.303369 0.349332,-0.50798 0.09877,-0.204611 0.148312,-0.415865 0.148312,-0.634586 -0.04233,0 -0.08479,0.01363 -0.129708,0.0068 -0.04492,-0.0068 -0.08738,0.0068 -0.129708,0.03504 z m -4.953186,0.05323 c -0.01411,0.0071 -0.04568,0.02121 -0.09509,0.04237 -0.04939,0.02117 -0.102206,0.0424 -0.158646,0.06356 -0.05644,0.02116 -0.116844,0.03859 -0.180351,0.05271 -0.05644,0.01411 -0.09838,0.02119 -0.126607,0.02119 h -0.105937 c 0,0.02823 -0.02503,0.07068 -0.07441,0.127124 -0.04233,0.04939 -0.09136,0.102207 -0.147795,0.158647 -0.04939,0.05644 -0.09892,0.10926 -0.148311,0.158647 -0.04233,0.04939 -0.06356,0.08476 -0.06356,0.105936 -0.07056,0.141111 -0.133729,0.275043 -0.190169,0.402043 -0.04939,0.119942 -0.07441,0.219009 -0.07441,0.296623 v 0.412378 c 0,0.03528 0.01087,0.08809 0.03204,0.158646 0.02823,0.07056 0.04237,0.130965 0.04237,0.180351 v 0.0739 c 0.01411,0.01411 0.02774,0.03862 0.04186,0.0739 0.01411,0.02823 0.03205,0.04237 0.126425,0.04237 0.09437,0 0.111803,-0.02451 0.111803,-0.0739 0.0071,-0.05644 0.02122,-0.0951 0.04237,-0.116272 v -0.306958 c 0,-0.02823 0.01415,-0.08105 0.04237,-0.158647 0.02823,-0.07761 0.06689,-0.15873 0.116272,-0.243396 0.05644,-0.08467 0.120126,-0.159232 0.190686,-0.222725 0.07761,-0.07056 0.15873,-0.10542 0.243396,-0.10542 h 0.375688 c 0.06351,0 0.162575,0.05609 0.296623,0.168982 0.134058,0.105827 0.24676,0.247352 0.33848,0.423747 l 0.03152,0.126607 c 0.02823,0.08466 0.05325,0.162501 0.07441,0.233061 v 0.08475 c -0.03527,0.204609 -0.05649,0.366846 -0.06356,0.486792 0,0.112893 -0.01087,0.21852 -0.03204,0.317293 -0.02116,0.09878 -0.05602,0.204917 -0.10542,0.31781 -0.04939,0.112894 -0.130503,0.268055 -0.243396,0.465605 -0.01411,0.01411 -0.06365,0.07399 -0.148312,0.179834 -0.08467,0.09878 -0.176662,0.211481 -0.275435,0.338481 -0.09172,0.126996 -0.179917,0.247291 -0.264583,0.360184 -0.07761,0.10584 -0.116272,0.165728 -0.116272,0.179834 -0.04233,0.04233 -0.09187,0.105504 -0.148312,0.19017 -0.04939,0.07761 -0.09841,0.155447 -0.147794,0.23306 -0.04233,0.07762 -0.07771,0.148381 -0.105937,0.211874 -0.02823,0.06349 -0.04237,0.102152 -0.04237,0.116272 -0.11995,0.225777 -0.211942,0.423395 -0.275435,0.592728 -0.05644,0.162279 -0.112529,0.345744 -0.168982,0.550354 l 0.09508,0.03152 h 0.08733 c 0.0081,0 0.08733,0 0.08733,0 0.01409,0 0.02446,-0.02123 0.03152,-0.06356 0.01411,-0.04233 0.02825,-0.09136 0.04237,-0.147795 0.02116,-0.05644 0.04947,-0.109763 0.08475,-0.159163 0.03528,-0.04939 0.08482,-0.08476 0.148311,-0.105937 0.0071,-0.01411 0.02122,-0.02067 0.04237,-0.02067 0.02823,-0.0071 0.04946,-0.01795 0.06356,-0.03204 h 0.0155 c 0.04939,0.04939 0.120153,0.102207 0.211873,0.158647 0.09877,0.05644 0.148311,0.116327 0.148311,0.179834 0.02823,0.05644 0.06689,0.127207 0.116272,0.211873 0.05644,0.07761 0.120126,0.155448 0.190686,0.233061 0.07761,0.07762 0.16581,0.147863 0.264584,0.211357 0.10582,0.05644 0.221802,0.0951 0.348816,0.116272 h 0.05323 c 0.02294,0 0.04339,-0.0021 0.06511,-0.0031 0.0047,8.47e-4 0.0092,0.0023 0.01395,0.0031 h 0.05323 c 0.18345,0 0.328255,-0.03159 0.434082,-0.09508 0.112896,-0.07056 0.20109,-0.137528 0.264583,-0.201021 l 0.10542,-0.116272 c 0.10582,-0.105827 0.179862,-0.21197 0.222209,-0.31781 0.04233,-0.105828 0.07443,-0.211454 0.0956,-0.317294 0.02116,-0.105823 0.03531,-0.208171 0.04237,-0.306958 0.01411,-0.09878 0.04242,-0.18697 0.08475,-0.264583 v -0.0739 c -0.0071,-0.01411 -0.02121,-0.02119 -0.04237,-0.02119 -0.01411,-0.0071 -0.02497,-0.01085 -0.08569,-0.009 -0.06071,0.0019 -0.07158,-0.0019 -0.07865,-0.0019 -0.02823,0 -0.05274,0.02503 -0.0739,0.07441 -0.02117,0.04939 -0.03912,0.105476 -0.05323,0.168982 -0.01411,0.06349 -0.02826,0.12718 -0.04237,0.190686 -0.01411,0.06349 -0.03154,0.113032 -0.05271,0.148312 0,0.03528 -0.01743,0.07014 -0.05271,0.10542 -0.03528,0.03528 -0.07774,0.06739 -0.127124,0.0956 -0.04233,0.02117 -0.08479,0.0386 -0.127124,0.05271 -0.01125,0.0038 -0.01088,0.0029 -0.01964,0.0057 -0.03009,-0.01219 -0.05708,-0.03093 -0.08062,-0.05839 -0.04233,-0.05644 -0.09187,-0.127207 -0.148312,-0.211873 -0.04939,-0.08466 -0.113072,-0.183213 -0.190686,-0.296106 -0.07761,-0.112889 -0.176159,-0.233185 -0.296106,-0.360185 -0.09173,0 -0.183715,-0.03486 -0.275435,-0.10542 -0.09172,-0.07761 -0.176118,-0.116789 -0.253731,-0.116789 h -0.132292 -0.03721 -0.132292 c -0.04939,0 -0.119636,0.02123 -0.211356,0.06356 -0.02345,0.01172 -0.03507,0.01625 -0.05581,0.02636 l 0.0186,-0.03669 c 0.02117,-0.04939 0.06363,-0.116355 0.127124,-0.201021 0.06351,-0.09172 0.119595,-0.162487 0.168982,-0.211874 l 0.190686,-0.190686 c 0.10584,-0.07761 0.246847,-0.190316 0.42323,-0.33848 0.176389,-0.155223 0.345702,-0.31418 0.507979,-0.476457 0.169332,-0.169333 0.314135,-0.327773 0.434082,-0.47594 0.119947,-0.148162 0.179834,-0.257585 0.179834,-0.328145 l 0.03152,-0.06356 c 0.02117,-0.04939 0.04948,-0.113073 0.08475,-0.190686 0.03528,-0.08467 0.06031,-0.133688 0.07441,-0.147795 l 0.10542,-0.328145 c 0,-0.01411 0.0038,-0.04621 0.01085,-0.0956 0.01411,-0.05644 0.02119,-0.08802 0.02119,-0.09508 l 0.03152,-0.03152 c 0.01411,-0.01411 0.02119,-0.05328 0.02119,-0.116789 0.0071,-0.07056 0.01795,-0.116299 0.03204,-0.137459 v -0.190686 c 0,-0.225777 -0.03538,-0.426675 -0.105937,-0.603064 -0.06351,-0.176389 -0.148421,-0.328269 -0.254248,-0.455269 -0.09878,-0.127 -0.211481,-0.232627 -0.338481,-0.317294 -0.11994,-0.09172 -0.236439,-0.162486 -0.349332,-0.211873 -0.10582,-0.05644 -0.201091,-0.0951 -0.285771,-0.116272 -0.07761,-0.02117 -0.126635,-0.03152 -0.147795,-0.03152 h -0.132291 -0.164331 z"
       sodipodi:nodetypes="ccccccccccccccccccscscccccsccscscccccscscccccccccssccccccsccsccccsccscccsscccccccccccsccccccccscccsscccccccscccccccccscsccccccsscscccccssccsscccccccccccccccscccccsccsccccccccccsccscccsscccccscsccscscccsccsccsccccsccsscccccccsccscccccsccc" />
    <path
       id="text7"
       style="font-size:5.29167px;font-family:'Genzsch Et Heyse';-inkscape-font-specification:'Genzsch Et Heyse';text-align:center;text-anchor:middle;opacity:0.4;fill:#1a1a1a;stroke-width:0.529166"
       d="M 2.0717082,42.47596 C 0.70612588,43.882535 -0.54638338,45.805433 0.13487549,47.831189 0.61448336,49.171298 2.358803,51.120057 3.1563969,48.762398 4.5928431,46.9815 4.5112199,43.8773 2.3838339,42.666648 2.3127273,42.453833 2.1896881,42.528328 2.0717082,42.47596 Z m -4.4240194,0.201022 c -1.5002097,-0.02913 -1.4505161,2.208245 -0.8836695,2.106321 0.3131384,-2.5665 2.55576945,0.596245 0.450103,1.16427 -1.7505596,1.085194 0.4022064,0.146312 0.9152306,0.968004 1.05229176,0.967162 0.2596691,3.321506 -1.3017727,2.831233 -1.877777,-1.446658 0.4215725,1.355476 1.6896954,0.49484 1.64304866,-1.115088 1.59515478,-4.003233 -0.1549073,-4.749364 1.59597954,-0.70418 0.7855302,-2.786176 -0.7146795,-2.815304 z m 3.7584269,0.960148 c 1.6108236,0.996577 2.8247121,3.659887 1.3223987,5.234306 C 1.08505,47.847103 -0.18407236,45.205692 1.4061157,43.63713 Z m 0.00201,0.516794 C 0.72141026,44.513021 1.1562728,46.222137 1.759585,45.175029 0.96445627,45.166136 1.3612931,44.720007 1.4081257,44.153924 Z m 1.0656289,2.936742 c -0.025692,0.53677 0.4555754,0.389247 0.3265648,1.344292 0.3599239,-0.522452 0.5667173,-1.498573 -0.3265687,-1.344292 z"
       sodipodi:nodetypes="cccccsccccscscccccccccc" />
    <path
       id="text8"
       style="font-size:5.29167px;font-family:'Genzsch Et Heyse';-inkscape-font-specification:'Genzsch Et Heyse';text-align:center;text-anchor:middle;opacity:0.4;fill:#1a1a1a;stroke-width:0.529166"
       d="m -20.151742,36.30166 c -0.466372,0.84839 -1.25968,0.143404 -1.714608,0.116794 -0.573462,1.126279 -2.324133,3.245701 -0.05271,3.746546 1.647002,0.483067 1.359145,3.625848 -0.534346,3.280424 -1.155342,-0.629094 -0.278282,0.544627 0.574645,0.496267 2.700988,-0.153144 2.837334,-4.425461 0.409337,-5.015344 -1.315962,-0.112767 -1.00158,-1.7282 0.20671,-1.11105 0.640233,0.114539 1.549696,-1.298197 1.110973,-1.513637 z m -4.836397,-0.0015 c -1.307545,-0.0258 -1.451379,2.337 -0.883588,2.234921 0.312382,-2.566954 2.555664,0.596456 0.449576,1.163762 -1.749923,1.087043 0.402554,0.145058 0.915484,0.968738 1.052681,0.966627 0.259376,3.32071 -1.301536,2.831002 -1.878259,-1.446428 0.442319,1.363459 1.712518,0.506533 1.654742,-1.116355 1.558796,-4.014839 -0.178304,-4.761048 1.596336,-0.704019 0.97876,-2.910505 -0.71415,-2.943908 z"
       sodipodi:nodetypes="scccsccsssccccscs" />
    <path
       id="text9"
       style="font-size:5.29167px;font-family:'Genzsch Et Heyse';-inkscape-font-specification:'Genzsch Et Heyse';text-align:center;text-anchor:middle;opacity:0.4;fill:#1a1a1a;stroke-width:0.529166"
       d="m -37.655066,19.386414 c -1.5747,1.469131 -2.714734,3.809079 -1.640223,5.958292 0.982072,1.964318 2.319354,1.572272 3.148133,-0.359668 0.795711,-1.854858 0.666102,-4.359558 -1.19578,-5.408455 -0.07123,-0.212458 -0.194572,-0.13769 -0.31213,-0.190169 z m -4.39198,0.06356 c -0.871071,1.66264 -1.891515,3.260499 -2.645835,4.963529 0.6351,0.142509 2.142703,-0.507198 2.254126,0.365213 0.465405,0.791896 -0.745286,1.974276 -0.534335,2.174681 0.886419,-0.961588 3.136338,-0.841806 1.746135,-2.243795 0.405565,-0.06555 1.408451,-0.885095 1.148223,-1.58026 -1.127833,0.898064 -1.155984,-0.340524 -1.11621,-1.552307 0.02766,-0.842707 0.549301,-2.530864 -0.852104,-2.127061 z m 3.726388,1.09709 c 1.610739,0.997339 2.824365,3.659002 1.322906,5.234826 -1.643906,-1.024238 -2.91314,-3.665824 -1.322906,-5.234826 z m 0.09555,0.446637 c -1.014529,0.289386 -0.344536,2.139349 0.257919,1.091246 -1.020324,0.0039 -0.302023,-0.528278 -0.257919,-1.091246 z m -4.266355,0.04687 c -0.06926,1.11082 0.520332,2.960427 -1.195773,2.441712 -0.187288,-0.441436 1.035052,-1.851843 1.195773,-2.441712 z m 3.789433,0.449068 c 6.79e-4,0.02253 -0.0034,0.0048 0,0 z m 1.449007,2.510958 c 0.682409,0.526106 0.107224,1.12114 0.279782,1.450047 0.359342,-0.522527 0.614195,-1.604219 -0.279782,-1.450047 z"
       sodipodi:nodetypes="cssccccccccsccccccccccccccc" />
    <path
       id="text10"
       style="font-size:5.29167px;font-family:'Genzsch Et Heyse';-inkscape-font-specification:'Genzsch Et Heyse';text-align:center;text-anchor:middle;opacity:0.4;fill:#1a1a1a;stroke-width:0.529166"
       d="m -47.779513,-3.8302572 c -0.871178,1.6627438 -1.891068,3.26053999 -2.645834,4.9635217 0.635102,0.1425193 2.142704,-0.50719318 2.254127,0.3652189 0.464779,0.7916252 -0.74386,1.9734593 -0.534339,2.1746781 0.886501,-0.9618058 3.136733,-0.8416299 1.74613,-2.2432745 0.405359,-0.066421 1.408573,-0.88546759 1.148236,-1.58078116 -1.127655,0.89806683 -1.15606,-0.3407068 -1.116203,-1.55236054 0.02772,-0.842642 0.549298,-2.5309852 -0.852117,-2.1270025 z m 3.323329,0.127124 c -0.574494,1.126428 -2.324419,3.24537024 -0.05323,3.7465414 1.647091,0.48280363 1.359167,3.6261512 -0.534351,3.2804197 -1.155681,-0.6289152 -0.266166,0.5685406 0.540063,0.2857708 2.703211,0.083687 2.872267,-4.21462062 0.44442,-4.8043579 -1.315888,-0.112995 -1.002598,-1.7286392 0.206189,-1.1115606 0.640946,0.114174 1.582465,-1.8110883 1.130066,-1.4942178 -0.452399,0.3168705 -1.278573,0.1236741 -1.733157,0.097404 z m -3.767746,1.4634763 c -0.06929,1.1107771 0.520359,2.96044147 -1.195763,2.44171156 -0.06603,-0.61348762 0.919912,-1.69230446 1.195763,-2.44171156 z"
       sodipodi:nodetypes="ccccccscccccccccccc" />
    <path
       id="text11"
       style="font-size:5.29167px;font-family:'Genzsch Et Heyse';-inkscape-font-specification:'Genzsch Et Heyse';text-align:center;text-anchor:middle;opacity:0.4;fill:#1a1a1a;stroke-width:0.529166"
       d="m -38.446232,-27.245365 c -0.02117,0 -0.06743,0.03918 -0.137976,0.116788 -0.06349,0.07057 -0.140811,0.165838 -0.232544,0.285771 -0.09172,0.119947 -0.194065,0.253879 -0.306958,0.402043 -0.105827,0.141112 -0.211454,0.282119 -0.317293,0.42323 -0.09877,0.141109 -0.197837,0.27176 -0.296623,0.391707 -0.09172,0.112896 -0.169037,0.20109 -0.232544,0.264583 -0.112899,0.162277 -0.204889,0.33487 -0.275435,0.518315 -0.07056,0.183444 -0.12338,0.352757 -0.158647,0.507979 -0.03528,0.155228 -0.06359,0.285881 -0.08475,0.391708 -0.01411,0.105826 -0.02446,0.162432 -0.03152,0.169498 0,0.04233 -0.0071,0.09515 -0.02119,0.158647 -0.0071,0.06351 -0.01085,0.102165 -0.01085,0.116272 v 0.190686 0.201021 0.296623 c 0.007,0.07761 0.01412,0.154931 0.02119,0.232544 0.01411,0.07056 0.02826,0.141327 0.04237,0.211873 0.01411,0.07056 0.02825,0.147878 0.04237,0.232544 0,0.05644 0.02123,0.137556 0.06356,0.243396 0.04233,0.105827 0.08807,0.21197 0.13746,0.31781 0.05644,0.105835 0.10926,0.201104 0.158646,0.285771 0.04937,0.08467 0.07768,0.133688 0.08475,0.147795 0.05644,0.05644 0.123408,0.141354 0.201021,0.254248 0.07761,0.105826 0.134219,0.190224 0.169499,0.253731 l 0.105936,0.116789 c 0.162277,0.162285 0.317438,0.296216 0.465605,0.402042 0.155222,0.09877 0.306586,0.22235 0.454752,0.37052 h 0.09276 c 0.01464,-0.0063 0.09276,0 0.09276,0 0.04939,-0.02117 0.113073,-0.07778 0.190686,-0.169498 0.08467,-0.09172 0.169065,-0.190266 0.253731,-0.296106 0.09172,-0.112894 0.176635,-0.219037 0.254248,-0.31781 0.08467,-0.09878 0.147836,-0.169024 0.19017,-0.211357 0.04939,-0.04938 0.105992,-0.123422 0.169498,-0.222209 0.07057,-0.105841 0.141327,-0.215265 0.211874,-0.328145 0.07056,-0.119943 0.14081,-0.240238 0.211356,-0.360185 0.07762,-0.127006 0.14838,-0.243506 0.211874,-0.349332 v -0.03152 c 0.05644,-0.155223 0.09838,-0.29623 0.126607,-0.42323 0.03528,-0.134053 0.06359,-0.260909 0.08475,-0.380855 0.02116,-0.127 0.03911,-0.254373 0.05323,-0.381372 0.02117,-0.127 0.04568,-0.260931 0.0739,-0.402043 v -0.444417 c 0,-0.225777 -0.03158,-0.447904 -0.09508,-0.666626 -0.0635,-0.218723 -0.134261,-0.430493 -0.211874,-0.635104 v -0.06356 c -0.09172,-0.261055 -0.197347,-0.472825 -0.317293,-0.635103 -0.119941,-0.169337 -0.240238,-0.303269 -0.360185,-0.402043 -0.112892,-0.105822 -0.215238,-0.18366 -0.306958,-0.23306 -0.08467,-0.04939 -0.137487,-0.08425 -0.158646,-0.10542 -0.02117,-0.01411 -0.05983,-0.04242 -0.116272,-0.08475 -0.05644,-0.04939 -0.09182,-0.08148 -0.105937,-0.0956 l -0.0739,-0.0739 c -0.02823,-0.04233 -0.06032,-0.08479 -0.0956,-0.127124 -0.02823,-0.04233 -0.05602,-0.06356 -0.08423,-0.06356 z m -2.836519,0.116788 c -0.04233,0.02117 -0.06356,0.05655 -0.06356,0.105937 l -0.08475,0.0739 c -0.08467,0.04939 -0.154916,0.102207 -0.211356,0.158647 -0.03148,0.03598 -0.06309,0.05625 -0.09457,0.06356 h -0.05374 -0.206189 c -0.01411,-0.0071 -0.05985,-0.01743 -0.137459,-0.03152 -0.07056,-0.02116 -0.123897,-0.03531 -0.159163,-0.04237 l -0.06356,-0.03204 -0.274919,-0.274918 h -0.09793 -0.09793 l -0.04237,0.05271 c 0,0.112888 -0.03538,0.232668 -0.105937,0.359668 -0.06351,0.126998 -0.137556,0.250573 -0.222209,0.37052 -0.08466,0.11289 -0.161984,0.215238 -0.232544,0.306958 -0.06349,0.08467 -0.0956,0.141272 -0.0956,0.169498 -0.169327,0.254 -0.285309,0.451618 -0.348816,0.592729 -0.06351,0.141107 -0.102682,0.246733 -0.116789,0.317293 -0.01413,0.07056 -0.0174,0.113018 -0.01033,0.127124 0.0071,0.01411 -0.0071,0.02119 -0.04237,0.02119 0,0.0071 -0.0038,0.02829 -0.01085,0.06356 0,0.02823 -0.0033,0.0598 -0.01033,0.09508 0,0.03528 -0.0038,0.07066 -0.01085,0.105937 v 0.0739 0.105937 c 0,0.18344 0.03211,0.331524 0.0956,0.444417 0.0635,0.10583 0.144623,0.194024 0.243396,0.264584 0.105832,0.06351 0.218534,0.116326 0.338481,0.158646 0.11994,0.04233 0.236439,0.08859 0.349333,0.137976 0.02823,0 0.07068,0.01035 0.127124,0.03152 0.05644,0.02116 0.112528,0.04567 0.168982,0.0739 0.06351,0.02823 0.120112,0.05654 0.169498,0.08475 0.04939,0.02823 0.08098,0.04946 0.09508,0.06356 l 0.328145,0.328145 c 0.02117,0.09878 0.04948,0.18697 0.08475,0.264583 0.04233,0.07761 0.08099,0.154931 0.116272,0.232544 0.03528,0.07761 0.06739,0.162528 0.0956,0.254248 0.02823,0.08467 0.04237,0.190294 0.04237,0.317294 0,0.04233 -0.0071,0.123449 -0.02119,0.243396 -0.0071,0.112899 -0.02501,0.229399 -0.05323,0.349332 -0.02117,0.119948 -0.04948,0.229372 -0.08475,0.328146 -0.03528,0.09172 -0.07394,0.137459 -0.116272,0.137459 -0.0071,0.01411 -0.0245,0.04242 -0.05271,0.08475 -0.02821,0.03528 -0.04616,0.06031 -0.05323,0.07441 l -0.222209,0.222209 c -0.09172,0.04233 -0.183199,0.08807 -0.274919,0.137459 -0.09172,0.04233 -0.179917,0.08099 -0.264583,0.116272 h -0.396875 c -0.0071,0 -0.03916,-0.01036 -0.0956,-0.03152 -0.05644,-0.02116 -0.09838,-0.03531 -0.126608,-0.04237 l -0.28577,-0.148311 h -0.04237 c -0.02117,-0.0071 -0.03912,-0.01034 -0.05323,-0.01034 0,0.0031 -0.03669,0.01034 -0.03669,0.01034 h -0.04237 c -0.02117,-0.0071 -0.03912,-0.01034 -0.05323,-0.01034 0,0.0071 0.0038,0.03158 0.01085,0.0739 0.0071,0.04233 0.01034,0.07064 0.01034,0.08475 l 0.03204,0.03152 c 0.08467,0.08467 0.176146,0.148352 0.274919,0.190686 0.09877,0.04233 0.194037,0.07391 0.285771,0.09508 0.09172,0.01411 0.176634,0.02119 0.254248,0.02119 0.02431,-0.0022 0.03548,-0.0016 0.05633,-0.0031 0.02554,0.0014 0.05179,0.0031 0.07596,0.0031 0.07761,-0.0071 0.137501,-0.01034 0.179834,-0.01034 h 0.03152 c 0.155221,-0.02823 0.300026,-0.04946 0.434082,-0.06356 0.141112,-0.01411 0.275043,-0.04242 0.402043,-0.08475 0.126997,-0.04234 0.250573,-0.109301 0.37052,-0.201021 0.126999,-0.09172 0.253855,-0.232728 0.352642,-0.329865 0.09879,-0.09714 0.152124,-0.153225 0.208564,-0.252012 0.05644,-0.09877 0.109246,-0.208199 0.158646,-0.328145 0.04939,-0.119952 0.08805,-0.233171 0.116272,-0.338998 0.03528,-0.105844 0.05271,-0.17609 0.05271,-0.211356 0.01411,-0.0071 0.02119,-0.04952 0.02119,-0.127124 0.0071,-0.08467 0.01793,-0.148353 0.03204,-0.190686 v -0.105937 c -0.03528,-0.282222 -0.06359,-0.511424 -0.08475,-0.687813 -0.02117,-0.183444 -0.05655,-0.352757 -0.105937,-0.50798 l -0.03152,-0.04237 c -0.02116,-0.03528 -0.04619,-0.07394 -0.07441,-0.116272 -0.02117,-0.04233 -0.04189,-0.07771 -0.06305,-0.105937 -0.02117,-0.03528 -0.02825,-0.05271 -0.02119,-0.05271 -0.01411,-0.02117 -0.03205,-0.04948 -0.05323,-0.08475 -0.02117,-0.03528 -0.0424,-0.07066 -0.06356,-0.105937 -0.02117,-0.03528 -0.0424,-0.06686 -0.06356,-0.09509 -0.01411,-0.02823 -0.02446,-0.04237 -0.03152,-0.04237 l -0.158646,-0.158647 c -0.05644,-0.02823 -0.113046,-0.0674 -0.169499,-0.116789 -0.04939,-0.05644 -0.102207,-0.102179 -0.158647,-0.137459 -0.04233,-0.04233 -0.127248,-0.09187 -0.254248,-0.148311 -0.127,-0.06351 -0.260932,-0.119596 -0.402042,-0.168982 -0.134052,-0.05644 -0.257627,-0.10218 -0.37052,-0.13746 -0.112898,-0.03528 -0.183144,-0.05323 -0.211357,-0.05323 l -0.190686,-0.190686 c -0.02823,-0.02823 -0.05654,-0.07397 -0.08475,-0.13746 -0.02117,-0.06351 -0.03152,-0.112528 -0.03152,-0.147794 v -0.222726 c 0,-0.04939 0.01035,-0.102206 0.03152,-0.158646 0.02116,-0.06351 0.04947,-0.112528 0.08475,-0.147795 l 0.07338,-0.0615 c 0.03131,0.0129 0.04858,0.0228 0.04858,0.02946 l 0.222209,0.116272 h 0.132292 0.502811 0.132292 c 0.09877,0 0.2044,-0.03866 0.317293,-0.116272 0.112896,-0.08466 0.20109,-0.158702 0.264584,-0.222209 l 0.03152,-0.03152 c 0.141113,-0.134054 0.257613,-0.303367 0.349333,-0.507979 0.09877,-0.20461 0.148311,-0.416381 0.148311,-0.635103 -0.04233,0 -0.08479,0.01415 -0.129708,0.0071 -0.04492,-0.0071 -0.08737,0.0071 -0.129707,0.0353 z m 2.170926,1.044381 c 0.08075,0.01531 0.161605,0.05477 0.242363,0.119373 0.105833,0.07761 0.200587,0.16581 0.285254,0.264583 0.09172,0.09172 0.169554,0.176635 0.233061,0.254248 0.06349,0.07056 0.10595,0.09887 0.127124,0.08475 v 0.05271 c 0.218719,0.282223 0.388032,0.522297 0.507979,0.719853 0.126993,0.197554 0.222264,0.370148 0.285771,0.518315 0.06349,0.148165 0.109232,0.282612 0.137459,0.402559 0.02823,0.112897 0.0636,0.225601 0.105937,0.338481 0.03527,0.141118 0.0565,0.264693 0.06356,0.37052 0.0071,0.105826 0.01033,0.225605 0.01033,0.359668 0,0.141114 -0.0071,0.240182 -0.02119,0.296622 -0.01411,0.04939 -0.02119,0.105476 -0.02119,0.168982 v 0.13746 c 0,0.07761 -0.01743,0.16581 -0.05271,0.264583 -0.03528,0.09877 -0.07774,0.197836 -0.127124,0.296623 -0.04939,0.09172 -0.102207,0.179916 -0.158646,0.264583 -0.04939,0.07761 -0.09513,0.137501 -0.13746,0.179834 l -0.148311,0.137459 c -0.0022,0 -0.0069,0.0029 -0.0098,0.0036 -0.02206,-0.0087 -0.04499,-0.01965 -0.06976,-0.03514 -0.04939,-0.03528 -0.102207,-0.07774 -0.158646,-0.127124 -0.05644,-0.04939 -0.109261,-0.09513 -0.158647,-0.13746 -0.04939,-0.04233 -0.09513,-0.07391 -0.137459,-0.09508 l -0.444418,-0.444934 c -0.148165,-0.148171 -0.261384,-0.27123 -0.338997,-0.370004 -0.07056,-0.105833 -0.126649,-0.201104 -0.168982,-0.28577 -0.04233,-0.09171 -0.08151,-0.186984 -0.116789,-0.285771 -0.02823,-0.09877 -0.07725,-0.219069 -0.147794,-0.360185 -0.09172,-0.176389 -0.158688,-0.341904 -0.201022,-0.497127 -0.04233,-0.15522 -0.07064,-0.292948 -0.08475,-0.412895 -0.0071,-0.127002 -0.0071,-0.236425 0,-0.328145 0.0071,-0.09877 0.01033,-0.179889 0.01033,-0.243396 0,-0.402166 0.05661,-0.719564 0.169499,-0.952397 0.119946,-0.232833 0.250081,-0.416298 0.39119,-0.550354 l 0.04237,-0.05271 c 0.01411,-0.0071 0.03205,-0.01793 0.05323,-0.03204 0.01494,-0.0112 0.02726,-0.01902 0.03824,-0.02429 z m -0.03307,0.236161 c -0.05644,0 -0.113046,0.03538 -0.169499,0.105937 -0.04939,0.06351 -0.09513,0.133757 -0.137459,0.211357 -0.04233,0.07056 -0.07771,0.137528 -0.105937,0.201021 -0.02117,0.05644 -0.03152,0.07439 -0.03152,0.05323 -0.0071,0.0071 -0.01793,0.03864 -0.03204,0.09508 -0.0071,0.04939 -0.01034,0.08096 -0.01034,0.09508 v 0.169499 0.148311 c 0,0.09877 0.03159,0.197319 0.09508,0.296106 0.07056,0.09877 0.113018,0.148311 0.127124,0.148311 0.04938,0.04939 0.123422,0.0739 0.222209,0.0739 h 0.03152 c 0.01588,0 0.03159,-9.72e-4 0.04703,-0.0036 0.01731,0.0019 0.03458,0.0036 0.05374,0.0036 h 0.03152 c 0.06351,0 0.123911,-0.02123 0.180351,-0.06356 0.05644,-0.04233 0.08423,-0.08427 0.08423,-0.126608 v -0.105936 c -0.01411,-0.02823 -0.0419,-0.04946 -0.08423,-0.06356 -0.03528,-0.02117 -0.06031,-0.03912 -0.07441,-0.05323 h -0.09792 c -0.01299,0.01299 -0.09793,0 -0.09793,0 -0.03528,0.03528 -0.06307,0.06031 -0.08423,0.07441 -0.01125,0.01125 -0.01684,0.04262 -0.01912,0.08527 -0.01012,-0.0091 -0.02017,-0.01941 -0.02894,-0.03256 -0.02117,-0.04233 -0.0386,-0.08479 -0.05271,-0.127124 -0.01409,-0.04939 -0.02446,-0.09513 -0.03152,-0.137459 -0.0071,-0.04233 -0.01793,-0.06356 -0.03204,-0.06356 v -0.274919 c 0.06349,-0.162279 0.141327,-0.307082 0.23306,-0.434082 0.09172,-0.134057 0.130379,-0.225532 0.116272,-0.274919 -0.03635,0.02497 -0.08819,0 -0.132291,0 z m -0.348816,0.707451 c -2.84e-4,0.0024 -2.68e-4,0.0045 -5.17e-4,0.0067 v -0.0052 c 2.01e-4,-5.14e-4 3.15e-4,-0.001 5.17e-4,-0.0016 z m 1.962712,3.959391 c 0,-0.03528 0.01415,-0.0843 0.04237,-0.147795 0.03528,-0.06351 0.07066,-0.134273 0.105937,-0.211873 0.03528,-0.07761 0.06359,-0.154931 0.08475,-0.232544 0.02823,-0.07761 0.03531,-0.151649 0.02119,-0.222209 0,-0.162282 -0.03918,-0.292934 -0.116789,-0.391707 -0.07761,-0.105824 -0.17616,-0.186943 -0.296106,-0.243396 h -0.132292 -0.08992 l -0.132328,5.7e-5 c 0,0.01411 -0.02831,0.03533 -0.08475,0.06356 -0.0494,0.02116 -0.07063,0.03859 -0.06356,0.05271 v 0.158647 c 0.01411,0.0071 0.02826,0.02829 0.04237,0.06356 0.01411,0.02823 0.02826,0.04237 0.04237,0.04237 h 0.132291 0.03721 0.132292 c 0.01411,0 0.02826,-0.0033 0.04238,-0.01034 0.01411,-0.01411 0.02825,-0.02497 0.04237,-0.03204 l 0.0026,-10e-4 0.0026,10e-4 0.08475,0.158646 c 0.01411,0.01411 0.02119,0.04242 0.02119,0.08475 0,0.03528 0.01743,0.05271 0.05271,0.05271 v 0.148311 c -0.02823,0.07056 -0.04946,0.137528 -0.06356,0.201021 -0.01411,0.06351 -0.02826,0.123394 -0.04237,0.179834 -0.01411,0.05644 -0.03534,0.116844 -0.06356,0.180351 -0.02823,0.05644 -0.07017,0.116327 -0.126607,0.179834 l 0.108005,0.0315 z"
       sodipodi:nodetypes="scccccccccccsccccccscccccccccccccscccccccccsscccccccsccssccccccccccccccccccscscccccscccccccsccscscccccccccsscccccccsccsccccsccsccsccccccccccccsccccccccscscsscccccccscscccccccccccccccsscsssccccccssccccccsccscccccccccccscsccsscsssscccccccccscccccccccccccccccccccccsccscccccsccsccccccscc" />
    <path
       id="text13"
       style="font-size:5.29167px;font-family:'Genzsch Et Heyse';-inkscape-font-specification:'Genzsch Et Heyse';text-align:center;text-anchor:middle;opacity:0.4;fill:#1a1a1a;stroke-width:0.529166"
       d="m -23.680208,-44.16733 c -0.04233,0.02116 -0.06356,0.05654 -0.06356,0.105937 l -0.08475,0.0739 c -0.08467,0.04939 -0.155433,0.102193 -0.211873,0.158647 -0.03155,0.03606 -0.06302,0.0563 -0.09457,0.06356 h -0.05323 -0.206705 c -0.01411,-0.0071 -0.05985,-0.01742 -0.13746,-0.03152 -0.07056,-0.02116 -0.12338,-0.03531 -0.158646,-0.04237 l -0.06356,-0.03204 -0.275436,-0.274919 h -0.09767 -0.09767 l -0.04237,0.05271 c 0,0.11289 -0.03538,0.232668 -0.105937,0.359668 -0.06351,0.126998 -0.137555,0.250574 -0.222209,0.37052 -0.08466,0.112892 -0.1625,0.215238 -0.23306,0.306958 -0.06351,0.08467 -0.09508,0.141272 -0.09508,0.169499 -0.169327,0.254 -0.285826,0.451617 -0.349333,0.592729 -0.06351,0.141106 -0.102165,0.246733 -0.116272,0.317293 -0.01413,0.07056 -0.01792,0.113017 -0.01085,0.127124 0.0071,0.01411 -0.0071,0.02119 -0.04237,0.02119 0,0.0071 -0.0033,0.0283 -0.01034,0.06356 0,0.02823 -0.0038,0.05982 -0.01085,0.09508 0,0.03528 -0.0033,0.07066 -0.01034,0.105937 v 0.0739 0.105937 c 0,0.18344 0.03158,0.331524 0.09509,0.444417 0.0635,0.105828 0.144622,0.194023 0.243396,0.264583 0.10583,0.06351 0.218534,0.116314 0.33848,0.158647 0.119953,0.04233 0.236453,0.08859 0.349333,0.137976 0.02823,0 0.07068,0.01035 0.127124,0.03152 0.05644,0.02117 0.113045,0.04568 0.169499,0.0739 0.06351,0.02823 0.119595,0.05654 0.168982,0.08475 0.04939,0.02823 0.08148,0.04946 0.0956,0.06356 l 0.328145,0.328146 c 0.02117,0.09878 0.04897,0.18697 0.08423,0.264583 0.04233,0.07761 0.08151,0.155448 0.116789,0.233061 0.03528,0.07761 0.06686,0.162011 0.09508,0.253731 0.02823,0.08467 0.04237,0.19081 0.04237,0.31781 0,0.04233 -0.0071,0.12345 -0.02119,0.243396 -0.0071,0.112899 -0.0245,0.228883 -0.05271,0.348816 -0.02117,0.119949 -0.04948,0.229371 -0.08475,0.328145 -0.03528,0.09172 -0.07394,0.137976 -0.116272,0.137976 -0.0071,0.01411 -0.02501,0.0419 -0.05323,0.08423 -0.02821,0.03528 -0.04564,0.06031 -0.05271,0.07441 l -0.222209,0.222209 c -0.09173,0.04233 -0.183715,0.08807 -0.275435,0.137459 -0.09172,0.04233 -0.179917,0.08099 -0.264584,0.116272 h -0.396875 c -0.0071,0 -0.03864,-0.01036 -0.09508,-0.03152 -0.05644,-0.02116 -0.0989,-0.03531 -0.127124,-0.04237 l -0.285771,-0.148312 h -0.04237 c -0.02117,-0.0071 -0.0386,-0.01033 -0.06426,-0.0052 0,0.0031 -0.06803,0.0052 -0.06803,0.0052 -0.02117,-0.0071 -0.0386,-0.01033 -0.05271,-0.01033 0,0.0071 0.0033,0.03158 0.01033,0.0739 0.0071,0.04233 0.01085,0.07064 0.01085,0.08475 l 0.03152,0.03152 c 0.08467,0.08467 0.176662,0.148353 0.275435,0.190686 0.09877,0.04233 0.194037,0.07391 0.285771,0.09509 0.09172,0.01411 0.176118,0.02119 0.253731,0.02119 0.02431,-0.0022 0.03548,-0.0016 0.05633,-0.0031 0.02565,0.0014 0.05169,0.0031 0.07597,0.0031 0.07761,-0.0071 0.1375,-0.01033 0.179834,-0.01033 h 0.03204 c 0.155222,-0.02823 0.300026,-0.04946 0.434082,-0.06356 0.141111,-0.01411 0.275043,-0.04242 0.402043,-0.08475 0.126998,-0.04234 0.250573,-0.109302 0.37052,-0.201022 0.127,-0.09172 0.253855,-0.232727 0.352642,-0.329864 0.09879,-0.09714 0.151607,-0.153226 0.208047,-0.252012 0.05644,-0.09878 0.10926,-0.2082 0.158647,-0.328146 0.04939,-0.119951 0.08805,-0.23317 0.116272,-0.338997 0.03528,-0.105832 0.05323,-0.176077 0.05323,-0.211357 0.01411,-0.0071 0.02119,-0.04952 0.02119,-0.127124 0.0071,-0.08467 0.01742,-0.148352 0.03152,-0.190686 v -0.10542 c -0.03528,-0.282221 -0.06359,-0.51194 -0.08475,-0.68833 -0.02117,-0.183443 -0.05603,-0.352756 -0.10542,-0.507979 l -0.03204,-0.04237 c -0.02116,-0.03528 -0.04567,-0.07394 -0.0739,-0.116272 -0.02116,-0.04233 -0.04239,-0.07771 -0.06356,-0.105936 -0.02117,-0.03528 -0.02825,-0.05271 -0.02119,-0.05271 -0.01411,-0.02117 -0.03154,-0.04948 -0.05271,-0.08475 -0.02117,-0.03528 -0.0424,-0.07066 -0.06356,-0.105936 -0.02116,-0.03528 -0.04239,-0.06686 -0.06356,-0.09509 -0.01411,-0.02823 -0.02497,-0.04237 -0.03204,-0.04237 l -0.158647,-0.158646 c -0.05644,-0.02823 -0.112529,-0.06689 -0.168982,-0.116272 -0.04939,-0.05644 -0.102723,-0.102696 -0.159163,-0.137976 -0.04233,-0.04233 -0.126732,-0.09136 -0.253732,-0.147795 -0.127,-0.06351 -0.26093,-0.120112 -0.402042,-0.169499 -0.134051,-0.05644 -0.257628,-0.102179 -0.37052,-0.137459 -0.112898,-0.03528 -0.18366,-0.05323 -0.211874,-0.05323 l -0.190169,-0.190169 c -0.02823,-0.02823 -0.05654,-0.07448 -0.08475,-0.137976 -0.02117,-0.06351 -0.03204,-0.112528 -0.03204,-0.147795 v -0.222208 c 0,-0.04939 0.01087,-0.10271 0.03204,-0.159164 0.02116,-0.06351 0.04947,-0.112528 0.08475,-0.147794 l 0.07338,-0.0615 c 0.03127,0.01289 0.04806,0.0228 0.04806,0.02945 l 0.222208,0.116789 h 0.132292 0.502812 0.132291 c 0.09877,0 0.204401,-0.03918 0.317294,-0.116789 0.112895,-0.08467 0.20109,-0.158715 0.264583,-0.222208 l 0.03204,-0.03152 c 0.141114,-0.134056 0.257613,-0.303369 0.349333,-0.507979 0.09877,-0.204612 0.147795,-0.416382 0.147795,-0.635104 -0.04233,0 -0.08427,0.01415 -0.12945,0.0071 -0.04518,-0.0071 -0.08712,0.0071 -0.129449,0.0353 z m 3.185335,0 c -0.04233,0.02116 -0.06356,0.05654 -0.06356,0.105937 l -0.08475,0.0739 c -0.08467,0.04939 -0.154917,0.102193 -0.211357,0.158647 -0.03148,0.03598 -0.06309,0.05625 -0.09457,0.06356 h -0.05374 -0.206189 c -0.01411,-0.0071 -0.06036,-0.01742 -0.137976,-0.03152 -0.07056,-0.02116 -0.12338,-0.03531 -0.158647,-0.04237 l -0.06356,-0.03204 -0.274919,-0.274919 h -0.09793 -0.09793 l -0.04237,0.05271 c 0,0.11289 -0.03538,0.232668 -0.105937,0.359668 -0.06351,0.126998 -0.137555,0.250574 -0.222208,0.37052 -0.08466,0.112892 -0.161984,0.215238 -0.232544,0.306958 -0.06351,0.08467 -0.0956,0.141272 -0.0956,0.169499 -0.169326,0.254 -0.285309,0.451617 -0.348816,0.592729 -0.06351,0.141106 -0.102682,0.246733 -0.116788,0.317293 -0.01413,0.07056 -0.0174,0.113017 -0.01034,0.127124 0.0071,0.01411 -0.0071,0.02119 -0.04237,0.02119 0,0.0071 -0.0038,0.0283 -0.01085,0.06356 0,0.02823 -0.0033,0.05982 -0.01034,0.09508 0,0.03528 -0.0038,0.07066 -0.01085,0.105937 v 0.0739 0.105937 c 0,0.18344 0.03209,0.331524 0.0956,0.444417 0.0635,0.105828 0.144622,0.194023 0.243396,0.264583 0.10583,0.06351 0.218534,0.116314 0.33848,0.158647 0.119953,0.04233 0.236453,0.08859 0.349333,0.137976 0.02823,0 0.07068,0.01035 0.127124,0.03152 0.05644,0.02117 0.112529,0.04568 0.168982,0.0739 0.06351,0.02823 0.120112,0.05654 0.169499,0.08475 0.04939,0.02823 0.08096,0.04946 0.09508,0.06356 l 0.328146,0.328146 c 0.02117,0.09878 0.04948,0.18697 0.08475,0.264583 0.04233,0.07761 0.08099,0.155448 0.116272,0.233061 0.03528,0.07761 0.06737,0.162011 0.0956,0.253731 0.02823,0.08467 0.04237,0.19081 0.04237,0.31781 0,0.04233 -0.0071,0.12345 -0.02119,0.243396 -0.0071,0.112899 -0.02501,0.228883 -0.05323,0.348816 -0.02117,0.119949 -0.04948,0.229371 -0.08475,0.328145 -0.03528,0.09172 -0.07394,0.137976 -0.116272,0.137976 -0.0071,0.01411 -0.0245,0.0419 -0.05271,0.08423 -0.02821,0.03528 -0.04616,0.06031 -0.05323,0.07441 l -0.222209,0.222209 c -0.09173,0.04233 -0.183198,0.08807 -0.274918,0.137459 -0.09172,0.04233 -0.179917,0.08099 -0.264584,0.116272 h -0.396875 c -0.0071,0 -0.03916,-0.01036 -0.0956,-0.03152 -0.05644,-0.02116 -0.09838,-0.03531 -0.126607,-0.04237 l -0.285771,-0.148312 h -0.04237 c -0.02117,-0.0071 -0.03912,-0.01033 -0.06452,-0.0052 0,0.0031 -0.06777,0.0052 -0.06777,0.0052 -0.02117,-0.0071 -0.03912,-0.01033 -0.05323,-0.01033 0,0.0071 0.0038,0.03158 0.01085,0.0739 0.0071,0.04233 0.01034,0.07064 0.01034,0.08475 l 0.03204,0.03152 c 0.08467,0.08467 0.176145,0.148353 0.274918,0.190686 0.09877,0.04233 0.194038,0.07391 0.285771,0.09509 0.09172,0.01411 0.176635,0.02119 0.254248,0.02119 0.02431,-0.0022 0.03548,-0.0016 0.05633,-0.0031 0.02554,0.0014 0.05179,0.0031 0.07597,0.0031 0.07761,-0.0071 0.1375,-0.01033 0.179834,-0.01033 h 0.03152 c 0.155223,-0.02823 0.300026,-0.04946 0.434082,-0.06356 0.141111,-0.01411 0.275043,-0.04242 0.402043,-0.08475 0.126997,-0.04234 0.250573,-0.109302 0.37052,-0.201022 0.127001,-0.09172 0.253855,-0.232727 0.380855,-0.42323 0,0.0071 0.0071,0.01034 0.02119,0.01034 0.04939,-0.01411 0.102723,-0.0702 0.159163,-0.168982 0.05644,-0.09878 0.109247,-0.2082 0.158647,-0.328146 0.04939,-0.119951 0.08804,-0.23317 0.116272,-0.338997 0.03528,-0.105832 0.05271,-0.176077 0.05271,-0.211357 0.01411,-0.0071 0.02119,-0.04952 0.02119,-0.127124 0.0071,-0.08467 0.01795,-0.148352 0.03204,-0.190686 v -0.10542 c -0.03528,-0.282221 -0.06359,-0.51194 -0.08475,-0.68833 -0.02117,-0.183443 -0.05655,-0.352756 -0.105937,-0.507979 l -0.03152,-0.04237 c -0.02117,-0.03528 -0.0462,-0.07394 -0.07441,-0.116272 -0.02116,-0.04233 -0.04239,-0.07771 -0.06356,-0.105936 -0.02117,-0.03528 -0.02774,-0.05271 -0.02067,-0.05271 -0.01411,-0.02117 -0.03205,-0.04948 -0.05323,-0.08475 -0.02117,-0.03528 -0.0424,-0.07066 -0.06356,-0.105936 -0.02116,-0.03528 -0.04239,-0.06686 -0.06356,-0.09509 -0.01411,-0.02823 -0.02446,-0.04237 -0.03152,-0.04237 l -0.158647,-0.158646 c -0.05644,-0.02823 -0.113045,-0.06689 -0.169499,-0.116272 -0.04939,-0.05644 -0.102206,-0.102696 -0.158646,-0.137976 -0.04233,-0.04233 -0.127249,-0.09136 -0.254248,-0.147795 -0.127,-0.06351 -0.260931,-0.120112 -0.402043,-0.169499 -0.134051,-0.05644 -0.257628,-0.102179 -0.37052,-0.137459 -0.112899,-0.03528 -0.183143,-0.05323 -0.211357,-0.05323 l -0.190686,-0.190169 c -0.02823,-0.02823 -0.05654,-0.07448 -0.08475,-0.137976 -0.02117,-0.06351 -0.03152,-0.112528 -0.03152,-0.147795 v -0.222208 c 0,-0.04939 0.01035,-0.10271 0.03152,-0.159164 0.02116,-0.06351 0.04947,-0.112528 0.08475,-0.147794 l 0.07338,-0.0615 c 0.03131,0.0129 0.04858,0.0228 0.04858,0.02945 l 0.222208,0.116789 h 0.132292 0.502295 0.132292 c 0.09877,0 0.204917,-0.03918 0.31781,-0.116789 0.112894,-0.08467 0.20109,-0.158715 0.264583,-0.222208 l 0.03152,-0.03152 c 0.141114,-0.134056 0.257612,-0.303369 0.349332,-0.507979 0.09877,-0.204612 0.148312,-0.416382 0.148312,-0.635104 -0.04233,0 -0.08479,0.01415 -0.129708,0.0071 -0.04492,-0.0071 -0.08737,0.0071 -0.129708,0.0353 z"
       sodipodi:nodetypes="ccccccccccccccccccscscccccsccscscccccscscccccccccssccccccscssccccsccsccsscccccccccccsscccccccscscsscccccccscccccccccccccccccccccccccscscccccsccscscccccscscccccccccssccccccsccsccccsccscccsccccccccccccsscccccccscccsscccccccscsccccc" />
    <path
       id="text14"
       style="font-size:5.29167px;font-family:'Genzsch Et Heyse';-inkscape-font-specification:'Genzsch Et Heyse';text-align:center;text-anchor:middle;opacity:0.4;fill:#1a1a1a;stroke-width:0.529166"
       d="m 2.1259684,-50.361784 c -0.021167,0 -0.066904,0.03866 -0.1374593,0.116272 -0.0635,0.07055 -0.1413385,0.165824 -0.2330607,0.285771 -0.091722,0.119946 -0.1940692,0.253877 -0.306958,0.402042 -0.1058332,0.141111 -0.2114599,0.282119 -0.3172933,0.42323 -0.098778,0.141108 -0.19784495,0.271761 -0.29662272,0.391708 -0.0917222,0.112896 -0.16904401,0.20109 -0.23254394,0.264583 -0.11288885,0.162277 -0.20487986,0.33487 -0.27543539,0.518315 -0.0705555,0.183444 -0.12336888,0.353273 -0.15864665,0.508496 -0.0352778,0.155229 -0.0635827,0.285364 -0.08474934,0.39119 -0.01411111,0.105827 -0.02446708,0.162432 -0.03152263,0.169499 0,0.04233 -0.0070762,0.09515 -0.02118733,0.158647 -0.0070556,0.06349 -0.01085206,0.102152 -0.01085206,0.116272 v 0.190686 0.201021 0.296623 l 0.02118734,0.232544 c 0.01411111,0.07057 0.02826357,0.141327 0.04237468,0.211873 0.01411109,0.07055 0.02826355,0.147877 0.04237467,0.232544 0,0.05644 0.0212287,0.137556 0.063562,0.243396 0.0423333,0.105827 0.0880704,0.21197 0.13745931,0.31781 0.0564445,0.105833 0.10925777,0.201104 0.15864665,0.285771 0.0493885,0.08467 0.0776934,0.134204 0.0847494,0.148311 0.0564444,0.05644 0.1234102,0.140838 0.20102132,0.253731 0.0776111,0.105827 0.134221,0.190742 0.1694987,0.254248 l 0.10593669,0.116272 c 0.1622777,0.162284 0.317438,0.296217 0.4656046,0.402043 0.1552222,0.09877 0.3071028,0.222348 0.4552694,0.37052 h 0.05271 0.079582 0.05271 c 0.049389,-0.02117 0.1130756,-0.07778 0.190686,-0.169499 0.084667,-0.09171 0.1690648,-0.190266 0.2537313,-0.296106 0.091723,-0.112892 0.1766375,-0.219036 0.2542481,-0.31781 0.084666,-0.09878 0.147836,-0.169023 0.1901692,-0.211356 0.049389,-0.04939 0.1059989,-0.123436 0.1694987,-0.222209 0.070556,-0.105842 0.1413189,-0.215265 0.2118734,-0.328145 0.070556,-0.119943 0.1408021,-0.240238 0.2113566,-0.360185 0.077611,-0.126993 0.1483736,-0.242976 0.2118734,-0.348816 v -0.03204 c 0.056444,-0.155223 0.098901,-0.29623 0.127124,-0.42323 0.035277,-0.134053 0.063066,-0.260909 0.084233,-0.380856 0.021167,-0.126998 0.039116,-0.254372 0.053227,-0.381372 0.021167,-0.126998 0.045675,-0.260932 0.073897,-0.402042 v -0.444418 c 0,-0.225776 -0.031585,-0.447903 -0.095085,-0.666626 -0.0635,-0.218721 -0.1342629,-0.430492 -0.2118734,-0.635103 v -0.06356 c -0.091723,-0.261056 -0.1973495,-0.472826 -0.3172933,-0.635103 -0.1199435,-0.169339 -0.2397229,-0.30327 -0.3596679,-0.402043 -0.1128897,-0.105834 -0.2152368,-0.183674 -0.3069581,-0.233061 -0.084666,-0.04939 -0.1379967,-0.08425 -0.1591634,-0.10542 -0.021167,-0.01411 -0.059828,-0.04242 -0.1162719,-0.08475 -0.056444,-0.04939 -0.091825,-0.08148 -0.1059367,-0.0956 l -0.073897,-0.0739 c -0.028223,-0.04233 -0.059807,-0.08479 -0.095085,-0.127124 -0.028223,-0.04233 -0.056528,-0.06305 -0.084749,-0.06305 h -0.132292 z m -3.3124593,0.168982 c -0.1834444,0 -0.3424012,0.02123 -0.4764567,0.06356 -0.1270001,0.04233 -0.2364233,0.09187 -0.3281453,0.148311 -0.084666,0.04939 -0.1516321,0.09893 -0.2010214,0.148312 -0.049389,0.04937 -0.08477,0.07717 -0.1059366,0.08423 l -0.063562,0.03204 c -0.2116664,0.14111 -0.4092842,0.320779 -0.5927286,0.539502 -0.1834444,0.218722 -0.345681,0.434289 -0.486792,0.645955 -0.1411107,0.211667 -0.2576101,0.401692 -0.3493327,0.571025 -0.084667,0.162277 -0.13748,0.264624 -0.1586467,0.306958 -0.077611,0.155222 -0.1337033,0.324535 -0.1689819,0.507979 -0.035277,0.183445 -0.053227,0.359834 -0.053227,0.529167 v 0.487308 0.433566 c 0,0.09878 0.010873,0.194051 0.032039,0.28577 0.028223,0.09172 0.052731,0.172836 0.073897,0.243396 0.028223,0.07056 0.052731,0.130448 0.073897,0.179834 l 0.042375,0.06356 c 0.070556,0.1905 0.1483942,0.373965 0.2330608,0.550354 0.091722,0.17639 0.218578,0.349499 0.3808553,0.518832 l 0.4128947,0.412378 c 0.042333,0.04233 0.1022233,0.08859 0.1798339,0.137976 0.084666,0.04939 0.1625048,0.09841 0.2330607,0.147794 0.07761,0.04233 0.1445761,0.08859 0.2010214,0.137976 0.056444,0.04233 0.084749,0.08427 0.084749,0.126608 l 0.116272,0.03204 h 0.073897 0.058396 0.073897 c 0.01411,-0.02823 0.059848,-0.08103 0.1374593,-0.158647 0.077611,-0.07762 0.1696022,-0.169608 0.2754354,-0.275435 0.1128886,-0.10583 0.2293884,-0.218534 0.3493326,-0.338481 0.1199443,-0.119938 0.23264756,-0.236439 0.33848066,-0.349332 0.10583324,-0.112892 0.19074817,-0.215238 0.25424805,-0.306958 0.0705555,-0.09878 0.10541992,-0.172822 0.10541992,-0.222209 0.0564444,-0.07762 0.10597812,-0.16581 0.14831136,-0.264583 0.0493888,-0.09877 0.0744141,-0.183688 0.0744141,-0.254248 v -0.116272 c 0.014111,-0.0071 0.0206706,-0.0283 0.0206706,-0.06356 0.007056,-0.04232 0.0179287,-0.06683 0.0320394,-0.0739 v -0.814937 c 0,-0.183445 -0.0386609,-0.352758 -0.11627198,-0.507979 -0.0776111,-0.162279 -0.16960226,-0.310362 -0.27543538,-0.444418 -0.1058333,-0.141116 -0.21853651,-0.264693 -0.33848063,-0.37052 -0.1199443,-0.112888 -0.2222915,-0.211439 -0.306958,-0.296106 -0.098777,-0.09877 -0.1657433,-0.197836 -0.2010213,-0.296622 -0.028222,-0.09877 -0.060323,-0.148312 -0.095601,-0.148312 h -0.132296 c -0.021167,0 -0.041879,0.01415 -0.063045,0.04237 -0.021167,0.02823 -0.042395,0.0636 -0.063562,0.105937 -0.014111,0.03528 -0.03206,0.07394 -0.053227,0.116272 -0.014111,0.03528 -0.028263,0.06031 -0.042375,0.07441 l -0.2857707,0.28577 c -0.119944,0.06349 -0.2359267,0.130462 -0.3488159,0.201022 -0.1058334,0.07056 -0.2011041,0.151676 -0.2857707,0.243396 l -0.2227254,0.222208 c 0,0.02117 -0.013635,0.05655 -0.041858,0.105937 -0.028223,0.04939 -0.060324,0.105475 -0.095601,0.168982 -0.028223,0.05644 -0.056528,0.116844 -0.084749,0.180351 -0.021167,0.05644 -0.031523,0.10926 -0.031523,0.158646 v 0.116272 c 0,0.162276 0.021229,0.282055 0.063562,0.359668 0.049389,0.07056 0.1022027,0.134246 0.1586467,0.190686 l 0.073897,0.08475 0.1483113,0.0739 h 0.1322917 0.089917 0.1322917 c 0.00705,-0.0071 0.028282,-0.01742 0.063562,-0.03152 0.035277,-0.02116 0.059785,-0.03531 0.073897,-0.04237 l 0.084749,-0.08475 c 0.00705,-0.0071 0.017926,-0.02829 0.032039,-0.06356 0.021167,-0.04232 0.031523,-0.06683 0.031523,-0.0739 l 0.010852,-0.03204 c 0,-0.07761 -0.025025,-0.133702 -0.074414,-0.168982 -0.049389,-0.03528 -0.1022028,-0.07066 -0.1586466,-0.105937 h -0.116272 c -0.00178,0.0024 -0.00432,0.0044 -0.0062,0.0067 -0.00349,-0.0022 -0.0063,-0.0045 -0.00982,-0.0067 h -0.116272 c -0.021167,0.02823 -0.049472,0.05274 -0.084749,0.0739 -0.035277,0.02117 -0.05271,0.04948 -0.05271,0.08475 v 0.116272 l 0.1054199,0.105936 -0.064079,0.01964 c -0.016815,-0.0089 -0.028841,-0.02249 -0.036173,-0.04082 -0.014111,-0.04233 -0.046212,-0.08807 -0.095601,-0.137459 l -0.031523,-0.06356 c -0.028224,-0.03528 -0.045657,-0.07774 -0.05271,-0.127124 v -0.105937 c 0,-0.169336 0.049017,-0.299471 0.1477946,-0.391191 0.1058327,-0.09877 0.1940275,-0.148311 0.2645833,-0.148311 h 0.2382284 c 0.00705,0 0.025003,0.0071 0.053227,0.02119 0.028224,0.0071 0.045657,0.01034 0.05271,0.01034 l 0.2222087,0.105936 c 0.035278,0.03528 0.091888,0.08154 0.1694987,0.137976 0.077611,0.04939 0.154933,0.105476 0.2325439,0.168982 0.077611,0.0635 0.1445768,0.134261 0.2010214,0.211874 0.0635,0.07056 0.095601,0.147877 0.095601,0.232544 0.091722,0.13406 0.161968,0.250559 0.2113566,0.349332 0.049389,0.09878 0.08477,0.18697 0.10593663,0.264584 0.0211667,0.07762 0.0320394,0.14838 0.0320394,0.211873 v 0.158647 0.190686 c 0,0.07761 -0.007076,0.158729 -0.0211873,0.243396 -0.014111,0.08467 -0.0424159,0.158715 -0.0847493,0.222208 -0.035278,0.05644 -0.088091,0.08475 -0.1586467,0.08475 h -0.1746663 c -0.155222,-0.07056 -0.2929504,-0.138045 -0.4128947,-0.201538 -0.1199435,-0.0635 -0.2397229,-0.133744 -0.359668,-0.211357 -0.1128888,-0.08467 -0.2331849,-0.179944 -0.3601847,-0.285771 -0.1269998,-0.112892 -0.2712877,-0.250621 -0.4335653,-0.412894 -0.1199434,-0.05644 -0.2190109,-0.15499 -0.2966227,-0.296106 -0.077611,-0.141111 -0.1375007,-0.285916 -0.179834,-0.434082 -0.042333,-0.148163 -0.073918,-0.278814 -0.095085,-0.391708 -0.021167,-0.119932 -0.032039,-0.183102 -0.032039,-0.190169 0,-0.03528 -0.00708,-0.08482 -0.021187,-0.148311 -0.00705,-0.07056 -0.010335,-0.113018 -0.010335,-0.127124 v -0.391708 c 0,-0.14111 0.017433,-0.275042 0.05271,-0.402042 0.035277,-0.134055 0.081014,-0.271783 0.1374593,-0.412895 0.077611,-0.20461 0.204983,-0.401712 0.3813721,-0.592212 0.1763887,-0.197556 0.3914391,-0.359792 0.6454386,-0.486792 0.084667,-0.02117 0.1554296,-0.0424 0.2118734,-0.06356 0.0635,-0.02823 0.1233902,-0.05325 0.179834,-0.07441 0.0635,-0.02116 0.1337456,-0.03531 0.2113566,-0.04237 0.084666,-0.01411 0.1908102,-0.02119 0.3178101,-0.02119 0.021167,-0.02116 0.056548,-0.03531 0.1059366,-0.04237 0.049389,-0.0071 0.098406,-0.01034 0.1477946,-0.01034 h 0.00568 0.1322916 c 0.0423333,-0.0071 0.0701213,-0.01793 0.0842326,-0.03204 0.0493888,-0.02117 0.10271913,-0.04189 0.15916341,-0.06305 0.0564444,-0.02823 0.10925782,-0.06033 0.15864665,-0.0956 0.0493888,-0.03528 0.0918464,-0.07394 0.12712403,-0.116272 0.0352777,-0.04233 0.05271,-0.09187 0.05271,-0.148311 0,-0.04939 -0.0174323,-0.09513 -0.05271,-0.13746 -0.0282222,-0.04233 -0.0636034,-0.08099 -0.10593669,-0.116272 -0.0352778,-0.03528 -0.070659,-0.06739 -0.10593669,-0.0956 -0.0282222,-0.02823 -0.0423747,-0.05602 -0.0423747,-0.08423 -0.014111,0 -0.0456958,-0.0038 -0.0950846,-0.01085 -0.0493886,-0.01411 -0.0814901,-0.02119 -0.0956014,-0.02119 H -1.0542077 c -0.00821,0 -0.015663,4.32e-4 -0.023771,5.17e-4 -4.886e-4,-1.5e-5 -0.00265,-5.17e-4 -0.0031,-5.17e-4 z m 2.6468669,0.991671 c 0.080753,0.01531 0.1616094,0.05529 0.2423624,0.119889 0.1058334,0.07762 0.2011041,0.16581 0.2857707,0.264583 0.091722,0.09172 0.169044,0.176118 0.232544,0.253732 0.0635,0.07056 0.1059573,0.09887 0.127124,0.08475 v 0.05271 c 0.2187226,0.282222 0.3880354,0.522297 0.5079793,0.719853 0.127,0.197556 0.2222707,0.370665 0.2857707,0.518831 0.0635,0.148164 0.1092367,0.282096 0.1374593,0.402043 0.028223,0.112898 0.063603,0.225601 0.1059367,0.33848 0.03528,0.141118 0.056509,0.264694 0.063562,0.37052 0.00705,0.105827 0.010335,0.225606 0.010335,0.359668 0,0.141116 -0.00708,0.240183 -0.021187,0.296623 -0.014111,0.04939 -0.021187,0.105475 -0.021187,0.168982 v 0.137976 c 0,0.07762 -0.017433,0.16581 -0.05271,0.264583 -0.035277,0.09877 -0.077735,0.19732 -0.127124,0.296106 -0.049389,0.09172 -0.1022027,0.179917 -0.1586466,0.264584 -0.049389,0.07761 -0.095126,0.1375 -0.1374593,0.179834 l -0.1483114,0.137459 c -0.00221,0 -0.00691,0.0029 -0.00982,0.0036 -0.022089,-0.0086 -0.044987,-0.01965 -0.069763,-0.03514 -0.049389,-0.03528 -0.1022027,-0.07774 -0.1586467,-0.127124 -0.056444,-0.04939 -0.1092573,-0.09513 -0.1586466,-0.137459 -0.049389,-0.04233 -0.095126,-0.07391 -0.1374593,-0.09508 l -0.4444173,-0.444417 c -0.1481665,-0.14817 -0.2613864,-0.271747 -0.3389974,-0.37052 -0.070556,-0.105846 -0.1266487,-0.201117 -0.168982,-0.285771 -0.042333,-0.09171 -0.081511,-0.186984 -0.1167887,-0.28577 -0.028222,-0.09877 -0.077239,-0.218552 -0.1477946,-0.359668 -0.0917221,-0.176389 -0.15868806,-0.342423 -0.20102131,-0.497644 -0.0423332,-0.155221 -0.0706383,-0.292948 -0.0847494,-0.412895 -0.007056,-0.127001 -0.007056,-0.236425 0,-0.328145 0.007056,-0.09877 0.0103353,-0.17989 0.0103353,-0.243396 0,-0.402167 0.05661,-0.719564 0.16949869,-0.952397 0.11994432,-0.232833 0.25059642,-0.416298 0.39170742,-0.550354 l 0.042375,-0.05271 c 0.014111,-0.0071 0.031543,-0.01793 0.05271,-0.03204 0.014695,-0.01102 0.027355,-0.01906 0.038241,-0.02429 z m -0.033073,0.236161 c -0.056444,0 -0.1130541,0.03538 -0.1694987,0.105937 -0.049389,0.0635 -0.095126,0.133743 -0.1374593,0.211356 -0.042334,0.07056 -0.077715,0.137528 -0.1059367,0.201022 -0.0211667,0.05644 -0.0315227,0.07439 -0.0315227,0.05323 -0.007056,0.0071 -0.017412,0.03866 -0.0315226,0.09508 -0.007056,0.04939 -0.0108521,0.08096 -0.0108521,0.09508 v 0.169498 0.148312 c 0,0.09877 0.0315847,0.197319 0.0950846,0.296106 0.070555,0.09877 0.1130127,0.148311 0.127124,0.148311 0.049389,0.04939 0.1234309,0.0739 0.2222087,0.0739 h 0.032039 c 0.015701,0 0.031239,-0.001 0.046509,-0.0036 1.656e-4,1.8e-5 3.509e-4,-1.7e-5 5.167e-4,0 0.017156,0.0018 0.034244,0.0036 0.053227,0.0036 h 0.032039 c 0.0635,0 0.1233895,-0.02123 0.179834,-0.06356 0.056445,-0.04233 0.084749,-0.08427 0.084749,-0.126607 v -0.105937 c -0.014111,-0.02823 -0.042416,-0.04946 -0.084749,-0.06356 -0.035277,-0.02117 -0.060303,-0.0386 -0.074414,-0.05271 h -0.063045 -0.069247 -0.063045 c -0.035278,0.03528 -0.063583,0.05979 -0.084749,0.0739 -0.011251,0.01125 -0.01684,0.04262 -0.01912,0.08527 -0.010067,-0.0091 -0.01966,-0.01941 -0.028422,-0.03256 -0.021167,-0.04233 -0.039116,-0.08427 -0.053227,-0.126608 -0.014111,-0.04939 -0.024467,-0.09564 -0.031523,-0.137976 -0.00706,-0.04233 -0.017929,-0.06304 -0.032039,-0.06304 v -0.275435 c 0.0635,-0.162277 0.1413386,-0.307082 0.2330608,-0.434082 0.091722,-0.134059 0.1303832,-0.225532 0.1162719,-0.274919 -0.036349,0.02496 -0.088191,0 -0.1322866,0 z m -0.3482992,0.706417 c -4.366e-4,0.0036 -6.716e-4,0.0066 -0.00103,0.0098 v -0.0072 c 3.431e-4,-8.77e-4 6.896e-4,-0.0017 0.00103,-0.0026 z m 1.8143562,4.06638 0.1477946,-0.10542 c 0,-0.03528 0.014152,-0.08482 0.042375,-0.148311 0.035277,-0.06351 0.070658,-0.134273 0.1059367,-0.211873 0.035277,-0.07761 0.063583,-0.154931 0.084749,-0.232544 0.028223,-0.07761 0.035299,-0.151649 0.021187,-0.222209 0,-0.162282 -0.038661,-0.292934 -0.116272,-0.391707 -0.07761,-0.105824 -0.1766776,-0.186943 -0.2966227,-0.243396 H 2.7502197 2.6603027 l -0.1322917,3.8e-5 c 0,0.01411 -0.028305,0.03533 -0.084749,0.06356 -0.049387,0.02117 -0.070615,0.0386 -0.063562,0.05271 v 0.158646 c 0.014111,0.0071 0.028263,0.0283 0.042375,0.06356 0.014111,0.02823 0.028263,0.04237 0.042375,0.04237 h 0.1322916 0.037207 0.1322916 c 0.014111,0 0.028263,-0.0033 0.042375,-0.01033 0.014111,-0.01411 0.028263,-0.02497 0.042375,-0.03204 l 0.00258,-0.001 0.00258,0.001 0.084749,0.158647 c 0.014111,0.01411 0.021187,0.04242 0.021187,0.08475 0,0.03528 0.017433,0.05323 0.05271,0.05323 v 0.147795 c -0.028223,0.07056 -0.049451,0.137528 -0.063562,0.201021 -0.014111,0.06351 -0.028263,0.123911 -0.042375,0.180351 -0.014111,0.05644 -0.035339,0.116327 -0.063562,0.179834 -0.028223,0.05644 -0.070163,0.116327 -0.1266073,0.179834 l 0.042375,0.03152 z"
       sodipodi:nodetypes="scsccccsscccsccccscscsccccccccccccscccccccccssccccccccccsssccsccsscssscscccccccccccccccscsscccscccscccscssscccccccsccsscccccccccccccsccccccscccccccscssccccsccssscsscscscccsscscssccccccccsscccccsscccccsscsscccccccsccsscsssccccccsscsccccsccscccccccccccscsccssccssssccccccccccsccccccccccccccccccccccccsccscccccsccssccccccc" />
  </g>
</svg>
