<?xml version="1.0" encoding="UTF-8" standalone="no"?>
<!-- Created with Inkscape (http://www.inkscape.org/) -->

<svg
   width="210mm"
   height="297mm"
   viewBox="0 0 210 297"
   version="1.1"
   id="svg1"
   sodipodi:docname="arabic numerals 5.svg"
   inkscape:version="1.3 (0e150ed6c4, 2023-07-21)"
   xmlns:inkscape="http://www.inkscape.org/namespaces/inkscape"
   xmlns:sodipodi="http://sodipodi.sourceforge.net/DTD/sodipodi-0.dtd"
   xmlns="http://www.w3.org/2000/svg"
   xmlns:svg="http://www.w3.org/2000/svg">
  <sodipodi:namedview
     id="namedview1"
     pagecolor="#ffffff"
     bordercolor="#000000"
     borderopacity="0.25"
     inkscape:showpageshadow="2"
     inkscape:pageopacity="0.0"
     inkscape:pagecheckerboard="0"
     inkscape:deskcolor="#d1d1d1"
     inkscape:document-units="mm"
     inkscape:zoom="45.254834"
     inkscape:cx="-0.74025241"
     inkscape:cy="-1.2484854"
     inkscape:window-width="2560"
     inkscape:window-height="1369"
     inkscape:window-x="-8"
     inkscape:window-y="-8"
     inkscape:window-maximized="1"
     inkscape:current-layer="layer1" />
  <defs
     id="defs1" />
  <g
     inkscape:label="Layer 1"
     inkscape:groupmode="layer"
     id="layer1">
    <path
       id="text1"
       style="font-size:5.29167px;font-family:'Kingthings Gothique';-inkscape-font-specification:'Kingthings Gothique';opacity:0.4;fill:#1a1a1a;stroke-width:0.264583"
       d="m -0.55097759,-2.101618 q -0.180868,0.2842206 -0.413412,0.4159956 l -0.14211001,1.1187954 0.07235,0.05426 q 0.40049201,-0.1576132 0.62270101,-0.1472779 0.224793,0.010335 0.503846,0.2635499 0.279053,0.2532147 0.421163,0.6123661 0.144694,0.3591514 -0.0646,0.4883426 -0.209289,0.1291912 -0.560689,-0.012919 -0.348817,-0.1421103 -0.516765,-0.3514 -0.165365,-0.2118735 -0.0801,-0.4857587 l -0.121439,-0.056844 -0.40566001,0.5710249 q -0.108521,0.2454632 0.0646,0.4650882 0.17570001,0.2170411 0.34881601,0.333313 0.1757,0.113688 0.457337,0.183452 0.281637,0.06976 0.534851,-0.07493 0.253215,-0.147278 0.444418,-0.3333135 0.193787,-0.1860352 0.40049299,-0.5090131 0.209289,-0.3255617 -0.0078,-0.8061529 -0.21441199,-0.480592 -0.46245899,-0.6485405 -0.248047,-0.1705323 -0.529684,-0.1550294 -0.279053,0.015503 -0.627869,0.1214397 l 0.05943,-0.4883426 1.077454,0.015503 q 0.03359,0.3333132 0.14211,0.4444176 0.108521,0.1085205 0.248047,0.077515 0.14211099,-0.03359 0.14986199,-0.2092897 -0.03876,-0.1162721 -0.07752,-0.1188559 l -0.05426,0.043925 q 0.06201,0.064596 0.05168,0.131775 -0.0078,0.067179 -0.103353,0.077515 -0.0956,0.00775 -0.1757,-0.085266 -0.07752,-0.095601 -0.04651,-0.2971396 0.222209,-0.43925 0.48575899,-0.5813602 l -0.03617,-0.080099 z m -0.196371,0.3849897 0.03876,0.511597 -0.160197,0.5193484 -0.03359,-0.540019 z m 1.436606,-0.08785 q -0.612366,0.2945558 -1.160137,-0.00517 0.563274,-0.2945559 1.160137,0.00517 z M -1.0005636,0.3194244 q 0.07235,-0.036174 0.16019701,0.00517 0.09043,0.038757 0.113689,0.1188559 0.02584,0.080098 -0.01292,0.1550294 -0.03876,0.074931 -0.105937,0.1059367 -0.06718,0.028422 -0.147278,0 -0.07752,-0.031006 -0.11627201,-0.1111044 -0.03617,-0.080099 0,-0.1576132 0.03876,-0.080099 0.10852,-0.116272 z m 2.126487,-2.3564468 q 0.227376,0.4211632 0.113688,0.5606897 -0.113688,0.1369426 -0.22996,-0.00517 -0.11627199,-0.1421103 0.116272,-0.555522 z m -1.29707899,1.2531543 q 0.291972,-0.1421103 0.555522,-0.00258 -0.268718,0.1446941 -0.555522,0.00258 z m 0.286804,-0.2764691 q 0.144694,0.291972 0.0026,0.555522 -0.14211,-0.2687176 -0.0026,-0.555522 z M 1.1517614,-1.7863915 q -0.105937,0.204122 -0.04651,0.2738852 0.06201,0.067179 0.113689,-0.00258 0.05168,-0.072347 -0.06718,-0.2713014 z M 0.11823241,0.9111199 q 0.03876,-0.020671 0.08785,0.00258 0.04909,0.023254 0.06201,0.067179 0.01292,0.043925 -0.01034,0.085266 -0.02067,0.041341 -0.05684,0.056844 -0.03617,0.0155 -0.0801,0 -0.04134,-0.0155 -0.06201,-0.059428 -0.02067,-0.046509 0,-0.08785 0.02067,-0.043925 0.05943,-0.064596 z m -0.782899,-0.2144574 q 0.06201,-0.031006 0.139527,0.00517 0.07752,0.03359 0.09818,0.1033529 0.02067,0.069763 -0.01292,0.1343588 -0.03359,0.064596 -0.09302,0.090434 -0.05684,0.025838 -0.126607,0 -0.06718,-0.025838 -0.100769,-0.095601 -0.03101,-0.069763 0,-0.1369427 0.03359,-0.069763 0.0956,-0.1007691 z m 1.43919,-0.5012617 q 0.03101,-0.018087 0.07235,0 0.04134,0.015503 0.05168,0.051676 0.01292,0.03359 -0.0026,0.067179 -0.0155,0.03359 -0.04393,0.049093 -0.02842,0.012919 -0.0646,0.00258 -0.03359,-0.010335 -0.05426,-0.046509 -0.01809,-0.036174 -0.0026,-0.069763 0.0155,-0.036173 0.04392,-0.05426 z m -1.025778,0.6898808 q 0.05168,-0.025838 0.116272,0.00517 0.06718,0.028422 0.08268,0.08785 0.01809,0.056844 -0.01034,0.1111045 -0.02842,0.05426 -0.07751,0.07493 -0.04909,0.02067 -0.105937,0 -0.05426,-0.02067 -0.08268,-0.0801 -0.02584,-0.059428 0,-0.1162718 0.02842,-0.056844 0.07752,-0.082682 z m 0.217041,-2.8086158 q 0.134359,-0.03359 0.29714,-0.00517 0.0026,0.08785 -0.02584,0.1421103 -0.02584,0.051676 -0.07493,0.074931 -0.04651,0.020671 -0.103353,0 -0.05426,-0.023254 -0.08268,-0.080099 -0.02584,-0.056844 -0.01034,-0.131775 z m 0.268718,1.3461719 q 0.291972,-0.1446941 0.555522,-0.00517 -0.268718,0.1446941 -0.555522,0.00517 z m 0.286804,-0.2790529 q 0.144694,0.291972 0.0026,0.555522 -0.14211,-0.2687176 -0.0026,-0.555522 z m -0.124023,0.7389734 q 0.291972,-0.1421102 0.555522,-0.00258 -0.268718,0.1446941 -0.555522,0.00258 z m 0.286804,-0.276469 q 0.144694,0.291972 0.0026,0.5555219 -0.14211,-0.2687176 -0.0026,-0.5555219 z m -1.030945,-0.5968632 q 0.03101,-0.018087 0.07235,0 0.04134,0.015503 0.05168,0.051677 0.01292,0.03359 -0.0026,0.067179 -0.0155,0.03359 -0.04392,0.049093 -0.02842,0.012919 -0.0646,0.00258 -0.03359,-0.010335 -0.05426,-0.046509 -0.01809,-0.036174 -0.0026,-0.069763 0.0155,-0.036173 0.04392,-0.05426 z m 0.738973,1.8035086 q 0.03101,-0.018087 0.07235,0 0.04134,0.015503 0.05168,0.051676 0.01292,0.03359 -0.0026,0.067179 -0.0155,0.03359 -0.04392,0.049093 -0.02842,0.012919 -0.0646,0.00258 -0.03359,-0.010335 -0.05426,-0.046509 -0.01809,-0.036174 -0.0026,-0.069763 0.0155,-0.036174 0.04392,-0.05426 z" />
  </g>
</svg>
