<?xml version="1.0" encoding="UTF-8" standalone="no"?>
<!-- Created with Inkscape (http://www.inkscape.org/) -->

<svg
   width="210mm"
   height="297mm"
   viewBox="0 0 210 297"
   version="1.1"
   id="svg1"
   sodipodi:docname="arabic numerals 10.svg"
   inkscape:version="1.3 (0e150ed6c4, 2023-07-21)"
   xmlns:inkscape="http://www.inkscape.org/namespaces/inkscape"
   xmlns:sodipodi="http://sodipodi.sourceforge.net/DTD/sodipodi-0.dtd"
   xmlns="http://www.w3.org/2000/svg"
   xmlns:svg="http://www.w3.org/2000/svg">
  <sodipodi:namedview
     id="namedview1"
     pagecolor="#ffffff"
     bordercolor="#000000"
     borderopacity="0.25"
     inkscape:showpageshadow="2"
     inkscape:pageopacity="0.0"
     inkscape:pagecheckerboard="0"
     inkscape:deskcolor="#d1d1d1"
     inkscape:document-units="mm"
     inkscape:zoom="4"
     inkscape:cx="136.75"
     inkscape:cy="76.125"
     inkscape:window-width="2560"
     inkscape:window-height="1369"
     inkscape:window-x="-8"
     inkscape:window-y="-8"
     inkscape:window-maximized="1"
     inkscape:current-layer="layer1" />
  <defs
     id="defs1" />
  <g
     inkscape:label="Layer 1"
     inkscape:groupmode="layer"
     id="layer1">
    <path
       id="path19"
       style="font-size:5.29167px;font-family:'Kingthings Gothique';-inkscape-font-specification:'Kingthings Gothique';opacity:0.4;fill:#1a1a1a;stroke-width:0.264583"
       d="m -1.127274,-2.1222885 q -0.02325,0.074931 -0.925009,1.0283616 l 0.149862,0.1446941 q 0.196371,-0.1937868 0.248047,-0.1782838 0.0646,0.7803146 0,1.8060924 -0.157613,0.4599203 -0.310059,0.6847133 0.372071,0.0052 0.532268,0.0052 0.162781,0.0026 0.320394,-0.0078 0.160197,-0.01034 0.245463,-0.214457 0.08785,-0.2041224 0.338481,-0.5064297 l -0.06201,-0.067179 q -0.1757,0.1033529 -0.713135,0.046509 0.268718,-0.3488161 0.353984,-0.540019 0.08527,-0.1912029 0.0052,-0.9069219 -0.07751,-0.7157191 -0.06718,-0.9456793 0.01033,-0.2325441 0.06201,-0.2428794 z m -0.1757,0.7803146 0.160197,0.7544763 -0.131775,0.8087367 -0.160197,-0.7984014 z m -0.599447,0.4030764 q 0.227376,0.4211631 0.113688,0.5606896 -0.113688,0.1369426 -0.22996,-0.00517 -0.116272,-0.1421102 0.116272,-0.5555219 z m 0.379822,1.6743174 q 0.366903,0.1472779 0.452169,0.5012612 -0.346232,-0.126607 -0.452169,-0.5012612 z m 0.485759,0.036174 Q -1.186702,1.1359121 -1.538102,1.2237621 -1.411495,0.8749463 -1.03684,0.7715939 Z m -0.91209,0.6020312 q -0.118856,0.198954 -0.0646,0.268718 0.05684,0.07235 0.113688,0.0052 0.05684,-0.06718 -0.04909,-0.273885 z m 0.09818,-1.7647516 q 0.124024,-0.077515 -0.0155,-0.2687176 l -0.04392,-0.00258 q 0.06201,0.1731162 0.0026,0.2790529 z m 3.002408,-1.6820694 q -0.276469,-0.08785 -0.552938,0.046509 -0.27647,0.131775 -0.653708,0.6149499 -0.374654,0.483175 -0.333313,1.2557381 0.04392,0.7699793 0.558106,1.1859748 Q 0.683986,1.4433871 1.02505,1.3296991 1.368699,1.2160111 1.621914,0.8051833 1.875128,0.3943554 1.978481,0.0016143 2.084418,-0.3937106 2.048241,-0.8097062 2.014651,-1.2257019 1.720099,-1.6055239 1.428127,-1.9853459 1.151658,-2.0731959 Z m -0.834575,0.7105514 q 0.268717,-0.2454632 0.58136,-0.041341 0.312643,0.2015382 0.457337,0.5090132 0.144694,0.3074749 0.162781,0.8190719 Q 1.539231,0.4331128 1.317022,0.6062289 1.097397,0.7793451 0.880356,0.6579059 0.665899,0.5364655 0.404933,0.2444935 0.14655,-0.0474785 0.097458,-0.5823299 0.050948,-1.1197652 0.317083,-1.3626445 Z m -0.43925,0.3281455 0.160197,0.7544764 -0.131775,0.8087366 -0.160197,-0.7984013 z m -0.134359,0.7648117 q 0.149862,-0.072347 0.284221,-0.00258 -0.136943,0.074931 -0.284221,0.00258 z m 0.147278,-0.1421103 q 0.07235,0.1498617 0.0026,0.2842205 -0.07493,-0.1369426 -0.0026,-0.2842205 z m 1.043865,0.3126426 q 0.118855,-0.059428 0.266133,0.00775 0.147278,0.067179 0.186036,0.1989544 0.04134,0.1317749 -0.02325,0.2557984 -0.0646,0.1240236 -0.1757,0.1757 -0.111104,0.049093 -0.242879,0 -0.129191,-0.051676 -0.191203,-0.1834514 -0.06201,-0.131775 0,-0.26355 0.06201,-0.131775 0.180868,-0.1912029 z m 0.222208,0.1860353 q -0.03101,0.015503 -0.04651,0.049093 -0.0155,0.03359 0,0.069763 0.0155,0.03359 0.04909,0.046509 0.03359,0.012919 0.06201,0 0.02842,-0.012919 0.04651,-0.043925 0.01809,-0.031006 0.0078,-0.067179 -0.01034,-0.036174 -0.04909,-0.051677 -0.03876,-0.018087 -0.06976,-0.00258 z m 0.12144,0.6821293 q 0.105937,0.2067058 0.04909,0.2738852 -0.05684,0.067179 -0.113689,-0.00258 -0.05426,-0.072347 0.0646,-0.2713014 z M 1.53148,-1.3006328 q 0.03876,-0.020671 0.08785,0.00258 0.04909,0.023254 0.06201,0.067179 0.01292,0.043925 -0.01033,0.085266 -0.02067,0.041341 -0.05684,0.056844 -0.03617,0.015503 -0.0801,0 -0.04134,-0.015503 -0.06201,-0.059428 -0.02067,-0.046509 0,-0.08785 0.02067,-0.043925 0.05943,-0.064596 z M 0.893275,-1.9207503 q 0.06201,-0.031006 0.139527,0.00517 0.07752,0.03359 0.09819,0.1033529 0.02067,0.069763 -0.01292,0.1343588 -0.03359,0.064596 -0.09302,0.090434 -0.05684,0.025838 -0.126607,0 -0.06718,-0.025838 -0.100769,-0.095602 -0.03101,-0.069763 0,-0.1369426 0.03359,-0.069763 0.0956,-0.1007691 z m 0.855246,1.255738 q 0.02325,-0.012919 0.05168,0 0.03101,0.010335 0.03876,0.036174 0.0078,0.025838 -0.0052,0.051677 -0.01034,0.023254 -0.03101,0.03359 -0.01809,0.010335 -0.04392,0.00258 -0.02584,-0.00775 -0.03876,-0.03359 -0.01292,-0.025838 -0.0026,-0.051676 0.01033,-0.025838 0.03101,-0.038757 z M 1.273097,-1.6416974 q 0.05168,-0.025838 0.116272,0.00517 0.06718,0.028422 0.08268,0.08785 0.01809,0.056844 -0.01034,0.1111044 -0.02842,0.05426 -0.07751,0.074931 -0.04909,0.020671 -0.105937,0 -0.05426,-0.020671 -0.08268,-0.080099 -0.02584,-0.059428 0,-0.1162721 0.02842,-0.056844 0.07751,-0.082682 z m 0.457337,1.2815763 q 0.0155,-0.010335 0.03876,0 0.02326,0.00775 0.02842,0.028422 0.0078,0.018087 -0.0026,0.036174 -0.0078,0.018087 -0.02325,0.025838 -0.0155,0.00775 -0.03359,0.00258 -0.01809,-0.00517 -0.03101,-0.025838 -0.01034,-0.020671 -0.0026,-0.038757 0.01033,-0.020671 0.02584,-0.028422 z m -0.05684,-0.6071985 q 0.03101,-0.018087 0.07235,0 0.04134,0.015503 0.05168,0.051677 0.01292,0.03359 -0.0026,0.067179 -0.0155,0.03359 -0.04392,0.049093 -0.02842,0.012919 -0.0646,0.00258 -0.03359,-0.010335 -0.05426,-0.046509 -0.01809,-0.036174 -0.0026,-0.069763 0.0155,-0.036173 0.04393,-0.05426 z" />
  </g>
</svg>
