<?xml version="1.0" encoding="UTF-8" standalone="no"?>
<!-- Created with Inkscape (http://www.inkscape.org/) -->

<svg
   width="210mm"
   height="297mm"
   viewBox="0 0 210 297"
   version="1.1"
   id="svg1"
   sodipodi:docname="arabic numerals 35.svg"
   inkscape:version="1.3 (0e150ed6c4, 2023-07-21)"
   xmlns:inkscape="http://www.inkscape.org/namespaces/inkscape"
   xmlns:sodipodi="http://sodipodi.sourceforge.net/DTD/sodipodi-0.dtd"
   xmlns="http://www.w3.org/2000/svg"
   xmlns:svg="http://www.w3.org/2000/svg">
  <sodipodi:namedview
     id="namedview1"
     pagecolor="#ffffff"
     bordercolor="#000000"
     borderopacity="0.25"
     inkscape:showpageshadow="2"
     inkscape:pageopacity="0.0"
     inkscape:pagecheckerboard="0"
     inkscape:deskcolor="#d1d1d1"
     inkscape:document-units="mm"
     inkscape:zoom="4"
     inkscape:cx="136.75"
     inkscape:cy="56.125"
     inkscape:window-width="2560"
     inkscape:window-height="1369"
     inkscape:window-x="-8"
     inkscape:window-y="-8"
     inkscape:window-maximized="1"
     inkscape:current-layer="layer1" />
  <defs
     id="defs1" />
  <g
     inkscape:label="Layer 1"
     inkscape:groupmode="layer"
     id="layer1">
    <path
       id="path156"
       style="font-size:5.29167px;font-family:'Kingthings Gothique';-inkscape-font-specification:'Kingthings Gothique';opacity:0.4;fill:#1a1a1a;stroke-width:0.264583"
       d="m -2.0689041,-1.9775944 q -0.03876,-0.00258 -0.05426,-0.00517 l -0.550354,0.6821293 0.07493,0.074931 q 0.180867,-0.1007691 0.431498,-0.090434 l 0.02842,0.1834514 0.0155,0.335897 0.02584,0.020671 0.01292,-0.4211631 0.01034,-0.1188559 q 0.633036,-0.041341 0.878499,0.031006 -0.03876,0.1576132 -0.633036,0.6795455 l 0.0646,0.08785 q 0.266134,-0.098185 0.664043,0.08785 0.40049304,0.1860353 0.43149804,0.6614588 0.03101,0.4728396 -0.28422,0.6924646 Q -1.9035331,0.722499 -2.0533951,0.3323417 q -0.149862,-0.3927412 0.03617,-0.6485396 l -0.0646,-0.093018 q -0.462504,0.2351279 -0.571025,0.5865279 -0.10852,0.3513999 0.188619,0.7570602 0.29714,0.4056599 0.899171,0.4521689 0.552938,-0.250631 0.71830304,-0.3410645 0.165364,-0.093018 0.511597,-0.4366662 0.348814,-0.3436463 0.328143,-0.6382022 -0.01809,-0.2945558 -0.240295,-0.6330367 -0.222209,-0.3384808 -0.87333304,-0.3927411 0.74414104,-0.788066 0.82940804,-0.8423263 l -0.01292,-0.085266 q -0.483174,0.043925 -1.10587604,0.025838 -0.620117,-0.018087 -0.658875,-0.02067 z m 1.22731604,0.320394 q -0.68471304,0.3048912 -1.29966304,0.00258 0.627869,-0.3023074 1.29966304,-0.00258 z m -0.22220904,0.7622279 q 0.07235,-0.036174 0.16019804,0.00517 0.09043,0.038757 0.113688,0.1188559 0.02584,0.080099 -0.01292,0.1550294 -0.03876,0.074931 -0.105937,0.1059367 -0.06718,0.028422 -0.14727804,0 -0.07751,-0.031006 -0.116272,-0.1111044 -0.03617,-0.080099 0,-0.1576132 0.03876,-0.080099 0.10852,-0.116272 z m -0.695048,0.3772381 q 0.227376,0.4211632 0.113688,0.5606897 -0.113688,0.1369426 -0.22996,-0.00517 -0.116272,-0.1421102 0.116272,-0.555522 z m 0.08268,0.8604132 q 0.47284,-0.2325441 0.89917104,-0.00517 -0.43408204,0.2325441 -0.89917104,0.00517 z m 0.465089,-0.4495853 q 0.23254404,0.4728397 0.0052,0.8991705 -0.232544,-0.4340823 -0.0052,-0.8991705 z m -0.50643,-0.1653647 q -0.116272,0.1989544 -0.05943,0.2713015 0.05684,0.069763 0.111105,0.00258 0.05684,-0.069763 -0.05168,-0.2738853 z m 1.32033404,0.3539838 q 0.03876,-0.020671 0.08785,0.00258 0.04909,0.023255 0.06201,0.067179 0.01292,0.043925 -0.01034,0.085266 -0.02067,0.041341 -0.05684,0.056844 -0.03617,0.015503 -0.0801,0 -0.04134,-0.015503 -0.06201,-0.059428 -0.02067,-0.046509 0,-0.08785 0.02067,-0.043925 0.05943,-0.064596 z m -0.266136,-0.7493087 q 0.06201,-0.031006 0.139527,0.00517 0.07751,0.03359 0.09819,0.103353 0.02067,0.069763 -0.01292,0.1343588 -0.03359,0.064596 -0.09302,0.090434 -0.05684,0.025838 -0.126607,0 -0.06718,-0.025838 -0.100769,-0.095602 -0.03101,-0.069763 0,-0.1369426 0.03359,-0.069763 0.0956,-0.1007691 z m 0.180868,1.0386969 q 0.03101,-0.018087 0.07235,0 0.04134,0.015503 0.05168,0.051676 0.01292,0.03359 -0.0026,0.067179 -0.0155,0.03359 -0.04392,0.049093 -0.02842,0.012919 -0.0646,0.00258 -0.03359,-0.010335 -0.05426,-0.046509 -0.01809,-0.036174 -0.0026,-0.069763 0.0155,-0.036174 0.04393,-0.05426 z m 0.02325,-0.6562911 q 0.05168,-0.025838 0.116272,0.00517 0.06718,0.028422 0.08268,0.08785 0.01809,0.056844 -0.01033,0.1111044 -0.02842,0.05426 -0.07751,0.074931 -0.04909,0.020671 -0.105936,0 -0.05426,-0.020671 -0.08268,-0.080099 -0.02584,-0.059428 0,-0.116272 0.02842,-0.056844 0.07752,-0.082682 z M -1.6555001,-1.7734724 q 0.14211,-0.03359 0.320394,-0.00517 0.0052,0.095601 -0.02584,0.1550294 -0.02842,0.056844 -0.0801,0.080099 -0.05168,0.023255 -0.113688,0 -0.06201,-0.023254 -0.09043,-0.085266 -0.02842,-0.062012 -0.01033,-0.1446941 z m -0.05684,2.6354996 q 0.07235,-0.036174 0.160197,0.00517 0.09043,0.038757 0.113688,0.1188558 0.02584,0.080099 -0.01292,0.1550291 -0.03876,0.07493 -0.105937,0.105937 -0.06718,0.02842 -0.147278,0 -0.07751,-0.03101 -0.116272,-0.111105 -0.03617,-0.080098 0,-0.1576125 0.03876,-0.080099 0.108521,-0.1162721 z m -0.400493,-0.1757 q 0.06201,-0.031006 0.139527,0.00517 0.07751,0.03359 0.09819,0.1033529 0.02067,0.069763 -0.01292,0.1343588 -0.03359,0.064596 -0.09302,0.090434 -0.05684,0.025838 -0.126607,0 -0.06718,-0.025838 -0.100769,-0.095601 -0.03101,-0.069763 0,-0.1369427 0.03359,-0.069763 0.0956,-0.1007691 z m -0.258382,-0.2583823 q 0.05168,-0.025838 0.116272,0.00517 0.06718,0.028422 0.08268,0.08785 0.01809,0.056844 -0.01033,0.1111044 -0.02842,0.05426 -0.07752,0.074931 -0.04909,0.020671 -0.105936,0 -0.05426,-0.020671 -0.08268,-0.080099 -0.02584,-0.059428 0,-0.116272 0.02842,-0.056844 0.07751,-0.082682 z m -0.043925,-0.2816367 q 0.03876,-0.020671 0.08785,0.00258 0.04909,0.023254 0.06201,0.067179 0.01292,0.043925 -0.01034,0.085266 -0.02067,0.041341 -0.05684,0.056844 -0.03617,0.015503 -0.0801,0 -0.04134,-0.015503 -0.06201,-0.059428 -0.02067,-0.046509 0,-0.08785 0.02067,-0.043925 0.05943,-0.064596 z m 0.06201,-0.2377117 q 0.03101,-0.018087 0.07235,0 0.04134,0.015503 0.05168,0.051676 0.01292,0.03359 -0.0026,0.067179 -0.0155,0.03359 -0.04393,0.049093 -0.02842,0.012919 -0.0646,0.00258 -0.03359,-0.010335 -0.05426,-0.046509 -0.01809,-0.036174 -0.0026,-0.069763 0.0155,-0.036174 0.04393,-0.05426 z M 0.85339494,-2.101618 q -0.180868,0.2842206 -0.413412,0.4159956 l -0.14211,1.1187954 0.07235,0.05426 q 0.400493,-0.1576132 0.622702,-0.1472779 0.22479196,0.010335 0.50384496,0.2635499 0.279053,0.2532147 0.421163,0.6123661 0.144694,0.3591514 -0.06459,0.4883426 -0.20929,0.1291912 -0.56069,-0.012919 -0.34881596,-0.1421103 -0.51676496,-0.3514 -0.165364,-0.2118735 -0.0801,-0.4857587 l -0.12144,-0.056844 -0.40566,0.5710249 q -0.108521,0.2454632 0.0646,0.4650882 0.1757,0.2170411 0.348816,0.333313 0.1757,0.113688 0.45733596,0.183452 0.281637,0.06976 0.534852,-0.07493 0.253214,-0.147278 0.444417,-0.3333135 0.193787,-0.1860352 0.400493,-0.5090131 0.20929,-0.3255617 -0.0078,-0.8061529 -0.214417,-0.480592 -0.462464,-0.6485405 -0.248047,-0.1705323 -0.529684,-0.1550294 -0.279053,0.015503 -0.62786896,0.1214397 l 0.05943,-0.4883426 1.07745496,0.015503 q 0.03359,0.3333132 0.14211,0.4444176 0.10852,0.1085205 0.248047,0.077515 0.14211,-0.03359 0.149862,-0.2092897 -0.03876,-0.1162721 -0.07752,-0.1188559 l -0.05426,0.043925 q 0.06201,0.064596 0.05168,0.131775 -0.0078,0.067179 -0.103353,0.077515 -0.0956,0.00775 -0.1757,-0.085266 -0.07751,-0.095601 -0.04651,-0.2971396 0.222209,-0.43925 0.485759,-0.5813602 l -0.03617,-0.080099 z m -0.19637,0.3849897 0.03876,0.511597 -0.160197,0.5193484 -0.03359,-0.540019 z m 1.43660496,-0.08785 q -0.612366,0.2945558 -1.16013596,-0.00517 0.56327296,-0.2945559 1.16013596,0.00517 z M 0.40380994,0.3194244 q 0.07235,-0.036174 0.160197,0.00517 0.09043,0.038757 0.113688,0.1188559 0.02584,0.080098 -0.01292,0.1550294 -0.03876,0.074931 -0.105937,0.1059367 -0.06718,0.028422 -0.147278,0 -0.07751,-0.031006 -0.116272,-0.1111044 -0.03617,-0.080099 0,-0.1576132 0.03876,-0.080099 0.108521,-0.116272 z M 2.5302959,-2.0370224 q 0.227377,0.4211632 0.113689,0.5606897 -0.113689,0.1369426 -0.229961,-0.00517 -0.116272,-0.1421103 0.116272,-0.555522 z m -1.297079,1.2531543 q 0.291972,-0.1421103 0.555522,-0.00258 -0.268718,0.1446941 -0.555522,0.00258 z m 0.286804,-0.2764691 q 0.144695,0.291972 0.0026,0.555522 -0.14211,-0.2687176 -0.0026,-0.555522 z m 1.036114,-0.7260543 q -0.105937,0.204122 -0.04651,0.2738852 0.06201,0.067179 0.113688,-0.00258 0.05168,-0.072347 -0.06718,-0.2713014 z m -1.03353,2.6975114 q 0.03876,-0.020671 0.08785,0.00258 0.04909,0.023254 0.06201,0.067179 0.01292,0.043925 -0.01033,0.085266 -0.02067,0.041341 -0.05684,0.056844 -0.03617,0.0155 -0.0801,0 -0.04134,-0.0155 -0.06201,-0.059428 -0.02067,-0.046509 0,-0.08785 0.02067,-0.043925 0.05943,-0.064596 z M 0.73970894,0.6966625 q 0.06201,-0.031006 0.139526,0.00517 0.07751,0.03359 0.09819,0.1033529 0.02067,0.069763 -0.01292,0.1343588 -0.03359,0.064596 -0.09302,0.090434 -0.05684,0.025838 -0.126607,0 -0.06718,-0.025838 -0.10077,-0.095601 -0.031,-0.069763 0,-0.1369427 0.03359,-0.069763 0.0956,-0.1007691 z M 2.1788979,0.1954008 q 0.03101,-0.018087 0.07235,0 0.04134,0.015503 0.05168,0.051676 0.01292,0.03359 -0.0026,0.067179 -0.0155,0.03359 -0.04393,0.049093 -0.02842,0.012919 -0.0646,0.00258 -0.03359,-0.010335 -0.05426,-0.046509 -0.01809,-0.036174 -0.0026,-0.069763 0.0155,-0.036173 0.04393,-0.05426 z m -1.025777,0.6898808 q 0.05168,-0.025838 0.116272,0.00517 0.06718,0.028422 0.08268,0.08785 0.01809,0.056844 -0.01033,0.1111045 -0.02842,0.05426 -0.07751,0.07493 -0.04909,0.02067 -0.105937,0 -0.05426,-0.02067 -0.08268,-0.0801 -0.02584,-0.059428 0,-0.1162718 0.02842,-0.056844 0.07751,-0.082682 z m 0.217041,-2.8086158 q 0.134359,-0.03359 0.297139,-0.00517 0.0026,0.08785 -0.02584,0.1421103 -0.02584,0.051676 -0.07493,0.074931 -0.04651,0.020671 -0.103353,0 -0.05426,-0.023254 -0.08268,-0.080099 -0.02584,-0.056844 -0.01033,-0.131775 z m 0.268717,1.3461719 q 0.291972,-0.1446941 0.555522,-0.00517 -0.268717,0.1446941 -0.555522,0.00517 z m 0.286805,-0.2790529 q 0.144694,0.291972 0.0026,0.555522 -0.142111,-0.2687176 -0.0026,-0.555522 z m -0.124024,0.7389734 q 0.291972,-0.1421102 0.555522,-0.00258 -0.268717,0.1446941 -0.555522,0.00258 z m 0.286805,-0.276469 q 0.144694,0.291972 0.0026,0.5555219 -0.14211,-0.2687176 -0.0026,-0.5555219 z M 1.0575189,-0.990574 q 0.03101,-0.018087 0.07235,0 0.04134,0.015503 0.05168,0.051677 0.01292,0.03359 -0.0026,0.067179 -0.0155,0.03359 -0.04392,0.049093 -0.02842,0.012919 -0.0646,0.00258 -0.03359,-0.010335 -0.05426,-0.046509 -0.01809,-0.036174 -0.0026,-0.069763 0.0155,-0.036173 0.04392,-0.05426 z m 0.738974,1.8035086 q 0.03101,-0.018087 0.07235,0 0.04134,0.015503 0.05168,0.051676 0.01292,0.03359 -0.0026,0.067179 -0.0155,0.03359 -0.04393,0.049093 -0.02842,0.012919 -0.06459,0.00258 -0.03359,-0.010335 -0.05426,-0.046509 -0.01809,-0.036174 -0.0026,-0.069763 0.0155,-0.036174 0.04392,-0.05426 z" />
  </g>
</svg>
