<?xml version="1.0" encoding="UTF-8" standalone="no"?>
<!-- Created with Inkscape (http://www.inkscape.org/) -->

<svg
   width="210mm"
   height="297mm"
   viewBox="0 0 210 297"
   version="1.1"
   id="svg1"
   sodipodi:docname="arabic numerals 60.svg"
   inkscape:version="1.3 (0e150ed6c4, 2023-07-21)"
   xmlns:inkscape="http://www.inkscape.org/namespaces/inkscape"
   xmlns:sodipodi="http://sodipodi.sourceforge.net/DTD/sodipodi-0.dtd"
   xmlns="http://www.w3.org/2000/svg"
   xmlns:svg="http://www.w3.org/2000/svg">
  <sodipodi:namedview
     id="namedview1"
     pagecolor="#ffffff"
     bordercolor="#000000"
     borderopacity="0.25"
     inkscape:showpageshadow="2"
     inkscape:pageopacity="0.0"
     inkscape:pagecheckerboard="0"
     inkscape:deskcolor="#d1d1d1"
     inkscape:document-units="mm"
     inkscape:zoom="4"
     inkscape:cx="136.75"
     inkscape:cy="56.125"
     inkscape:window-width="2560"
     inkscape:window-height="1369"
     inkscape:window-x="-8"
     inkscape:window-y="-8"
     inkscape:window-maximized="1"
     inkscape:current-layer="layer1" />
  <defs
     id="defs1" />
  <g
     inkscape:label="Layer 1"
     inkscape:groupmode="layer"
     id="layer1">
    <path
       id="path320"
       style="font-size:5.29167px;font-family:'Kingthings Gothique';-inkscape-font-specification:'Kingthings Gothique';opacity:0.4;fill:#1a1a1a;stroke-width:0.264583"
       d="m -0.43866021,-2.0912827 q -0.227376,-0.067179 -0.475423,-0.012919 -0.24804699,0.051677 -0.52968399,0.2067059 -0.281636,0.1550294 -0.49351,0.3539837 -0.20929,0.1989544 -0.372071,0.4650882 -0.160197,0.2661338 -0.258382,0.483175 -0.0956,0.2144573 -0.04393,0.7673954 0.05426,0.5503544 0.640788,1.0309456 0.408244,0.289388 0.847494,0.1757 0.30747499,-0.217041 0.42116299,-0.3281457 0.116273,-0.1136882 0.1757,-0.1963706 0.05943,-0.085266 0.20929,-0.2583823 0.149862,-0.1731161 0.222209,-0.3178102 0.07235,-0.1446941 0.07751,-0.1937868 0.144694,-0.7932337 -0.555522,-1.1446336 -0.54518699,-0.095601 -0.76222799,0.03359 -0.214448,0.1291907 -0.379812,0.3023069 -0.165365,0.1705323 -0.235128,0.3048911 -0.07235,-0.5167646 0.118856,-0.7622278 0.191203,-0.2454632 0.511597,-0.2842206 0.32039399,-0.038757 0.71313499,0.2092897 l 0.56069,-0.4935102 q -0.165365,-0.2764691 -0.392742,-0.3410647 z m -0.95859799,1.6278086 q 0.57877599,0.080099 0.84749399,0.5271 0.227376,0.6898807 -0.299723,0.6407881 -0.71055199,-0.1498617 -0.96118299,-0.7648117 -0.204122,-0.3281455 0.413412,-0.4030764 z m 0.76997899,-0.4986778 q -0.07235,0.379822 -0.39274099,0.5296837 0.05426,-0.3565676 0.39274099,-0.5296837 z m 0.568441,-0.7725632 q 0.227377,0.4211632 0.113689,0.5606897 -0.113689,0.1369426 -0.229961,-0.00517 -0.116272,-0.1421103 0.116272,-0.555522 z M -2.4798802,0.1721464 q 0.3514,-0.1731161 0.666627,-0.00258 -0.322978,0.1705323 -0.666627,0.00258 z m 0.343649,-0.3333132 q 0.173116,0.3514 0.0052,0.6666264 -0.173116,-0.3229779 -0.0052,-0.6666264 z m 1.18339099,0.2557985 q 0.08785,-0.043925 0.19637,0.00517 0.108521,0.049093 0.136943,0.1472779 0.02842,0.095602 -0.01809,0.1860353 -0.04651,0.090434 -0.129191,0.1266073 -0.0801,0.036174 -0.1757,0 -0.0956,-0.036174 -0.14210999,-0.131775 -0.04393,-0.098185 0,-0.1937867 0.04651,-0.095601 0.13177499,-0.1395265 z m 0.144694,0.08785 q -0.02067,0.010335 -0.03359,0.036174 -0.01033,0.023254 0,0.049093 0.01292,0.025838 0.03617,0.036174 0.02584,0.00775 0.04651,0 0.02067,-0.010335 0.03359,-0.03359 0.01292,-0.023254 0.0052,-0.049093 -0.0078,-0.025838 -0.03617,-0.038757 -0.02842,-0.012919 -0.05168,0 z m 0.772563,-1.6717336 q -0.111105,0.2015382 -0.05426,0.2713015 0.05684,0.069763 0.111104,0 0.05684,-0.069763 -0.05684,-0.2713015 z M -2.1207282,0.6398184 q 0.271301,-0.1343588 0.516764,-0.00258 -0.250631,0.1343588 -0.516764,0.00258 z m 0.266133,-0.2583823 q 0.134359,0.2713014 0.0052,0.5167646 -0.134359,-0.2506308 -0.0052,-0.5167646 z m 0.134359,0.5503543 q 0.191203,-0.093018 0.364319,0 -0.1757,0.093018 -0.364319,0 z m 0.188619,-0.1808676 q 0.09302,0.1912029 0.0026,0.3643193 -0.0956,-0.1757002 -0.0026,-0.3643193 z m 0.206706,0.2609662 q 0.144694,-0.069763 0.273885,-0.00258 -0.131775,0.072347 -0.273885,0.00258 z m 0.14211,-0.1369427 q 0.06976,0.1446941 0,0.2738848 -0.06976,-0.1317745 0,-0.2738848 z m -1.33842,-1.2247321 q 0.248047,-0.1240236 0.47284,-0.00517 -0.227377,0.1240235 -0.47284,0.00517 z m 0.245463,-0.2377118 q 0.12144,0.248047 0.0026,0.4728397 -0.124024,-0.2273765 -0.0026,-0.4728397 z m -0.129191,-0.1757 q 0.20929,-0.1033529 0.397909,-0.00258 -0.191203,0.1033529 -0.397909,0.00258 z m 0.206706,-0.1989543 q 0.100769,0.2092896 0.0026,0.3979087 -0.103353,-0.1912029 -0.0026,-0.3979087 z m -0.05684,-0.1421103 q 0.170532,-0.082682 0.322978,0 -0.15503,0.082682 -0.322978,0 z m 0.167948,-0.1601971 q 0.08268,0.1705324 0,0.3229779 -0.08268,-0.1550293 0,-0.3229779 z m 1.85260099,0.5865279 q -0.07235,0.379822 -0.392741,0.5296838 0.05426,-0.3565676 0.392741,-0.5296838 z m -0.643375,-0.3513999 q -0.07235,0.379822 -0.39274199,0.5296837 0.05426,-0.3565676 0.39274199,-0.5296837 z m 0.77773,0.5761925 q -0.07235,0.379822 -0.392741,0.5296838 0.05426,-0.3565676 0.392741,-0.5296838 z M -1.1543792,-1.0138284 q -0.07235,0.379822 -0.392741,0.5296837 0.05426,-0.3565676 0.392741,-0.5296837 z m 1.11104399,0.8707484 q -0.07235,0.379822 -0.392741,0.5296838 0.05426,-0.3565676 0.392741,-0.5296838 z m -0.366902,-0.7027999 q -0.07235,0.379822 -0.392742,0.5296838 0.05426,-0.3565676 0.392742,-0.5296838 z m -0.392742,-1.0903734 q 0.08785,-0.043925 0.196371,0.00517 0.108521,0.049093 0.136943,0.1472779 0.02842,0.095602 -0.01809,0.1860353 -0.04651,0.090434 -0.129191,0.1266073 -0.0801,0.036174 -0.1757,0 -0.0956,-0.036174 -0.142111,-0.131775 -0.04392,-0.098185 0,-0.1937867 0.04651,-0.095601 0.131775,-0.1395265 z m 0.162781,0.1369427 q -0.02067,0.010335 -0.03359,0.036174 -0.01034,0.023254 0,0.049093 0.01292,0.025838 0.03617,0.036173 0.02584,0.00775 0.04651,0 0.02067,-0.010335 0.03359,-0.03359 0.01292,-0.023254 0.0052,-0.049093 -0.0078,-0.025838 -0.03617,-0.038757 -0.02842,-0.012919 -0.05168,0 z M 1.7239958,-2.0731959 q -0.276469,-0.08785 -0.552938,0.046509 -0.27646901,0.131775 -0.65370701,0.6149499 -0.374655,0.483175 -0.333313,1.2557381 0.04393,0.7699793 0.558105,1.1859748 0.51418101,0.4134112 0.85524601,0.2997232 0.343648,-0.113688 0.596863,-0.524516 0.253215,-0.4108279 0.356568,-0.803569 0.105936,-0.3953249 0.06976,-0.8113205 -0.03359,-0.4159955 -0.328146,-0.7958175 -0.291972,-0.379822 -0.568441,-0.467672 z m -0.83457501,0.7105514 q 0.26871801,-0.2454632 0.58136101,-0.041341 0.312642,0.2015382 0.457336,0.5090132 0.144694,0.3074749 0.162781,0.8190719 0.02067,0.5090132 -0.201538,0.6821293 -0.219625,0.1731162 -0.436666,0.051677 -0.214458,-0.1214404 -0.47542401,-0.4134124 -0.258382,-0.291972 -0.307475,-0.8268234 -0.04651,-0.5374353 0.219625,-0.7803146 z m -0.43925,0.3281455 0.160197,0.7544764 -0.131775,0.8087366 -0.160197,-0.7984013 z m -0.134358,0.7648117 q 0.149861,-0.072347 0.28422,-0.00258 -0.136943,0.074931 -0.28422,0.00258 z m 0.147277,-0.1421103 q 0.07235,0.1498617 0.0026,0.2842205 -0.07493,-0.1369426 -0.0026,-0.2842205 z M 1.5069548,-0.099155 q 0.118856,-0.059428 0.266134,0.00775 0.147278,0.067179 0.186035,0.1989544 0.04134,0.1317749 -0.02325,0.2557984 -0.0646,0.1240236 -0.1757,0.1757 -0.111105,0.049093 -0.24288,0 -0.129191,-0.051676 -0.191203,-0.1834514 -0.06201,-0.131775 0,-0.26355 0.06201,-0.131775 0.180868,-0.1912029 z m 0.222209,0.1860353 q -0.03101,0.015503 -0.04651,0.049093 -0.0155,0.03359 0,0.069763 0.0155,0.03359 0.04909,0.046509 0.03359,0.012919 0.06201,0 0.02842,-0.012919 0.04651,-0.043925 0.01809,-0.031006 0.0078,-0.067179 -0.01034,-0.036174 -0.04909,-0.051677 -0.03876,-0.018087 -0.06976,-0.00258 z m 0.12144,0.6821293 q 0.105936,0.2067058 0.04909,0.2738852 -0.05684,0.067179 -0.113688,-0.00258 -0.05426,-0.072347 0.0646,-0.2713014 z m 0.253214,-2.0696424 q 0.03876,-0.020671 0.08785,0.00258 0.04909,0.023254 0.06201,0.067179 0.01292,0.043925 -0.01033,0.085266 -0.02067,0.041341 -0.05684,0.056844 -0.03617,0.015503 -0.0801,0 -0.04134,-0.015503 -0.06201,-0.059428 -0.02067,-0.046509 0,-0.08785 0.02067,-0.043925 0.05943,-0.064596 z m -0.638204,-0.6201175 q 0.06201,-0.031006 0.139526,0.00517 0.07752,0.03359 0.09819,0.1033529 0.02067,0.069763 -0.01292,0.1343588 -0.03359,0.064596 -0.09302,0.090434 -0.05684,0.025838 -0.126607,0 -0.06718,-0.025838 -0.10077,-0.095602 -0.031,-0.069763 0,-0.1369426 0.03359,-0.069763 0.0956,-0.1007691 z m 0.855245,1.255738 q 0.02325,-0.012919 0.05168,0 0.03101,0.010335 0.03876,0.036174 0.0078,0.025838 -0.0052,0.051677 -0.01033,0.023254 -0.031,0.03359 -0.01809,0.010335 -0.04393,0.00258 -0.02584,-0.00775 -0.03876,-0.03359 -0.01292,-0.025838 -0.0026,-0.051676 0.01034,-0.025838 0.03101,-0.038757 z m -0.475423,-0.9766851 q 0.05168,-0.025838 0.116272,0.00517 0.06718,0.028422 0.08268,0.08785 0.01809,0.056844 -0.01033,0.1111044 -0.02842,0.05426 -0.07752,0.074931 -0.04909,0.020671 -0.105936,0 -0.05426,-0.020671 -0.08268,-0.080099 -0.02584,-0.059428 0,-0.1162721 0.02842,-0.056844 0.07752,-0.082682 z m 0.457337,1.2815763 q 0.0155,-0.010335 0.03876,0 0.02325,0.00775 0.02842,0.028422 0.0078,0.018087 -0.0026,0.036174 -0.0078,0.018087 -0.02325,0.025838 -0.0155,0.00775 -0.03359,0.00258 -0.01809,-0.00517 -0.03101,-0.025838 -0.01033,-0.020671 -0.0026,-0.038757 0.01034,-0.020671 0.02584,-0.028422 z m -0.05684,-0.6071985 q 0.03101,-0.018087 0.07235,0 0.04134,0.015503 0.05168,0.051677 0.01292,0.03359 -0.0026,0.067179 -0.0155,0.03359 -0.04393,0.049093 -0.02842,0.012919 -0.06459,0.00258 -0.03359,-0.010335 -0.05426,-0.046509 -0.01809,-0.036174 -0.0026,-0.069763 0.0155,-0.036173 0.04393,-0.05426 z" />
  </g>
</svg>
