<?xml version="1.0" encoding="UTF-8" standalone="no"?>
<!-- Created with Inkscape (http://www.inkscape.org/) -->

<svg
   width="210mm"
   height="297mm"
   viewBox="0 0 210 297"
   version="1.1"
   id="svg1"
   sodipodi:docname="arabic numerals 50.svg"
   inkscape:version="1.3 (0e150ed6c4, 2023-07-21)"
   xmlns:inkscape="http://www.inkscape.org/namespaces/inkscape"
   xmlns:sodipodi="http://sodipodi.sourceforge.net/DTD/sodipodi-0.dtd"
   xmlns="http://www.w3.org/2000/svg"
   xmlns:svg="http://www.w3.org/2000/svg">
  <sodipodi:namedview
     id="namedview1"
     pagecolor="#ffffff"
     bordercolor="#000000"
     borderopacity="0.25"
     inkscape:showpageshadow="2"
     inkscape:pageopacity="0.0"
     inkscape:pagecheckerboard="0"
     inkscape:deskcolor="#d1d1d1"
     inkscape:document-units="mm"
     inkscape:zoom="4"
     inkscape:cx="136.75"
     inkscape:cy="56.125"
     inkscape:window-width="2560"
     inkscape:window-height="1369"
     inkscape:window-x="-8"
     inkscape:window-y="-8"
     inkscape:window-maximized="1"
     inkscape:current-layer="layer1" />
  <defs
     id="defs1" />
  <g
     inkscape:label="Layer 1"
     inkscape:groupmode="layer"
     id="layer1">
    <path
       id="path249"
       style="font-size:5.29167px;font-family:'Kingthings Gothique';-inkscape-font-specification:'Kingthings Gothique';opacity:0.4;fill:#1a1a1a;stroke-width:0.264583"
       d="m -1.7897885,-2.101618 q -0.180867,0.2842206 -0.413411,0.4159956 l -0.142111,1.1187954 0.07235,0.05426 q 0.400493,-0.1576132 0.622702,-0.1472779 0.224792,0.010335 0.503845,0.2635499 0.279053,0.2532147 0.421164,0.6123661 0.144694,0.3591514 -0.0646,0.4883426 -0.20929,0.1291912 -0.56069,-0.012919 -0.348816,-0.1421103 -0.516764,-0.3514 -0.165365,-0.2118735 -0.0801,-0.4857587 l -0.12144,-0.056844 -0.40566,0.5710249 q -0.10852,0.2454632 0.0646,0.4650882 0.1757,0.2170411 0.348816,0.333313 0.1757,0.113688 0.457337,0.183452 0.281636,0.06976 0.534851,-0.07493 0.253215,-0.147278 0.444418,-0.3333135 0.193786,-0.1860352 0.400492,-0.5090131 0.20929,-0.3255617 -0.0078,-0.8061529 -0.214411,-0.480592 -0.462458,-0.6485405 -0.248047,-0.1705323 -0.529683,-0.1550294 -0.279053,0.015503 -0.627869,0.1214397 l 0.05943,-0.4883426 1.077454,0.015503 q 0.03359,0.3333132 0.14211,0.4444176 0.108521,0.1085205 0.248047,0.077515 0.14211,-0.03359 0.149862,-0.2092897 -0.03876,-0.1162721 -0.07752,-0.1188559 l -0.05426,0.043925 q 0.06201,0.064596 0.05168,0.131775 -0.0078,0.067179 -0.103353,0.077515 -0.0956,0.00775 -0.1757,-0.085266 -0.07751,-0.095601 -0.04651,-0.2971396 0.222208,-0.43925 0.485758,-0.5813602 l -0.03617,-0.080099 z m -0.19637,0.3849897 0.03876,0.511597 -0.160197,0.5193484 -0.03359,-0.540019 z m 1.436606,-0.08785 q -0.612367,0.2945558 -1.160137,-0.00517 0.563273,-0.2945559 1.160137,0.00517 z m -1.689821,2.1239027 q 0.07235,-0.036174 0.160197,0.00517 0.09043,0.038757 0.113688,0.1188559 0.02584,0.080098 -0.01292,0.1550294 -0.03876,0.074931 -0.105936,0.1059367 -0.06718,0.028422 -0.147278,0 -0.07752,-0.031006 -0.116272,-0.1111044 -0.03617,-0.080099 0,-0.1576132 0.03876,-0.080099 0.10852,-0.116272 z m 2.126487,-2.3564468 Q 0.1144895,-1.6158592 8.0150231e-4,-1.4763327 -0.1128865,-1.3393901 -0.2291585,-1.4815027 q -0.116272,-0.1421103 0.116272,-0.555522 z m -1.29708,1.2531543 q 0.291972,-0.1421103 0.555522,-0.00258 -0.268717,0.1446941 -0.555522,0.00258 z m 0.286805,-0.2764691 q 0.144694,0.291972 0.0026,0.555522 -0.142111,-0.2687176 -0.0026,-0.555522 z m 1.036113,-0.7260543 q -0.105937,0.204122 -0.04651,0.2738852 0.06201,0.067179 0.113688,-0.00258 0.05168,-0.072347 -0.06718,-0.2713014 z m -1.033529,2.6975114 q 0.03876,-0.020671 0.08785,0.00258 0.04909,0.023254 0.06201,0.067179 0.01292,0.043925 -0.01033,0.085266 -0.02067,0.041341 -0.05684,0.056844 -0.03617,0.0155 -0.0801,0 -0.04134,-0.0155 -0.06201,-0.059428 -0.02067,-0.046509 0,-0.08785 0.02067,-0.043925 0.05943,-0.064596 z m -0.782899,-0.2144574 q 0.06201,-0.031006 0.139527,0.00517 0.07751,0.03359 0.09818,0.1033529 0.02067,0.069763 -0.01292,0.1343588 -0.03359,0.064596 -0.09302,0.090434 -0.05684,0.025838 -0.126607,0 -0.06718,-0.025838 -0.100769,-0.095601 -0.03101,-0.069763 0,-0.1369427 0.03359,-0.069763 0.0956,-0.1007691 z m 1.43919,-0.5012617 q 0.03101,-0.018087 0.07235,0 0.04134,0.015503 0.05168,0.051676 0.01292,0.03359 -0.0026,0.067179 -0.0155,0.03359 -0.04393,0.049093 -0.02842,0.012919 -0.06459,0.00258 -0.03359,-0.010335 -0.05426,-0.046509 -0.01809,-0.036174 -0.0026,-0.069763 0.0155,-0.036173 0.04393,-0.05426 z m -1.025778,0.6898808 q 0.05168,-0.025838 0.116272,0.00517 0.06718,0.028422 0.08268,0.08785 0.01809,0.056844 -0.01033,0.1111045 -0.02842,0.05426 -0.07752,0.07493 -0.04909,0.02067 -0.105936,0 -0.05426,-0.02067 -0.08268,-0.0801 -0.02584,-0.059428 0,-0.1162718 0.02842,-0.056844 0.07752,-0.082682 z m 0.217041,-2.8086158 q 0.134359,-0.03359 0.29714,-0.00517 0.0026,0.08785 -0.02584,0.1421103 -0.02584,0.051676 -0.07493,0.074931 -0.04651,0.020671 -0.103353,0 -0.05426,-0.023254 -0.08268,-0.080099 -0.02584,-0.056844 -0.01034,-0.131775 z m 0.268718,1.3461719 q 0.291972,-0.1446941 0.555522,-0.00517 -0.268718,0.1446941 -0.555522,0.00517 z m 0.286804,-0.2790529 q 0.144694,0.291972 0.0026,0.555522 -0.14211,-0.2687176 -0.0026,-0.555522 z m -0.124024,0.7389734 q 0.291973,-0.1421102 0.555522,-0.00258 -0.268717,0.1446941 -0.555522,0.00258 z m 0.286805,-0.276469 q 0.144694,0.291972 0.0026,0.5555219 -0.142111,-0.2687176 -0.0026,-0.5555219 z m -1.030946,-0.5968632 q 0.03101,-0.018087 0.07235,0 0.04134,0.015503 0.05168,0.051677 0.01292,0.03359 -0.0026,0.067179 -0.0155,0.03359 -0.04393,0.049093 -0.02842,0.012919 -0.0646,0.00258 -0.03359,-0.010335 -0.05426,-0.046509 -0.01809,-0.036174 -0.0026,-0.069763 0.0155,-0.036173 0.04393,-0.05426 z m 0.738974,1.8035086 q 0.03101,-0.018087 0.07235,0 0.04134,0.015503 0.05168,0.051676 0.01292,0.03359 -0.0026,0.067179 -0.0155,0.03359 -0.04393,0.049093 -0.02842,0.012919 -0.0646,0.00258 -0.03359,-0.010335 -0.05426,-0.046509 -0.01809,-0.036174 -0.0026,-0.069763 0.0155,-0.036174 0.04393,-0.05426 z m 2.457218,-2.8861305 q -0.276469,-0.08785 -0.552938,0.046509 -0.276469,0.131775 -0.653707,0.6149499 -0.374655,0.483175 -0.333314,1.2557381 0.04393,0.7699793 0.558106,1.1859748 0.514181,0.4134112 0.855246,0.2997232 0.343648,-0.113688 0.596863,-0.5245158 0.253214,-0.4108279 0.356567,-0.803569 0.105937,-0.3953249 0.06976,-0.8113205 -0.03359,-0.4159957 -0.328142,-0.7958177 -0.291972,-0.379822 -0.568441,-0.467672 z m -0.834575,0.7105514 q 0.268718,-0.2454632 0.58136,-0.041341 0.312643,0.2015382 0.457337,0.5090132 0.144694,0.3074749 0.162781,0.8190719 0.02067,0.5090132 -0.201538,0.6821293 -0.219625,0.1731162 -0.436667,0.051677 -0.214457,-0.1214404 -0.475423,-0.4134124 -0.258382,-0.291972 -0.307475,-0.8268234 -0.04651,-0.5374353 0.219625,-0.7803146 z m -0.43925,0.3281455 0.160197,0.7544764 -0.131775,0.8087366 -0.160197,-0.7984013 z m -0.134359,0.7648117 q 0.149862,-0.072347 0.284221,-0.00258 -0.136943,0.074931 -0.284221,0.00258 z m 0.147278,-0.1421103 q 0.07235,0.1498617 0.0026,0.2842205 -0.07493,-0.1369426 -0.0026,-0.2842205 z m 1.043865,0.3126426 q 0.118856,-0.059428 0.266134,0.00775 0.147277,0.067179 0.186035,0.1989544 0.04134,0.1317749 -0.02326,0.2557984 -0.06459,0.1240236 -0.1757,0.1757 -0.111104,0.049093 -0.242879,0 -0.129191,-0.051676 -0.191203,-0.1834514 -0.06201,-0.131775 0,-0.26355 0.06201,-0.131775 0.180868,-0.1912029 z m 0.222209,0.1860353 q -0.03101,0.015503 -0.04651,0.049093 -0.0155,0.03359 0,0.069763 0.0155,0.03359 0.04909,0.046509 0.03359,0.012919 0.06201,0 0.02842,-0.012919 0.04651,-0.043925 0.01809,-0.031006 0.0078,-0.067179 -0.01033,-0.036174 -0.04909,-0.051677 -0.03876,-0.018087 -0.06976,-0.00258 z m 0.121439,0.6821293 q 0.105937,0.2067058 0.04909,0.2738852 -0.05684,0.067179 -0.113688,-0.00258 -0.05426,-0.072347 0.06459,-0.2713014 z m 0.253215,-2.0696424 q 0.03876,-0.020671 0.08785,0.00258 0.04909,0.023254 0.06201,0.067179 0.01292,0.043925 -0.01034,0.085266 -0.02067,0.041341 -0.05684,0.056844 -0.03617,0.015503 -0.0801,0 -0.04134,-0.015503 -0.06201,-0.059428 -0.02067,-0.046509 0,-0.08785 0.02067,-0.043925 0.05943,-0.064596 z m -0.638204,-0.6201175 q 0.06201,-0.031006 0.139526,0.00517 0.07751,0.03359 0.09819,0.1033529 0.02067,0.069763 -0.01292,0.1343588 -0.03359,0.064596 -0.09302,0.090434 -0.05685,0.025838 -0.126608,0 -0.06718,-0.025838 -0.100769,-0.095602 -0.03101,-0.069763 0,-0.1369426 0.03359,-0.069763 0.0956,-0.1007691 z m 0.855245,1.255738 q 0.02325,-0.012919 0.05168,0 0.03101,0.010335 0.03876,0.036174 0.0078,0.025838 -0.0052,0.051677 -0.01033,0.023254 -0.03101,0.03359 -0.01809,0.010335 -0.04393,0.00258 -0.02584,-0.00775 -0.03876,-0.03359 -0.01292,-0.025838 -0.0026,-0.051676 0.01033,-0.025838 0.03101,-0.038757 z m -0.475423,-0.9766851 q 0.05168,-0.025838 0.116272,0.00517 0.06718,0.028422 0.08268,0.08785 0.01809,0.056844 -0.01033,0.1111044 -0.02842,0.05426 -0.07752,0.074931 -0.04909,0.020671 -0.105937,0 -0.05426,-0.020671 -0.08268,-0.080099 -0.02584,-0.059428 0,-0.1162721 0.02842,-0.056844 0.07752,-0.082682 z m 0.457336,1.2815763 q 0.0155,-0.010335 0.03876,0 0.02325,0.00775 0.02842,0.028422 0.0078,0.018087 -0.0026,0.036174 -0.0078,0.018087 -0.02325,0.025838 -0.0155,0.00775 -0.03359,0.00258 -0.01809,-0.00517 -0.03101,-0.025838 -0.01034,-0.020671 -0.0026,-0.038757 0.01034,-0.020671 0.02584,-0.028422 z m -0.05684,-0.6071985 q 0.03101,-0.018087 0.07235,0 0.04134,0.015503 0.05168,0.051677 0.01292,0.03359 -0.0026,0.067179 -0.0155,0.03359 -0.04393,0.049093 -0.02842,0.012919 -0.0646,0.00258 -0.03359,-0.010335 -0.05426,-0.046509 -0.01809,-0.036174 -0.0026,-0.069763 0.0155,-0.036173 0.04393,-0.05426 z" />
  </g>
</svg>
