<?xml version="1.0" encoding="UTF-8" standalone="no"?>
<!-- Created with Inkscape (http://www.inkscape.org/) -->

<svg
   width="210mm"
   height="297mm"
   viewBox="0 0 210 297"
   version="1.1"
   id="svg1"
   sodipodi:docname="arabic numerals 15.svg"
   inkscape:version="1.3 (0e150ed6c4, 2023-07-21)"
   xmlns:inkscape="http://www.inkscape.org/namespaces/inkscape"
   xmlns:sodipodi="http://sodipodi.sourceforge.net/DTD/sodipodi-0.dtd"
   xmlns="http://www.w3.org/2000/svg"
   xmlns:svg="http://www.w3.org/2000/svg">
  <sodipodi:namedview
     id="namedview1"
     pagecolor="#ffffff"
     bordercolor="#000000"
     borderopacity="0.25"
     inkscape:showpageshadow="2"
     inkscape:pageopacity="0.0"
     inkscape:pagecheckerboard="0"
     inkscape:deskcolor="#d1d1d1"
     inkscape:document-units="mm"
     inkscape:zoom="4"
     inkscape:cx="136.75"
     inkscape:cy="76.125"
     inkscape:window-width="2560"
     inkscape:window-height="1369"
     inkscape:window-x="-8"
     inkscape:window-y="-8"
     inkscape:window-maximized="1"
     inkscape:current-layer="layer1" />
  <defs
     id="defs1" />
  <g
     inkscape:label="Layer 1"
     inkscape:groupmode="layer"
     id="layer1">
    <path
       id="path40"
       style="font-size:5.29167px;font-family:'Kingthings Gothique';-inkscape-font-specification:'Kingthings Gothique';opacity:0.4;fill:#1a1a1a;stroke-width:0.264583"
       d="m -1.1945873,-2.1222885 q -0.02325,0.074931 -0.925008,1.0283616 l 0.149861,0.1446941 q 0.196371,-0.1937868 0.248047,-0.1782838 0.0646,0.7803146 0,1.8060924 -0.157613,0.4599203 -0.310058,0.6847133 0.37207,0.0052 0.532267,0.0052 0.162781,0.0026 0.320394,-0.0078 0.160197,-0.01034 0.24546297,-0.214457 0.08785,-0.2041224 0.338481,-0.5064297 l -0.06201,-0.067179 q -0.1757,0.1033529 -0.71313597,0.046509 0.268718,-0.3488161 0.353984,-0.540019 0.08527,-0.1912029 0.0052,-0.9069219 -0.07751,-0.7157191 -0.06718,-0.9456793 0.01034,-0.2325441 0.06201,-0.2428794 z m -0.1757,0.7803146 0.160197,0.7544763 -0.131775,0.8087367 -0.160197,-0.7984014 z m -0.599447,0.4030764 q 0.227377,0.4211631 0.113689,0.5606896 -0.113689,0.1369426 -0.229961,-0.00517 -0.116272,-0.1421102 0.116272,-0.5555219 z m 0.379822,1.6743174 q 0.366903,0.1472779 0.452169,0.5012612 -0.346232,-0.126607 -0.452169,-0.5012612 z m 0.485759,0.036174 q -0.149862,0.3643182 -0.501262,0.4521682 0.126608,-0.3488158 0.501262,-0.4521682 z m -0.912089,0.6020312 q -0.118856,0.198954 -0.0646,0.268718 0.05684,0.07235 0.113688,0.0052 0.05684,-0.06718 -0.04909,-0.273885 z m 0.09819,-1.7647516 q 0.124023,-0.077515 -0.0155,-0.2687176 l -0.04393,-0.00258 q 0.06201,0.1731162 0.0026,0.2790529 z m 2.21433597,-1.710491 q -0.180868,0.2842206 -0.413412,0.4159956 l -0.14211,1.1187954 0.07235,0.05426 q 0.400492,-0.1576132 0.622701,-0.1472779 0.224793,0.010335 0.503846,0.2635499 0.27905203,0.2532147 0.42116303,0.6123661 0.144694,0.3591514 -0.0646,0.4883426 -0.20929,0.1291912 -0.56068903,-0.012919 -0.348817,-0.1421103 -0.516765,-0.3514 -0.165365,-0.2118735 -0.0801,-0.4857587 l -0.121442,-0.0568444 -0.405661,0.5710249 q -0.10852,0.2454632 0.0646,0.4650882 0.1757,0.2170411 0.348816,0.3333129 0.1757,0.113688 0.457337,0.183452 0.281637,0.06976 0.53485103,-0.07493 0.253215,-0.147278 0.444418,-0.3333134 0.193787,-0.1860352 0.400492,-0.5090131 0.20929,-0.3255617 -0.0078,-0.8061529 -0.214412,-0.4805921 -0.462459,-0.6485406 -0.248047,-0.1705323 -0.52968403,-0.1550294 -0.279053,0.015503 -0.627869,0.1214397 l 0.05943,-0.4883426 1.07745403,0.015503 q 0.03359,0.3333132 0.14211,0.4444176 0.108521,0.1085205 0.248047,0.077515 0.142111,-0.03359 0.149862,-0.2092897 -0.03876,-0.1162721 -0.07752,-0.1188559 l -0.05426,0.043925 q 0.06201,0.064596 0.05168,0.131775 -0.0078,0.067179 -0.103353,0.077515 -0.0956,0.00775 -0.1757,-0.085266 -0.07752,-0.095601 -0.04651,-0.2971396 0.222209,-0.43925 0.485759,-0.5813602 l -0.03617,-0.080099 z m -0.196371,0.3849897 0.03876,0.511597 -0.160197,0.5193484 -0.03359,-0.540019 z m 1.43660603,-0.08785 q -0.61236603,0.2945558 -1.16013703,-0.00517 0.563274,-0.2945559 1.16013703,0.00517 z m -1.68982603,2.1239022 q 0.07235,-0.036174 0.160197,0.00517 0.09043,0.038757 0.113689,0.1188559 0.02584,0.080098 -0.01292,0.1550294 -0.03876,0.074931 -0.105936,0.1059367 -0.06718,0.028422 -0.147278,0 -0.07751,-0.031006 -0.116272,-0.1111044 -0.03617,-0.080099 0,-0.1576132 0.03876,-0.080099 0.10852,-0.116272 z M 1.9731797,-2.0370224 q 0.227376,0.4211632 0.113688,0.5606897 -0.113688,0.1369426 -0.22996,-0.00517 -0.116272,-0.1421103 0.116272,-0.555522 z m -1.29707903,1.2531543 q 0.291972,-0.1421103 0.55552203,-0.00258 -0.26871803,0.1446941 -0.55552203,0.00258 z m 0.286804,-0.2764691 q 0.14469403,0.291972 0.0026,0.555522 -0.142111,-0.2687176 -0.0026,-0.555522 z M 1.9990177,-1.7863915 q -0.105937,0.204122 -0.04651,0.2738852 0.06201,0.067179 0.113688,-0.00258 0.05168,-0.072347 -0.06718,-0.2713014 z M 0.96548867,0.9111199 q 0.03876,-0.020671 0.08785,0.00258 0.04909,0.023254 0.06201,0.067179 0.01292,0.043925 -0.01034,0.085266 -0.02067,0.041341 -0.05684,0.056844 -0.03617,0.0155 -0.0801,0 -0.04134,-0.0155 -0.06201,-0.059428 -0.02067,-0.046509 0,-0.08785 0.02067,-0.043925 0.05943,-0.064596 z m -0.782899,-0.2144574 q 0.06201,-0.031006 0.139527,0.00517 0.07751,0.03359 0.09819,0.1033529 0.02067,0.069763 -0.01292,0.1343588 -0.03359,0.064596 -0.09302,0.090434 -0.05684,0.025838 -0.126607,0 -0.06718,-0.025838 -0.100769,-0.095601 -0.03101,-0.069763 0,-0.1369427 0.03359,-0.069763 0.0956,-0.1007691 z M 1.6217797,0.1954008 q 0.03101,-0.018087 0.07235,0 0.04134,0.015503 0.05168,0.051676 0.01292,0.03359 -0.0026,0.067179 -0.0155,0.03359 -0.04392,0.049093 -0.02842,0.012919 -0.0646,0.00258 -0.03359,-0.010335 -0.05426,-0.046509 -0.01809,-0.036174 -0.0026,-0.069763 0.0155,-0.036173 0.04392,-0.05426 z M 0.59600167,0.8852816 q 0.05168,-0.025838 0.116272,0.00517 0.06718,0.028422 0.08268,0.08785 0.01809,0.056844 -0.01034,0.1111045 -0.02842,0.05426 -0.07751,0.07493 -0.04909,0.02067 -0.105936,0 -0.05426,-0.02067 -0.08268,-0.0801 -0.02584,-0.059428 0,-0.1162718 0.02842,-0.056844 0.07752,-0.082682 z m 0.217041,-2.8086158 q 0.134359,-0.03359 0.29714003,-0.00517 0.0026,0.08785 -0.02584,0.1421103 -0.02584,0.051676 -0.07493,0.074931 -0.04651,0.020671 -0.10335303,0 -0.05426,-0.023254 -0.08268,-0.080099 -0.02584,-0.056844 -0.01034,-0.131775 z m 0.26871803,1.3461719 q 0.291972,-0.1446941 0.555522,-0.00517 -0.268718,0.1446941 -0.555522,0.00517 z m 0.286804,-0.2790529 q 0.144694,0.291972 0.0026,0.555522 -0.14211,-0.2687176 -0.0026,-0.555522 z m -0.124023,0.7389734 q 0.291972,-0.1421102 0.555522,-0.00258 -0.268718,0.1446941 -0.555522,0.00258 z m 0.286804,-0.276469 q 0.144694,0.291972 0.0026,0.5555219 -0.14211,-0.2687176 -0.0026,-0.5555219 z M 0.50040067,-0.990574 q 0.031,-0.018087 0.07235,0 0.04134,0.015503 0.05168,0.051677 0.01292,0.03359 -0.0026,0.067179 -0.0155,0.03359 -0.04393,0.049093 -0.02842,0.012919 -0.0646,0.00258 -0.03359,-0.010335 -0.05426,-0.046509 -0.01809,-0.036174 -0.0026,-0.069763 0.0155,-0.036173 0.04393,-0.05426 z M 1.2393737,0.8129346 q 0.03101,-0.018087 0.07235,0 0.04134,0.015503 0.05168,0.051676 0.01292,0.03359 -0.0026,0.067179 -0.0155,0.03359 -0.04392,0.049093 -0.02842,0.012919 -0.0646,0.00258 -0.03359,-0.010335 -0.05426,-0.046509 -0.01809,-0.036174 -0.0026,-0.069763 0.0155,-0.036174 0.04392,-0.05426 z" />
  </g>
</svg>
