<?xml version="1.0" encoding="UTF-8" standalone="no"?>
<!-- Created with Inkscape (http://www.inkscape.org/) -->

<svg
   width="210mm"
   height="297mm"
   viewBox="0 0 210 297"
   version="1.1"
   id="svg1"
   sodipodi:docname="arabic numerals 55.svg"
   inkscape:version="1.3 (0e150ed6c4, 2023-07-21)"
   xmlns:inkscape="http://www.inkscape.org/namespaces/inkscape"
   xmlns:sodipodi="http://sodipodi.sourceforge.net/DTD/sodipodi-0.dtd"
   xmlns="http://www.w3.org/2000/svg"
   xmlns:svg="http://www.w3.org/2000/svg">
  <sodipodi:namedview
     id="namedview1"
     pagecolor="#ffffff"
     bordercolor="#000000"
     borderopacity="0.25"
     inkscape:showpageshadow="2"
     inkscape:pageopacity="0.0"
     inkscape:pagecheckerboard="0"
     inkscape:deskcolor="#d1d1d1"
     inkscape:document-units="mm"
     inkscape:zoom="4"
     inkscape:cx="136.75"
     inkscape:cy="56.125"
     inkscape:window-width="2560"
     inkscape:window-height="1369"
     inkscape:window-x="-8"
     inkscape:window-y="-8"
     inkscape:window-maximized="1"
     inkscape:current-layer="layer1" />
  <defs
     id="defs1" />
  <g
     inkscape:label="Layer 1"
     inkscape:groupmode="layer"
     id="layer1">
    <path
       id="path282"
       style="font-size:5.29167px;font-family:'Kingthings Gothique';-inkscape-font-specification:'Kingthings Gothique';opacity:0.4;fill:#1a1a1a;stroke-width:0.264583"
       d="m -0.21884106,-1.9354241 c 0.118637,0.056939 0.07135,0.3305573 0.01964,0.3942913 -0.0534,0.062011 -0.11197,0.090436 -0.1757,0.085266 -0.0637,-0.00689 -0.09815,-0.032729 -0.103353,-0.077515 -0.0069,-0.044786 0.01034,-0.088711 0.05168,-0.131775 l -0.05426,-0.043925 c -0.02583,0.00172 -0.05167,0.041341 -0.07751,0.1188559 0.0052,0.1171327 0.05512,0.1868967 0.149862,0.2092897 0.09302,0.02067 0.175697,-0.00517 0.248047,-0.077515 0.05009,-0.051284 0.07636,-0.1967269 0.07975,-0.3002129 0.002,-0.062114 -0.01732,-0.1236533 -0.03596,-0.1829409 -0.01127,-0.03585 -0.04545,-0.1031687 -0.04545,-0.1031687 l -0.03617,-0.080099 -1.65884104,0.023254 c -0.120578,0.1894811 -0.258382,0.3281463 -0.413411,0.4159963 l -0.142111,1.1187954 0.07235,0.05426 c 0.266995,-0.1050755 0.474563,-0.1541681 0.622702,-0.1472779 0.149861,0.00689 0.31781,0.09474 0.503845,0.2635499 0.186035,0.1688098 0.32642304,0.3729318 0.42116304,0.6123661 0.09646,0.2394343 0.07493,0.4022151 -0.06459,0.4883426 -0.139527,0.086127 -0.32642304,0.081821 -0.56069004,-0.012919 -0.232544,-0.09474 -0.404799,-0.2118735 -0.516764,-0.3514 -0.110243,-0.141249 -0.136943,-0.3031686 -0.0801,-0.4857587 l -0.12144,-0.056844 -0.40566,0.5710249 c -0.07235,0.1636421 -0.05081,0.3186715 0.0646,0.4650882 0.117133,0.1446941 0.233405,0.255798 0.348816,0.333313 0.117133,0.07579 0.269579,0.136943 0.457336,0.183452 0.187758,0.04651 0.366042,0.02153 0.534852,-0.07493 0.16881004,-0.09818 0.31694904,-0.2092898 0.44441704,-0.3333135 0.129191,-0.1240235 0.262689,-0.2936945 0.400493,-0.5090131 0.139527,-0.2170411 0.136927,-0.4857588 -0.0078,-0.8061529 -0.142947,-0.3203947 -0.297102,-0.5365748 -0.462467,-0.6485405 -0.165365,-0.1136882 -0.34192604,-0.1653647 -0.52968304,-0.1550294 -0.186035,0.010335 -0.395325,0.050815 -0.62787,0.1214397 l 0.05943,-0.4883426 1.07745504,0.015503 c 0.206124,-0.1580113 0.354454,-0.507693 0.563392,-0.4074149 z m -1.83463504,0.2187958 0.03876,0.511597 -0.160197,0.5193484 -0.03359,-0.540019 z m 1.43660504,-0.08785 q -0.61236604,0.2945558 -1.16013604,-0.00517 0.563273,-0.2945559 1.16013604,0.00517 z M -2.3066911,0.3194244 q 0.07235,-0.036174 0.160197,0.00517 0.09043,0.038757 0.113688,0.1188559 0.02584,0.080098 -0.01292,0.1550294 -0.03876,0.074931 -0.105937,0.1059367 -0.06718,0.028422 -0.147278,0 -0.07751,-0.031006 -0.116272,-0.1111044 -0.03617,-0.080099 0,-0.1576132 0.03876,-0.080099 0.108521,-0.116272 z m 0.829407,-1.1032925 q 0.291972,-0.1421103 0.55552204,-0.00258 -0.26871704,0.1446941 -0.55552204,0.00258 z m 0.286805,-0.2764691 q 0.144694,0.291972 0.0026,0.555522 -0.14211,-0.2687176 -0.0026,-0.555522 z m 0.0026,1.9714571 q 0.03876,-0.020671 0.08785,0.00258 0.04909,0.023254 0.06201,0.067179 0.01292,0.043925 -0.01033,0.085266 -0.02067,0.041341 -0.05684,0.056844 -0.03617,0.0155 -0.0801,0 -0.04134,-0.0155 -0.06201,-0.059428 -0.02067,-0.046509 0,-0.08785 0.02067,-0.043925 0.05943,-0.064596 z m -0.782915,-0.2144574 q 0.06201,-0.031006 0.139526,0.00517 0.07751,0.03359 0.09819,0.1033529 0.02067,0.069763 -0.01292,0.1343588 -0.03359,0.064596 -0.09302,0.090434 -0.05684,0.025838 -0.126607,0 -0.06718,-0.025838 -0.100769,-0.095601 -0.03101,-0.069763 0,-0.1369427 0.03359,-0.069763 0.0956,-0.1007691 z m 1.43919004,-0.5012617 q 0.03101,-0.018087 0.07235,0 0.04134,0.015503 0.05168,0.051676 0.01292,0.03359 -0.0026,0.067179 -0.0155,0.03359 -0.04393,0.049093 -0.02842,0.012919 -0.06459,0.00258 -0.03359,-0.010335 -0.05426,-0.046509 -0.01809,-0.036174 -0.0026,-0.069763 0.0155,-0.036173 0.04393,-0.05426 z M -1.5573821,0.8852816 q 0.05168,-0.025838 0.116272,0.00517 0.06718,0.028422 0.08268,0.08785 0.01809,0.056844 -0.01033,0.1111045 -0.02842,0.05426 -0.07751,0.07493 -0.04909,0.02067 -0.105937,0 -0.05426,-0.02067 -0.08268,-0.0801 -0.02584,-0.059428 0,-0.1162718 0.02842,-0.056844 0.07752,-0.082682 z m 0.217041,-2.8086158 q 0.134359,-0.03359 0.29714,-0.00517 0.0026,0.08785 -0.02584,0.1421103 -0.02584,0.051676 -0.07493,0.074931 -0.04651,0.020671 -0.103353,0 -0.05426,-0.023254 -0.08268,-0.080099 -0.02584,-0.056844 -0.01033,-0.131775 z m 0.268717,1.3461719 q 0.29197204,-0.1446941 0.55552204,-0.00517 -0.268717,0.1446941 -0.55552204,0.00517 z m 0.28680504,-0.2790529 q 0.144694,0.291972 0.0026,0.555522 -0.142111,-0.2687176 -0.0026,-0.555522 z m -0.124024,0.7389734 q 0.291972,-0.1421102 0.555522,-0.00258 -0.268717,0.1446941 -0.555522,0.00258 z m 0.286805,-0.276469 q 0.144694,0.291972 0.0026,0.5555219 -0.142111,-0.2687176 -0.0026,-0.5555219 z M -1.6529841,-0.990574 q 0.03101,-0.018087 0.07235,0 0.04134,0.015503 0.05168,0.051677 0.01292,0.03359 -0.0026,0.067179 -0.0155,0.03359 -0.04393,0.049093 -0.02842,0.012919 -0.0646,0.00258 -0.03359,-0.010335 -0.05426,-0.046509 -0.01809,-0.036174 -0.0026,-0.069763 0.0155,-0.036173 0.04392,-0.05426 z m 0.73897404,1.8035086 q 0.03101,-0.018087 0.07235,0 0.04134,0.015503 0.05168,0.051676 0.01292,0.03359 -0.0026,0.067179 -0.0155,0.03359 -0.04393,0.049093 -0.02842,0.012919 -0.06459,0.00258 -0.03359,-0.010335 -0.05426,-0.046509 -0.01809,-0.036174 -0.0026,-0.069763 0.0155,-0.036174 0.04393,-0.05426 z m 1.669152,-2.9145526 q -0.180868,0.2842206 -0.413412,0.4159956 l -0.14211,1.1187954 0.07235,0.05426 q 0.400492,-0.1576132 0.622701,-0.1472779 0.22479296,0.010335 0.50384596,0.2635499 0.279053,0.2532147 0.421163,0.6123661 0.144694,0.3591514 -0.0646,0.4883426 -0.209289,0.1291912 -0.560689,-0.012919 -0.34881596,-0.1421103 -0.51676496,-0.3514 -0.165365,-0.2118735 -0.0801,-0.4857587 l -0.121439,-0.056844 -0.40566,0.5710249 q -0.108521,0.2454632 0.06459,0.4650882 0.1757,0.2170411 0.348816,0.333313 0.1757,0.113688 0.457337,0.183452 0.28163696,0.06976 0.53485096,-0.07493 0.253222,-0.147279 0.444425,-0.3333144 0.193787,-0.1860352 0.400493,-0.5090131 0.209289,-0.3255617 -0.0078,-0.8061529 -0.214457,-0.4805911 -0.462504,-0.6485396 -0.248047,-0.1705323 -0.529684,-0.1550294 -0.279053,0.015503 -0.62786896,0.1214397 l 0.05943,-0.4883426 1.07745396,0.015503 q 0.03359,0.3333132 0.14211,0.4444176 0.108521,0.1085205 0.248047,0.077515 0.142111,-0.03359 0.149862,-0.2092897 -0.03876,-0.1162721 -0.07751,-0.1188559 l -0.05426,0.043925 q 0.06201,0.064596 0.05168,0.131775 -0.0078,0.067179 -0.103353,0.077515 -0.0956,0.00775 -0.1757,-0.085266 -0.07751,-0.095601 -0.04651,-0.2971396 0.222209,-0.43925 0.485759,-0.5813602 l -0.03617,-0.080099 z m -0.196371,0.3849897 0.03876,0.511597 -0.160197,0.5193484 -0.03359,-0.540019 z m 1.43660596,-0.08785 q -0.612366,0.2945558 -1.16013696,-0.00517 0.56327396,-0.2945559 1.16013696,0.00517 z M 0.30555594,0.3194244 q 0.07235,-0.036174 0.160197,0.00517 0.09043,0.038757 0.113689,0.1188559 0.02584,0.080098 -0.01292,0.1550294 -0.03876,0.074931 -0.105937,0.1059367 -0.06718,0.028422 -0.147278,0 -0.07752,-0.031006 -0.116272,-0.1111044 -0.03617,-0.080099 0,-0.1576132 0.03876,-0.080099 0.10852,-0.116272 z M 2.4320429,-2.0370224 q 0.227376,0.4211632 0.113688,0.5606897 -0.113688,0.1369426 -0.22996,-0.00517 -0.116272,-0.1421103 0.116272,-0.555522 z m -1.297079,1.2531543 q 0.291972,-0.1421103 0.555522,-0.00258 -0.268718,0.1446941 -0.555522,0.00258 z m 0.286804,-0.2764691 q 0.144694,0.291972 0.0026,0.555522 -0.14211,-0.2687176 -0.0026,-0.555522 z m 1.036113,-0.7260543 q -0.105937,0.204122 -0.04651,0.2738852 0.06201,0.067179 0.113689,-0.00258 0.05168,-0.072347 -0.06718,-0.2713014 z m -1.033529,2.6975114 q 0.03876,-0.020671 0.08785,0.00258 0.04909,0.023254 0.06201,0.067179 0.01292,0.043925 -0.01034,0.085266 -0.02067,0.041341 -0.05684,0.056844 -0.03617,0.0155 -0.0801,0 -0.04134,-0.0155 -0.06201,-0.059428 -0.02067,-0.046509 0,-0.08785 0.02067,-0.043925 0.05943,-0.064596 z M 0.64145294,0.6966625 q 0.06201,-0.031006 0.139527,0.00517 0.07752,0.03359 0.09819,0.1033529 0.02067,0.069763 -0.01292,0.1343588 -0.03359,0.064596 -0.09302,0.090434 -0.05684,0.025838 -0.126607,0 -0.06718,-0.025838 -0.100769,-0.095601 -0.03101,-0.069763 0,-0.1369427 0.03359,-0.069763 0.0956,-0.1007691 z M 2.0806429,0.1954008 q 0.03101,-0.018087 0.07235,0 0.04134,0.015503 0.05168,0.051676 0.01292,0.03359 -0.0026,0.067179 -0.0155,0.03359 -0.04393,0.049093 -0.02842,0.012919 -0.0646,0.00258 -0.03359,-0.010335 -0.05426,-0.046509 -0.01809,-0.036174 -0.0026,-0.069763 0.0155,-0.036173 0.04393,-0.05426 z m -1.025778,0.6898808 q 0.05168,-0.025838 0.116272,0.00517 0.06718,0.028422 0.08268,0.08785 0.01809,0.056844 -0.01034,0.1111045 -0.02842,0.05426 -0.07751,0.07493 -0.04909,0.02067 -0.105937,0 -0.05426,-0.02067 -0.08268,-0.0801 -0.02584,-0.059428 0,-0.1162718 0.02842,-0.056844 0.07752,-0.082682 z m 0.217041,-2.8086158 q 0.134359,-0.03359 0.29714,-0.00517 0.0026,0.08785 -0.02584,0.1421103 -0.02584,0.051676 -0.07493,0.074931 -0.04651,0.020671 -0.103353,0 -0.05426,-0.023254 -0.08268,-0.080099 -0.02584,-0.056844 -0.01034,-0.131775 z m 0.268718,1.3461719 q 0.291972,-0.1446941 0.555522,-0.00517 -0.268718,0.1446941 -0.555522,0.00517 z m 0.286804,-0.2790529 q 0.144694,0.291972 0.0026,0.555522 -0.14211,-0.2687176 -0.0026,-0.555522 z m -0.124023,0.7389734 q 0.291972,-0.1421102 0.555522,-0.00258 -0.268718,0.1446941 -0.555522,0.00258 z m 0.286804,-0.276469 q 0.144694,0.291972 0.0026,0.5555219 -0.14211,-0.2687176 -0.0026,-0.5555219 z M 0.95926394,-0.990574 q 0.03101,-0.018087 0.07235,0 0.04134,0.015503 0.05168,0.051677 0.01292,0.03359 -0.0026,0.067179 -0.0155,0.03359 -0.04393,0.049093 -0.02842,0.012919 -0.06459,0.00258 -0.03359,-0.010335 -0.05426,-0.046509 -0.01809,-0.036174 -0.0026,-0.069763 0.0155,-0.036173 0.04393,-0.05426 z M 1.6982369,0.8129346 q 0.03101,-0.018087 0.07235,0 0.04134,0.015503 0.05168,0.051676 0.01292,0.03359 -0.0026,0.067179 -0.0155,0.03359 -0.04393,0.049093 -0.02842,0.012919 -0.0646,0.00258 -0.03359,-0.010335 -0.05426,-0.046509 -0.01809,-0.036174 -0.0026,-0.069763 0.0155,-0.036174 0.04393,-0.05426 z" />
  </g>
</svg>
