<?xml version="1.0" encoding="UTF-8" standalone="no"?>
<!-- Created with Inkscape (http://www.inkscape.org/) -->

<svg
   width="210mm"
   height="297mm"
   viewBox="0 0 210 297"
   version="1.1"
   id="svg1"
   xml:space="preserve"
   inkscape:version="1.3 (0e150ed6c4, 2023-07-21)"
   sodipodi:docname="design.svg"
   xmlns:inkscape="http://www.inkscape.org/namespaces/inkscape"
   xmlns:sodipodi="http://sodipodi.sourceforge.net/DTD/sodipodi-0.dtd"
   xmlns="http://www.w3.org/2000/svg"
   xmlns:svg="http://www.w3.org/2000/svg"><sodipodi:namedview
     id="namedview1"
     pagecolor="#ffffff"
     bordercolor="#000000"
     borderopacity="0.25"
     inkscape:showpageshadow="2"
     inkscape:pageopacity="0.0"
     inkscape:pagecheckerboard="0"
     inkscape:deskcolor="#d1d1d1"
     inkscape:document-units="mm"
     inkscape:zoom="2.955623"
     inkscape:cx="302.81264"
     inkscape:cy="430.53529"
     inkscape:window-width="2560"
     inkscape:window-height="1369"
     inkscape:window-x="-8"
     inkscape:window-y="-8"
     inkscape:window-maximized="1"
     inkscape:current-layer="layer1" /><defs
     id="defs1"><clipPath
       clipPathUnits="userSpaceOnUse"
       id="clipPath1"><rect
         style="fill:#f9f9f9;stroke-width:0.264583"
         id="rect2"
         width="117.23017"
         height="294.46805"
         x="-12.659847"
         y="11.900254"
         transform="rotate(4.0823659)" /></clipPath></defs><g
     inkscape:label="Layer 1"
     inkscape:groupmode="layer"
     id="layer1"><path
       style="opacity:0.4;fill:#f9f9f9;stroke-width:0.264583"
       d="m 119.77797,65.783727 c 2.8123,-1.330013 2.97756,-5.584904 0.58808,-7.395423 -2.65469,-1.677035 -5.58693,-0.07633 -7.17425,1.592977 -2.42282,2.547965 -3.17568,3.70851 -4.64687,8.194459 -2.90403,-0.04644 -7.04607,0.89444 -9.261372,2.964281 -3.187449,3.021834 -3.259962,7.20966 -4.635997,11.769794 -1.060788,3.515419 -1.296487,7.220913 -2.350558,10.741929 -0.98971,3.306024 -2.547989,11.111646 -4.186577,14.203586 1.229292,1.00308 3.790979,5.80315 5.130122,5.80967 1.471295,0.007 4.103812,-4.73472 5.84843,-5.93691 -1.235832,-4.44274 -1.363618,-6.43055 -1.776003,-10.347179 -0.377708,-3.58729 -0.716684,-7.278339 -0.266743,-10.868097 0.60965,-4.863962 3.914558,-7.019767 5.599078,-7.362914 2.78116,-0.566536 6.7273,-2.835857 7.5364,-5.582437 0.5256,-1.784205 0.67668,-4.296578 1.27524,-5.819158 2.2851,-5.812686 4.57922,-8.334729 7.38662,-7.134456 1.39998,0.598542 1.32478,2.996314 0.9344,5.169878 z"
       id="path2"
       sodipodi:nodetypes="ccsccsscscssssssc" /><path
       id="path3"
       style="opacity:0.4;fill:#1a1a1a;stroke-width:0.264583"
       d="M 119.64076 61.381266 C 120.18454 62.411677 120.06985 64.159827 119.77822 65.783582 C 121.1935 65.114258 121.93676 63.704044 122.02304 62.237545 C 121.35638 61.789952 120.49039 61.626263 119.64076 61.381266 z " /><path
       id="path4"
       style="color:#000000;fill:#000000;-inkscape-stroke:none;opacity:0.4"
       d="M 107.43737 68.204106 C 107.31189 68.211866 107.17984 68.229854 107.05186 68.240796 C 106.61068 68.778002 106.20935 69.536779 106.07983 70.232406 C 105.99693 70.67749 106.02653 71.107399 106.26948 71.417863 C 106.51243 71.728327 106.95334 71.882149 107.60377 71.820422 C 107.97685 71.785022 108.47376 71.768589 108.91583 71.752209 C 107.19172 72.887673 106.0175 73.801186 105.26179 74.435767 C 104.43087 75.133498 103.90605 75.583131 103.02162 75.95092 C 101.32121 76.658037 99.510499 77.001068 97.812634 77.732206 C 96.926389 78.113843 96.197478 78.756096 95.532153 79.453031 C 95.491846 79.627408 95.447694 79.805468 95.40658 79.981681 C 96.153614 79.165005 96.945564 78.393344 97.918054 77.974569 C 99.580397 77.258727 101.38934 76.916255 103.1229 76.195349 C 104.04385 75.812368 104.6016 75.335989 105.43181 74.638855 C 106.26202 73.941721 107.37354 73.015842 109.42174 71.707251 L 109.8181 71.453003 L 109.34785 71.464889 C 108.86554 71.475248 108.0908 71.508393 107.58 71.556873 C 106.98035 71.613783 106.65331 71.477103 106.47877 71.254049 C 106.30422 71.030993 106.26667 70.685148 106.34183 70.281498 C 106.47633 69.559135 106.97264 68.693751 107.43737 68.204106 z " /><path
       id="path6"
       style="opacity:0.4;fill:none;stroke:#000000;stroke-width:0.264583"
       d="M 117.84552 57.67865 C 116.01009 57.718635 114.28334 58.833704 113.19206 59.981352 C 110.76924 62.529314 110.01598 63.689739 108.5448 68.175684 C 105.64077 68.129244 101.49865 69.070005 99.283346 71.139844 C 96.0959 74.161675 96.023486 78.349539 94.647453 82.909668 C 93.586666 86.425083 93.351279 90.130635 92.297209 93.651648 C 91.809829 95.279689 91.182514 98.002586 90.477681 100.71272 C 90.451514 100.81266 90.425521 100.91152 90.399133 101.01141 C 90.24084 101.61453 90.079219 102.21602 89.913892 102.80199 C 89.901547 102.84546 89.889065 102.88892 89.876685 102.93222 C 89.697282 103.56382 89.514352 104.17766 89.328398 104.75743 C 89.323313 104.77389 89.317959 104.7899 89.312895 104.80652 C 89.148358 105.31742 88.981087 105.78316 88.812667 106.23021 C 88.809912 106.23752 88.807154 106.24617 88.804399 106.25346 C 88.7711 106.34383 88.738537 106.44114 88.70518 106.52941 C 88.667792 106.62461 88.630057 106.70898 88.592525 106.8002 C 88.522157 106.9715 88.451453 107.13997 88.380652 107.29733 C 88.290926 107.4948 88.20068 107.68505 88.110384 107.85543 C 88.214768 107.94063 90.011577 109.97178 87.955872 113.70469 C 83.376259 122.02069 81.67608 125.38163 76.823218 129.68149 C 72.763971 133.27817 74.694115 137.42393 72.88134 141.87713 C 76.015014 139.06435 81.67164 140.1728 83.088468 135.85269 C 84.494351 131.56596 82.938441 128.89622 86.537354 122.92945 C 87.708833 120.98719 88.812022 118.98176 90.070471 117.25899 C 91.543836 114.61781 93.153796 113.66447 93.240304 113.6649 C 93.608126 113.66665 94.048643 113.37169 94.529631 112.90939 C 94.770124 112.67823 95.020614 112.40494 95.277389 112.10634 C 95.534163 111.80773 95.797305 111.48349 96.062354 111.1498 C 96.592412 110.48239 97.131112 109.77736 97.646236 109.16388 C 97.903813 108.85715 98.155265 108.57348 98.397095 108.32879 C 98.638925 108.0841 98.870966 107.87858 99.089042 107.72831 C 98.62554 106.06205 98.317989 104.74114 98.092721 103.53425 C 98.017673 103.13217 97.951689 102.74288 97.892216 102.35758 C 97.89219 102.35741 97.892242 102.35723 97.892216 102.35706 C 97.773229 101.58612 97.679707 100.83197 97.590426 100.02542 C 97.501133 99.21887 97.416019 98.360291 97.312923 97.381136 C 97.252983 96.811856 97.200481 96.236581 97.145492 95.662895 C 96.853961 92.621529 96.667735 89.533146 97.046273 86.513066 C 97.655922 81.649108 100.9609 79.492837 102.64541 79.149691 C 105.42657 78.583155 109.37281 76.31418 110.18191 73.567603 C 110.7075 71.783399 110.8582 69.270898 111.45676 67.748319 C 113.74186 61.935639 116.03599 59.413599 118.84339 60.613871 C 120.24337 61.212413 120.1686 63.61002 119.77822 65.783582 C 122.59052 64.45357 122.75577 60.198685 120.3663 58.388167 C 119.53671 57.864094 118.6798 57.660475 117.84552 57.67865 z " /><path
       id="path7"
       style="opacity:0.4;fill:none;stroke:#000000;stroke-width:0.264583"
       d="M 117.84552 57.67865 C 116.01009 57.718635 114.28334 58.833704 113.19206 59.981352 C 110.76924 62.529314 110.01598 63.689739 108.5448 68.175684 C 105.64077 68.129244 101.49865 69.070005 99.283346 71.139844 C 96.0959 74.161675 96.023486 78.349539 94.647453 82.909668 C 93.586666 86.425083 93.351279 90.130635 92.297209 93.651648 C 91.558283 96.119954 90.501607 101.0942 89.332015 104.74451 C 89.32533 104.76526 89.319071 104.78793 89.312378 104.80859 C 89.14345 105.33303 88.971202 105.81319 88.798197 106.27 C 88.766214 106.35402 88.735225 106.45224 88.703113 106.53355 C 88.625435 106.7312 88.547807 106.91638 88.469535 107.09631 C 88.448866 107.14365 88.428236 107.19598 88.407524 107.24203 C 88.308974 107.46185 88.209632 107.66816 88.110384 107.85543 C 88.19046 107.92077 88.290543 108.0256 88.384786 108.11847 C 88.87909 108.643 89.529357 109.58043 90.199146 110.52504 C 90.201275 110.52864 90.203737 110.53176 90.205863 110.53537 C 90.523294 111.07374 90.491465 113.52677 90.248755 116.74481 C 90.006046 119.96285 89.917824 120.90075 90.563464 125.47193 C 91.212547 130.06746 92.124542 132.23586 94.625749 136.91412 C 98.164602 143.53323 96.347244 145.97537 99.433207 149.70146 C 101.06834 151.67576 107.20014 150.76625 110.37879 152.33851 C 107.81494 148.77144 108.85147 144.9627 106.12634 141.67507 C 104.19969 139.35075 100.15398 139.21584 97.50981 134.3365 C 94.865286 129.45653 90.305041 123.27056 93.526074 116.85747 C 95.632041 112.66447 95.240038 112.77181 96.769804 110.26252 C 96.905013 110.09066 97.038945 109.92425 97.17288 109.75712 C 97.37905 109.50115 97.587142 109.23787 97.786796 109.0073 C 97.863388 108.918 97.936814 108.84086 98.012105 108.75667 C 98.273284 108.4675 98.528682 108.20182 98.769165 107.99444 C 98.76926 107.98976 98.769075 107.98414 98.769165 107.97946 C 98.878501 107.88494 98.985529 107.79964 99.089042 107.72831 C 98.905537 107.06862 98.752305 106.47508 98.613102 105.9093 L 98.596566 105.77391 C 97.841079 102.64877 97.656783 100.64695 97.312923 97.381136 C 97.232093 96.613419 97.15703 95.839177 97.087097 95.063965 C 96.830259 92.216872 96.692624 89.334573 97.046273 86.513066 C 97.655922 81.649108 100.9609 79.492837 102.64541 79.149691 C 105.42657 78.583155 109.37281 76.31418 110.18191 73.567603 C 110.7075 71.783399 110.8582 69.270898 111.45676 67.748319 C 113.74186 61.935639 116.03599 59.413599 118.84339 60.613871 C 120.24337 61.212413 120.1686 63.61002 119.77822 65.783582 C 122.59052 64.45357 122.75577 60.198685 120.3663 58.388167 C 119.53671 57.864094 118.6798 57.660475 117.84552 57.67865 z " /><path
       id="path8"
       style="opacity:0.4;fill:none;stroke:#ff0000;stroke-width:0.264583"
       d="M 117.84552 57.67865 C 116.01009 57.718635 114.28334 58.833704 113.19206 59.981352 C 110.76924 62.529314 110.01598 63.689739 108.5448 68.175684 C 105.64077 68.129244 101.49865 69.070005 99.283346 71.139844 C 96.0959 74.161675 96.023486 78.349539 94.647453 82.909668 C 93.586666 86.425083 93.351279 90.130635 92.297209 93.651648 C 91.558283 96.119954 90.501607 101.0942 89.332015 104.74451 C 89.32533 104.76526 89.319071 104.78793 89.312378 104.80859 C 89.14345 105.33303 88.971202 105.81319 88.798197 106.27 C 88.766214 106.35402 88.735225 106.45224 88.703113 106.53355 C 88.625435 106.7312 88.547807 106.91638 88.469535 107.09631 C 88.448866 107.14365 88.428236 107.19598 88.407524 107.24203 C 88.308974 107.46185 88.209632 107.66816 88.110384 107.85543 C 88.19046 107.92077 88.290543 108.0256 88.384786 108.11847 C 88.87909 108.643 89.529357 109.58043 90.199146 110.52504 C 90.201275 110.52864 90.203737 110.53176 90.205863 110.53537 C 90.523294 111.07374 91.869438 112.38374 92.307544 115.58106 C 92.7463 118.78312 92.961566 119.20008 93.607206 123.77126 C 94.256289 128.36679 96.11821 132.75356 99.90708 136.46661 C 102.55075 139.05737 101.0142 141.61915 103.10378 143.52457 C 105.43519 145.65048 109.43786 145.12647 113.69073 144.99787 C 110.32122 143.31069 110.13738 140.63302 108.18513 137.37818 C 107.07542 135.52804 102.27866 136.5731 100.19543 133.17275 C 97.706629 129.1104 96.212891 124.97135 95.763664 118.46874 C 95.439896 113.78216 95.235948 112.78831 96.774455 110.25684 C 96.90812 110.08695 97.040466 109.92236 97.17288 109.75712 C 97.37905 109.50115 97.587142 109.23787 97.786796 109.0073 C 97.863388 108.918 97.936814 108.84086 98.012105 108.75667 C 98.273284 108.4675 98.528682 108.20182 98.769165 107.99444 C 98.76926 107.98976 98.769075 107.98414 98.769165 107.97946 C 98.878501 107.88494 98.985529 107.79964 99.089042 107.72831 C 98.905537 107.06862 98.752305 106.47508 98.613102 105.9093 L 98.596566 105.77391 C 97.841079 102.64877 97.656783 100.64695 97.312923 97.381136 C 97.232093 96.613419 97.15703 95.839177 97.087097 95.063965 C 96.830259 92.216872 96.692624 89.334573 97.046273 86.513066 C 97.655922 81.649108 100.9609 79.492837 102.64541 79.149691 C 105.42657 78.583155 109.37281 76.31418 110.18191 73.567603 C 110.7075 71.783399 110.8582 69.270898 111.45676 67.748319 C 113.74186 61.935639 116.03599 59.413599 118.84339 60.613871 C 120.24337 61.212413 120.1686 63.61002 119.77822 65.783582 C 122.59052 64.45357 122.75577 60.198685 120.3663 58.388167 C 119.53671 57.864094 118.6798 57.660475 117.84552 57.67865 z " /><path
       style="opacity:0.4;fill:#ff2a2a;stroke:#ff0000;stroke-width:0.264583"
       d="m 85.47745,121.18009 c -1.582866,2.79025 -3.045898,5.66489 -4.897706,8.28438 -1.257531,1.77885 -3.728258,2.88392 -4.194228,5.01196 -0.242421,1.10712 -0.09531,2.72554 0.892728,3.28075 1.011307,0.56828 2.518183,-0.15051 3.343419,-0.96578 1.165779,-1.15171 1.002712,-3.1219 1.421576,-4.7062 0.427659,-1.61757 0.570114,-3.31187 1.112969,-4.8945 0.822921,-2.39914 2.042647,-4.64774 3.222207,-6.89311 l 2.245023,-4.37097 z"
       id="path9"
       sodipodi:nodetypes="caaaaaaccc" /><path
       style="opacity:0.4;fill:#ff2a2a;stroke:#ff0000;stroke-width:0.264583"
       d="m 96.551243,136.46342 c 1.370122,3.3643 1.758109,7.4078 4.280367,10.02199 1.1993,1.24302 3.21707,3.10752 4.68946,2.20448 0.99272,-0.60885 0.46964,-2.38484 0.10849,-3.49198 -0.68953,-2.11381 -3.17286,-2.49114 -4.49358,-4.00019 -2.355908,-2.69186 -4.311057,-5.7428 -6.010408,-8.89059 -1.065138,-1.97301 -2.020968,-4.50549 -2.591983,-6.20703 0.510809,3.40794 2.620241,6.93201 4.017654,10.36332 z"
       id="path11"
       sodipodi:nodetypes="aaasaaca" /><path
       id="path12"
       style="opacity:0.4;fill:#ff2a2a;stroke:#ff0000;stroke-width:0.264583"
       d="M 94.189083 120.8381 C 94.496621 123.72028 96.050809 127.93468 97.583191 131.24677 C 98.620096 133.48794 100.58474 135.68627 101.46461 137.55698 C 101.60136 137.84774 101.82679 138.37524 102.11676 138.98066 C 103.68832 139.90494 105.16911 140.52026 106.12634 141.67507 C 106.73692 142.41168 107.15266 143.17575 107.46838 143.95607 C 107.74183 143.94593 107.99224 143.85706 108.19908 143.64705 C 109.18722 142.64377 107.60057 140.79715 106.74077 139.68191 C 105.45932 138.01975 102.76978 137.69085 101.57881 136.07645 C 100.38009 134.45153 98.706078 132.37015 97.642102 130.29592 C 96.110327 127.30971 95.03437 123.07477 94.189083 120.8381 z " /><g
       id="g1"
       transform="translate(-18.148211,-27.121381)"><path
         style="opacity:0.4;fill:#f9f9f9;stroke-width:0.264583"
         d="m 137.91073,92.905138 c 2.8123,-1.330013 2.97756,-5.584904 0.58808,-7.395423 -2.65469,-1.677035 -5.58693,-0.07633 -7.17425,1.592977 -2.42282,2.547965 -3.17568,3.70851 -4.64687,8.194459 -2.90403,-0.04644 -7.04607,0.89444 -9.26137,2.964281 -3.18745,3.021838 -3.25996,7.209658 -4.636,11.769798 -1.06079,3.51541 -1.29648,7.22091 -2.35056,10.74192 -0.98971,3.30603 -2.54799,11.11165 -4.18657,14.20359 1.22929,1.00308 3.79098,5.80315 5.13012,5.80967 1.47129,0.007 4.10381,-4.73472 5.84843,-5.93691 -1.23583,-4.44274 -1.36362,-6.43055 -1.776,-10.34718 -0.37771,-3.58729 -0.71669,-7.27834 -0.26675,-10.8681 0.60965,-4.86396 3.91456,-7.01976 5.59908,-7.36291 2.78116,-0.56654 6.7273,-2.83586 7.5364,-5.58244 0.5256,-1.784201 0.67668,-4.296574 1.27524,-5.819154 2.2851,-5.812686 4.57922,-8.334729 7.38662,-7.134456 1.39998,0.598542 1.32478,2.996314 0.9344,5.169878 z"
         id="path2-3"
         sodipodi:nodetypes="ccsccsscscssssssc" /><path
         id="path5"
         style="opacity:0.4;fill:none;stroke:#000000;stroke-width:0.264583"
         d="m 135.97828,84.800061 c -1.83543,0.03999 -3.56218,1.155054 -4.65346,2.302702 -2.42282,2.547962 -3.17608,3.708387 -4.64726,8.194332 -2.90403,-0.04644 -7.04615,0.894321 -9.26145,2.96416 -3.18745,3.021835 -3.25986,7.209695 -4.6359,11.769825 -1.06078,3.51541 -1.29617,7.22097 -2.35024,10.74198 -0.73893,2.46831 -1.7956,7.44255 -2.96519,11.09286 -0.007,0.0207 -0.0129,0.0434 -0.0196,0.0641 -0.16893,0.52444 -0.34118,1.0046 -0.51418,1.46141 -0.032,0.084 -0.063,0.18224 -0.0951,0.26355 -0.0777,0.19765 -0.15531,0.38283 -0.23358,0.56276 -0.0207,0.0473 -0.0413,0.0997 -0.062,0.14572 -0.0986,0.21982 -0.19789,0.42613 -0.29714,0.6134 0.0801,0.0653 0.18016,0.17017 0.2744,0.26304 0.4943,0.52453 1.14457,1.46196 1.81436,2.40657 0.002,0.004 0.005,0.007 0.007,0.0103 0.31743,0.53837 0.2856,2.9914 0.0429,6.20944 -0.24271,3.21804 -0.99533,5.73852 -1.67897,10.1198 -0.71554,4.58566 -0.24301,7.31492 -2.58434,12.07523 -1.68332,3.42249 -3.74474,8.66434 -2.56676,13.35681 0.52739,2.10091 1.34204,3.78635 1.54564,5.5485 0.98091,-1.63644 3.7894,-3.95726 4.73563,-5.09272 1.93272,-2.31926 2.74702,-7.73716 1.73322,-13.19351 -1.44184,-7.76009 -1.12813,-16.28836 2.0929,-22.70145 2.10578,-4.19262 1.71806,-4.09049 3.24735,-6.59908 0.13405,-0.17039 0.26666,-0.33555 0.39945,-0.50127 0.20617,-0.25597 0.41427,-0.51925 0.61392,-0.74982 0.0766,-0.0893 0.15002,-0.16644 0.22531,-0.25063 0.26118,-0.28917 0.51658,-0.55485 0.75706,-0.76223 9e-5,-0.005 -9e-5,-0.0103 0,-0.015 0.10934,-0.0945 0.21636,-0.17982 0.31988,-0.25115 -0.18351,-0.65969 -0.33674,-1.25323 -0.47594,-1.81901 l -0.0165,-0.13539 c -0.75549,-3.12514 -0.93979,-5.12696 -1.28365,-8.39277 -0.0808,-0.76772 -0.15589,-1.54196 -0.22582,-2.31717 -0.25684,-2.8471 -0.39448,-5.7294 -0.0408,-8.5509 0.60965,-4.86396 3.91462,-7.02023 5.59913,-7.36338 2.78116,-0.56653 6.7274,-2.83551 7.5365,-5.58209 0.52559,-1.7842 0.67629,-4.296701 1.27485,-5.81928 2.2851,-5.81268 4.57923,-8.33472 7.38663,-7.134448 1.39998,0.598542 1.32521,2.996149 0.93483,5.169711 2.8123,-1.330012 2.97755,-5.584897 0.58808,-7.395415 -0.82959,-0.524073 -1.6865,-0.727692 -2.52078,-0.709517 z" /><path
         style="color:#000000;opacity:0.4;fill:#ff0000;-inkscape-stroke:none"
         d="m 107.94136,151.65852 c -2.1e-4,0.002 1.9e-4,0.004 0,0.006 -0.3255,2.98462 -0.65253,6.71155 -1.00507,9.85676 -0.35322,3.15133 -0.64952,5.84824 -1.68829,8.75261 -0.50459,1.4108 -1.73013,2.58725 -2.26172,4.03321 -0.32109,0.87338 -0.59179,2.05089 -0.57227,3.12695 0.01,0.53803 0.0917,1.05287 0.2832,1.49023 0.19152,0.43737 0.49762,0.79886 0.94141,1.01172 0.6761,0.3243 1.42774,0.0434 2.07227,-0.44726 0.64453,-0.49063 1.20437,-1.19938 1.54297,-1.8125 0.56223,-1.01809 0.55129,-2.17 0.41796,-3.33399 -0.13332,-1.16398 -0.38701,-2.34977 -0.34765,-3.44531 0.0735,-2.04593 0.17124,-3.93097 0.26598,-5.98823 0.12657,-2.74854 0.24778,-5.65541 0.35902,-8.39654 0.0652,-1.60753 0.1277,-2.86493 0.25586,-4.81835 1.5e-4,-0.002 -1.6e-4,-0.003 0,-0.006 1.5e-4,-0.002 -1.6e-4,-0.003 0,-0.006 z"
         id="path18"
         sodipodi:nodetypes="ccssscsssssssssccc" /><path
         id="path16"
         style="opacity:0.4;fill:#0000ff;stroke:#ff0000;stroke-width:0.264583"
         d="m 144.85776,94.725036 c -8.60868,0.126598 -11.52047,3.291424 -16.07801,5.443594 -0.1264,0.0597 -0.26008,0.12779 -0.38809,0.18914 -0.0278,0.10647 -0.0469,0.22921 -0.077,0.33124 -0.8091,2.74658 -4.75534,5.01556 -7.5365,5.58209 -0.61036,0.12434 -1.43442,0.49598 -2.26497,1.13895 l -0.34882,52.60144 c 0.0564,0.0938 0.10639,0.18893 0.16381,0.28267 0.93412,1.52471 2.41251,2.14202 3.86075,2.54093 l 22.65882,3.5e-4 z"
         sodipodi:nodetypes="csccscccccc" /></g></g></svg>
