<?xml version="1.0" encoding="UTF-8" standalone="no"?>
<!-- Created with Inkscape (http://www.inkscape.org/) -->

<svg
   width="210mm"
   height="297mm"
   viewBox="0 0 210 297"
   version="1.1"
   id="svg1"
   inkscape:version="1.3 (0e150ed6c4, 2023-07-21)"
   sodipodi:docname="hour hand.svg"
   xmlns:inkscape="http://www.inkscape.org/namespaces/inkscape"
   xmlns:sodipodi="http://sodipodi.sourceforge.net/DTD/sodipodi-0.dtd"
   xmlns="http://www.w3.org/2000/svg"
   xmlns:svg="http://www.w3.org/2000/svg">
  <sodipodi:namedview
     id="namedview1"
     pagecolor="#ffffff"
     bordercolor="#000000"
     borderopacity="0.25"
     inkscape:showpageshadow="2"
     inkscape:pageopacity="0.0"
     inkscape:pagecheckerboard="0"
     inkscape:deskcolor="#d1d1d1"
     inkscape:document-units="mm"
     inkscape:zoom="1.0449705"
     inkscape:cx="396.6619"
     inkscape:cy="561.25984"
     inkscape:window-width="2560"
     inkscape:window-height="1369"
     inkscape:window-x="-8"
     inkscape:window-y="-8"
     inkscape:window-maximized="1"
     inkscape:current-layer="layer1" />
  <defs
     id="defs1" />
  <g
     inkscape:label="Layer 1"
     inkscape:groupmode="layer"
     id="layer1">
    <path
       id="path8"
       style="opacity:0.4;fill:#ff2a2a;stroke-width:0.264583"
       d="m 104.98758,-116.68123 c -24.89097,-1e-5 -45.06909,20.17811 -45.06908,45.06908 0.0398,19.36609 12.44707,36.54174 30.81982,42.66458 -6.0079,8.18964 -9.35925,18.42543 -9.38392,29.05301 0.005,2.08895 0.14158,4.16274 0.39636,6.21047 C 78.74257,4.98181 75.61197,3.94289 72.40301,3.21377 V 19.3208 c 14.65203,4.54267 24.6507,18.08169 24.68221,33.42173 -0.006,11.73296 -5.87958,22.68548 -15.64969,29.1822 C 79.6815,78.51127 77.64052,75.30846 75.47414,72.485 73.93108,69.70504 70.7911,68.41291 67.84101,68.47181 55.40842,68.59299 53.33185,77.71339 55.5322,87.17092 l -1.84226,5.0307 c -4.16932,1.76102 -8.02052,4.19598 -11.39931,7.20732 0.074,0.0427 0.14803,0.0853 0.22221,0.12764 -2.8197,2.48898 -5.28827,5.34941 -7.33805,8.50284 -0.0665,0.0798 -0.1326,0.15994 -0.19844,0.24029 -1.20837,2.10355 -2.23013,4.30892 -3.05356,6.59081 -0.778,1.67912 -1.44216,3.40867 -1.98799,5.17695 -0.93395,3.26931 -1.46294,6.64093 -1.5751,10.03918 0.006,0.0477 0.0123,0.0954 0.0186,0.14314 -0.5052,0.22535 -1.00578,0.46762 -1.49966,0.73639 -3.56536,1.77723 -6.69692,5.94689 -4.94801,10.00766 2.8106,5.87648 6.1641,5.55364 9.67589,4.28553 2.99516,7.58172 8.15507,14.1145 14.83682,18.78438 0.40425,0.24731 0.81272,0.48765 1.22525,0.72089 2.67522,1.71115 5.53785,3.10987 8.53178,4.16873 1.24561,0.43263 2.51124,0.8053 3.79253,1.11673 3.22543,0.92252 6.55075,1.45088 9.90327,1.57355 0.86524,-0.0458 1.72883,-0.11874 2.58951,-0.21859 -10.9811,24.45352 -1.77946,52.80831 11.35693,74.09935 8.18677,12.98483 12.6154,25.62284 13.43225,44.72595 l -0.52451,116.07354 8.22482,7.22023 c 0.002,0.0156 0.004,0.0324 0.007,0.0481 l 8.24291,-7.23625 -0.52452,-116.07405 c 0.81695,-19.10311 5.24548,-31.74113 13.43225,-44.72596 13.14231,-21.30061 22.34663,-49.67143 11.34247,-74.13242 0.86529,0.10066 1.73354,0.17408 2.60345,0.22014 3.18992,-0.11144 6.35636,-0.5902 9.43664,-1.42679 1.66048,-0.37907 3.29589,-0.86058 4.89686,-1.44177 2.1725,-0.8289 4.27156,-1.83876 6.27506,-3.01894 1.23255,-0.6437 2.43177,-1.3493 3.59307,-2.11408 2.84151,-2.03197 5.41533,-4.41429 7.66051,-7.09052 0.19374,-0.18708 0.38564,-0.37605 0.57568,-0.56689 2.56453,-3.21181 4.63816,-6.78645 6.15311,-10.60711 3.40202,1.17477 6.64503,1.32434 9.37514,-4.38371 1.74891,-4.06077 -1.38215,-8.23043 -4.9475,-10.00766 -0.49001,-0.26666 -0.9872,-0.50732 -1.48828,-0.73122 0.002,-0.0494 0.005,-0.0989 0.007,-0.14831 -0.10654,-3.43476 -0.63891,-6.84303 -1.58491,-10.14667 -0.50507,-1.60085 -1.10736,-3.16939 -1.80351,-4.69687 -2.30424,-5.95457 -5.9502,-11.29777 -10.65465,-15.61455 0.0735,-0.0422 0.14687,-0.0846 0.22014,-0.12712 -3.395,-3.05123 -7.27275,-5.518 -11.47526,-7.29982 l -1.87793,-5.01829 c 2.20513,-9.46201 0.13286,-18.59029 -12.30519,-18.71152 -2.95003,-0.0589 -6.09058,1.23323 -7.63364,4.01319 -2.16794,2.82549 -4.21024,6.03129 -5.96501,9.44748 C 118.76523,75.43329 112.893,64.47746 112.8905,52.74253 112.9218,37.40215 122.92081,23.86283 137.57323,19.32028 V 3.21429 c -3.20436,0.72809 -6.33059,1.76509 -9.33483,3.09645 0.25022,-2.04639 0.38221,-4.11843 0.38293,-6.2053 -0.0246,-10.62751 -3.37568,-20.8633 -9.38341,-29.05301 18.37255,-6.12302 30.77957,-23.29862 30.81931,-42.66458 1e-5,-24.89098 -20.17811,-45.0691 -45.06909,-45.06908 z m 0,91.98663 c 6.77352,6.0307 10.72396,15.15074 10.7425,24.80004 -0.004,9.65202 -3.94366,18.78147 -10.71149,24.82432 -6.79106,-6.02919 -10.75404,-15.1607 -10.7735,-24.82432 0.0185,-9.6493 3.96901,-18.76934 10.74249,-24.80004 z m 0.007,104.5838 c 3.75427,5.83253 8.6622,10.83525 14.42186,14.70039 -5.80415,3.22081 -10.75186,7.78576 -14.42858,13.31237 C 101.31261,102.37791 96.36751,97.81467 90.56652,94.59424 96.32888,90.7284 101.239,85.72402 104.99458,79.8892 Z m -44.28515,23.58564 c 0.43598,0.0439 0.87251,0.0821 1.30948,0.11472 0.25182,-0.0193 0.50349,-0.0405 0.75499,-0.0636 -3.02991,11.1441 9.07285,27.11104 18.80402,14.49214 2.67924,-3.47298 4.2281,-7.28366 4.89738,-11.2386 7.5532,5.36042 12.04858,14.04201 12.06696,23.30401 v 0.003 l 5.2e-4,0.005 c -0.003,15.81899 -12.82733,28.64135 -28.64632,28.64115 -10.44007,-0.1429 -19.97552,-5.95478 -24.88685,-15.16859 2.57019,0.20993 5.08903,0.41264 7.34167,0.006 4.39906,-2.26676 3.92068,-9.09754 1.11311,-12.40906 -3.78066,-1.33082 -7.8559,-2.39624 -11.94397,-2.77709 0.86062,-11.38522 8.40014,-21.1722 19.18901,-24.90907 z m 86.49239,0.0506 c 0.2515,0.0232 0.50318,0.0446 0.755,0.0641 0.48922,-0.008 0.9783,-0.0226 1.46709,-0.0444 10.70501,3.77732 18.16956,13.51967 19.0314,24.83879 -4.08813,0.38093 -8.16383,1.44627 -11.94449,2.77709 -2.80756,3.31152 -3.28595,10.1423 1.11311,12.40906 2.36028,0.42587 5.00765,0.18924 7.70702,-0.0315 -4.96675,9.33838 -14.67517,15.18 -25.25221,15.19442 -15.81878,-3.8e-4 -28.6429,-12.82288 -28.64528,-28.64166 v -5.2e-4 -5.1e-4 -5.2e-4 -5.2e-4 -5.1e-4 -5.2e-4 -5.2e-4 -5.1e-4 -5.2e-4 -5.2e-4 -5.1e-4 -5.2e-4 -5.2e-4 -5.1e-4 -5.2e-4 c 0.0186,-9.26182 4.51391,-17.94317 12.06697,-23.30349 0.66937,3.95476 2.2183,7.76525 4.89737,11.23808 9.73131,12.61908 21.83442,-3.34853 18.80402,-14.49266 z m -42.20931,48.75465 c 3.19016,4.95335 7.39759,9.17135 12.34292,12.37392 12.18306,11.42568 11.58745,25.93477 11.73417,32.22697 0.0952,4.08422 -0.23481,7.79787 -0.82269,11.27167 -1.95893,0.57718 -4.34058,0.35362 -5.95674,-0.43977 -3.54232,-1.4844 -4.48254,-5.50735 -7.05849,-7.88324 -3.14627,-2.05163 -7.81017,-1.77311 -10.2433,1.15755 -1.42265,-1.71374 -3.60789,-2.52092 -5.80688,-2.48512 -1.5618,0.0254 -3.1303,0.47553 -4.43694,1.32757 -2.57595,2.37589 -3.51626,6.39884 -7.05848,7.88324 -1.61451,0.79254 -3.99273,1.01618 -5.95055,0.44132 -0.59165,-3.48341 -0.92494,-7.20767 -0.8294,-11.30526 0.14625,-6.27227 -0.43825,-20.7081 11.62565,-32.1169 4.99608,-3.212 9.24521,-7.45813 12.46073,-12.45195 z m -0.005,65.66576 c 2.07408,1.24228 5.03054,1.74673 6.92981,2.92436 3.60483,1.1255 5.87716,4.53609 9.5312,5.55522 0.14869,0.0733 0.29287,0.15484 0.44029,0.23048 -5.35986,10.46581 -12.04621,18.86651 -13.84205,29.38425 -1.36326,7.98419 -2.29791,12.76255 -3.05615,16.74678 -0.75892,-3.98862 -1.69518,-8.77428 -3.06183,-16.7783 -1.79436,-10.50955 -8.47183,-18.90485 -13.82964,-29.35945 0.14326,-0.0734 0.28341,-0.15253 0.42788,-0.22376 3.65404,-1.01913 5.92638,-4.42972 9.5312,-5.55522 1.89919,-1.17757 4.85523,-1.68221 6.92929,-2.92436 z"
       sodipodi:nodetypes="sccccccccccccccccccccccccccccccccccccccccccccccccccccccccccccccccccscccccccccccccccsccccccccccccccccsccccccccccccccscccccsccccscccsccccccscccccc" />
  </g>
</svg>
