<?xml version="1.0" encoding="UTF-8" standalone="no"?>
<!-- Created with Inkscape (http://www.inkscape.org/) -->

<svg
   width="210mm"
   height="297mm"
   viewBox="0 0 210 297"
   version="1.1"
   id="svg1"
   xml:space="preserve"
   inkscape:version="1.3 (0e150ed6c4, 2023-07-21)"
   sodipodi:docname="layer 1 part 2.svg"
   xmlns:inkscape="http://www.inkscape.org/namespaces/inkscape"
   xmlns:sodipodi="http://sodipodi.sourceforge.net/DTD/sodipodi-0.dtd"
   xmlns="http://www.w3.org/2000/svg"
   xmlns:svg="http://www.w3.org/2000/svg"><sodipodi:namedview
     id="namedview1"
     pagecolor="#ffffff"
     bordercolor="#000000"
     borderopacity="0.25"
     inkscape:showpageshadow="2"
     inkscape:pageopacity="0.0"
     inkscape:pagecheckerboard="0"
     inkscape:deskcolor="#d1d1d1"
     inkscape:document-units="mm"
     inkscape:zoom="1.4778115"
     inkscape:cx="516.30401"
     inkscape:cy="213.49137"
     inkscape:window-width="2560"
     inkscape:window-height="1369"
     inkscape:window-x="-8"
     inkscape:window-y="-8"
     inkscape:window-maximized="1"
     inkscape:current-layer="layer1" /><defs
     id="defs1"><clipPath
       clipPathUnits="userSpaceOnUse"
       id="clipPath1"><rect
         style="fill:#f9f9f9;stroke-width:0.264583"
         id="rect2"
         width="117.23017"
         height="294.46805"
         x="-12.659847"
         y="11.900254"
         transform="rotate(4.0823659)" /></clipPath></defs><g
     inkscape:label="Layer 1"
     inkscape:groupmode="layer"
     id="layer1"><path
       style="color:#000000;opacity:0.4;fill:#ff0000;-inkscape-stroke:none"
       d="m 24.200994,66.861438 c -2e-4,0.002 2e-4,0.004 0,0.006 -0.3255,2.98462 -0.65252,6.71155 -1.00506,9.85676 -0.35322,3.15133 -0.64952,5.84824 -1.6883,8.75261 -0.50459,1.4108 -1.73013,2.58725 -2.26171,4.03321 -0.32109,0.87338 -0.59179,2.05089 -0.57227,3.12695 0.01,0.53803 0.0917,1.05287 0.2832,1.49023 0.19151,0.43737 0.49762,0.79886 0.94141,1.01172 0.6761,0.3243 1.42773,0.0434 2.07226,-0.44726 0.64454,-0.49063 1.20438,-1.19938 1.54297,-1.8125 0.56224,-1.01809 0.55129,-2.17 0.41797,-3.33399 -0.13332,-1.16398 -0.38701,-2.34977 -0.34765,-3.44531 0.0735,-2.04593 0.17123,-3.93097 0.26598,-5.98823 0.12657,-2.74854 0.24777,-5.65541 0.35902,-8.39654 0.0652,-1.60753 0.1277,-2.86493 0.25586,-4.81835 1.5e-4,-0.002 -1.6e-4,-0.003 0,-0.006 1.5e-4,-0.002 -1.6e-4,-0.003 0,-0.006 z"
       id="path18"
       sodipodi:nodetypes="ccssscsssssssssccc" /></g></svg>
