<?xml version="1.0" encoding="UTF-8" standalone="no"?>
<!-- Created with Inkscape (http://www.inkscape.org/) -->

<svg
   width="210mm"
   height="297mm"
   viewBox="0 0 210 297"
   version="1.1"
   id="svg1"
   inkscape:version="1.3 (0e150ed6c4, 2023-07-21)"
   sodipodi:docname="layer 2 part 1.svg"
   xmlns:inkscape="http://www.inkscape.org/namespaces/inkscape"
   xmlns:sodipodi="http://sodipodi.sourceforge.net/DTD/sodipodi-0.dtd"
   xmlns="http://www.w3.org/2000/svg"
   xmlns:svg="http://www.w3.org/2000/svg">
  <sodipodi:namedview
     id="namedview1"
     pagecolor="#ffffff"
     bordercolor="#000000"
     borderopacity="0.25"
     inkscape:showpageshadow="2"
     inkscape:pageopacity="0.0"
     inkscape:pagecheckerboard="0"
     inkscape:deskcolor="#d1d1d1"
     inkscape:document-units="mm"
     inkscape:zoom="1.4778115"
     inkscape:cx="406.00577"
     inkscape:cy="153.26718"
     inkscape:window-width="2560"
     inkscape:window-height="1369"
     inkscape:window-x="-8"
     inkscape:window-y="-8"
     inkscape:window-maximized="1"
     inkscape:current-layer="layer1" />
  <defs
     id="defs1" />
  <g
     inkscape:label="Layer 1"
     inkscape:groupmode="layer"
     id="layer1">
    <path
       id="path6"
       style="opacity:0.4;fill:none;stroke:#000000;stroke-width:0.264583"
       d="m 52.268127,1.1363647 c -1.835426,0.03999 -3.562184,1.1550591 -4.653462,2.3027019 -2.422816,2.5479648 -3.176084,3.7083912 -4.647262,8.1943314 -2.904024,-0.0464 -7.046154,0.894325 -9.26145,2.964161 -3.187444,3.021824 -3.259858,7.209702 -4.635893,11.769824 -1.060785,3.515402 -1.296176,7.220976 -2.350244,10.74198 -0.487378,1.628036 -1.114696,4.350942 -1.819527,7.061068 -0.02617,0.0999 -0.05216,0.198799 -0.07855,0.298689 -0.158293,0.60312 -0.319915,1.204619 -0.485242,1.790589 -0.01235,0.0435 -0.02483,0.08689 -0.03721,0.130224 -0.179403,0.6316 -0.362333,1.245442 -0.548287,1.825212 -0.0051,0.0165 -0.01044,0.03249 -0.0155,0.04909 -0.164537,0.5109 -0.331808,0.976638 -0.500228,1.423686 -0.0028,0.007 -0.0055,0.01597 -0.0083,0.02325 -0.0333,0.0904 -0.06586,0.187682 -0.09922,0.275952 -0.03739,0.0952 -0.07512,0.179564 -0.112654,0.270784 -0.07037,0.1713 -0.141073,0.339768 -0.211874,0.497128 -0.08973,0.197468 -0.179973,0.387725 -0.270267,0.558105 0.104382,0.0852 1.901188,2.116353 -0.154513,5.849255 -4.579603,8.315984 -6.279802,11.676951 -11.132654,15.976803 -4.0592384,3.596672 -2.1291067,7.742446 -3.9418781,12.195638 3.1336681,-2.812774 8.7903031,-1.704337 10.2071291,-6.024439 1.405879,-4.28672 -0.15002,-6.956484 3.448885,-12.923242 1.171477,-1.942256 2.274671,-3.947687 3.533118,-5.670455 1.473361,-2.641174 3.083324,-3.594526 3.169832,-3.594096 0.367822,0.002 0.808339,-0.293209 1.289327,-0.755509 0.240494,-0.23116 0.490988,-0.504452 0.747758,-0.803052 0.25678,-0.298608 0.519915,-0.622842 0.784965,-0.95653 0.530058,-0.66741 1.068763,-1.372446 1.583883,-1.985926 0.257578,-0.306728 0.509028,-0.590401 0.750858,-0.835091 0.24183,-0.24469 0.473868,-0.45021 0.691948,-0.60048 -0.4635,-1.666256 -0.771062,-2.987173 -0.996322,-4.194059 -0.075,-0.40208 -0.141035,-0.791373 -0.200505,-1.176673 v -5.16e-4 c -0.118988,-0.77094 -0.21251,-1.525093 -0.30179,-2.331641 -0.0893,-0.806548 -0.174414,-1.665135 -0.277502,-2.644283 -0.0599,-0.56928 -0.112442,-1.144563 -0.167432,-1.718241 -0.29153,-3.041364 -0.477776,-6.129756 -0.09922,-9.14983 0.387357,-3.090435 1.862101,-5.079876 3.318661,-6.213574 v -0.01344 l 2.264978,-1.139982 c 2.781154,-0.566538 6.726885,-2.836029 7.535974,-5.582605 0.0314,-0.106736 0.05792,-0.223282 0.08682,-0.334863 0.0029,-0.0014 0.0059,-0.0027 0.0088,-0.0041 0.455413,-1.753996 0.632167,-4.043747 1.195276,-5.476152 2.285096,-5.8126676 4.579235,-8.3347155 7.386629,-7.1344479 1.399978,0.5985388 1.325207,2.9961547 0.934827,5.1697103 C 57.01312,7.911289 57.178368,3.6564006 54.788904,1.8458822 53.959371,1.3218172 53.102407,1.1181899 52.268127,1.1363647 Z"
       sodipodi:nodetypes="ssccssccccccccccccsscssccssccsccccccsccccccccsccs" />
  </g>
</svg>
