<?xml version="1.0" encoding="UTF-8" standalone="no"?>
<!-- Created with Inkscape (http://www.inkscape.org/) -->

<svg
   width="210mm"
   height="297mm"
   viewBox="0 0 210 297"
   version="1.1"
   id="svg1"
   inkscape:version="1.3 (0e150ed6c4, 2023-07-21)"
   sodipodi:docname="layer 3 part 1.svg"
   xmlns:inkscape="http://www.inkscape.org/namespaces/inkscape"
   xmlns:sodipodi="http://sodipodi.sourceforge.net/DTD/sodipodi-0.dtd"
   xmlns="http://www.w3.org/2000/svg"
   xmlns:svg="http://www.w3.org/2000/svg">
  <sodipodi:namedview
     id="namedview1"
     pagecolor="#ffffff"
     bordercolor="#000000"
     borderopacity="0.25"
     inkscape:showpageshadow="2"
     inkscape:pageopacity="0.0"
     inkscape:pagecheckerboard="0"
     inkscape:deskcolor="#d1d1d1"
     inkscape:document-units="mm"
     inkscape:zoom="2.9556229"
     inkscape:cx="168.4924"
     inkscape:cy="184.22513"
     inkscape:window-width="2560"
     inkscape:window-height="1369"
     inkscape:window-x="-8"
     inkscape:window-y="-8"
     inkscape:window-maximized="1"
     inkscape:current-layer="layer1" />
  <defs
     id="defs1" />
  <g
     inkscape:label="Layer 1"
     inkscape:groupmode="layer"
     id="layer1">
    <path
       id="path8"
       style="opacity:0.4;fill:none;stroke:#1a1a1a;stroke-width:0.264583"
       d="M 52.268127 1.1332642 C 50.432701 1.1732541 48.705943 2.2883232 47.614665 3.435966 C 45.191849 5.9839308 44.438581 7.1443566 42.967403 11.630298 C 40.063379 11.583898 35.921255 12.524622 33.705953 14.594458 C 30.518513 17.616282 30.446091 21.804162 29.07006 26.364282 C 28.009275 29.879686 27.773884 33.58526 26.719816 37.106262 C 25.980892 39.574558 24.924212 44.548823 23.754622 48.199125 C 23.747922 48.219825 23.741685 48.242504 23.734985 48.263204 C 23.566059 48.787642 23.39381 49.267805 23.220805 49.724613 C 23.188825 49.808613 23.15783 49.906853 23.12572 49.988163 C 23.04804 50.185813 22.970415 50.37099 22.892143 50.55092 C 22.871473 50.59822 22.850841 50.65063 22.830131 50.696647 C 22.731581 50.916467 22.632238 51.122778 22.532992 51.310046 C 22.613071 51.375346 22.71315 51.480211 22.807393 51.573079 C 23.301697 52.097609 23.951966 53.035043 24.621753 53.979651 C 24.623853 53.983651 24.626371 53.986646 24.628471 53.989986 C 24.945902 54.528356 26.292047 55.838359 26.730151 59.035673 C 27.168907 62.237727 27.384174 62.654699 28.029814 67.225871 C 28.678895 71.821391 30.540828 76.208178 34.329687 79.92122 C 36.973363 82.511974 35.436806 85.073771 37.526392 86.979187 C 39.857796 89.105093 43.860482 88.581082 48.113342 88.452482 C 44.74384 86.765306 44.559981 84.087626 42.607735 80.832792 C 41.995595 79.812215 40.260424 79.659062 38.478788 79.168294 L 38.463285 79.168294 C 37.015054 78.769387 35.536656 78.152071 34.602539 76.627364 C 34.545119 76.533624 34.495125 76.438494 34.438725 76.344694 L 34.438725 76.317822 C 32.061888 72.352954 30.624143 68.261594 30.186271 61.923352 C 29.862503 57.236782 29.658559 56.242916 31.197062 53.71145 C 31.330727 53.54156 31.463075 53.376979 31.595487 53.211739 C 31.801657 52.955769 32.009751 52.692484 32.209403 52.461914 C 32.285993 52.372614 32.359422 52.295473 32.434713 52.211283 C 32.69589 51.922115 32.951291 51.656436 33.191772 51.449056 C 33.191867 51.444056 33.191682 51.43877 33.191772 51.43407 C 33.301108 51.33957 33.408137 51.254252 33.51165 51.182922 C 33.328145 50.523234 33.174911 49.92969 33.03571 49.363912 L 33.019173 49.22852 C 32.263688 46.103386 32.079389 44.101554 31.735531 40.83575 C 31.654701 40.068032 31.579638 39.293787 31.509705 38.518579 C 31.252867 35.671485 31.115234 32.789174 31.46888 29.96768 C 31.856236 26.877243 33.330977 24.887803 34.787541 23.754106 L 34.787541 23.74377 L 37.052519 22.603788 C 39.833673 22.03725 43.779395 19.767759 44.588493 17.021183 C 44.619943 16.914447 44.646369 16.797901 44.675309 16.68632 C 44.678056 16.685 44.680826 16.683512 44.683577 16.682186 C 45.139548 14.927816 45.315951 12.636126 45.87937 11.202934 C 48.164466 5.3902652 50.458605 2.8682179 53.265999 4.0684855 C 54.665977 4.6670243 54.591206 7.0646402 54.200826 9.2381958 C 57.01312 7.9081884 57.178368 3.6533 54.788904 1.8427816 C 53.959349 1.3187036 53.102407 1.1150892 52.268127 1.1332642 z " />
  </g>
</svg>
