<?xml version="1.0" encoding="UTF-8" standalone="no"?>
<!-- Created with Inkscape (http://www.inkscape.org/) -->

<svg
   width="210mm"
   height="297mm"
   viewBox="0 0 210 297"
   version="1.1"
   id="svg1"
   inkscape:version="1.3 (0e150ed6c4, 2023-07-21)"
   sodipodi:docname="layer 6.svg"
   xmlns:inkscape="http://www.inkscape.org/namespaces/inkscape"
   xmlns:sodipodi="http://sodipodi.sourceforge.net/DTD/sodipodi-0.dtd"
   xmlns="http://www.w3.org/2000/svg"
   xmlns:svg="http://www.w3.org/2000/svg">
  <sodipodi:namedview
     id="namedview1"
     pagecolor="#ffffff"
     bordercolor="#000000"
     borderopacity="0.25"
     inkscape:showpageshadow="2"
     inkscape:pageopacity="0.0"
     inkscape:pagecheckerboard="0"
     inkscape:deskcolor="#d1d1d1"
     inkscape:document-units="mm"
     inkscape:zoom="1.0449705"
     inkscape:cx="397.14038"
     inkscape:cy="561.25984"
     inkscape:window-width="2560"
     inkscape:window-height="1369"
     inkscape:window-x="-8"
     inkscape:window-y="-8"
     inkscape:window-maximized="1"
     inkscape:current-layer="layer1" />
  <defs
     id="defs1" />
  <g
     inkscape:label="Layer 1"
     inkscape:groupmode="layer"
     id="layer1">
    <path
       id="path3"
       style="opacity:0.4;fill:#1a1a1a;stroke-width:0.264583"
       d="m 54.063901,4.836013 c 0.54378,1.03041 0.42909,2.77856 0.13746,4.40231 1.41528,-0.66932 2.15854,-2.07954 2.24482,-3.54603 -0.66666,-0.4476 -1.53265,-0.61129 -2.38228,-0.85628 z" />
    <path
       id="path4"
       style="color:#000000;opacity:0.4;fill:#000000;-inkscape-stroke:none"
       d="m 41.860511,11.658853 c -0.12548,0.008 -0.25753,0.0258 -0.38551,0.0367 -0.44118,0.5372 -0.84251,1.29598 -0.97203,1.99161 -0.0829,0.44508 -0.0533,0.87499 0.18965,1.18545 0.24295,0.31047 0.68386,0.46429 1.33429,0.40256 0.37308,-0.0354 0.86999,-0.0518 1.31206,-0.0682 -1.72411,1.13547 -2.89833,2.04898 -3.65404,2.68356 -0.83092,0.69773 -1.35574,1.14736 -2.24017,1.51515 -1.70041,0.70712 -3.511123,1.05015 -5.208988,1.78129 -0.886245,0.38164 -1.615156,1.02389 -2.280481,1.72082 -0.04031,0.17438 -0.08446,0.35244 -0.125573,0.52865 0.747034,-0.81667 1.538984,-1.58833 2.511474,-2.00711 1.662343,-0.71584 3.471288,-1.05831 5.204848,-1.77922 0.92095,-0.38298 1.4787,-0.85936 2.30891,-1.55649 0.83021,-0.69714 1.94173,-1.62301 3.98993,-2.93161 l 0.39636,-0.25424 -0.47025,0.0119 c -0.48231,0.0104 -1.25705,0.0435 -1.76785,0.092 -0.59965,0.0569 -0.92669,-0.0798 -1.10123,-0.30283 -0.17455,-0.22305 -0.2121,-0.5689 -0.13694,-0.97255 0.1345,-0.72236 0.63081,-1.58775 1.09554,-2.07739 z" />
    <path
       style="opacity:0.4;fill:#f9f9f9;stroke-width:0.264583"
       d="m 54.185658,9.238501 c 2.8123,-1.330013 2.97756,-5.584904 0.58808,-7.395423 -2.65469,-1.677035 -5.58693,-0.07633 -7.17425,1.592977 -2.42282,2.547965 -3.17568,3.70851 -4.64687,8.194459 -2.90403,-0.04644 -7.04607,0.89444 -9.26137,2.964281 -3.18745,3.021838 -3.25996,7.209658 -4.636,11.769798 -1.06079,3.51541 -1.29648,7.22091 -2.35056,10.74192 -0.98971,3.30603 -2.54799,11.11165 -4.18657,14.20359 1.22929,1.00308 3.79098,5.80315 5.13012,5.80967 1.47129,0.007 4.10381,-4.73472 5.84843,-5.93691 -1.23583,-4.44274 -1.36362,-6.43055 -1.776,-10.34718 -0.37771,-3.58729 -0.71669,-7.27834 -0.26675,-10.8681 0.60965,-4.86396 3.91456,-7.01976 5.59908,-7.36291 2.78116,-0.56654 6.7273,-2.83586 7.5364,-5.58244 0.5256,-1.784201 0.67668,-4.296574 1.27524,-5.819154 2.2851,-5.812686 4.57922,-8.334729 7.38662,-7.134456 1.39998,0.598542 1.32478,2.996314 0.9344,5.169878 z"
       id="path2-3"
       sodipodi:nodetypes="ccsccsscscssssssc" />
  </g>
</svg>
