<?xml version="1.0" encoding="UTF-8" standalone="no"?>
<!-- Created with Inkscape (http://www.inkscape.org/) -->

<svg
   width="210mm"
   height="297mm"
   viewBox="0 0 210 297"
   version="1.1"
   id="svg1"
   xml:space="preserve"
   inkscape:version="1.3 (0e150ed6c4, 2023-07-21)"
   sodipodi:docname="layer 1.svg"
   xmlns:inkscape="http://www.inkscape.org/namespaces/inkscape"
   xmlns:sodipodi="http://sodipodi.sourceforge.net/DTD/sodipodi-0.dtd"
   xmlns="http://www.w3.org/2000/svg"
   xmlns:svg="http://www.w3.org/2000/svg"><sodipodi:namedview
     id="namedview1"
     pagecolor="#ffffff"
     bordercolor="#000000"
     borderopacity="0.25"
     inkscape:showpageshadow="2"
     inkscape:pageopacity="0.0"
     inkscape:pagecheckerboard="0"
     inkscape:deskcolor="#d1d1d1"
     inkscape:document-units="mm"
     inkscape:zoom="2.0899411"
     inkscape:cx="323.4541"
     inkscape:cy="236.13106"
     inkscape:window-width="2560"
     inkscape:window-height="1369"
     inkscape:window-x="-8"
     inkscape:window-y="-8"
     inkscape:window-maximized="1"
     inkscape:current-layer="layer1" /><defs
     id="defs1"><clipPath
       clipPathUnits="userSpaceOnUse"
       id="clipPath1"><rect
         style="fill:#f9f9f9;stroke-width:0.264583"
         id="rect2"
         width="117.23017"
         height="294.46805"
         x="-12.659847"
         y="11.900254"
         transform="rotate(4.0823659)" /></clipPath></defs><g
     inkscape:label="Layer 1"
     inkscape:groupmode="layer"
     id="layer1"><path
       style="opacity:0.4;fill:#f9f9f9;stroke-width:0.264583"
       d="m 119.77797,65.783727 c 2.8123,-1.330013 2.97756,-5.584904 0.58808,-7.395423 -2.65469,-1.677035 -5.58693,-0.07633 -7.17425,1.592977 -2.42282,2.547965 -3.17568,3.70851 -4.64687,8.194459 -2.90403,-0.04644 -7.04607,0.89444 -9.261372,2.964281 -3.187449,3.021834 -3.259962,7.20966 -4.635997,11.769794 -1.060788,3.515419 -1.296487,7.220913 -2.350558,10.741929 -0.98971,3.306024 -2.547989,11.111646 -4.186577,14.203586 1.229292,1.00308 3.790979,5.80315 5.130122,5.80967 1.471295,0.007 4.103812,-4.73472 5.84843,-5.93691 -1.235832,-4.44274 -1.363618,-6.43055 -1.776003,-10.347179 -0.377708,-3.58729 -0.716684,-7.278339 -0.266743,-10.868097 0.60965,-4.863962 3.914558,-7.019767 5.599078,-7.362914 2.78116,-0.566536 6.7273,-2.835857 7.5364,-5.582437 0.5256,-1.784205 0.67668,-4.296578 1.27524,-5.819158 2.2851,-5.812686 4.57922,-8.334729 7.38662,-7.134456 1.39998,0.598542 1.32478,2.996314 0.9344,5.169878 z"
       id="path2"
       sodipodi:nodetypes="ccsccsscscssssssc" /><path
       id="path5"
       style="opacity:0.4;fill:none;stroke:#000000;stroke-width:0.264583"
       d="m 52.25279,1.133425 c -1.83543,0.03999 -3.56218,1.155054 -4.65346,2.302702 -2.42282,2.547962 -3.17608,3.708387 -4.64726,8.194332 -2.90403,-0.04644 -7.046147,0.894321 -9.261451,2.96416 -3.187446,3.021831 -3.25986,7.209695 -4.635893,11.769824 -1.060787,3.515415 -1.296174,7.220967 -2.350244,10.74198 -0.738926,2.468306 -1.795602,7.442554 -2.965194,11.092864 -0.0067,0.0207 -0.01294,0.0434 -0.01964,0.0641 -0.168928,0.52444 -0.341176,1.0046 -0.514181,1.46141 -0.03198,0.084 -0.06297,0.18224 -0.09508,0.26355 -0.07768,0.19765 -0.155306,0.38283 -0.233578,0.56276 -0.02067,0.0473 -0.0413,0.0997 -0.06201,0.14572 -0.09855,0.21982 -0.197892,0.42613 -0.29714,0.6134 0.08008,0.0653 0.180159,0.17017 0.274402,0.26304 0.494304,0.52453 1.144571,1.46196 1.81436,2.40657 0.0021,0.004 0.0046,0.007 0.0067,0.0103 0.317431,0.53837 0.285602,2.9914 0.04289,6.20944 -0.242709,3.21804 -0.995325,5.73852 -1.678967,10.1198 -0.715539,4.58566 -0.243017,7.31492 -2.584339,12.07523 -1.683328,3.42249 -3.74474,8.66434 -2.566768,13.35681 0.527399,2.10091 1.342045,3.78635 1.545642,5.548503 0.980909,-1.636443 3.789404,-3.957263 4.735628,-5.092723 1.932728,-2.31926 2.747026,-7.73716 1.733228,-13.19351 -1.441841,-7.76009 -1.128138,-16.28836 2.092895,-22.70145 2.105777,-4.19262 1.718066,-4.09049 3.247347,-6.59908 0.134056,-0.17039 0.266661,-0.33555 0.399459,-0.50127 0.20617,-0.25597 0.414262,-0.51925 0.613916,-0.74982 0.07659,-0.0893 0.150018,-0.16644 0.225309,-0.25063 0.261179,-0.28917 0.516577,-0.55485 0.75706,-0.76223 9.5e-5,-0.005 -9e-5,-0.0103 0,-0.015 0.109336,-0.0945 0.216364,-0.17982 0.319877,-0.25115 -0.183505,-0.65969 -0.336737,-1.25323 -0.47594,-1.81901 l -0.01654,-0.13539 c -0.755487,-3.12514 -0.939783,-5.12696 -1.283643,-8.392776 -0.08083,-0.767717 -0.155893,-1.541959 -0.225826,-2.317171 -0.256838,-2.847093 -0.394473,-5.729392 -0.04082,-8.550899 0.609649,-4.863958 3.914624,-7.020229 5.599134,-7.363375 2.781157,-0.566536 6.727397,-2.835511 7.536497,-5.582088 0.52559,-1.784204 0.67629,-4.296705 1.27485,-5.819284 2.2851,-5.81268 4.57923,-8.33472 7.38663,-7.134448 1.39998,0.598542 1.32521,2.996149 0.93483,5.169711 C 56.99777,7.908315 57.16302,3.65343 54.77355,1.842912 53.94396,1.318839 53.08705,1.11522 52.25277,1.133395 Z" /><path
       id="path16"
       style="opacity:0.4;fill:#0000ff;stroke:#ff0000;stroke-width:0.264583"
       d="m 61.13227,11.0584 c -8.60868,0.126598 -11.52047,3.291424 -16.07801,5.443596 -0.1264,0.05969 -0.26008,0.127787 -0.38809,0.189136 -0.0278,0.106477 -0.0469,0.22921 -0.077,0.331246 -0.8091,2.746574 -4.75534,5.015552 -7.536497,5.582088 -0.61036,0.124334 -1.43442,0.495975 -2.26497,1.138948 l -0.34882,52.601443 c 0.0564,0.0938 0.10639,0.18893 0.16381,0.28267 0.93412,1.52471 2.41251,2.14202 3.860747,2.54093 l 22.65882,3.5e-4 z"
       sodipodi:nodetypes="csccscccccc" /></g></svg>
