<?xml version="1.0" encoding="UTF-8" standalone="no"?>
<!-- Created with Inkscape (http://www.inkscape.org/) -->

<svg
   width="210mm"
   height="297mm"
   viewBox="0 0 210 297"
   version="1.1"
   id="svg1"
   inkscape:version="1.3 (0e150ed6c4, 2023-07-21)"
   sodipodi:docname="layer 4 part 1.svg"
   xmlns:inkscape="http://www.inkscape.org/namespaces/inkscape"
   xmlns:sodipodi="http://sodipodi.sourceforge.net/DTD/sodipodi-0.dtd"
   xmlns="http://www.w3.org/2000/svg"
   xmlns:svg="http://www.w3.org/2000/svg">
  <sodipodi:namedview
     id="namedview1"
     pagecolor="#ffffff"
     bordercolor="#000000"
     borderopacity="0.25"
     inkscape:showpageshadow="2"
     inkscape:pageopacity="0.0"
     inkscape:pagecheckerboard="0"
     inkscape:deskcolor="#d1d1d1"
     inkscape:document-units="mm"
     inkscape:zoom="1.0449705"
     inkscape:cx="245.93996"
     inkscape:cy="206.22592"
     inkscape:window-width="2560"
     inkscape:window-height="1369"
     inkscape:window-x="-8"
     inkscape:window-y="-8"
     inkscape:window-maximized="1"
     inkscape:current-layer="layer1" />
  <defs
     id="defs1" />
  <g
     inkscape:label="Layer 1"
     inkscape:groupmode="layer"
     id="layer1">
    <path
       id="path7"
       style="opacity:0.4;fill:none;stroke:#000000;stroke-width:0.264583"
       d="M 52.268127 1.1332642 C 50.432701 1.1732541 48.705943 2.2883202 47.614665 3.435966 C 45.191849 5.9839228 44.438581 7.1443566 42.967403 11.630298 C 40.063379 11.583898 35.921249 12.524622 33.705953 14.594458 C 30.518509 17.616282 30.446098 21.804162 29.07006 26.364282 C 28.009282 29.879686 27.773884 33.58526 26.719816 37.106262 C 25.980888 39.574558 24.92422 44.548823 23.754622 48.199125 C 23.747622 48.219825 23.741685 48.242504 23.734985 48.263204 C 23.566067 48.787642 23.393815 49.267805 23.220805 49.724613 C 23.188805 49.808613 23.15782 49.906853 23.12572 49.988163 C 23.04802 50.185813 22.970413 50.37099 22.892143 50.55092 C 22.871443 50.59822 22.850831 50.65063 22.830131 50.696647 C 22.731631 50.916467 22.63223 51.122778 22.532992 51.310046 C 22.613091 51.375346 22.713143 51.480211 22.807393 51.573079 C 23.301693 52.097609 23.951965 53.035043 24.621753 53.979651 C 24.623753 53.983651 24.626988 53.986646 24.628988 53.989986 C 24.946416 54.528356 24.91458 56.981392 24.671879 60.199426 C 24.429169 63.41746 24.340949 64.355372 24.986589 68.926542 C 25.635667 73.522064 26.547667 75.690486 29.048873 80.368738 C 32.587715 86.987834 30.770377 89.429989 33.856331 93.156071 C 35.491459 95.130367 41.623273 94.220863 44.801917 95.793119 C 42.238071 92.226057 43.274587 88.417311 40.549463 85.129687 C 38.622817 82.805373 34.577099 82.670447 31.932935 77.791117 C 29.288419 72.911157 24.728166 66.725157 27.949198 60.312081 C 30.055154 56.119089 29.663162 56.226419 31.192928 53.717135 C 31.328138 53.545275 31.462074 53.378869 31.596004 53.211739 C 31.802174 52.955769 32.01026 52.692484 32.20992 52.461914 C 32.28652 52.372614 32.359941 52.295473 32.435229 52.211283 C 32.696409 51.922115 32.951799 51.656436 33.192289 51.449056 C 33.192379 51.444056 33.192199 51.43877 33.192289 51.43407 C 33.301619 51.33957 33.408656 51.254252 33.512166 51.182922 C 33.328668 50.523234 33.175436 49.92969 33.036226 49.363912 L 33.01969 49.22852 C 32.264212 46.103386 32.079907 44.101554 31.736047 40.83575 C 31.655247 40.068032 31.580151 39.293787 31.510221 38.518579 C 31.253383 35.671485 31.115713 32.789174 31.469397 29.96768 C 31.856716 26.877493 33.331094 24.887851 34.787541 23.754106 L 34.787541 23.74377 L 37.052519 22.603788 C 39.833673 22.03725 43.779395 19.767759 44.588493 17.021183 C 44.619943 16.914447 44.646369 16.797901 44.675309 16.68632 C 44.678194 16.684933 44.681204 16.683579 44.684094 16.682186 C 45.140065 14.927816 45.316466 12.636126 45.879887 11.202934 C 48.164983 5.3902652 50.459122 2.8682159 53.266516 4.0684855 C 54.666494 4.6670263 54.591721 7.0646402 54.201343 9.2381958 C 57.013637 7.9081884 57.178885 3.653296 54.789421 1.8427816 C 53.959831 1.3187096 53.102922 1.1150892 52.268644 1.1332642 L 52.268127 1.1332642 z " />
  </g>
</svg>
