<?xml version="1.0" encoding="UTF-8" standalone="no"?>
<!-- Created with Inkscape (http://www.inkscape.org/) -->

<svg
   width="210mm"
   height="297mm"
   viewBox="0 0 210 297"
   version="1.1"
   id="svg1"
   inkscape:version="1.3 (0e150ed6c4, 2023-07-21)"
   sodipodi:docname="layer 2.svg"
   xmlns:inkscape="http://www.inkscape.org/namespaces/inkscape"
   xmlns:sodipodi="http://sodipodi.sourceforge.net/DTD/sodipodi-0.dtd"
   xmlns="http://www.w3.org/2000/svg"
   xmlns:svg="http://www.w3.org/2000/svg">
  <sodipodi:namedview
     id="namedview1"
     pagecolor="#ffffff"
     bordercolor="#000000"
     borderopacity="0.25"
     inkscape:showpageshadow="2"
     inkscape:pageopacity="0.0"
     inkscape:pagecheckerboard="0"
     inkscape:deskcolor="#d1d1d1"
     inkscape:document-units="mm"
     inkscape:zoom="1.0449705"
     inkscape:cx="397.14038"
     inkscape:cy="484.70266"
     inkscape:window-width="2560"
     inkscape:window-height="1369"
     inkscape:window-x="-8"
     inkscape:window-y="-8"
     inkscape:window-maximized="1"
     inkscape:current-layer="layer1" />
  <defs
     id="defs1" />
  <g
     inkscape:label="Layer 1"
     inkscape:groupmode="layer"
     id="layer1">
    <path
       id="path6"
       style="opacity:0.4;fill:none;stroke:#000000;stroke-width:0.264583"
       d="m 52.26824,1.136351 c -1.83543,0.03999 -3.56218,1.155054 -4.65346,2.302699 -2.42282,2.54797 -3.17608,3.70839 -4.64726,8.19434 -2.90403,-0.0464 -7.04615,0.89432 -9.26145,2.96416 -3.18745,3.02183 -3.25986,7.20969 -4.635897,11.76982 -1.060787,3.51541 -1.296174,7.22097 -2.350244,10.74198 -0.48738,1.62804 -1.114695,4.35094 -1.819528,7.06107 -0.02617,0.0999 -0.05216,0.1988 -0.07855,0.29869 -0.158293,0.60312 -0.319914,1.20461 -0.485241,1.79058 -0.01235,0.0435 -0.02483,0.0869 -0.03721,0.13023 -0.179403,0.6316 -0.362333,1.24544 -0.548287,1.82521 -0.0051,0.0165 -0.01044,0.0325 -0.0155,0.0491 -0.164537,0.5109 -0.331808,0.97664 -0.500228,1.42369 -0.0028,0.007 -0.0055,0.016 -0.0083,0.0233 -0.0333,0.0904 -0.06586,0.18768 -0.09922,0.27595 -0.03739,0.0952 -0.07512,0.17957 -0.112655,0.27079 -0.07037,0.1713 -0.141072,0.33977 -0.211873,0.49713 -0.08973,0.19747 -0.179972,0.38772 -0.270268,0.5581 0.104384,0.0852 1.901193,2.11635 -0.154512,5.84926 -4.579613,8.316 -6.279792,11.67694 -11.132654,15.9768 -4.059247,3.59668 -2.129103,7.74244 -3.941878,12.19564 3.133674,-2.81278 8.7903,-1.70433 10.207128,-6.02444 1.405883,-4.28673 -0.150027,-6.95647 3.448886,-12.92324 1.171479,-1.94226 2.274668,-3.94769 3.533117,-5.67046 1.473365,-2.64118 3.083325,-3.59452 3.169833,-3.59409 0.367822,0.002 0.808339,-0.29321 1.289327,-0.75551 0.240494,-0.23116 0.490984,-0.50445 0.747754,-0.80305 0.25678,-0.29861 0.51992,-0.62285 0.78497,-0.95654 0.53006,-0.66741 1.06876,-1.37244 1.58388,-1.98592 0.25758,-0.30673 0.50903,-0.5904 0.75086,-0.83509 0.24183,-0.24469 0.47387,-0.45021 0.69195,-0.60048 -0.4635,-1.66626 -0.77106,-2.98717 -0.99632,-4.19406 -0.075,-0.40208 -0.14104,-0.79137 -0.20051,-1.17667 -2e-5,-1.7e-4 3e-5,-3.5e-4 0,-5.2e-4 -0.11899,-0.77094 -0.21251,-1.52509 -0.30179,-2.33164 -0.0893,-0.80655 -0.17441,-1.66513 -0.2775,-2.64428 -0.0599,-0.56928 -0.11244,-1.14456 -0.16743,-1.71824 -0.29153,-3.04137 -0.47776,-6.12975 -0.0992,-9.14983 0.60965,-4.86396 3.91462,-7.02023 5.59913,-7.36338 2.78116,-0.56653 6.7274,-2.83551 7.5365,-5.58209 0.52559,-1.7842 0.67629,-4.2967 1.27485,-5.81928 2.2851,-5.81268 4.57923,-8.33472 7.38663,-7.13445 1.39998,0.59854 1.32521,2.99615 0.93483,5.16971 C 57.01322,7.91133 57.17847,3.65645 54.789,1.845928 53.95941,1.321855 53.1025,1.118236 52.26822,1.136411 Z" />
    <path
       id="path16"
       style="opacity:0.4;fill:#0000ff;stroke:#ff0000;stroke-width:0.264583"
       d="m 61.13227,11.06136 c -8.60868,0.12659 -11.52047,3.29142 -16.07801,5.44359 -0.1264,0.0597 -0.26008,0.12779 -0.38809,0.18914 -0.0278,0.10647 -0.0469,0.22921 -0.077,0.33124 -0.8091,2.74658 -4.75534,5.01556 -7.5365,5.58209 -0.61036,0.12434 -1.43442,0.49598 -2.26497,1.13895 l -0.34882,52.60144 c 0.0564,0.0938 0.10639,0.18893 0.16381,0.28267 0.93412,1.52471 2.41251,2.14202 3.86075,2.54093 l 22.65882,3.5e-4 z"
       sodipodi:nodetypes="csccscccccc" />
    <path
       style="color:#000000;opacity:0.4;fill:#ff0000;-inkscape-stroke:none"
       d="m 28.484764,64.504699 c -2e-4,0.002 1.99e-4,0.004 0,0.006 -0.325499,2.98462 -0.652528,6.71155 -1.005061,9.85676 -0.35322,3.15133 -0.649523,5.84824 -1.688299,8.75261 -0.504589,1.4108 -1.73013,2.58725 -2.261718,4.03321 -0.321089,0.87338 -0.591789,2.05089 -0.572266,3.12695 0.0098,0.53803 0.09169,1.05287 0.283203,1.49023 0.191512,0.43737 0.497613,0.79886 0.941406,1.01172 0.676103,0.3243 1.427735,0.0434 2.072266,-0.44726 0.644531,-0.49063 1.204374,-1.19938 1.542969,-1.8125 0.562234,-1.01809 0.551291,-2.17 0.417968,-3.33399 -0.133322,-1.16398 -0.387012,-2.34977 -0.347656,-3.44531 0.07349,-2.04593 0.171238,-3.93097 0.26598,-5.98823 0.126577,-2.74854 0.247779,-5.65541 0.35902,-8.39654 0.06524,-1.60753 0.127706,-2.86493 0.25586,-4.81835 1.55e-4,-0.002 -1.56e-4,-0.003 0,-0.006 1.55e-4,-0.002 -1.56e-4,-0.003 0,-0.006 z"
       id="path18"
       sodipodi:nodetypes="ccssscsssssssssccc" />
  </g>
</svg>
