<?xml version="1.0" encoding="UTF-8" standalone="no"?>
<!-- Created with Inkscape (http://www.inkscape.org/) -->

<svg
   width="210mm"
   height="297mm"
   viewBox="0 0 210 297"
   version="1.1"
   id="svg1"
   inkscape:version="1.3 (0e150ed6c4, 2023-07-21)"
   sodipodi:docname="layer 5.svg"
   xmlns:inkscape="http://www.inkscape.org/namespaces/inkscape"
   xmlns:sodipodi="http://sodipodi.sourceforge.net/DTD/sodipodi-0.dtd"
   xmlns="http://www.w3.org/2000/svg"
   xmlns:svg="http://www.w3.org/2000/svg">
  <sodipodi:namedview
     id="namedview1"
     pagecolor="#ffffff"
     bordercolor="#000000"
     borderopacity="0.25"
     inkscape:showpageshadow="2"
     inkscape:pageopacity="0.0"
     inkscape:pagecheckerboard="0"
     inkscape:deskcolor="#d1d1d1"
     inkscape:document-units="mm"
     inkscape:zoom="8.359764"
     inkscape:cx="131.70228"
     inkscape:cy="66.568865"
     inkscape:window-width="2560"
     inkscape:window-height="1369"
     inkscape:window-x="-8"
     inkscape:window-y="-8"
     inkscape:window-maximized="1"
     inkscape:current-layer="layer1" />
  <defs
     id="defs1" />
  <g
     inkscape:label="Layer 1"
     inkscape:groupmode="layer"
     id="layer1">
    <path
       style="opacity:0.4;fill:#cccccc;stroke-width:0.264583"
       d="m 54.200541,9.2394116 c 2.812308,-1.330013 2.977578,-5.584904 0.588078,-7.395423 -2.654688,-1.67703496 -5.586928,-0.07633 -7.174248,1.592977 -2.42282,2.547965 -3.17568,3.70851 -4.64687,8.1944594 -2.90403,-0.04644 -7.04607,0.89444 -9.26137,2.964281 -3.18745,3.021838 -3.25996,7.209658 -4.636,11.769798 -1.06079,3.51541 -1.29648,7.22091 -2.35056,10.74192 -0.98971,3.30603 -2.54799,11.11165 -4.18657,14.20359 1.22929,1.00308 3.79098,5.80315 5.13012,5.80967 1.47129,0.007 4.10381,-4.73472 5.84843,-5.93691 -1.23583,-4.44274 -1.36362,-6.43055 -1.776,-10.34718 -0.37771,-3.58729 -0.71669,-7.27834 -0.26675,-10.8681 0.60965,-4.86396 3.91456,-7.01976 5.59908,-7.36291 2.78116,-0.56654 6.7273,-2.83586 7.5364,-5.58244 0.5256,-1.784201 0.67668,-4.296574 1.27524,-5.819154 2.2851,-5.8126864 4.57922,-8.3347294 7.38662,-7.1344564 1.399978,0.598542 1.324778,2.996314 0.9344,5.169878 z"
       id="path2-3"
       sodipodi:nodetypes="ccsccsscscssssssc" />
  </g>
</svg>
