<?xml version="1.0" encoding="UTF-8" standalone="no"?>
<!-- Created with Inkscape (http://www.inkscape.org/) -->

<svg
   width="210mm"
   height="297mm"
   viewBox="0 0 210 297"
   version="1.1"
   id="svg1"
   xml:space="preserve"
   inkscape:version="1.3 (0e150ed6c4, 2023-07-21)"
   sodipodi:docname="layer 1 part 1.svg"
   xmlns:inkscape="http://www.inkscape.org/namespaces/inkscape"
   xmlns:sodipodi="http://sodipodi.sourceforge.net/DTD/sodipodi-0.dtd"
   xmlns="http://www.w3.org/2000/svg"
   xmlns:svg="http://www.w3.org/2000/svg"><sodipodi:namedview
     id="namedview1"
     pagecolor="#ffffff"
     bordercolor="#000000"
     borderopacity="0.25"
     inkscape:showpageshadow="2"
     inkscape:pageopacity="0.0"
     inkscape:pagecheckerboard="0"
     inkscape:deskcolor="#d1d1d1"
     inkscape:document-units="mm"
     inkscape:zoom="1.4778115"
     inkscape:cx="516.30401"
     inkscape:cy="213.49137"
     inkscape:window-width="2560"
     inkscape:window-height="1369"
     inkscape:window-x="-8"
     inkscape:window-y="-8"
     inkscape:window-maximized="1"
     inkscape:current-layer="layer1" /><defs
     id="defs1"><clipPath
       clipPathUnits="userSpaceOnUse"
       id="clipPath1"><rect
         style="fill:#f9f9f9;stroke-width:0.264583"
         id="rect2"
         width="117.23017"
         height="294.46805"
         x="-12.659847"
         y="11.900254"
         transform="rotate(4.0823659)" /></clipPath></defs><g
     inkscape:label="Layer 1"
     inkscape:groupmode="layer"
     id="layer1"><path
       id="path5"
       style="opacity:0.4;fill:none;stroke:#000000;stroke-width:0.264583"
       d="M 52.252625 1.1332642 C 50.417197 1.1732541 48.69044 2.2883202 47.599162 3.435966 C 45.176346 5.9839228 44.423078 7.1443616 42.9519 11.630298 C 40.047876 11.583858 35.90575 12.524623 33.69045 14.594458 C 30.50301 17.616283 30.430588 21.804163 29.054557 26.364282 C 27.993772 29.879691 27.758381 33.585257 26.704313 37.106262 C 25.965389 39.574564 24.908709 44.548823 23.739119 48.199125 C 23.732419 48.219825 23.726182 48.242504 23.719482 48.263204 C 23.550556 48.787642 23.378307 49.267805 23.205302 49.724613 C 23.173322 49.808613 23.142337 49.906853 23.110217 49.988163 C 23.032537 50.185813 22.954912 50.37099 22.87664 50.55092 C 22.85597 50.59822 22.835338 50.65063 22.814628 50.696647 C 22.716078 50.916467 22.616737 51.122778 22.517489 51.310046 C 22.597569 51.375346 22.697649 51.480211 22.79189 51.573079 C 23.286194 52.097609 23.936463 53.035043 24.60625 53.979651 C 24.60835 53.983651 24.610868 53.986646 24.612968 53.989986 C 24.930399 54.528356 24.898572 56.981392 24.655859 60.199426 C 24.413152 63.41746 23.660532 65.93795 22.976892 70.319222 C 22.261355 74.904872 22.73387 77.634154 20.392554 82.394454 C 18.709228 85.816938 16.647815 91.058801 17.825785 95.751261 C 18.353184 97.852167 19.167832 99.537611 19.371427 101.29976 C 20.352334 99.663321 23.160834 97.342504 24.107056 96.207048 C 26.03978 93.887792 26.854079 88.469876 25.840283 83.013538 C 24.398446 75.253462 24.712152 66.725157 27.933179 60.312081 C 30.038952 56.119469 29.651247 56.221586 31.180526 53.713 C 31.314582 53.542612 31.447187 53.377459 31.579985 53.211739 C 31.786153 52.955769 31.994247 52.692484 32.193901 52.461914 C 32.27049 52.372614 32.343919 52.295473 32.41921 52.211283 C 32.680389 51.922115 32.935787 51.656436 33.17627 51.449056 C 33.176365 51.444056 33.17618 51.43877 33.17627 51.43407 C 33.285604 51.33957 33.392634 51.254252 33.496147 51.182922 C 33.312642 50.523234 33.15941 49.92969 33.020207 49.363912 L 33.00367 49.22852 C 32.248185 46.103386 32.063886 44.10156 31.720028 40.83575 C 31.639198 40.068035 31.564135 39.293789 31.494202 38.518579 C 31.237364 35.671492 31.099731 32.789181 31.453377 29.96768 C 31.842078 26.866519 33.32607 24.875389 34.787541 23.74377 L 37.052519 22.603788 C 39.833676 22.03725 43.779394 19.767759 44.588493 17.021183 C 44.619893 16.914447 44.646409 16.797901 44.675309 16.68632 C 44.672219 16.687805 44.669091 16.689493 44.666007 16.690971 C 45.12365 14.935568 45.299539 12.638436 45.863867 11.202934 C 48.148963 5.3902652 50.443102 2.8682159 53.250496 4.0684855 C 54.650474 4.6670263 54.575703 7.0646382 54.185323 9.2381958 C 56.997641 7.9081864 57.162865 3.653296 54.773401 1.8427816 C 53.943813 1.3187096 53.086903 1.1150892 52.252625 1.1332642 z " /></g></svg>
