<?xml version="1.0" encoding="UTF-8" standalone="no"?>
<!-- Created with Inkscape (http://www.inkscape.org/) -->

<svg
   width="210mm"
   height="297mm"
   viewBox="0 0 210 297"
   version="1.1"
   id="svg1"
   inkscape:version="1.3 (0e150ed6c4, 2023-07-21)"
   sodipodi:docname="layer 3.svg"
   xmlns:inkscape="http://www.inkscape.org/namespaces/inkscape"
   xmlns:sodipodi="http://sodipodi.sourceforge.net/DTD/sodipodi-0.dtd"
   xmlns="http://www.w3.org/2000/svg"
   xmlns:svg="http://www.w3.org/2000/svg">
  <sodipodi:namedview
     id="namedview1"
     pagecolor="#ffffff"
     bordercolor="#000000"
     borderopacity="0.25"
     inkscape:showpageshadow="2"
     inkscape:pageopacity="0.0"
     inkscape:pagecheckerboard="0"
     inkscape:deskcolor="#d1d1d1"
     inkscape:document-units="mm"
     inkscape:zoom="1.0449705"
     inkscape:cx="397.14038"
     inkscape:cy="561.25984"
     inkscape:window-width="2560"
     inkscape:window-height="1369"
     inkscape:window-x="-8"
     inkscape:window-y="-8"
     inkscape:window-maximized="1"
     inkscape:current-layer="layer1" />
  <defs
     id="defs1" />
  <g
     inkscape:label="Layer 1"
     inkscape:groupmode="layer"
     id="layer1">
    <path
       id="path8"
       style="opacity:0.4;fill:none;stroke:#1a1a1a;stroke-width:0.264583"
       d="m 52.26824,1.133425 c -1.83543,0.03999 -3.56218,1.155054 -4.65346,2.302699 -2.42282,2.54797 -3.17608,3.70839 -4.64726,8.19434 -2.90403,-0.0464 -7.04615,0.89432 -9.261456,2.96416 -3.187446,3.02183 -3.25986,7.20969 -4.635893,11.76982 -1.060787,3.51541 -1.296174,7.22097 -2.350244,10.74198 -0.738926,2.4683 -1.795602,7.44255 -2.965194,11.09286 -0.0067,0.0207 -0.01294,0.0434 -0.01964,0.0641 -0.168928,0.52444 -0.341176,1.0046 -0.514181,1.46141 -0.03198,0.084 -0.06297,0.18224 -0.09508,0.26355 -0.07768,0.19765 -0.155306,0.38283 -0.233578,0.56276 -0.02067,0.0473 -0.0413,0.0997 -0.06201,0.14572 -0.09855,0.21982 -0.197892,0.42613 -0.29714,0.6134 0.08008,0.0653 0.180159,0.17017 0.274402,0.26304 0.494304,0.52453 1.144571,1.46196 1.81436,2.40657 0.0021,0.004 0.0046,0.007 0.0067,0.0103 0.317431,0.53837 1.663575,1.84837 2.101681,5.04569 0.438756,3.20206 0.654022,3.61902 1.299662,8.1902 0.649083,4.59553 2.511004,8.9823 6.299871,12.69535 2.64368,2.59076 1.10712,5.15254 3.19671,7.05796 2.33141,2.12591 6.33408,1.6019 10.58695,1.4733 -3.36951,-1.68718 -3.55335,-4.36485 -5.5056,-7.61969 -1.10971,-1.85014 -5.90647,-0.80508 -7.9897,-4.20543 -2.488808,-4.06235 -3.982546,-8.2014 -4.431773,-14.70401 -0.323768,-4.68658 -0.527716,-5.68043 1.010791,-8.2119 0.133665,-0.16989 0.266011,-0.33448 0.398425,-0.49972 0.20617,-0.25597 0.414262,-0.51925 0.613916,-0.74982 0.07659,-0.0893 0.150018,-0.16644 0.225309,-0.25063 0.261179,-0.28917 0.516577,-0.55485 0.75706,-0.76223 9.5e-5,-0.005 -9e-5,-0.0103 0,-0.015 0.109336,-0.0945 0.216364,-0.17982 0.319877,-0.25115 -0.183505,-0.65969 -0.336737,-1.25323 -0.47594,-1.81901 l -0.01654,-0.13539 c -0.755487,-3.12514 -0.939783,-5.12696 -1.283643,-8.39277 -0.08083,-0.76772 -0.155893,-1.54196 -0.225826,-2.31717 -0.256838,-2.8471 -0.394473,-5.7294 -0.04082,-8.5509 0.609649,-4.86396 3.914634,-7.02023 5.599144,-7.36338 2.78116,-0.56653 6.7274,-2.83551 7.5365,-5.58209 0.52559,-1.7842 0.67629,-4.2967 1.27485,-5.81928 2.2851,-5.81268 4.57923,-8.33472 7.38663,-7.13445 1.39998,0.59854 1.32521,2.99615 0.93483,5.16971 2.8123,-1.33001 2.97755,-5.58489 0.58808,-7.395412 C 53.95942,1.318839 53.10251,1.11522 52.26823,1.133395 Z" />
    <path
       id="path16"
       style="opacity:0.4;fill:#0000ff;stroke:#ff0000;stroke-width:0.264583"
       d="m 61.13227,11.058434 c -8.60868,0.12659 -11.52047,3.29142 -16.07801,5.44359 -0.1264,0.0597 -0.26008,0.12779 -0.38809,0.18914 -0.0278,0.10647 -0.0469,0.22921 -0.077,0.33124 -0.8091,2.74658 -4.75534,5.01556 -7.5365,5.58209 -0.61036,0.12434 -1.43442,0.49598 -2.26497,1.13895 l -0.34882,52.60144 c 0.0564,0.0938 0.10639,0.18893 0.16381,0.28267 0.93412,1.52471 2.41251,2.14202 3.86075,2.54093 l 22.65882,3.5e-4 z"
       sodipodi:nodetypes="csccscccccc" />
    <path
       style="opacity:0.4;fill:#ff2a2a;stroke:#ff0000;stroke-width:0.264583"
       d="m 18.732631,68.576931 c -1.582866,2.79025 -3.045898,5.66489 -4.897706,8.28438 -1.257531,1.77885 -3.728258,2.88392 -4.1942275,5.01196 -0.242421,1.10712 -0.09531,2.72554 0.8927275,3.28075 1.011307,0.56828 2.518183,-0.15051 3.343419,-0.96578 1.165779,-1.15171 1.002712,-3.1219 1.421576,-4.7062 0.427659,-1.61757 0.570114,-3.31187 1.112969,-4.8945 0.822921,-2.39914 2.042647,-4.64774 3.222207,-6.89311 l 2.245023,-4.37097 z"
       id="path9"
       sodipodi:nodetypes="caaaaaaccc" />
  </g>
</svg>
