<?xml version="1.0" encoding="UTF-8" standalone="no"?>
<!-- Created with Inkscape (http://www.inkscape.org/) -->

<svg
   width="210mm"
   height="297mm"
   viewBox="0 0 210 297"
   version="1.1"
   id="svg1"
   inkscape:version="1.3 (0e150ed6c4, 2023-07-21)"
   sodipodi:docname="layer 4.svg"
   xmlns:inkscape="http://www.inkscape.org/namespaces/inkscape"
   xmlns:sodipodi="http://sodipodi.sourceforge.net/DTD/sodipodi-0.dtd"
   xmlns="http://www.w3.org/2000/svg"
   xmlns:svg="http://www.w3.org/2000/svg">
  <sodipodi:namedview
     id="namedview1"
     pagecolor="#ffffff"
     bordercolor="#000000"
     borderopacity="0.25"
     inkscape:showpageshadow="2"
     inkscape:pageopacity="0.0"
     inkscape:pagecheckerboard="0"
     inkscape:deskcolor="#d1d1d1"
     inkscape:document-units="mm"
     inkscape:zoom="1.0449705"
     inkscape:cx="245.93996"
     inkscape:cy="206.22592"
     inkscape:window-width="2560"
     inkscape:window-height="1369"
     inkscape:window-x="-8"
     inkscape:window-y="-8"
     inkscape:window-maximized="1"
     inkscape:current-layer="layer1" />
  <defs
     id="defs1" />
  <g
     inkscape:label="Layer 1"
     inkscape:groupmode="layer"
     id="layer1">
    <path
       id="path7"
       style="opacity:0.4;fill:none;stroke:#000000;stroke-width:0.264583"
       d="m 52.268127,1.1332642 c -1.835428,0.03999 -3.562183,1.1550549 -4.653462,2.3027018 -2.422818,2.5479594 -3.176083,3.7083863 -4.647262,8.194332 -2.904027,-0.0464 -7.046152,0.894322 -9.26145,2.96416 -3.187447,3.021827 -3.259854,7.209699 -4.635893,11.769824 -1.060779,3.515407 -1.296175,7.220974 -2.350244,10.74198 -0.738929,2.468298 -1.795595,7.442557 -2.965194,11.092863 -0.007,0.0207 -0.01294,0.04338 -0.01964,0.06408 -0.168919,0.524439 -0.34117,1.0046 -0.51418,1.461409 -0.032,0.084 -0.06298,0.18224 -0.09508,0.26355 -0.0777,0.19765 -0.155307,0.382827 -0.233577,0.562757 -0.0207,0.0473 -0.04131,0.09971 -0.06201,0.145727 -0.0985,0.21982 -0.1979,0.42613 -0.297139,0.613399 0.0801,0.0653 0.180151,0.170164 0.274401,0.263033 0.4943,0.52453 1.144571,1.461963 1.81436,2.406572 0.002,0.004 0.0052,0.007 0.0072,0.01034 0.317429,0.53837 0.285591,2.991403 0.04289,6.20944 -0.24271,3.218037 -0.33093,4.155941 0.31471,8.727116 0.649079,4.595526 1.561076,6.76394 4.062284,11.442196 3.538846,6.619103 1.721501,9.061247 4.807458,12.787333 1.635129,1.974298 7.766939,1.06479 10.945586,2.637048 -2.563848,-3.567066 -1.527327,-7.375805 -4.252454,-10.663432 -1.926648,-2.324317 -5.972361,-2.459235 -8.616528,-7.33857 -2.644518,-4.879965 -7.204773,-11.065953 -3.983737,-17.479036 2.105958,-4.192996 1.713962,-4.085659 3.24373,-6.594946 0.13521,-0.17186 0.269146,-0.338266 0.403076,-0.505396 0.20617,-0.25597 0.414256,-0.519255 0.613916,-0.749825 0.0766,-0.0893 0.15002,-0.166441 0.225309,-0.250631 0.26118,-0.289169 0.51657,-0.554847 0.75706,-0.762227 9e-5,-0.005 -9e-5,-0.01029 0,-0.01499 0.10933,-0.0945 0.216367,-0.179818 0.319877,-0.251148 -0.183499,-0.659689 -0.33673,-1.253231 -0.47594,-1.81901 L 33.01969,49.22852 c -0.755479,-3.125137 -0.939783,-5.126963 -1.283643,-8.39277 -0.0808,-0.767719 -0.155896,-1.541962 -0.225826,-2.317171 -0.256839,-2.847097 -0.394504,-5.729402 -0.04082,-8.550899 0.387319,-3.09019 1.861696,-5.079827 3.318144,-6.213574 l -0.348816,52.590588 c 0.0564,0.0938 0.106394,0.18893 0.163814,0.28267 0.934119,1.524709 2.412508,2.142021 3.860746,2.54093 l 22.659082,5.17e-4 0.0098,-68.110571 c -8.608672,0.126598 -11.520553,3.291427 -16.078089,5.443595 -0.120512,0.05692 -0.247478,0.121291 -0.370003,0.180351 0.455971,-1.754372 0.632372,-4.046058 1.195793,-5.479252 2.285098,-5.8126744 4.579232,-8.3347193 7.386629,-7.1344485 1.399979,0.5985414 1.325206,2.9961525 0.934827,5.1697103 2.812297,-1.3300087 2.977545,-5.584898 0.588078,-7.3954142 -0.82959,-0.5240725 -1.686498,-0.7276924 -2.520777,-0.7095174 z"
       sodipodi:nodetypes="cscccsccccccccccsscscsscccccccccccscccccccccsscccc" />
    <path
       style="opacity:0.4;fill:#ff2a2a;stroke:#ff0000;stroke-width:0.264583"
       d="m 30.937022,80.556847 c 1.37012,3.3643 1.75811,7.4078 4.28037,10.02199 1.1993,1.24302 3.21707,3.10752 4.68946,2.20448 0.99272,-0.60884 0.46964,-2.38484 0.10849,-3.49197 -0.68953,-2.11381 -3.17286,-2.49115 -4.49358,-4.0002 -2.35591,-2.69186 -4.31106,-5.7428 -6.01041,-8.89058 -1.065143,-1.97302 -2.020973,-4.5055 -2.591983,-6.20704 0.51081,3.40794 2.620243,6.93201 4.017653,10.36332 z"
       id="path11"
       sodipodi:nodetypes="aaasaaca" />
  </g>
</svg>
