<?xml version="1.0" encoding="UTF-8" standalone="no"?>
<!-- Created with Inkscape (http://www.inkscape.org/) -->

<svg
   width="210mm"
   height="297mm"
   viewBox="0 0 210 297"
   version="1.1"
   id="svg1"
   inkscape:version="1.3 (0e150ed6c4, 2023-07-21)"
   sodipodi:docname="minute hand.svg"
   xmlns:inkscape="http://www.inkscape.org/namespaces/inkscape"
   xmlns:sodipodi="http://sodipodi.sourceforge.net/DTD/sodipodi-0.dtd"
   xmlns="http://www.w3.org/2000/svg"
   xmlns:svg="http://www.w3.org/2000/svg">
  <sodipodi:namedview
     id="namedview1"
     pagecolor="#ffffff"
     bordercolor="#000000"
     borderopacity="0.25"
     inkscape:showpageshadow="2"
     inkscape:pageopacity="0.0"
     inkscape:pagecheckerboard="0"
     inkscape:deskcolor="#d1d1d1"
     inkscape:document-units="mm"
     inkscape:zoom="0.13062132"
     inkscape:cx="1489.0372"
     inkscape:cy="2101.4946"
     inkscape:window-width="2560"
     inkscape:window-height="1369"
     inkscape:window-x="-8"
     inkscape:window-y="-8"
     inkscape:window-maximized="1"
     inkscape:current-layer="layer1" />
  <defs
     id="defs1" />
  <g
     inkscape:label="Layer 1"
     inkscape:groupmode="layer"
     id="layer1">
    <path
       id="rect3"
       style="opacity:0.4;fill:#1a1a1a;stroke-width:0.264583"
       d="m 104.89902,-248.70832 a 50.130436,50.130436 0 0 0 -50.13027,50.13028 50.130436,50.130436 0 0 0 29.72015,45.75483 v 6.93497 H 73.78774 69.0919 v 18.97817 h 12.39356 l 3.93051,9.68985 c -4.88658,6.20366 -18.04278,10.62948 -0.93844,24.5277 -3.42224,6.92482 -17.10928,9.67909 -0.83974,24.60367 l -13.18318,19.99516 9.67331,9.12709 2.13062,35.93373 C 80.62618,7.74017 78.59983,18.31668 84.38296,32.7975 l -3.89072,1.69395 0.54416,9.17205 c 17.41272,6.47141 25.013,21.83502 25.01759,36.63446 -0.0391,13.04847 -6.32253,25.2899 -16.90181,32.92822 l 5.47925,92.40418 h -7.93802 c 0,0 5.61222,24.51864 6.87917,36.99877 10.21197,100.59413 5.61465,303.28278 5.61465,303.28278 h 11.4241 c 0,0 -4.59689,-202.68866 5.61517,-303.28278 1.26692,-12.48016 6.87916,-36.99877 6.87916,-36.99877 h -7.9375 c 0,0 -0.19835,-66.25434 7.04608,-98.29426 3.79437,-16.78116 6.10087,-33.09947 1.44178,-44.84584 l -8.5571,-28.97239 1.72392,0.0961 -0.56379,-1.92754 1.9079,0.24288 -0.58447,-2.08772 c 2.59934,-6.16719 1.20845,-15.12991 -0.32297,-18.45676 l 14.67507,-25.51265 -2.98638,-42.24084 c 29.56129,-33.53627 14.59877,-57.40116 4.36097,-70.54143 h 6.32313 v -18.97817 h -3.62045 -10.70219 v -6.93497 a 50.130436,50.130436 0 0 0 29.72015,-45.75483 50.130436,50.130436 0 0 0 -50.13079,-50.13028 z m -0.43563,132.07515 c 12.56713,1e-5 22.7548,10.41419 22.75468,23.26059 -1.5e-4,12.84621 -10.18774,23.26007 -22.75468,23.26008 -2.95935,-0.016 -5.88724,-0.62193 -8.61963,-1.78387 4.64795,-2.2757 7.60259,-6.99108 7.62331,-12.16618 -0.001,-3.45941 -1.32032,-6.78843 -3.68867,-9.31003 2.36834,-2.5216 3.68731,-5.85063 3.68867,-9.31002 -8.2e-4,-5.16989 -2.93139,-9.89274 -7.56337,-12.18892 2.71523,-1.14654 5.62196,-1.74477 8.55969,-1.76165 z m 13.50563,108.4249 -11.35744,20.55895 c 3.68337,5.56776 4.60825,15.75707 -1.88516,17.47542 -5.9819,1.58303 -11.98077,-7.0917 -11.93467,-12.48089 0.0954,-11.17067 8.74687,-24.25388 25.17727,-25.55348 z" />
  </g>
</svg>
