<?xml version="1.0" encoding="UTF-8" standalone="no"?>
<!-- Created with Inkscape (http://www.inkscape.org/) -->

<svg
   width="210mm"
   height="297mm"
   viewBox="0 0 210 297"
   version="1.1"
   id="svg1"
   xml:space="preserve"
   inkscape:version="1.3 (0e150ed6c4, 2023-07-21)"
   sodipodi:docname="roman numeral 6.svg"
   xmlns:inkscape="http://www.inkscape.org/namespaces/inkscape"
   xmlns:sodipodi="http://sodipodi.sourceforge.net/DTD/sodipodi-0.dtd"
   xmlns="http://www.w3.org/2000/svg"
   xmlns:svg="http://www.w3.org/2000/svg"><sodipodi:namedview
     id="namedview1"
     pagecolor="#ffffff"
     bordercolor="#000000"
     borderopacity="0.25"
     inkscape:showpageshadow="2"
     inkscape:pageopacity="0.0"
     inkscape:pagecheckerboard="0"
     inkscape:deskcolor="#d1d1d1"
     inkscape:document-units="mm"
     inkscape:zoom="8.359764"
     inkscape:cx="30.443443"
     inkscape:cy="30.802305"
     inkscape:window-width="2560"
     inkscape:window-height="1369"
     inkscape:window-x="-8"
     inkscape:window-y="-8"
     inkscape:window-maximized="1"
     inkscape:current-layer="layer1"
     showgrid="false" /><defs
     id="defs1" /><g
     inkscape:label="Layer 1"
     inkscape:groupmode="layer"
     id="layer1"><path
       id="path8"
       style="fill:#000000"
       d="m 1.2813729,9.0899635 c 0,-0.14552 0.238125,-0.26459 0.529167,-0.26459 0.518791,0 0.529167,-0.17639 0.529167,-8.99583003 0,-8.81943997 -0.01038,-8.99582997 -0.529167,-8.99582997 -0.366551,0 -0.535209,0.18294 -0.548828,0.59531 -0.01081,0.32742 -0.06007,0.83344 -0.109451,1.12448 -0.04939,0.29104 -0.27511196,2.07698 -0.50161696,3.96875 -1.081939,9.03639 -1.523607,12.42899 -1.632215,12.5376 -0.25177204,0.25177 -0.08928,1.0702395 -2.25269424,-11.34698 -0.418335,-2.40109 -0.855854,-4.89662 -0.972265,-5.54562 -0.168325,-0.93843 -0.34594,-1.21899 -0.867605,-1.37047 -0.417631,-0.12127 -0.08421,-0.17319 0.917704,-0.14292 l 1.573654,0.0476 0.977674,5.42396 c 0.5377202,2.98317997 0.87730177,4.9543233 0.90935777,5.0270833 0.03206,0.0728 0.37224,-1.83885333 0.755964,-4.8947933 l 0.697681,-5.55625 2.37555743,-0.036 c 1.2369434,-0.018745 1.981067,0.0182 1.653645,0.0845 l -0.595312,0.12059 v 8.97742997 c 0,8.80104003 0.0104,8.97743003 0.529167,8.97743003 0.291041,0 0.529166,0.11907 0.529166,0.26459 0,0.15287 -0.837847,0.26458 -1.984375,0.26458 -1.146528,0 -1.984375,-0.11171 -1.984375,-0.26458 z"
       sodipodi:nodetypes="ssssccccsssccccccsccssssss" /></g></svg>
