<?xml version="1.0" encoding="UTF-8" standalone="no"?>
<!-- Created with Inkscape (http://www.inkscape.org/) -->

<svg
   width="210mm"
   height="297mm"
   viewBox="0 0 210 297"
   version="1.1"
   id="svg1"
   xml:space="preserve"
   inkscape:version="1.3 (0e150ed6c4, 2023-07-21)"
   sodipodi:docname="roman numeral 10.svg"
   xmlns:inkscape="http://www.inkscape.org/namespaces/inkscape"
   xmlns:sodipodi="http://sodipodi.sourceforge.net/DTD/sodipodi-0.dtd"
   xmlns="http://www.w3.org/2000/svg"
   xmlns:svg="http://www.w3.org/2000/svg"><sodipodi:namedview
     id="namedview1"
     pagecolor="#ffffff"
     bordercolor="#000000"
     borderopacity="0.25"
     inkscape:showpageshadow="2"
     inkscape:pageopacity="0.0"
     inkscape:pagecheckerboard="0"
     inkscape:deskcolor="#d1d1d1"
     inkscape:document-units="mm"
     inkscape:zoom="8.359764"
     inkscape:cx="36.185232"
     inkscape:cy="26.256722"
     inkscape:window-width="2560"
     inkscape:window-height="1369"
     inkscape:window-x="-8"
     inkscape:window-y="-8"
     inkscape:window-maximized="1"
     inkscape:current-layer="layer1"
     showgrid="false" /><defs
     id="defs1" /><g
     inkscape:label="Layer 1"
     inkscape:groupmode="layer"
     id="layer1"><path
       style="fill:#000000"
       d="m -3.57188,9.1377369 c 0,-0.13339 -0.013548,-0.28222 0.1246315,-0.33072 0.13817,-0.0485 0.77951,-1.76374 1.42519,-3.81163 l 1.3005785,-3.72343 -0.89489,-5.00782 c -0.49219,-2.7543 -0.8954,-5.08883 -0.89603,-5.18785 -6.3e-4,-0.099 -0.26903,-0.23164 -0.59645,-0.2947 -0.32743,-0.0631 0.0752,-0.13088 0.89479,-0.1507 l 1.49012,-0.036 0.4373,2.57969 c 0.77144,4.5508 0.56200153,4.51669 1.7215215,0.76091 0.90326,-2.92575 1.10034,-3.33679 1.58701,-3.30991 0.38216,0.0211 0.5504885,0.066 0.2602485,0.1438 -0.28254,0.0757 -0.6688215,1.31847 -1.4250615,3.75977 L 0.72744847,-1.7292442 1.43239,2.9181569 c 1.10023,6.2747 1.00719,5.93298 1.61536,5.93298 0.28827,0 0.52413,0.0987 0.52413,0.21931 0,0.12062 -0.64145,0.24526 -1.42545,0.27697 l -1.42544,0.0577 -0.42031,-2.32749 c -0.23117,-1.28013 -0.49909,-2.84092 -0.59538,-3.46845 -0.0963,-0.62752 -0.13967153,-0.5150633 -0.25112153,-0.3968733 -0.11146,0.1182 -0.65073997,1.1442533 -1.19839997,2.9268833 -0.62241,2.02598 -1.12796,3.24115 -1.3484,3.24115 -0.19396,0 -0.4792585,-0.10914 -0.4792585,-0.24254 z"
       id="path16"
       sodipodi:nodetypes="sccccsccccccccccssccccscsss" /></g></svg>
