<?xml version="1.0" encoding="UTF-8" standalone="no"?>
<!-- Created with Inkscape (http://www.inkscape.org/) -->

<svg
   width="210mm"
   height="297mm"
   viewBox="0 0 210 297"
   version="1.1"
   id="svg1"
   xml:space="preserve"
   inkscape:version="1.3 (0e150ed6c4, 2023-07-21)"
   sodipodi:docname="roman numeral 11.svg"
   xmlns:inkscape="http://www.inkscape.org/namespaces/inkscape"
   xmlns:sodipodi="http://sodipodi.sourceforge.net/DTD/sodipodi-0.dtd"
   xmlns="http://www.w3.org/2000/svg"
   xmlns:svg="http://www.w3.org/2000/svg"><sodipodi:namedview
     id="namedview1"
     pagecolor="#ffffff"
     bordercolor="#000000"
     borderopacity="0.25"
     inkscape:showpageshadow="2"
     inkscape:pageopacity="0.0"
     inkscape:pagecheckerboard="0"
     inkscape:deskcolor="#d1d1d1"
     inkscape:document-units="mm"
     inkscape:zoom="8.359764"
     inkscape:cx="33.075096"
     inkscape:cy="17.88328"
     inkscape:window-width="2560"
     inkscape:window-height="1369"
     inkscape:window-x="-8"
     inkscape:window-y="-8"
     inkscape:window-maximized="1"
     inkscape:current-layer="layer1"
     showgrid="false" /><defs
     id="defs1" /><g
     inkscape:label="Layer 1"
     inkscape:groupmode="layer"
     id="layer1"><path
       id="path17"
       style="fill:#000000"
       d="m -5.2916651,9.1280769 c 0,-0.14552 -0.021988,-0.26459 0.1058816,-0.26459 0.2956699,0 0.5792,-0.73639 1.73741,-4.51251 l 0.93775,-3.0889596 -0.5361715,-3.7902104 c -1.1175701,-6.44455 -1.1468901,-6.55354 -1.79721,-6.67985 -0.31898,-0.062 0.0948,-0.12887 0.91947,-0.14869 l 1.4994301,-0.036 0.2630099,1.25677 c 0.1446501,0.69123 0.41287,2.20365 0.59605,3.36095 0.3780401,2.38851 0.037579,2.3832647 1.49499158,-1.77201 l 0.87049,-2.84283 2.37555842,0.0346 c 1.2369301,0.019 1.98107,0.0862 1.65365,0.14926 l -0.59531,0.11466 v 8.97743001 c 0,8.80103999 0.0104,8.97742999 0.52916,8.97742999 0.29104,0 0.52917,0.12284 0.52917,0.27298 0,0.17633 -1.10076,0.24659 -3.10886,0.19844 l -3.10884995,-0.0745 -0.45220005,-2.38125 c -0.96435,-5.07816 -0.6283815,-4.97592 -1.9053515,-0.99219 -0.7509,2.34257 -1.2494501,3.50573 -1.5026101,3.50573 -0.20838,0 -0.5054585,-0.11906 -0.5054585,-0.26458 z M 2.3812451,-0.15074309 V -9.1649831 l -0.5873501,0.0845 c -0.5047599,0.0727 -0.6195815,0.58509 -1.59038148,3.64446 l -1.12963995,3.6548589 0.79663148,5.1410311 c 0.50778,2.87979 0.92324,5.29619 0.92324,5.36978 0,0.0736 0.35718995,0.13379 0.79374995,0.13379 h 0.7937501 z"
       sodipodi:nodetypes="ssccccccccsccccsssccccsssccccccsscc" /></g></svg>
