<?xml version="1.0" encoding="UTF-8" standalone="no"?>
<!-- Created with Inkscape (http://www.inkscape.org/) -->

<svg
   width="210mm"
   height="297mm"
   viewBox="0 0 210 297"
   version="1.1"
   id="svg1"
   xml:space="preserve"
   inkscape:version="1.3 (0e150ed6c4, 2023-07-21)"
   sodipodi:docname="roman numeral 9.svg"
   xmlns:inkscape="http://www.inkscape.org/namespaces/inkscape"
   xmlns:sodipodi="http://sodipodi.sourceforge.net/DTD/sodipodi-0.dtd"
   xmlns="http://www.w3.org/2000/svg"
   xmlns:svg="http://www.w3.org/2000/svg"><sodipodi:namedview
     id="namedview1"
     pagecolor="#ffffff"
     bordercolor="#000000"
     borderopacity="0.25"
     inkscape:showpageshadow="2"
     inkscape:pageopacity="0.0"
     inkscape:pagecheckerboard="0"
     inkscape:deskcolor="#d1d1d1"
     inkscape:document-units="mm"
     inkscape:zoom="8.359764"
     inkscape:cx="47.190327"
     inkscape:cy="6.3997022"
     inkscape:window-width="2560"
     inkscape:window-height="1369"
     inkscape:window-x="-8"
     inkscape:window-y="-8"
     inkscape:window-maximized="1"
     inkscape:current-layer="layer1"
     showgrid="false" /><defs
     id="defs1" /><g
     inkscape:label="Layer 1"
     inkscape:groupmode="layer"
     id="layer1"><path
       id="path14"
       style="fill:#000000"
       d="m -5.29167,9.1242511 c 0,-0.14552 0.23813,-0.26459 0.52917,-0.26459 0.51877,0 0.52917,-0.17639 0.52917,-8.97742905 V -9.0951979 l -0.59531,-0.11466 c -0.32743,-0.0631 0.84396,-0.13088 2.60307,-0.1507 l 3.19839,-0.036 0.47697,2.84427 c 0.54824,3.26928 0.6496715,3.3786433 0.9281415,2.4243533 1.36094,-4.66383 1.82565,-5.2678033 2.36513,-5.2379333 0.38272,0.0212 0.5501785,0.0657 0.2585985,0.14386 -0.28175,0.0755 -0.7356808,1.4114889 -1.4907808,3.8238089 l -1.1634196,3.6157 0.8317504,4.9428901 c 0.47487,2.77082 0.91905,5.18667 0.98707,5.36857 0.068,0.1819 0.34906,0.33073 0.62453,0.33073 0.27547,0 0.50086,0.11907 0.50086,0.26459 0,0.14552 -0.64194,0.26458 -1.42653,0.26458 -1.64278,0 -1.44277,0.37087 -2.17603,-4.0349 -0.26036,-1.56435 -0.4119615,-2.3144123 -0.4916215,-2.3135823 -0.0797,8.4e-4 -0.61009003,1.0194823 -1.17873003,2.9104223 l -1.03387997,3.43806 H -3.21669 c -1.20693,0 -2.07498,-0.11069 -2.07498,-0.26458 z m 4.89906153,-3.90261 C 0.24092153,3.2207311 0.86738,1.2859721 0.8448,0.92216205 0.8222,0.55836205 0.42337,-1.8526479 -0.04152,-4.4356479 l -0.84527,-4.69635 h -0.74723 -0.74723 v 8.99582995 c 0,8.52387905 -0.037999,8.93252985 0.4183908,8.93252985 0.38666,0 0.6456307,-0.6544208 1.57025073,-3.5747208 z"
       sodipodi:nodetypes="sssccccccccccccsssccccsssccccccssc" /></g></svg>
