<?xml version="1.0" encoding="UTF-8" standalone="no"?>
<!-- Created with Inkscape (http://www.inkscape.org/) -->

<svg
   width="210mm"
   height="297mm"
   viewBox="0 0 210 297"
   version="1.1"
   id="svg1"
   xml:space="preserve"
   inkscape:version="1.3 (0e150ed6c4, 2023-07-21)"
   sodipodi:docname="roman numeral 4.svg"
   xmlns:inkscape="http://www.inkscape.org/namespaces/inkscape"
   xmlns:sodipodi="http://sodipodi.sourceforge.net/DTD/sodipodi-0.dtd"
   xmlns="http://www.w3.org/2000/svg"
   xmlns:svg="http://www.w3.org/2000/svg"><sodipodi:namedview
     id="namedview1"
     pagecolor="#ffffff"
     bordercolor="#000000"
     borderopacity="0.25"
     inkscape:showpageshadow="2"
     inkscape:pageopacity="0.0"
     inkscape:pagecheckerboard="0"
     inkscape:deskcolor="#d1d1d1"
     inkscape:document-units="mm"
     inkscape:zoom="8.359764"
     inkscape:cx="50.420084"
     inkscape:cy="20.156071"
     inkscape:window-width="2560"
     inkscape:window-height="1369"
     inkscape:window-x="-8"
     inkscape:window-y="-8"
     inkscape:window-maximized="1"
     inkscape:current-layer="layer1"
     showgrid="false" /><defs
     id="defs1" /><g
     inkscape:label="Layer 1"
     inkscape:groupmode="layer"
     id="layer1"><path
       id="path7"
       style="fill:#000000"
       d="m -5.507129,9.1134201 c 0,-0.14552 0.238125,-0.26459 0.529167,-0.26459 0.51877,0 0.529167,-0.17639 0.529167,-8.97742999 V -9.1060309 l -0.595313,-0.11903 c -0.327422,-0.0655 0.890217,-0.10352 2.705865,-0.0845 l 3.30117656,0.0345 0.93668304,5.340301 c 0.515176,2.93716001 0.8754685,4.87650333 0.9553815,4.9564133 0.07991,0.0799 0.421193,-1.67498329 0.7584,-4.5465333 0.337206,-2.871561 0.669477,-5.4014906 0.73838,-5.5833906 0.0689,-0.1819 0.5070265,-0.2852704 0.8188795,-0.2683904 0.402018,0.0218 0.440642,0.0643 0.132739,0.14616 -0.3029,0.0805 -0.482934,0.53147 -0.595147,1.49066 -0.521845,4.460731 -1.763176,14.776201 -1.892761,15.728851 -0.08413,0.61846 -0.241508,1.12448 -0.349735,1.12448 -0.108228,0 -0.347005,-0.92274 -0.530615,-2.05052 -0.183611,-1.12779 -0.79143,-4.61037 -1.35070864,-7.73906999 -0.559278,-3.12870001 -1.117418,-6.28385101 -1.24031,-7.01146101 -0.199355,-1.18031 -0.30174,-1.33194 -0.94984396,-1.40663 l -0.726405,-0.0837 v 9.01341101 c 0,7.83551999 0.05186,9.01339999 0.396875,9.01339999 0.218282,0 0.396875,0.11907 0.396875,0.26459 0,0.15287 -0.837847,0.26458 -1.984375,0.26458 -1.146528,0 -1.984375,-0.11171 -1.984375,-0.26458 z"
       sodipodi:nodetypes="sssccccccccccccssccccssssss" /></g></svg>
