<?xml version="1.0" encoding="UTF-8" standalone="no"?>
<!-- Created with Inkscape (http://www.inkscape.org/) -->

<svg
   width="210mm"
   height="297mm"
   viewBox="0 0 210 297"
   version="1.1"
   id="svg1"
   xml:space="preserve"
   inkscape:version="1.3 (0e150ed6c4, 2023-07-21)"
   sodipodi:docname="roman numeral 3.svg"
   xmlns:inkscape="http://www.inkscape.org/namespaces/inkscape"
   xmlns:sodipodi="http://sodipodi.sourceforge.net/DTD/sodipodi-0.dtd"
   xmlns="http://www.w3.org/2000/svg"
   xmlns:svg="http://www.w3.org/2000/svg"><sodipodi:namedview
     id="namedview1"
     pagecolor="#ffffff"
     bordercolor="#000000"
     borderopacity="0.25"
     inkscape:showpageshadow="2"
     inkscape:pageopacity="0.0"
     inkscape:pagecheckerboard="0"
     inkscape:deskcolor="#d1d1d1"
     inkscape:document-units="mm"
     inkscape:zoom="1.0449705"
     inkscape:cx="298.57302"
     inkscape:cy="246.41844"
     inkscape:window-width="2560"
     inkscape:window-height="1369"
     inkscape:window-x="-8"
     inkscape:window-y="-8"
     inkscape:window-maximized="1"
     inkscape:current-layer="layer1"
     showgrid="false" /><defs
     id="defs1" /><g
     inkscape:label="Layer 1"
     inkscape:groupmode="layer"
     id="layer1"><path
       id="path4"
       style="fill:#000000"
       d="m -5.2916663,9.0920969 c 0,-0.14552 0.238125,-0.26459 0.529166,-0.26459 0.51877,0 0.5291671,-0.17639 0.5291671,-8.97742999 V -9.1273531 l -0.595313,-0.11466 c -0.3274221,-0.0631 1.8454689,-0.11466 4.82864595,-0.11466 2.98317755,0 5.15606745,0.0516 4.82864555,0.11466 l -0.595312,0.11466 v 8.97743001 c 0,8.80103999 0.0104,8.97742999 0.529166,8.97742999 0.291042,0 0.529167,0.11907 0.529167,0.26459 0,0.16757 -1.940278,0.26458 -5.29166655,0.26458 -3.35138895,0 -5.29166595,-0.097 -5.29166605,-0.26458 z m 4.233333,-9.26041999 V -9.1641531 h -0.6614579 -0.6614591 v 8.99583001 8.99582999 h 0.6614591 0.6614579 z m 3.4395825,-0.0176 V -9.1993331 l -0.7276039,0.0837 -0.72760405,0.0837 -0.069669,8.92969001 -0.06967,8.92967999 h 0.79726955 0.797269 z" /></g></svg>
