<?xml version="1.0" encoding="UTF-8" standalone="no"?>
<!-- Created with Inkscape (http://www.inkscape.org/) -->

<svg
   width="210mm"
   height="297mm"
   viewBox="0 0 210 297"
   version="1.1"
   id="svg1"
   xml:space="preserve"
   inkscape:version="1.3 (0e150ed6c4, 2023-07-21)"
   sodipodi:docname="roman numerals.svg"
   xmlns:inkscape="http://www.inkscape.org/namespaces/inkscape"
   xmlns:sodipodi="http://sodipodi.sourceforge.net/DTD/sodipodi-0.dtd"
   xmlns="http://www.w3.org/2000/svg"
   xmlns:svg="http://www.w3.org/2000/svg"><sodipodi:namedview
     id="namedview1"
     pagecolor="#ffffff"
     bordercolor="#000000"
     borderopacity="0.25"
     inkscape:showpageshadow="2"
     inkscape:pageopacity="0.0"
     inkscape:pagecheckerboard="0"
     inkscape:deskcolor="#d1d1d1"
     inkscape:document-units="mm"
     inkscape:zoom="1.0449705"
     inkscape:cx="298.57302"
     inkscape:cy="490.44447"
     inkscape:window-width="2560"
     inkscape:window-height="1369"
     inkscape:window-x="-8"
     inkscape:window-y="-8"
     inkscape:window-maximized="1"
     inkscape:current-layer="layer1"
     showgrid="false" /><defs
     id="defs1" /><g
     inkscape:label="Layer 1"
     inkscape:groupmode="layer"
     id="layer1"><path
       style="fill:#000000"
       d="m 5.8882694,125.40696 c -1.543638,-8.80716 -1.604186,-9.05688 -2.240759,-9.24182 -0.414316,-0.12036 -0.07458,-0.17263 0.926386,-0.14252 l 1.580637,0.0476 0.970366,5.42396 c 0.533701,2.98318 0.996291,5.48349 1.027977,5.55625 0.03169,0.0728 0.375436,-2.36705 0.763888,-5.4218 0.640432,-5.03628 0.754903,-5.56178 1.2278446,-5.63661 0.325866,-0.0516 0.406407,-0.002 0.214652,0.13102 -0.172797,0.12024 -0.5556626,2.29432 -0.8761496,4.97516 -0.313079,2.61889 -0.800031,6.60708 -1.082116,8.86265 -0.282084,2.25557 -0.512894,4.19034 -0.512912,4.29948 -1.8e-5,0.10914 -0.09302,0.19844 -0.20667,0.19844 -0.11365,0 -0.920565,-4.07329 -1.793144,-9.05176 z"
       id="path22" /><path
       id="path19"
       style="fill:#000000"
       d="m 3.2049704,283.38262 c 0,-0.14552 0.0971,-0.30427 0.21576,-0.35277 0.24847,-0.10157 2.13294,-5.88795 2.33481,-7.16918 0.13672,-0.86779 -1.38156,-10.23619 -1.71048,-10.55427 -0.0983,-0.095 -0.41676,-0.23004 -0.7078,-0.30004 -0.29104,-0.07 0.19086,-0.14109 1.07088,-0.15798 l 1.60006,-0.0307 0.47996,2.84427 c 0.26397,1.56435 0.56261,2.99648 0.66362,3.18251 0.10319,0.19003 0.61451,-1.05623 1.16695,-2.84427 l 0.98329,-3.18251 3.8967896,0.036 c 2.14323,0.0198 3.62889,0.0876 3.30147,0.1507 l -0.59531,0.11466 v 8.97743 c 0,8.80104 0.0104,8.97743 0.52917,8.97743 0.29104,0 0.52916,0.11907 0.52916,0.26459 0,0.16658 -1.76221,0.26458 -4.75746,0.26458 -4.7179496,0 -4.7585596,-0.005 -4.8901496,-0.59531 -0.073,-0.32742 -0.32065,-1.66688 -0.55038,-2.97657 -0.66261,-3.77756 -0.6335,-3.77722 -1.82255,-0.0211 -0.59519,1.88018 -1.22968,3.46768 -1.40998,3.52778 -0.18029,0.0601 -0.32781,-0.01 -0.32781,-0.15532 z M 10.6977,274.07811 c 0.047,-8.70312 0.0383,-8.86354 -0.48127,-8.86354 -0.4444296,0 -0.7175396,0.56849 -1.7054696,3.55002 l -1.17631,3.55003 0.87756,5.18122 c 0.48265,2.84968 0.93394,5.27735 1.00285,5.39483 0.0689,0.11748 0.41992,0.17701 0.78002,0.13229 l 0.6547196,-0.0813 z m 3.35519,0 v -8.99583 h -0.65356 -0.65355 l -0.074,3.37343 c -0.0407,1.85539 -0.0398,5.90352 0.002,8.99584 l 0.0762,5.62239 h 0.65143 0.65144 z" /><path
       id="path17"
       style="fill:#000000"
       d="m 3.3724721,260.804 c 0,-0.14552 0.10461,-0.26459 0.23248,-0.26459 0.29567,0 0.5792,-0.73639 1.73741,-4.51251 l 0.93775,-3.05731 -0.66277,-3.82186 c -1.11757,-6.44455 -1.14689,-6.55354 -1.79721,-6.67985 -0.31898,-0.062 0.0948,-0.12887 0.91947,-0.14869 l 1.49943,-0.036 0.26301,1.25677 c 0.14465,0.69123 0.41287,2.20365 0.59605,3.36095 0.37804,2.38851 0.33232,2.43847 1.62159,-1.77201 l 0.87049,-2.84283 2.2489599,0.0346 c 1.23693,0.019 1.98107,0.0862 1.65365,0.14926 l -0.59531,0.11466 v 8.97743 c 0,8.80104 0.0104,8.97743 0.52916,8.97743 0.29104,0 0.52917,0.12284 0.52917,0.27298 0,0.17633 -1.10076,0.24659 -3.10886,0.19844 l -3.1088499,-0.0745 -0.4522,-2.38125 c -0.96435,-5.07816 -0.75498,-4.97592 -2.03195,-0.99219 -0.7509,2.34257 -1.24945,3.50573 -1.50261,3.50573 -0.20838,0 -0.37886,-0.11906 -0.37886,-0.26458 z m 7.6729099,-9.27882 v -9.01424 l -0.58735,0.0845 c -0.5047599,0.0727 -0.7461799,0.58509 -1.7169799,3.64446 l -1.12964,3.55991 0.92323,5.23598 c 0.50778,2.87979 0.92324,5.29619 0.92324,5.36978 0,0.0736 0.35719,0.13379 0.7937499,0.13379 h 0.79375 z" /><path
       style="fill:#000000"
       d="m 5.9667561,237.53188 c 0,-0.13339 0.11305,-0.28222 0.25123,-0.33072 0.13817,-0.0485 0.77951,-1.76374 1.42519,-3.81163 l 1.17398,-3.72343 -0.89489,-5.00782 c -0.49219,-2.7543 -0.8954,-5.08883 -0.89603,-5.18785 -6.3e-4,-0.099 -0.26903,-0.23164 -0.59645,-0.2947 -0.32743,-0.0631 0.0752,-0.13088 0.89479,-0.1507 l 1.49012,-0.036 0.4373,2.57969 c 0.7714399,4.5508 0.6886,4.51669 1.8481199,0.76091 0.90326,-2.92575 1.10034,-3.33679 1.58701,-3.30991 0.38216,0.0211 0.42389,0.066 0.13365,0.1438 -0.28254,0.0757 -0.79542,1.31847 -1.55166,3.75977 l -1.12963,3.64666 0.83154,4.74235 c 1.10023,6.2747 1.00719,5.93298 1.61536,5.93298 0.28827,0 0.52413,0.0987 0.52413,0.21931 0,0.12062 -0.64145,0.24526 -1.42545,0.27697 l -1.42544,0.0577 -0.4203099,-2.32749 c -0.23117,-1.28013 -0.49909,-2.84092 -0.59538,-3.46845 -0.0963,-0.62752 -0.26627,-1.04423 -0.37772,-0.92604 -0.11146,0.1182 -0.65074,1.67342 -1.1984,3.45605 -0.62241,2.02598 -1.12796,3.24115 -1.3484,3.24115 -0.19396,0 -0.35266,-0.10914 -0.35266,-0.24254 z"
       id="path16" /><path
       id="path14"
       style="fill:#000000"
       d="m 7.0559511,216.49449 c 0,-0.14552 0.23813,-0.26459 0.52917,-0.26459 0.51877,0 0.52917,-0.17639 0.52917,-8.97743 v -8.97743 l -0.59531,-0.11466 c -0.32743,-0.0631 0.84396,-0.13088 2.6030699,-0.1507 l 3.19839,-0.036 0.47697,2.84427 c 0.54824,3.26928 0.77627,3.90781 1.05474,2.95352 1.36094,-4.66383 1.82565,-5.79697 2.36513,-5.7671 0.38272,0.0212 0.42358,0.0657 0.132,0.14386 -0.28175,0.0755 -0.79898,1.31654 -1.55408,3.72886 l -1.13177,3.6157 0.8634,5.03784 c 0.47487,2.77082 0.91905,5.18667 0.98707,5.36857 0.068,0.1819 0.34906,0.33073 0.62453,0.33073 0.27547,0 0.50086,0.11907 0.50086,0.26459 0,0.14552 -0.64194,0.26458 -1.42653,0.26458 -1.64278,0 -1.44277,0.37087 -2.17603,-4.0349 -0.26036,-1.56435 -0.53856,-2.84358 -0.61822,-2.84275 -0.0797,8.4e-4 -0.61009,1.54865 -1.17873,3.43959 l -1.03388,3.43806 H 9.1309311 c -1.20693,0 -2.07498,-0.11069 -2.07498,-0.26458 z m 5.0256599,-3.90261 c 0.63353,-2.00091 1.13339,-3.93567 1.11081,-4.29948 -0.0226,-0.3638 -0.42143,-2.77481 -0.88632,-5.35781 l -0.84527,-4.69635 h -0.74723 -0.7472299 v 8.99583 c 0,8.52388 0.0253,8.99583 0.4816899,8.99583 0.38666,0 0.70893,-0.71772 1.63355,-3.63802 z" /><path
       id="path11"
       style="fill:#000000"
       d="m 6.8905545,194.71953 c 0,-0.14552 0.29924,-0.26459 0.66497,-0.26459 h 0.66498 l -0.0697,-8.92968 c -0.0676,-8.66322 -0.0851,-8.92969 -0.5873,-8.92969 -0.48235,0 -0.59053,0.60716 -1.5875,8.9096 -0.58843,4.90028 -1.15337,8.99222 -1.25543,9.0932 -0.10206,0.10098 -0.24834,-0.0983 -0.32506,-0.44294 -0.18992,-0.85295 -3.06289,-17.24956 -3.06198,-17.47531 4e-4,-0.099 -0.26716,-0.23164 -0.59459003,-0.2947 -0.32742,-0.0631 0.0684,-0.13088 0.87953003,-0.1507 l 1.47483,-0.036 0.85886,4.82865 c 0.47237,2.65575 0.92432,5.22115 1.00432,5.70088 0.08,0.47973 0.18054,0.83691 0.22342,0.79375 0.0429,-0.0432 0.32511,-2.10255 0.6272,-4.5764 0.30208,-2.47386 0.61719,-5.00393 0.70024,-5.6224 l 0.15101,-1.12448 5.4738895,0.036 c 3.01064,0.0198 5.206,0.0876 4.87858,0.1507 l -0.59531,0.11466 v 8.97743 c 0,8.80104 0.0104,8.97743 0.52916,8.97743 0.29105,0 0.52917,0.11907 0.52917,0.26459 0,0.16757 -1.94028,0.26458 -5.29167,0.26458 -3.3513895,0 -5.2916595,-0.097 -5.2916595,-0.26458 z m 4.4979095,-9.27799 v -9.01341 l -0.7276,0.0837 -0.7275995,0.0837 -0.0573,8.92969 -0.0573,8.92968 h 0.7848795 0.78488 z m 3.175,0.0176 v -8.99583 h -0.66145 -0.66146 v 8.99583 8.99583 h 0.66146 0.66145 z" /><path
       id="path9"
       style="fill:#000000"
       d="m 8.4633652,174.44626 c 0,-0.13589 0.238125,-0.24708 0.529167,-0.24708 0.51879,0 0.529166,-0.17639 0.529166,-8.99583 0,-7.65616 -0.05678,-8.99583 -0.38126,-8.99583 -0.209693,0 -0.44013,0.0952 -0.512081,0.21167 -0.07195,0.11642 -0.556669,3.83712 -1.077149,8.26823 -1.098139,9.34901 -1.17766,9.88965 -1.420008,9.65422 -0.09976,-0.0969 -0.895752,-4.18164 -1.768877,-9.0772 -1.549508,-8.68799 -1.60333,-8.90541 -2.248958,-9.08488 -0.463904,-0.12896 -0.211746,-0.19176 0.844281,-0.21025 0.828156,-0.0145 1.557992,0.0629 1.621856,0.17206 0.06386,0.10914 0.501575,2.46063 0.97269,5.22552 0.471116,2.7649 0.941107,5.1839 1.044426,5.37556 0.103318,0.19166 0.456056,-1.95147 0.783862,-4.7625 0.327806,-2.81104 0.65405,-5.31933 0.724986,-5.574 0.115786,-0.41567 0.526239,-0.46032 4.0137498,-0.43664 2.136631,0.0145 3.587121,0.10917 3.223321,0.21036 -0.36381,0.1012 -0.64956,0.32746 -0.635,0.5028 0.0145,0.17534 0.0443,4.18833 0.0661,8.91775 0.0392,8.49188 0.0465,8.59896 0.58447,8.59896 0.29963,0 0.47114,0.11917 0.38112,0.26481 -0.2099,0.33963 -7.2759018,0.32242 -7.2759018,-0.0177 z m 4.4352898,-9.17676 -0.0697,-8.92969 -0.727609,-0.0837 -0.727604,-0.0837 v 9.01341 9.0134 h 0.797269 0.797274 z" /><path
       id="path8"
       style="fill:#000000"
       d="m 7.583916,154.7144 c 0,-0.14552 0.238125,-0.26459 0.529167,-0.26459 0.518791,0 0.529167,-0.17639 0.529167,-8.99583 0,-8.81944 -0.01038,-8.99583 -0.529167,-8.99583 -0.366551,0 -0.535209,0.18294 -0.548828,0.59531 -0.01081,0.32742 -0.06007,0.83344 -0.109451,1.12448 -0.04939,0.29104 -0.275112,2.07698 -0.501617,3.96875 -1.081939,9.03639 -1.523607,12.42899 -1.632215,12.5376 -0.251772,0.25177 -0.08928,1.07024 -2.252694,-11.34698 -0.418335,-2.40109 -0.855854,-4.89662 -0.972265,-5.54562 -0.168325,-0.93843 -0.34594,-1.21899 -0.867605,-1.37047 -0.41763099,-0.12127 -0.08421,-0.17319 0.917704,-0.14292 l 1.573654,0.0476 0.977674,5.42396 c 0.53772,2.98318 1.0039,5.48349 1.035956,5.55625 0.03206,0.0728 0.37224,-2.36802 0.755964,-5.42396 L 7.187041,136.3259 9.436,136.2899 c 1.236927,-0.0198 1.981067,0.0182 1.653645,0.0845 l -0.595312,0.12059 v 8.97743 c 0,8.80104 0.0104,8.97743 0.529167,8.97743 0.291041,0 0.529166,0.11907 0.529166,0.26459 0,0.15287 -0.837847,0.26458 -1.984375,0.26458 -1.146528,0 -1.984375,-0.11171 -1.984375,-0.26458 z" /><path
       id="path7"
       style="fill:#000000"
       d="m 3.6031774,114.20289 c 0,-0.14552 0.238125,-0.26459 0.529167,-0.26459 0.51877,0 0.529167,-0.17639 0.529167,-8.97743 v -8.977431 l -0.595313,-0.11903 c -0.327422,-0.0655 0.890217,-0.10352 2.705865,-0.0845 l 3.3011766,0.0345 0.936683,5.340301 c 0.515176,2.93716 1.002067,5.40567 1.08198,5.48558 0.07991,0.0799 0.421193,-2.20415 0.7584,-5.0757 0.337206,-2.871561 0.669477,-5.369841 0.73838,-5.551741 0.0689,-0.1819 0.380428,-0.31692 0.692281,-0.30004 0.402018,0.0218 0.440642,0.0643 0.132739,0.14616 -0.3029,0.0805 -0.482934,0.53147 -0.595147,1.49066 -0.521845,4.460731 -1.763176,14.776201 -1.892761,15.728851 -0.08413,0.61846 -0.241508,1.12448 -0.349735,1.12448 -0.108228,0 -0.347005,-0.92274 -0.530615,-2.05052 -0.183611,-1.12779 -0.79143,-4.61037 -1.3507086,-7.73907 -0.559278,-3.1287 -1.117418,-6.283851 -1.24031,-7.011461 -0.199355,-1.18031 -0.30174,-1.33194 -0.949844,-1.40663 l -0.726405,-0.0837 v 9.013411 c 0,7.83552 0.05186,9.0134 0.396875,9.0134 0.218282,0 0.396875,0.11907 0.396875,0.26459 0,0.15287 -0.837847,0.26458 -1.984375,0.26458 -1.146528,0 -1.984375,-0.11171 -1.984375,-0.26458 z" /><path
       id="path4"
       style="fill:#000000"
       d="m 3.8389945,93.187573 c 0,-0.14552 0.238125,-0.26459 0.529166,-0.26459 0.51877,0 0.529167,-0.17639 0.529167,-8.97743 v -8.97743 l -0.595313,-0.11466 c -0.327422,-0.0631 1.845469,-0.11466 4.828646,-0.11466 2.9831775,0 5.1560675,0.0516 4.8286455,0.11466 l -0.595312,0.11466 v 8.97743 c 0,8.80104 0.0104,8.97743 0.529166,8.97743 0.291042,0 0.529167,0.11907 0.529167,0.26459 0,0.16757 -1.940278,0.26458 -5.2916665,0.26458 -3.351389,0 -5.291666,-0.097 -5.291666,-0.26458 z m 4.233333,-9.26042 v -8.99583 h -0.661458 -0.661459 v 8.99583 8.99583 h 0.661459 0.661458 z m 3.4395825,-0.0176 v -9.01341 l -0.727604,0.0837 -0.727604,0.0837 -0.069669,8.92969 -0.06967,8.92968 h 0.7972695 0.797269 z" /><path
       id="path2"
       style="fill:#000000"
       d="m 3.4746296,70.146652 c 0,-0.14552 0.239708,-0.26459 0.532686,-0.26459 0.524701,0 0.531641,-0.13368 0.463021,-8.91783 l -0.06967,-8.91784 -0.661458,-0.18391 c -0.363802,-0.10116 1.064948,-0.17957 3.175,-0.17426 2.110052,0.005 3.5685684,0.0612 3.2411464,0.12432 l -0.5953134,0.11466 v 8.97743 c 0,8.80104 0.0104,8.97743 0.5291674,8.97743 0.291042,0 0.529167,0.11907 0.529167,0.26459 0,0.16332 -1.3670144,0.26458 -3.5718754,0.26458 -2.204862,0 -3.571875,-0.10126 -3.571875,-0.26458 z m 4.233333,-9.26042 v -8.99583 h -0.661458 -0.661459 v 8.99583 8.99583 h 0.661459 0.661458 z" /><path
       style="fill:#000000"
       d="m 2.9709313,42.801382 c 0,-0.14552 0.238125,-0.26459 0.529167,-0.26459 0.518769,0 0.529166,-0.17639 0.529166,-8.97743 v -8.97743 l -0.595312,-0.11466 c -0.327422,-0.0631 0.357187,-0.11466 1.521354,-0.11466 1.164167,0 1.848776,0.0516 1.521354,0.11466 l -0.595312,0.11466 v 8.97743 c 0,8.80104 0.0104,8.97743 0.529166,8.97743 0.291042,0 0.529167,0.11907 0.529167,0.26459 0,0.15287 -0.837847,0.26458 -1.984375,0.26458 -1.146528,0 -1.984375,-0.11171 -1.984375,-0.26458 z"
       id="use1" /><rect
       style="opacity:0.4;fill:#ac9393;stroke:#800000;stroke-width:0.231516"
       id="rect22"
       width="9.7684832"
       height="9.7684832"
       x="-4.8842416"
       y="-4.8842397" /></g></svg>
