<?xml version="1.0" encoding="UTF-8" standalone="no"?>
<!-- Created with Inkscape (http://www.inkscape.org/) -->

<svg
   width="210mm"
   height="297mm"
   viewBox="0 0 210 297"
   version="1.1"
   id="svg1"
   xml:space="preserve"
   inkscape:version="1.3 (0e150ed6c4, 2023-07-21)"
   sodipodi:docname="roman numeral 5.svg"
   xmlns:inkscape="http://www.inkscape.org/namespaces/inkscape"
   xmlns:sodipodi="http://sodipodi.sourceforge.net/DTD/sodipodi-0.dtd"
   xmlns="http://www.w3.org/2000/svg"
   xmlns:svg="http://www.w3.org/2000/svg"><sodipodi:namedview
     id="namedview1"
     pagecolor="#ffffff"
     bordercolor="#000000"
     borderopacity="0.25"
     inkscape:showpageshadow="2"
     inkscape:pageopacity="0.0"
     inkscape:pagecheckerboard="0"
     inkscape:deskcolor="#d1d1d1"
     inkscape:document-units="mm"
     inkscape:zoom="8.359764"
     inkscape:cx="52.692875"
     inkscape:cy="27.213687"
     inkscape:window-width="2560"
     inkscape:window-height="1369"
     inkscape:window-x="-8"
     inkscape:window-y="-8"
     inkscape:window-maximized="1"
     inkscape:current-layer="layer1"
     showgrid="false" /><defs
     id="defs1" /><g
     inkscape:label="Layer 1"
     inkscape:groupmode="layer"
     id="layer1"><path
       style="fill:#000000"
       d="m -1.0800048,0.1915856 c -1.5436378,-8.80716 -1.6041858,-9.05688 -2.2407588,-9.24182 -0.414316,-0.12036 -0.07458,-0.17263 0.926386,-0.14252 l 1.5806368,0.0476 0.970366,5.42396 c 0.533701,2.98318 0.74309406,4.42515667 0.77478006,4.49791667 0.03169,0.0728 0.37543604,-1.30871667 0.76388804,-4.36346667 0.640432,-5.03628 0.754903,-5.56178 1.227845,-5.63661 0.325866,-0.0516 0.6596039,-0.002 0.4678489,0.13102 -0.172797,0.12024 -0.555663,2.29432 -0.87615,4.97516 -0.313079,2.61889 -0.800031,6.60708 -1.082116,8.86265 -0.282084,2.25557 -0.512894,4.19034 -0.512912,4.29948 -1.8e-5,0.10914 -0.09302,0.19844 -0.20667,0.19844 -0.11365,0 -0.920565,-4.07329 -1.793144,-9.05176 z"
       id="path22"
       sodipodi:nodetypes="ccccccccccssscc" /></g></svg>
