<?xml version="1.0" encoding="UTF-8" standalone="no"?>
<!-- Created with Inkscape (http://www.inkscape.org/) -->

<svg
   width="210mm"
   height="297mm"
   viewBox="0 0 210 297"
   version="1.1"
   id="svg1"
   xml:space="preserve"
   inkscape:version="1.3 (0e150ed6c4, 2023-07-21)"
   sodipodi:docname="roman numeral 7.svg"
   xmlns:inkscape="http://www.inkscape.org/namespaces/inkscape"
   xmlns:sodipodi="http://sodipodi.sourceforge.net/DTD/sodipodi-0.dtd"
   xmlns="http://www.w3.org/2000/svg"
   xmlns:svg="http://www.w3.org/2000/svg"><sodipodi:namedview
     id="namedview1"
     pagecolor="#ffffff"
     bordercolor="#000000"
     borderopacity="0.25"
     inkscape:showpageshadow="2"
     inkscape:pageopacity="0.0"
     inkscape:pagecheckerboard="0"
     inkscape:deskcolor="#d1d1d1"
     inkscape:document-units="mm"
     inkscape:zoom="8.359764"
     inkscape:cx="17.88328"
     inkscape:cy="1.1363957"
     inkscape:window-width="2560"
     inkscape:window-height="1369"
     inkscape:window-x="-8"
     inkscape:window-y="-8"
     inkscape:window-maximized="1"
     inkscape:current-layer="layer1"
     showgrid="false" /><defs
     id="defs1" /><g
     inkscape:label="Layer 1"
     inkscape:groupmode="layer"
     id="layer1"><path
       id="path9"
       style="fill:#000000"
       d="m -0.36366124,9.1090549 c 0,-0.13589 0.238125,-0.24708 0.529167,-0.24708 0.51879,0 0.529166,-0.17639 0.529166,-8.99582998 0,-7.65616002 -0.05678,-8.99583002 -0.38126,-8.99583002 -0.209693,0 -0.44013,0.0952 -0.512081,0.21167 -0.07195,0.11642 -0.556669,3.83712 -1.07714896,8.26823002 -1.098139,9.34900998 -1.17766,9.88964998 -1.420008,9.65421998 -0.09976,-0.0969 -0.895752,-4.18164 -1.768877,-9.07719998 -1.549508,-8.68799002 -1.60333,-8.90541002 -2.248958,-9.08488002 -0.463904,-0.12896 -0.211746,-0.19176 0.844281,-0.21025 0.828156,-0.0145 1.557992,0.0629 1.621856,0.17206 0.06386,0.10914 0.501575,2.46063 0.97269,5.22552 0.471116,2.7649 0.8145085,4.65473333 0.9178275,4.84639333 0.103318,0.19165997 0.456056,-1.42230331 0.783862,-4.23333333 0.327806,-2.81104 0.65404999,-5.31933 0.72498599,-5.574 0.115786,-0.41567 0.65283747,-0.46032 4.14034851,-0.43664 2.136631,0.0145 3.587121,0.10917 3.223321,0.21036 -0.36381,0.1012 -0.64956,0.32746 -0.635,0.5028 0.0145,0.17534 0.0443,4.18833 0.0661,8.91775002 0.0392,8.49187998 0.0465,8.59895998 0.58447,8.59895998 0.29963,0 0.47114,0.11917 0.38112,0.26481 -0.2099,0.33963 -7.27590204,0.32242 -7.27590204,-0.0177 z m 4.43529004,-9.17675998 -0.0697,-8.92969002 -0.727609,-0.0837 -0.727604,-0.0837 v 9.01341002 9.01339998 h 0.797269 0.797274 z"
       sodipodi:nodetypes="cssscscccscscccccccscccccccccccc" /></g></svg>
