<?xml version="1.0" encoding="UTF-8" standalone="no"?>
<!-- Created with Inkscape (http://www.inkscape.org/) -->

<svg
   width="210mm"
   height="297mm"
   viewBox="0 0 210 297"
   version="1.1"
   id="svg1"
   xml:space="preserve"
   inkscape:version="1.3 (0e150ed6c4, 2023-07-21)"
   sodipodi:docname="roman numeral 12.svg"
   xmlns:inkscape="http://www.inkscape.org/namespaces/inkscape"
   xmlns:sodipodi="http://sodipodi.sourceforge.net/DTD/sodipodi-0.dtd"
   xmlns="http://www.w3.org/2000/svg"
   xmlns:svg="http://www.w3.org/2000/svg"><sodipodi:namedview
     id="namedview1"
     pagecolor="#ffffff"
     bordercolor="#000000"
     borderopacity="0.25"
     inkscape:showpageshadow="2"
     inkscape:pageopacity="0.0"
     inkscape:pagecheckerboard="0"
     inkscape:deskcolor="#d1d1d1"
     inkscape:document-units="mm"
     inkscape:zoom="8.359764"
     inkscape:cx="19.079486"
     inkscape:cy="5.9212198"
     inkscape:window-width="2560"
     inkscape:window-height="1369"
     inkscape:window-x="-8"
     inkscape:window-y="-8"
     inkscape:window-maximized="1"
     inkscape:current-layer="layer1"
     showgrid="false" /><defs
     id="defs1" /><g
     inkscape:label="Layer 1"
     inkscape:groupmode="layer"
     id="layer1"><path
       id="path19"
       style="fill:#000000"
       d="m -6.8791649,9.1722469 c 0,-0.14552 -0.029498,-0.30427 0.089162,-0.35277 0.24847,-0.10157 2.1329398,-5.9512492 2.3348098,-7.2324792 0.13672,-0.86779003 -1.2549613,-10.1728908 -1.5838813,-10.4909708 -0.0983,-0.095 -0.41676,-0.23004 -0.7078,-0.30004 -0.29104,-0.07 0.19086,-0.14109 1.07088,-0.15798 l 1.6000598,-0.0307 0.47996,2.84427 c 0.26397,1.56435 0.56261,2.4673133 0.66362,2.6533433 0.10319,0.19003 0.4879115,-0.5903625 1.0403515,-2.3784025 l 0.98329003,-3.1192108 4.02338847,0.036 c 2.1432357,0.019177 3.62889,0.0876 3.30147,0.1507 l -0.59531,0.11466 v 8.97743001 c 0,8.80103999 0.0104,8.97742999 0.52917,8.97742999 0.29104,0 0.52916,0.11907 0.52916,0.26459 0,0.16658 -1.76221,0.26458 -4.75746,0.26458 -4.71795,0 -4.75856,-0.005 -4.89015,-0.59531 -0.073,-0.32742 -0.32065,-1.66688 -0.55038,-2.97657 -0.66261,-3.77756 -0.5069015,-3.77722 -1.6959515,-0.0211 -0.5951898,1.88018 -1.2296798,3.46768 -1.4099798,3.52778 -0.18029,0.0601 -0.4544085,-0.01 -0.4544085,-0.15532 z m 7.4927298,-9.30450999 c 0.047,-8.70312001 0.0606797,-8.86354001 -0.45889034,-8.86354001 -0.44443,0 -0.61332119,0.56849 -1.60125116,3.55002 l -1.3029085,3.55003 0.87756,5.18122 c 0.48265,2.84968 0.93394,5.27735 1.00285,5.39483 0.0689,0.11748 0.41992,0.17701 0.78002,0.13229 l 0.65472,-0.0813 z m 3.35519,0 V -9.1280931 h -0.65356 -0.65355 l -0.074,3.37343 c -0.0407,1.85539 -0.0398,5.90352001 0.002,8.99584 l 0.0762,5.62239 h 0.65143 0.65144 z"
       sodipodi:nodetypes="ccccsccccccsccsssscccccccscccccccccccsccccc" /></g></svg>
