<?xml version="1.0" encoding="UTF-8" standalone="no"?>
<!-- Created with Inkscape (http://www.inkscape.org/) -->

<svg
   width="210mm"
   height="297mm"
   viewBox="0 0 210 297"
   version="1.1"
   id="svg1"
   xml:space="preserve"
   inkscape:version="1.3 (0e150ed6c4, 2023-07-21)"
   sodipodi:docname="roman numeral 8.svg"
   xmlns:inkscape="http://www.inkscape.org/namespaces/inkscape"
   xmlns:sodipodi="http://sodipodi.sourceforge.net/DTD/sodipodi-0.dtd"
   xmlns="http://www.w3.org/2000/svg"
   xmlns:svg="http://www.w3.org/2000/svg"><sodipodi:namedview
     id="namedview1"
     pagecolor="#ffffff"
     bordercolor="#000000"
     borderopacity="0.25"
     inkscape:showpageshadow="2"
     inkscape:pageopacity="0.0"
     inkscape:pagecheckerboard="0"
     inkscape:deskcolor="#d1d1d1"
     inkscape:document-units="mm"
     inkscape:zoom="8.359764"
     inkscape:cx="7.1174258"
     inkscape:cy="19.79721"
     inkscape:window-width="2560"
     inkscape:window-height="1369"
     inkscape:window-x="-8"
     inkscape:window-y="-8"
     inkscape:window-maximized="1"
     inkscape:current-layer="layer1"
     showgrid="false" /><defs
     id="defs1" /><g
     inkscape:label="Layer 1"
     inkscape:groupmode="layer"
     id="layer1"><path
       id="path11"
       style="fill:#000000"
       d="m -2.1583262,9.1281169 c 0,-0.14552 0.29924,-0.26459 0.66497,-0.26459 h 0.66498003 l -0.0697,-8.92967999 c -0.0676,-8.66322001 -0.0851,-8.92969001 -0.58730003,-8.92969001 -0.48235,0 -0.59053,0.60716 -1.5875,8.90960001 -0.58843,4.90027999 -1.1533697,8.99221999 -1.2554297,9.09319999 -0.10206,0.10098 -0.24834,-0.0983 -0.32506,-0.44294 -0.18992,-0.85295 -3.06289,-17.24956 -3.06198,-17.47531 4e-4,-0.099 -0.26716,-0.23164 -0.59459,-0.2947 -0.32742,-0.0631 0.0684,-0.13088 0.87953,-0.1507 l 1.47483,-0.036 0.85886,4.82865 c 0.47237,2.65575 0.92432,5.22115001 1.0043197,5.70088 0.08,0.47973 0.053941,0.3077433 0.096821,0.2645833 0.0429,-0.0432 0.32511,-1.57338329 0.6272,-4.0472333 0.30208,-2.47386 0.61719,-5.00393 0.70024,-5.6224 l 0.15101,-1.12448 5.6004885,0.036 c 3.0106429,0.019352 5.206,0.0876 4.87858,0.1507 l -0.59531,0.11466 v 8.97743001 c 0,8.80103999 0.0104,8.97742999 0.52916,8.97742999 0.29105,0 0.52917,0.11907 0.52917,0.26459 0,0.16757 -1.94028,0.26458 -5.29167,0.26458 -3.35138997,0 -5.29166,-0.097 -5.29166,-0.26458 z m 4.49791,-9.27798999 V -9.1632831 l -0.7276,0.0837 -0.72759997,0.0837 -0.0573,8.92969001 -0.0573,8.92967999 h 0.78487997 0.78488 z m 3.175,0.0176 V -9.1281031 h -0.66145 -0.66146 v 8.99583001 8.99582999 h 0.66146 0.66145 z"
       sodipodi:nodetypes="csccscscsccccsccccsccsssscccccccccccccccccccc" /></g></svg>
