<?xml version="1.0" encoding="UTF-8" standalone="no"?>
<!-- Created with Inkscape (http://www.inkscape.org/) -->

<svg
   width="31.981644in"
   height="36.577034in"
   viewBox="0 0 812.33375 929.05666"
   version="1.1"
   id="svg59108"
   inkscape:version="1.2.2 (b0a8486541, 2022-12-01)"
   sodipodi:docname="Logo for 3D printed stencil.svg"
   inkscape:export-filename="Logo for sign extending above and below.png"
   inkscape:export-xdpi="29.983994"
   inkscape:export-ydpi="29.983994"
   xmlns:inkscape="http://www.inkscape.org/namespaces/inkscape"
   xmlns:sodipodi="http://sodipodi.sourceforge.net/DTD/sodipodi-0.dtd"
   xmlns="http://www.w3.org/2000/svg"
   xmlns:svg="http://www.w3.org/2000/svg">
  <sodipodi:namedview
     id="namedview59110"
     pagecolor="#ffffff"
     bordercolor="#666666"
     borderopacity="1.0"
     inkscape:pageshadow="2"
     inkscape:pageopacity="0"
     inkscape:pagecheckerboard="0"
     inkscape:document-units="mm"
     showgrid="false"
     fit-margin-top="0"
     fit-margin-left="0"
     fit-margin-right="0"
     fit-margin-bottom="0"
     inkscape:zoom="0.21808625"
     inkscape:cx="2152.818"
     inkscape:cy="2189.5007"
     inkscape:window-width="2560"
     inkscape:window-height="1510"
     inkscape:window-x="1920"
     inkscape:window-y="54"
     inkscape:window-maximized="1"
     inkscape:current-layer="layer1"
     inkscape:snap-global="false"
     inkscape:showpageshadow="2"
     inkscape:deskcolor="#d1d1d1"
     inkscape:export-bgcolor="#000000ff" />
  <defs
     id="defs59105">
    <linearGradient
       id="linearGradient57666"
       inkscape:swatch="solid">
      <stop
         style="stop-color:#672178;stop-opacity:1;"
         offset="0"
         id="stop57664" />
    </linearGradient>
    <linearGradient
       id="linearGradient55682"
       inkscape:swatch="solid">
      <stop
         style="stop-color:#000000;stop-opacity:1;"
         offset="0"
         id="stop55680" />
    </linearGradient>
  </defs>
  <g
     inkscape:label="Layer 1"
     inkscape:groupmode="layer"
     id="layer1"
     transform="translate(105.35242,309.63755)">
    <path
       id="Ties (Fine)"
       style="font-variation-settings:normal;opacity:1;fill:none;fill-opacity:1;stroke:#19ff12;stroke-width:1.2;stroke-linecap:butt;stroke-linejoin:miter;stroke-miterlimit:4;stroke-dasharray:none;stroke-dashoffset:0;stroke-opacity:1;stop-color:#000000;stop-opacity:1"
       d="m 346.91055,102.65853 10.8261,24.42281 m 6.329,-16.93595 -19.5793,8.39879 8.6376,-11.6121 m -28.8163,-52.719397 9.6375,11.961812 10.7242,10.260674 4.9813,11.32504 h 3.4559 l -3.62,-8.877141 -7.2878,-9.635464 -14.612,-12.865258 4.1356,-2.129394 3.9569,6.120739 10.2214,8.160358 8.0308,10.101633 c 0,0 2.5648,12.397317 3.338,11.279082 l 0.7733,-1.118235 2.8623,-1.923256 -6.1071,-13.147093 -7.6572,-8.008276 -11.7865,-8.643832 2.8703,-1.225417 12.9233,9.72214 5.885,6.829584 5.2633,7.282154 c 0,0 2.4612,-2.633266 1.8993,-3.652335 l -0.5619,-1.019096 -4.0056,-5.134186 -15.9973,-11.880691 -5.0003,-3.601165 12.7624,5.692458 6.3339,-3.674587 1.0398,9.160404 6.2536,0.06474 -4.3132,-5.16464 -5.0335,-12.027509 -5.9901,-19.410944 0.9601,-15.176658 2.2566,17.941739 3.462,12.223194 7.7263,14.856381 -0.6381,-7.501308 -5.991,-10.177224 -3.1347,-11.038867 0.075,-16.902535 3.9846,4.810231 1.2504,14.639078 6.9759,16.212872 5.7451,-24.525895 2.8009,2.859669 -4.834,21.010748 9.5882,-16.826944 3.882,4.642299 -14.2197,14.029611 25.8401,-13.702268 -2.3343,27.222 -16.58,4.200154 18.8705,1.289712 -17.0556,7.344304 17.2359,-2.386013 -0.2863,6.178577 -16.5654,-6.168972 15.9101,15.926514 -18.7386,-13.078857 18.0222,16.81853 -21.2726,-12.605966 18.1713,15.500244 -22.5214,-13.529522 20.0478,17.60763 -18.7133,-10.381595 11.058,20.389295 m -100.7543,-60.01792 28.0049,42.887 15.1609,22.68395 13.2109,12.71963 2.3457,-2.12072 -18.3773,-20.408 -11.1021,-15.400017 -27.6449,-46.851728 1.3122,-3.147404 15.7396,28.851542 11.9253,16.99588 10.5177,14.986927 14.0657,14.41262 6.8612,10.68882 3.2282,-0.8818 -12.0656,-18.33555 -12.0403,-13.666307 -8.9495,-11.643704 -9.3818,-12.21306 -18.2033,-30.641158 1.9117,-4.294954 10.4713,22.555067 0.8159,1.176285 0.9421,-4.209098 10.3466,16.429673 -2.9969,-0.947394 9.1464,11.392535 9.1235,10.612358 8.9113,9.949547 1.9612,-4.084185 -8.1979,-7.486755 -9.0483,-10.535814 -6.5303,-7.101867 -2.6626,-5.354637 1.8842,-1.798188 -5.682,-5.155935 -1.8799,-3.771371 2.5504,-0.180631 5.5447,6.008238 1.443,3.923612 5.856,9.953254 7.3488,7.658814 8.6406,10.220696 6.3647,2.316374 -7.406,-9.376225 -8.6674,-9.515872 -6.9636,-7.180209 -4.4694,-10.485914 -7.4797,-6.487874 -6.5889,2.513171 -11.7145,-22.135861 2.541,-3.666279 5.0368,12.865074 6.8541,9.680495 2.4241,-2.044858 -8.1621,-10.677102 -3.8656,-10.651543 2.7582,-3.804047 4.3612,15.144168 9.6343,10.613999 4.2088,5.489416 9.584,14.088348 10.8173,11.548692 9.7241,11.596131 -4.1235,-9.271158 -9.2012,-10.261045 -8.9402,-11.171449 -4.0493,-7.538825 -12.1209,-13.271818 -4.3389,-6.97439 -4.2601,-11.673416 3.5501,-3.563356 3.239,13.11611 6.18,6.819583 6.5997,9.423109 6.4051,10.749491 8.8646,10.750021 8.0352,8.560858 5.13,10.30687 3.5513,-0.634894 -6.8636,-12.236397 -7.4527,-8.262752 -5.4602,-5.161227 -4.115,-4.544457 -4.5321,-10.073216 -7.6316,-7.682865 0.9638,-2.289546 -5.9189,-4.609941 -5.3488,-15.655105 1.4522,-1.618244 5.5205,16.675761 9.4891,-3.665484 -1.9355,-2.483671 -5.736,1.945852 -4.0161,-12.954344 8.1049,-2.612813 1.7372,13.682477 h 1.1061 l 3.531,-15.501673 2.4214,-0.491199 -3.5668,19.875606 -6.5782,9.678326 12.9359,-5.827739 -5.6649,-3.654134 -1.0253,19.114108 3.3766,-11.637512 12.2043,-8.017722 -12.1486,-2.676181 3.0272,-16.686212 2.355,-1.45751 -2.9265,25.469373 1.0187,15.305775 3.5969,3.064749 -3.2215,-13.576644 0.8991,-0.952924 3.9544,-30.7675748 3.2188,-0.09906 -5.4069,43.1905298 5.0913,2.285974 -1.9497,-20.744445 2.665,-3.543035 -1.7832,-20.409429 7.2171,-2.1007123 -3.1497,4.2990293 -1.1087,18.552557 -2.7701,3.751209 0.5391,10.874719 2.1057,-1.237483 -1.9373,-9.240493 6.9753,2.5273 -3.041,-4.782212 1.763,-3.054852 -1.0469,-6.979126 2.4092,-11.915855 h 2.7449 l -3.5248,13.01414 1.2209,5.60922 1.2817,8.32051 -1.9822,-0.1066 1.8428,9.152466 2.4594,0.211826 -1.7908,-9.175168 -0.5913,-7.608649 0.6308,-19.915294 2.4081,0.536787 -0.7232,17.135951 2.3276,11.109907 -2.816,8.640736 5.2463,-6.794209 -2.7487,-15.299346 -0.3242,-14.268397 3.7461,1.308021 -0.489,18.298504 5.6539,16.991965 -0.6597,5.389694 -0.424,-0.943292 -8.4046,-0.773324 2.4015,-8.520801 5.969,2.308119 -3.935,6.636094 1.4754,-3.100378 -2.7158,-2.86169 -1.8846,-3.691572" />
    <path
       id="Ties (Chonk)"
       style="font-variation-settings:normal;opacity:1;vector-effect:none;fill:none;fill-opacity:1;stroke:#19ff12;stroke-width:2.5;stroke-linecap:butt;stroke-linejoin:miter;stroke-miterlimit:4;stroke-dasharray:none;stroke-dashoffset:0;stroke-opacity:1;-inkscape-stroke:none;stop-color:#000000;stop-opacity:1"
       d="m 314.53479,45.162875 4.87929,-3.080967 m 17.39257,0.925009 2.06383,-6.197256 m -16.70034,-3.042655 1.36038,-4.510087 m -12.4568,8.0314 8.02923,-4.975913 M 69.745039,179.15436 c 0.126934,0.0635 0.256857,0.12128 0.380799,0.19039 0.1768,0.0986 0.346287,0.20984 0.520779,0.31247 0.314674,0.1851 0.690404,0.38397 0.989489,0.57288 0.550865,0.3479 0.191058,0.16909 0.729104,0.57285 0.07929,0.0595 0.174022,0.0958 0.255241,0.15264 0.09069,0.0635 0.170043,0.14197 0.259295,0.20743 0.170526,0.12507 0.353724,0.23283 0.519691,0.36388 0.164053,0.12957 0.308814,0.28199 0.46871,0.41664 0.424418,0.3574 0.473334,0.36208 0.833257,0.67702 0.177329,0.15515 0.325657,0.34631 0.501894,0.50188 0.947454,0.8364 0.331409,0.22728 0.677024,0.57288 0.0486,0.0486 0.0972,0.0972 0.145796,0.14579 0,0.008 -0.0053,0.0188 0,0.0251 0.0044,0.005 0.01958,-0.007 0.0208,0 0.0068,0.0387 0,0.0786 0,0.11793 0.06333,0.26553 0.126656,0.53107 0.189987,0.7966 m -14.851284,0.30605 c 0.07417,0.0297 0.150268,0.0549 0.222499,0.089 0.794337,0.37512 0.321598,0.21285 1.383686,0.66804 0.186759,0.08 0.382987,0.136 0.572863,0.20831 0.174715,0.0666 0.348194,0.13642 0.520779,0.20833 0.03583,0.0148 0.06742,0.0395 0.104161,0.0521 0.01529,0.005 0.03306,-0.005 0.04848,0 0.255871,0.0798 0.506923,0.17468 0.763191,0.25321 0.996429,0.30535 0.164859,0.006 1.041572,0.31247 0.191778,0.0671 0.378902,0.14774 0.57286,0.20831 0.01836,0.006 0.136861,-0.0119 0.161933,0 0.202985,0.0966 0.40038,0.20468 0.60322,0.3016 0.765183,0.36565 0.407128,0.15673 1.197804,0.57287 0.321058,0.16899 0.384209,0.2214 0.677023,0.41664 0.156234,0.10414 0.307806,0.21566 0.468697,0.31245 0.025,0.0151 0.06262,-0.0151 0.08753,0 0.775356,0.47238 1.510454,0.99015 2.224884,1.55149 0.188955,0.16534 0.51712,0.45839 0.729107,0.62494 0.858012,0.67416 0.02612,0.01 0.729094,0.52081 0.466262,0.33909 0.04615,0.0874 0.57286,0.41661 0.0945,0.0591 0.07484,0.0521 0.150963,0.0521 m 11.055761,-28.65606 c 0.378955,0.29726 0.704982,0.65288 1.044586,0.9925 0.02657,0.0266 0.460203,0.46019 0.460224,0.46022 0.11198,0.13266 0.207015,0.27874 0.312465,0.41664 0.120232,0.15721 0.242271,0.31305 0.364559,0.46868 0.06867,0.0874 0.144571,0.16933 0.208314,0.2604 0.330274,0.47183 -0.04981,0.0721 0.468696,0.67702 0.09586,0.11184 0.211524,0.20521 0.312478,0.31247 0.176872,0.18794 0.348144,0.38106 0.52078,0.57288 0.139837,0.15536 0.274389,0.31551 0.416629,0.46871 0.08353,0.0899 0.173598,0.17359 0.260395,0.26037 0.138877,0.13888 0.277754,0.27776 0.416628,0.41664 0.208312,0.20831 0.409051,0.42447 0.62493,0.62495 0.182124,0.16909 0.522137,0.45559 0.729107,0.62492 1.25e-4,1e-4 0.520655,0.41653 0.52078,0.41664 0.161909,0.15033 0.312473,0.31247 0.468709,0.46871 0.06944,0.0694 0.145431,0.13287 0.208314,0.2083 0.110395,0.13243 0.212665,0.27168 0.310312,0.41376 0.296579,0.43151 0.516466,0.90403 0.781177,1.35403 0.06347,0.1079 0.150008,0.20169 0.208311,0.31247 0.115764,0.21995 0.205619,0.45263 0.312479,0.67702 0.06676,0.1402 0.138877,0.27776 0.208314,0.41664 0.598834,1.19769 -0.102849,-0.19018 0.572863,1.09365 0.07232,0.1374 0.135244,0.27962 0.208311,0.41662 0.06586,0.12348 0.145725,0.23937 0.208315,0.36454 0.180573,0.36116 0.345241,0.73004 0.520779,1.09365 0.0675,0.13984 0.130519,0.28226 0.208315,0.41664 0.316788,0.54716 0.32754,0.46493 0.572862,0.93594 0.01384,0.0266 -0.01463,0.11221 0,0.13745 0.11158,0.19251 0.232712,0.37934 0.347194,0.57015 M 37.241532,96.974747 c 0.441791,-0.530173 0.07425,-0.08332 0.648486,-0.80735 0.527138,-0.66466 0.526156,-0.619734 1.057119,-1.458092 0.265361,-0.418994 0.514035,-0.84836 0.765493,-1.275848 0.547875,-0.931386 0.103158,-0.236722 0.656145,-1.130009 0.210664,-0.340307 0.109281,-0.127449 0.364519,-0.546787 0.10187,-0.167349 0.188492,-0.343747 0.291619,-0.510329 0.05502,-0.08887 0.127246,-0.16629 0.182263,-0.255164 0.08529,-0.137768 0.442823,-0.788352 0.546783,-0.947764 0.134197,-0.205766 0.484285,-0.646589 0.619683,-0.838385 0.04086,-0.05789 0.07768,-0.118904 0.109363,-0.182272 0.05663,-0.113241 -0.158253,0.09216 0.0541,-0.117607 0.175688,-0.17354 0.369951,-0.328057 0.540737,-0.506412 0.11943,-0.124751 0.216513,-0.269134 0.328062,-0.400976 0.03944,-0.04662 0.08956,-0.08956 0.133186,-0.133192 m 69.6312,49.17546 c 1.61972,4.02272 -0.12229,-0.35814 1.13074,2.93105 0.14724,0.38651 0.32553,0.76121 0.46083,1.15205 0.21056,0.60833 0.36544,1.235 0.57601,1.84333 0.27059,0.78171 0.66954,1.51627 0.92166,2.30412 0.41032,1.28225 0.36052,1.65013 0.80647,2.76498 0.0957,0.23918 0.24994,0.45206 0.34561,0.69125 0.0588,0.147 0.0323,0.32594 0.11522,0.46082 0.10788,0.17542 0.29616,0.28647 0.43684,0.43685 0.41549,0.44419 0.82152,0.8971 1.23133,1.34652 3.08311,3.38119 -0.49883,-0.50051 2.07371,2.18895 0.66886,0.69924 1.82864,1.94138 2.53457,2.76495 0.39039,0.45546 0.75354,0.93414 1.15206,1.3825 0.24887,0.27996 0.56024,0.50242 0.79462,0.79463 0.26511,0.33049 0.50934,0.67775 0.7828,1.00139 0.33346,0.39463 0.70611,0.75517 1.03687,1.15208 1.96162,2.35389 0.25152,0.27826 0.80445,1.14808 0.0214,0.0336 0.0694,0.0475 0.0844,0.0844 0.0155,0.0381 -0.0134,0.0845 0,0.12335 0.24666,0.71815 0.57237,1.41009 0.77778,2.14111 0.0941,0.33478 0.0653,0.69271 0.11518,1.03685 0.027,0.18648 0.0814,0.36804 0.11522,0.55338 0.0124,0.068 0,0.18277 0,0.2477 0,0.47593 0,0.95186 0,1.4278 M 93.70979,151.25145 c 2.294877,2.29484 0.595731,0.44887 1.916108,2.14651 0.06668,0.0857 0.153601,0.15359 0.230401,0.2304 0.03055,0.0306 0.06982,0.0544 0.09165,0.0917 0.08362,0.14282 0.144126,0.29806 0.222025,0.44408 0.533778,1.00052 1.105765,1.98109 1.612913,2.99537 0.338291,0.6766 0.591645,1.39309 0.921657,2.07373 0.284819,0.58743 0.636432,1.14088 0.921658,1.7281 0.367969,0.75761 0.680678,1.54093 1.036848,2.30415 0.18156,0.38907 0.38403,0.76806 0.57604,1.15207 1.50874,3.01744 1.09134,2.32111 2.41936,4.60828 0.13725,0.23638 1.96452,3.35002 2.18893,3.68662 0.0904,0.13555 0.24349,0.21868 0.34561,0.34563 0.0273,0.0339 -0.0295,0.0986 0,0.13062 0.0229,0.0249 0.24721,-0.0481 0.34391,0.0735 0.90728,1.14126 1.22125,1.73763 1.94497,3.09706 0.0163,0.0307 -0.008,0.0705 0,0.1043 0.009,0.0358 0.033,0.0659 0.0494,0.0989 M 230.2818,325.50055 c 0.71829,0.94057 1.34083,1.94911 1.9852,2.94045 0.12909,0.1986 0.26701,0.39143 0.39417,0.59127 0.17947,0.28202 0.34613,0.57202 0.52557,0.85404 0.12718,0.19984 0.26771,0.39101 0.39418,0.59127 0.13636,0.21593 0.25651,0.44185 0.39417,0.65696 0.63762,0.99629 0.54406,0.80526 1.11683,1.6424 0.13378,0.1955 0.25062,0.40285 0.39418,0.59126 0.94927,1.24593 0.32094,0.37547 1.05114,1.18253 1.36699,1.51091 0.42365,0.55502 1.11686,1.24823 0.13139,0.13139 0.25431,0.27183 0.39415,0.39417 0.42883,0.37524 0.68082,0.54261 1.11686,0.85405 0.15327,0.10951 0.31276,0.21082 0.45987,0.32851 0.18177,0.14541 0.33933,0.3202 0.52557,0.45987 0.25265,0.1895 0.53231,0.34065 0.78835,0.52557 0.13864,0.10012 0.25916,0.22347 0.39418,0.32848 0.25929,0.20167 0.52705,0.39219 0.78835,0.59126 0.19859,0.15132 0.39417,0.30658 0.59126,0.45988 0.19709,0.15327 0.39947,0.30001 0.59127,0.45987 0.33393,0.27826 0.65455,0.57219 0.98544,0.85405 0.2604,0.22182 0.53575,0.42632 0.78838,0.65696 0.25156,0.22971 0.48175,0.48178 0.72263,0.72265 0.43799,0.43797 0.87595,0.87596 1.31392,1.31393 0.34925,0.34925 0.70823,0.689 1.04772,1.04772 0.36602,0.38677 0.72797,0.77742 1.0963,1.162 0,0 0.40849,0.40849 0.52557,0.52556 m -22.27874,-26.08371 c -0.34401,0.22876 -0.66791,0.48742 -1.01552,0.71078 -0.48779,0.31348 -0.0604,-0.0366 -0.44987,0.25612 -0.27945,0.21008 -0.54729,0.43558 -0.83069,0.64029 -0.85865,0.62026 -0.0301,-0.0101 -0.45757,0.26165 -0.019,0.0122 -0.032,0.0321 -0.0481,0.048 -0.23297,0.23151 -0.46615,0.46279 -0.69906,0.69435 -0.0439,0.0437 -0.0839,0.0917 -0.13139,0.13137 -0.14825,0.12398 -0.94229,0.76245 -1.15033,0.89513 -0.0579,0.0369 -0.13689,0.0296 -0.19537,0.0657 -0.10861,0.067 -0.20045,0.15798 -0.29892,0.23913 -0.26334,0.21701 -0.51711,0.44585 -0.78648,0.65535 -0.32155,0.25006 -0.65786,0.48053 -0.98544,0.72265 -0.003,0.003 -1.0509,0.7882 -1.05114,0.78836 -0.15681,0.10004 -0.18184,0.0222 -0.30821,0.12215 -2.34272,1.85426 1.12041,-0.7661 -1.89897,1.44034 -0.20158,0.14732 -0.38552,0.31843 -0.59126,0.4599 -0.14549,0.10001 -0.30488,0.17823 -0.45987,0.26279 -0.086,0.0469 -0.17203,0.0946 -0.26279,0.13139 -0.0188,0.008 -0.0452,-0.0127 -0.0611,0 -0.16952,0.13544 -0.3188,0.29466 -0.48392,0.43548 -0.39045,0.33289 -0.78939,0.65569 -1.18253,0.98544 -0.28573,0.23963 -0.57338,0.47707 -0.85405,0.72265 -1.00658,0.88075 -0.52703,0.53533 -1.7081,1.51101 -0.33766,0.27893 -0.71615,0.50623 -1.05114,0.78835 -0.24902,0.20969 -0.47934,0.44067 -0.72265,0.65696 -0.15092,0.13415 -0.30795,0.26123 -0.45987,0.39418 -0.0233,0.0204 -2.3625,1.47557 -0.0657,0.0656 0.0316,-0.0194 -0.0664,0.0332 -0.0996,0.0498 M -64.626867,53.306697 c 3.268929,-3.833337 6.59675,-7.615846 9.875366,-11.440901 0.89095,-1.039442 1.761982,-2.095844 2.652932,-3.135286 1.0385,-1.21158 2.155621,-2.358046 3.135315,-3.617648 1.836148,-2.360771 3.584707,-4.789434 5.305867,-7.235296 8.733597,-12.410889 -1.719429,1.349852 9.405887,-12.782338 1.133951,-1.440444 2.139447,-2.988204 3.376448,-4.341177 7.35747,-8.0472229 1.815,-1.3465177 6.270631,-5.7882368 0.107997,-0.107659 0.09016,-0.2987146 0.184179,-0.4187561 0.02955,-0.03773 0.104161,0.026961 0.143764,0 0.290848,-0.1981464 0.54443,-0.4463256 0.824404,-0.6595533 0.947105,-0.7212542 1.965315,-1.3544021 2.856527,-2.1436806 1.361784,-1.20605019 2.572517,-2.57259663 3.858831,-3.858842 M -36.294708,79.418478 c 2.736623,-2.810827 5.725155,-5.351938 8.613685,-7.999782 3.499506,-3.207915 2.59806,-2.484332 5.547059,-5.064707 1.200917,-1.050793 2.424969,-2.075127 3.617639,-3.135286 0.978125,-0.869448 1.913922,-1.785832 2.894124,-2.652925 1.110276,-0.982186 2.281055,-1.895395 3.376448,-2.894144 1.638795,-1.494182 3.2056312,-3.065542 4.8235398,-4.582345 0.954741,-0.895059 1.9687381,-1.727544 2.8941236,-2.652951 0.9253802,-0.92538 1.7611698,-1.936274 2.652932,-2.894092 1.27887149,-1.373611 2.61196931,-2.697295 3.8588341,-4.10001 0.683977,-0.769487 1.2454387,-1.642295 1.9294157,-2.411756 0.6042634,-0.679794 1.2862746,-1.286298 1.9294158,-1.929421 0.9647052,-0.964697 1.929421,-1.929395 2.8941236,-2.894118 8.5718574,-8.571892 -5.2960958,5.296032 4.8235394,-4.82354 1.205883,-1.205865 2.385266,-2.438849 3.61764,-3.617621 6.531017,-6.247077 -0.941488,1.182661 2.894123,-2.652951 M 58.704598,162.07778 c 2.190682,1.41602 4.449956,2.73349 6.579981,4.24225 1.220267,0.86434 2.39471,1.79234 3.61764,2.65292 0.948193,0.66725 1.966577,1.23375 2.894124,1.92942 1.004615,0.75346 1.923759,1.61467 2.894124,2.41176 1.105754,0.90831 4.171066,3.46707 5.788247,4.58237 1.670296,1.15192 3.359716,2.27647 5.064675,3.37645 1.575602,1.01653 3.229247,1.90717 4.823539,2.89412 3.382309,2.09383 1.974334,1.36684 5.547056,3.37648 0.313354,0.17624 0.643139,0.32155 0.964708,0.48234 4.888988,2.44448 2.552594,1.32651 6.994148,3.37648 1.04509,0.48236 2.08011,0.98713 3.13526,1.44706 12.61142,5.49732 -0.62344,-0.4957 15.43532,6.51176 1.38436,0.60407 2.7269,1.30009 4.09997,1.9294 0.55657,0.25511 1.1299,0.47231 1.68822,0.72355 3.0831,1.38737 4.03453,1.98798 7.47648,3.13529 0.94336,0.31446 1.94281,0.434 2.89412,0.72353 0.90019,0.27395 1.76025,0.66715 2.65293,0.9647 0.79626,0.26543 1.62209,0.43923 2.4118,0.72353 1.222,0.43992 2.42658,0.92921 3.61764,1.44705 3.53316,1.53618 0.77191,0.57886 2.63299,1.19926 M 99.031411,389.17251 c 1.593029,-2.2614 3.128459,-4.56446 4.779079,-6.78416 0.98896,-1.3299 2.11781,-2.55058 3.13531,-3.85879 0.67132,-0.86312 1.27856,-1.77429 1.92942,-2.65297 0.95703,-1.29199 1.91381,-2.58438 2.89412,-3.85879 6.77922,-8.81296 -5.95926,8.18679 5.78819,-7.47647 0.89724,-1.19631 1.76197,-2.4167 2.653,-3.61764 1.50805,-2.03261 4.9192,-6.51066 6.27057,-8.44119 0.60109,-0.85871 1.07897,-1.80002 1.68822,-2.65295 0.59839,-0.83775 1.27749,-1.61494 1.92942,-2.41176 5.50541,-6.72883 -0.34265,0.54885 4.30684,-5.26298 1.87601,-2.34501 5.26298,-6.59297 6.99415,-8.68233 1.81922,-2.19562 3.72164,-4.32128 5.54705,-6.51177 1.13342,-1.36009 2.22838,-2.75227 3.37645,-4.10001 3.49945,-4.10805 0.80847,-0.75218 4.58235,-4.82354 1.36837,-1.47621 3.72241,-4.23341 5.28381,-5.99847 1.28281,-1.45016 2.57254,-2.89412 3.85884,-4.34118 0.64312,-0.72353 1.30585,-1.43013 1.9294,-2.17059 0.66317,-0.78751 1.27375,-1.61806 1.92942,-2.41178 0.87191,-1.05548 1.79771,-2.06624 2.65295,-3.13529 1.79572,-2.24472 0.64831,-1.24859 2.65292,-3.61765 1.25061,-1.47798 2.59885,-2.87117 3.85884,-4.34117 0.18863,-0.22008 0.3084,-0.49165 0.48231,-0.72353 0.0682,-0.091 0.16807,-0.15412 0.2412,-0.24117 1.64867,-1.96292 -0.21559,0.0496 2.37847,-2.81334 1.26055,-1.39121 2.77323,-2.53201 4.09998,-3.85882 M 46.101455,216.24092 c 1.425633,0.59063 2.913581,1.01817 4.342095,1.60015 1.300223,0.52972 2.555259,1.16681 3.858832,1.68823 0.708125,0.28323 1.453853,0.46288 2.170607,0.72352 4.298222,1.563 1.812247,0.69959 5.305864,2.17059 0.797991,0.336 1.637308,0.57751 2.41174,0.96473 1.480625,0.7403 2.900995,1.59562 4.341215,2.41175 2.426078,1.37478 3.490346,2.00065 5.788192,3.61765 6.988759,5.12509 0.820835,0.6849 5.788247,4.09998 0.569873,0.3918 1.103521,0.83662 1.688224,1.2059 2.470028,1.56003 5.077026,2.85302 7.717663,4.09998 8.318079,3.92798 0.484153,0.19367 6.02938,2.41178 0.500727,0.20029 0.942094,0.53428 1.447094,0.72353 0.987824,0.37021 2.011479,0.6367 3.018762,0.95009 8.96823,2.79041 -4.166969,-1.27979 7.71767,2.17059 0.97657,0.28353 1.91636,0.68535 2.89412,0.9647 0.71265,0.20362 1.46427,0.25765 2.17055,0.48236 1.06703,0.33952 2.06409,0.87987 3.13532,1.20589 0.78431,0.23871 1.62345,0.25713 2.41174,0.48237 0.90476,0.25849 1.74817,0.70619 2.65293,0.96469 1.34998,0.38571 2.73522,0.63527 4.10002,0.9647 1.87971,0.36348 3.68951,0.99867 5.54706,1.44706 1.44097,0.34782 2.89758,0.62788 4.34115,0.9647 0.96839,0.22595 1.93193,0.47252 2.89413,0.72353 0.88693,0.23137 1.75702,0.52982 2.65293,0.72353 2.69775,1.74162 5.81,0.84867 8.68237,1.44708 1.14592,0.23873 2.25097,0.64312 3.37645,0.96467 0.56276,0.16079 1.12782,0.31377 1.68828,0.48236 0.24146,0.0726 0.47074,0.1868 0.71695,0.24117 0.12207,0.027 0.25003,0 0.37505,0 0.70677,0.15521 1.41456,0.30594 2.12033,0.46562 1.04611,0.23669 2.08937,0.48582 3.13527,0.72352 0.72274,0.16428 1.43706,0.37614 2.17059,0.48234 0.38275,0.0554 0.77348,0 1.16023,0 0.0924,0 0.1893,-0.0286 0.27715,0 0.18232,0.0594 0.35652,0.14142 0.5348,0.21212 0.88432,0.32157 1.75564,0.68135 2.65295,0.96469 0.63214,0.19963 1.27982,0.34999 1.92939,0.48237 0.21852,0.0445 0.54642,0 0.78465,0 m -126.804403,6.10478 c 3.028709,0.79216 6.156346,0.94038 9.250333,1.29397 1.208683,0.13814 2.412498,0.31613 3.61764,0.48236 1.126247,0.15534 2.260254,0.26633 3.376449,0.48237 1.378415,0.26677 2.72946,0.66013 4.100023,0.96469 0.800311,0.17786 1.620795,0.26665 2.41174,0.48236 5.290267,1.4428 0.755502,0.54306 4.823542,1.44706 3.510206,0.78005 7.084086,1.24664 10.611787,1.9294 0.650853,0.12597 1.279358,0.35234 1.929415,0.48236 0.959004,0.1918 1.935062,0.29054 2.894066,0.48236 0.650057,0.13002 1.286277,0.32155 1.929415,0.48234 0.803934,0.24119 1.590112,0.55234 2.411799,0.72353 1.113012,0.23188 2.256354,0.28757 3.376449,0.48236 0.730226,0.127 1.433957,0.4005 2.170609,0.48236 0.71909,0.0799 1.451007,-0.0757 2.17055,0 0.815347,0.0858 1.595027,0.41132 2.411796,0.48236 1.04118,0.0905 2.0912,-0.0454 3.13532,0 0.80716,0.0351 1.60783,0.16076 2.41174,0.24117 1.12548,0.0804 2.24865,0.20593 3.37645,0.24117 1.44636,0.0452 2.89414,0 4.34121,0 4.09999,0 8.19997,0 12.29996,0 0.64313,0 1.28627,0 1.92941,0 0.80394,0 1.60898,-0.0423 2.4118,0 0.72696,0.0383 1.44384,0.19844 2.17055,0.24119 0.64203,0.0378 1.28628,0 1.92942,0 0.64313,0 1.28627,0 1.92941,0 2.44304,0 4.88609,0 7.32913,0 M 8.220874,211.79301 c 5.034608,4.86992 2.837452,2.69939 6.631654,6.49359 1.045091,1.0451 2.114751,2.06618 3.135257,3.13529 0.668414,0.70024 1.264727,1.46682 1.929416,2.17058 0.702574,0.74391 1.480677,1.41494 2.17061,2.17059 3.096228,3.39109 2.293061,2.7517 4.823539,5.78824 0.106164,0.1274 3.845869,4.50802 4.582348,5.3059 0.385561,0.4177 0.820274,0.78817 1.205841,1.20587 3.534476,3.82899 0.104968,0.34612 2.894124,3.13528 0.482356,0.48236 0.964729,0.96473 1.44709,1.44706 0.321572,0.32158 0.643136,0.64315 0.964708,0.96473 1.17e-4,1e-4 0.413065,0.41301 0.413113,0.41309 0.04691,0.0864 -0.06074,0.2177 0,0.29504 0.128836,0.16404 0.294994,0.29501 0.442497,0.44251 0.548153,0.54814 1.096317,1.09628 1.644467,1.64444 1.101596,1.10159 2.203233,2.20316 3.30477,3.3048 m -53.966397,-6.60056 c 3.9232519,3.37577 2.1956656,1.87349 5.2082035,4.50948 0.6431201,0.56275 1.3112036,1.09818 1.9293549,1.68823 1.1513608,1.09903 2.25101145,2.25097 3.37650925,3.37648 1.04509095,1.04508 2.10688235,2.07375 3.13525685,3.13529 0.4301173,0.44399 5.6142308,5.86882 6.7529555,7.23529 0.844108,1.01293 1.557848,2.13067 2.411798,3.13529 0.515425,0.6064 1.186379,1.07058 1.688225,1.68822 0.548341,0.6749 0.964681,1.44709 1.447032,2.17062 2.994303,4.49143 1.632942,2.39371 4.100023,6.27057 0.562742,0.88432 1.065199,1.81002 1.688227,2.65293 0.746408,1.00986 1.594501,1.94069 2.411741,2.89414 0.725291,0.84616 0.288951,0.0955 0.713838,0.94525 m -59.663438,23.3345 c 4.108373,3e-5 8.265506,-0.12721 12.269276,0.9647 2.281095,0.62212 4.529522,1.36636 6.752956,2.17059 9.1331541,3.30348 -0.112086,0.60582 9.6470199,3.85884 0.942049,0.31401 3.995211,0.79031 4.8235394,0.96467 0.6487133,0.13658 1.28227131,0.33856 1.92941833,0.48237 0.80031167,0.17785 1.61638187,0.28352 2.41174057,0.48236 1.135589,0.2839 2.243873,0.66923 3.3765066,0.96469 0.096467,0.0251 2.8122403,0.63905 3.3764484,0.72353 0.13344,0.0201 0.2698538,0 0.4047808,0 0.04689,0 0.09732,-0.018 0.140658,0 0.338947,0.13994 0.657156,0.32671 0.995148,0.46893 1.376873,0.57941 2.58862,1.20589 4.0802,1.20589 m -35.254278,63.88663 c 1.903671,-0.47593 2.262071,-0.61489 4.791866,-0.80579 0.961972,-0.0726 1.930185,0.0385 2.894123,0 1.047335,-0.0419 2.091804,-0.14179 3.135257,-0.24116 0.6452235,-0.0615 1.2817502,-0.21628 1.9294158,-0.2412 1.4460034,-0.0556 2.8941421,0 4.3412145,0 0.8843115,0 1.7686231,0 2.65293202,0 0.13229167,0 5.41476398,0 5.54705568,0 0.779436,0 1.5606686,-0.0529 2.3383054,0 0.7263077,0.0494 1.4447626,0.18534 2.1706073,0.2412 0.4643913,0.0357 0.9315293,0 1.3972933,0 m 6.270395,88.979 c 4.20425,-3.22035 8.145246,-6.7622 12.308226,-10.03308 0.948209,-0.74504 1.965116,-1.40176 2.894124,-2.17059 1.404122,-1.16205 2.716141,-2.43152 4.099964,-3.61765 0.867514,-0.74358 1.78235,-1.4306 2.652933,-2.17059 1.859666,-1.58072 1.791827,-1.55064 3.135315,-2.89411 m 3.267524,-51.19495 c 0.361477,0.27366 0.744136,0.52139 1.084424,0.82101 2.693321,2.37124 5.182463,4.94133 7.717605,7.47646 0.562755,0.56274 1.167056,1.0868 1.688285,1.68823 5.693143,6.56894 -3.930317,-3.74595 3.61764,4.34117 0.387858,0.41558 0.803894,0.80391 1.205841,1.20587 0.401966,0.48236 0.781616,0.98422 1.205899,1.44706 0.460955,0.50286 0.99789,0.93369 1.447091,1.44708 0.63368,0.057 0.09824,0.49631 0.241134,0.69596 0.147497,0.20611 0.358423,0.35843 0.537636,0.53764 m 2.302171,-29.50454 c 0.592108,0.74541 1.17729,1.49638 1.776325,2.23623 0.395105,0.488 0.820417,0.95142 1.2059,1.44706 0.160776,0.24117 0.32155,0.48234 0.482324,0.72353 0,0.0722 -0.03499,0.15351 0,0.2167 0.127117,0.22958 0.313182,0.42113 0.469773,0.63172 0.482365,0.80391 0.995281,1.59025 1.447091,2.41173 4.275894,7.77438 -1.574869,-2.30299 2.411741,4.34117 0.824018,1.37332 0.01257,-0.0403 0.241191,0.70678 0.03861,0.12618 0.118015,0.23607 0.177025,0.3541 m 85.751562,29.24876 c 3.31666,0.8292 -0.0545,0.0254 4.34126,0.90445 0.32504,0.065 0.63976,0.17581 0.96472,0.24117 0.19666,0.0395 0.89305,-0.0678 1.03291,0 0.56504,0.27411 1.07579,0.65106 1.6379,0.93114 3.25083,1.61968 2.44147,1.0127 5.06473,2.41176 0.5719,0.30501 1.10091,0.69062 1.68823,0.96472 0.62243,0.29046 1.29167,0.46842 1.92942,0.72353 0.1669,0.0668 0.31221,0.18312 0.48231,0.24117 0.13361,0.0456 0.34404,-0.0552 0.47553,0 0.22612,0.0949 0.43424,0.22879 0.65805,0.32904 0.54679,0.24484 1.1021,0.47022 1.65293,0.70588 0.82061,0.35105 1.89336,0.9647 2.86168,0.9647 m -13.85502,-39.37783 c 0.90376,0.15316 1.80607,0.31533 2.71134,0.4595 5.8219,0.9272 -2.09819,-0.48789 3.13532,0.72353 0.20679,0.0479 0.42452,0 0.63677,0 0.0536,0 0.1106,-0.0188 0.16076,0 0.1691,0.0635 0.3156,0.17867 0.48461,0.24233 0.581,0.2187 1.67087,0.57862 2.34588,0.70363 0.27014,0.05 0.79335,0 1.09699,0 m 67.97204,-162.61299 c 1.27937,-0.81391 2.78543,-1.01693 4.16179,-1.56747 0.70745,-0.28297 1.95919,-0.96174 2.88714,-1.20587 0.11623,-0.0306 0.25077,0.0489 0.36057,0 0.0555,-0.0246 0.0859,-0.0859 0.12885,-0.1289 0.62003,-0.155 1.24566,-0.28917 1.8601,-0.46501 1.05125,-0.30088 2.09259,-0.63542 3.13532,-0.9647 1.10066,-0.34758 1.38459,-0.51519 2.41173,-0.72352 0.20976,-0.0426 0.44307,0.0388 0.6536,0 3.22088,-0.59429 -1.45365,0.15165 2.53333,-0.21725 0.39304,-0.0364 0.77094,-0.17077 1.15932,-0.2412 0.20326,-0.0369 0.44937,0 0.65741,0 0.58405,0 1.16809,0 1.7521,0 0.98023,0 1.96048,0 2.94071,0 2.02235,0 4.04469,0 6.06703,0 0.56277,0 1.12697,0.0401 1.68828,0 0.82241,-0.0587 1.39637,-0.24117 2.14106,-0.24117 m -41.30431,-25.04564 c 0.3488,-0.0697 0.70138,-0.12274 1.04642,-0.20928 0.54417,-0.1365 1.07032,-0.34309 1.61917,-0.45935 0.55613,-0.11779 1.1243,-0.16983 1.68828,-0.24117 0.0723,-0.009 0.1483,0.0191 0.21863,0 0.45757,-0.12446 0.90514,-0.28315 1.35652,-0.42846 0.24199,-0.0779 0.50929,-0.10427 0.7235,-0.24117 0.0622,-0.0397 -0.069,-0.19524 0,-0.22122 0.60233,-0.22667 1.26024,-0.27495 1.86949,-0.48233 0.34034,-0.11584 0.64313,-0.32158 0.9647,-0.48236 0.32158,-0.16079 0.64315,-0.32155 0.9647,-0.48234 0.48236,-0.24119 0.98973,-0.43773 1.44703,-0.72353 0.19283,-0.12052 0.29448,-0.35433 0.48239,-0.48236 0.0622,-0.0424 0.15592,0.0282 0.22566,0 0.0669,-0.027 0.091,-0.11615 0.15296,-0.15298 0.03,-0.0177 0.0697,0 0.10459,0 0.19293,-0.12864 0.39052,-0.25056 0.5788,-0.3859 1.11937,-0.80454 0.54711,-0.7235 1.36991,-0.7235 m 24.70848,-32.77587 c 0.8754,0.71646 1.83986,1.31858 2.7232,2.02528 0.0888,0.071 0.14793,0.17611 0.24114,0.24119 0.11216,0.0783 0.24471,0.12235 0.36706,0.18352 0.46876,0.30797 0.94911,0.59899 1.40626,0.92392 0.65526,0.46578 1.25539,1.00894 1.92942,1.44706 0.93641,0.60868 1.94114,1.10586 2.89412,1.68823 1.33559,0.81619 2.5042,1.8687 3.85884,2.65295 0.0633,0.0366 0.15626,-0.037 0.21926,0 0.12726,0.0748 0.19434,0.22564 0.31321,0.31319 0.7773,0.57253 1.58015,1.10953 2.3707,1.66359 0.80359,0.56322 1.60186,1.13411 2.41173,1.68823 1.34948,0.92331 3.30626,2.15368 4.58234,3.13531 3.01662,2.3205 -1.33493,-0.6487 1.44709,1.20587 M 195.37077,300.85684 c 0.88172,0.12811 1.75924,0.28964 2.64517,0.38433 0.4268,0.0456 0.90784,-0.0543 1.34393,0 0.53054,0.0661 1.05719,0.16235 1.58856,0.22125 0.19174,0.0212 0.38753,-0.0257 0.57869,0 0.52525,0.0706 1.04347,0.2032 1.5725,0.23429 0.80256,0.0472 1.60925,-0.0472 2.41181,0 0.56748,0.0334 1.12271,0.18351 1.68823,0.24119 0.26873,0.0274 0.54025,0 0.81039,0 m -28.87631,-43.11512 c 0.54946,-0.37386 1.09892,-0.74769 1.64838,-1.12155 0.14118,0 0.28864,0.0417 0.42349,0 0.0417,-0.013 -0.0241,-0.0944 0,-0.13083 0.2063,-0.31255 0.44236,-0.60473 0.67771,-0.89601 0.19796,-0.24495 0.42563,-0.4671 0.6681,-0.6681 0.86174,-0.71435 1.5689,-1.12199 2.61339,-1.65857 0.0563,-0.0289 0.12989,0.0206 0.18968,0 0.0442,-0.0151 0.0559,-0.0814 0.0991,-0.0991 0.0874,-0.036 0.19653,0.0367 0.28366,0 0.26324,-0.11107 0.49424,-0.29708 0.76663,-0.3833 0.39079,-0.12372 0.81233,-0.12642 1.20584,-0.24117 0.56597,-0.16505 0.18407,-0.21939 0.58703,-0.21939 m 19.53814,56.24305 c 0.7964,-0.0291 5.1743,-0.24435 6.73214,-0.16645 0.88683,0.0443 1.7667,0.18576 2.65293,0.24116 0.94578,0.0591 2.27801,-0.0955 3.20376,0 1.1309,0.11663 2.24649,0.3568 3.37645,0.48234 0.31962,0.0355 0.64386,-0.0214 0.9647,0 4.09641,0.27308 1.21226,0.12811 4.34117,0.48236 0.19794,0.0225 0.53483,-0.0524 0.74872,0 1.34059,0.32819 2.88444,0.82807 4.24749,0.9647 m -38.44337,-61.42577 c 1.88489,-1.30612 3.91197,-2.36532 5.78286,-3.70118 0.60148,-0.42947 1.10091,-0.98814 1.68376,-1.44259 0.13642,-0.10636 0.3189,-0.13822 0.46421,-0.23209 0.0758,-0.049 0.12766,-0.12769 0.1915,-0.19153 0.41847,-0.19452 0.85876,-0.34769 1.2554,-0.58351 6.01223,-3.57487 1.08828,-1.02651 5.30587,-3.13529 0.80394,-0.40198 1.60785,-0.80394 2.41179,-1.20589 0.16078,0 0.32951,0.0499 0.48233,0 0.82473,-0.2694 -0.12853,-0.23397 0.38426,-0.23397 m 10.86916,29.13308 c 1.28984,0 2.57966,0 3.8695,0 0.11369,0 0.72898,0.0465 0.80799,0 0.0577,-0.034 0.0815,-0.1135 0.14213,-0.1421 0.53687,-0.25342 1.09696,-0.45488 1.63841,-0.6984 1.05465,-0.47434 2.08372,-1.00597 3.14939,-1.455 0.48479,-0.16158 0.96959,-0.32318 1.45438,-0.48476 0.0804,-0.0804 0.14034,-0.18857 0.24112,-0.2412 0.10049,-0.0524 0.25979,0.0801 0.34004,0 0.0281,-0.028 -0.0266,-0.0895 0,-0.11882 0.34637,-0.38233 1.38361,-1.62706 2.13477,-1.62706 m -8.10655,-35.09319 c 1.87085,-0.64164 3.4266,-1.89508 5.1961,-2.72976 -0.27069,-4.74094 1.39809,-0.43352 2.06849,-0.72353 0.0491,-0.0212 0.0656,-0.0895 0.1134,-0.1134 0.92027,-0.46054 1.85729,-0.88686 2.78315,-1.33607 0.32345,-0.15692 0.63889,-0.33031 0.9647,-0.48236 3.13817,-1.46447 1.75178,-0.69514 3.07226,-1.44354 m 52.84092,-109.4096 c 0.32152,0.20095 0.656,0.38243 0.96453,0.60283 1.49355,1.06688 2.91037,2.24226 4.43953,3.25744 1.32096,0.87696 2.73037,1.61285 4.09995,2.41176 0.55986,0.3266 1.11472,0.66283 1.68828,0.96469 2.10998,1.11051 3.8503,1.90365 6.02938,2.89412 0.72081,0.32766 1.46243,0.61063 2.17062,0.96473 0.5797,0.28985 1.12165,0.64994 1.68822,0.96469 0.88054,0.48919 1.76414,0.97303 2.65293,1.44706 1.58027,0.84283 1.01351,0.41328 3.37645,1.44706 1.31752,0.57642 2.55762,1.31707 3.85884,1.92942 0.55396,0.2607 1.13657,0.45792 1.6882,0.72353 1.61968,0.77984 3.2157,1.60785 4.82354,2.41176 0.32158,0.16079 0.62916,0.3533 0.96473,0.48233 0.71183,0.27379 1.45386,0.46289 2.17061,0.72353 0.33788,0.12288 0.64313,0.3216 0.9647,0.48237 m -41.91304,-4.70787 c 3.63823,1.43452 5.81461,2.1789 9.35757,4.1044 2.24824,1.22188 7.33068,4.43093 9.88827,6.02941 2.96998,1.85626 5.95969,3.68096 8.9235,5.54707 4.72974,2.97799 -3.60818,-2.02393 4.36284,2.66649 0.12274,0.0722 1.72668,1.13202 2.16012,1.13202 m -37.0004,-4.01489 c 2.83261,0.80928 0.61966,0.10769 4.73456,1.81147 3.96288,1.64084 4.80031,1.78742 9.09186,3.93449 0.87635,0.43844 1.68465,1.00155 2.52084,1.51249 2.14357,1.30982 4.26831,2.65046 6.41831,3.94972 3.30611,1.9979 4.38505,2.74273 7.2353,4.09999 1.0392,0.49487 2.05962,1.0373 3.13526,1.44708 0.6195,0.23598 1.29664,0.28462 1.92939,0.48234 0.65562,0.20489 1.28927,0.47458 1.92943,0.72353 2.02046,0.78573 1.65007,0.96472 2.81733,0.96472 m -69.83288,3.28509 c 0.84857,0.66533 1.74128,1.27789 2.54569,1.99597 1.65441,1.47688 3.19143,3.08083 4.82349,4.58237 0.37883,0.34851 0.80393,0.64312 1.20589,0.9647 1.12548,1.0451 2.24948,2.09179 3.37645,3.13528 0.48673,0.45067 4.36727,4.06633 5.3118,4.82942 1.34128,1.08362 2.76749,2.0592 4.10888,3.14266 0.75305,0.60828 1.44703,1.28628 2.17056,1.92943 0.9647,0.80393 1.91352,1.62729 2.89412,2.41178 3.30956,2.64763 0.5639,0.3039 3.61764,2.65292 0.49769,0.38283 0.95978,0.80994 1.44709,1.20589 1.75448,1.42553 2.32069,1.81687 3.85882,3.13529 0.64883,0.55613 1.28053,1.13207 1.92936,1.68823 0.47673,0.40862 0.97706,0.78957 1.44709,1.20589 0.39407,0.34901 0.70199,0.79243 1.1167,1.11667 0.0332,0.0259 0.0844,0 0.12658,0 m -49.92926,4.12327 c 4.15052,2.13569 2.11667,0.97398 5.20967,2.89377 1.68699,1.04712 3.40389,2.04716 5.06474,3.13529 0.67243,0.44058 1.27767,0.97636 1.92939,1.44706 0.79552,0.57454 1.61007,1.12233 2.41176,1.68825 0.56496,0.39881 1.14821,0.77385 1.68822,1.20587 0.66731,0.53387 1.26617,1.14935 1.9294,1.68822 0.62394,0.50697 1.29085,0.95869 1.92942,1.44706 0.73853,0.56486 1.46976,1.13919 2.20176,1.71249 1.13826,0.89146 2.25274,1.81375 3.40894,2.68179 0.78476,0.58918 1.63526,1.08823 2.41176,1.68825 0.99364,0.76783 1.91719,1.62269 2.89412,2.41176 1.11349,0.89935 2.25419,1.76451 3.37645,2.65293 7.66553,6.06856 -0.34052,-0.2063 3.37651,2.65295 0.72649,0.55888 1.4664,1.10143 2.17053,1.68822 1.90257,1.58549 1.90516,1.80335 3.6177,3.13532 0.22879,0.17793 0.48234,0.32157 0.72351,0.48233 m -62.96938,24.70528 c 4.5448,0.98931 2.40183,0.38992 6.44525,1.73771 1.44708,0.48236 2.89414,0.96472 4.34123,1.44706 1.44703,0.48236 2.91497,0.90609 4.34115,1.44706 0.90823,0.34451 1.73815,0.87918 2.65292,1.20589 1.34157,0.47913 2.74857,0.75538 4.10004,1.20586 0.8214,0.27382 1.59451,0.67869 2.41173,0.96473 0.79219,0.27725 1.61864,0.44891 2.41176,0.72353 0.64889,0.22468 5.1255,1.9023 6.28247,2.41649 1.30347,0.57933 3.07417,1.62764 4.34179,2.1709 0.30467,0.13055 0.6399,0.17508 0.96472,0.24117 0.12224,0.0249 0.36857,-0.0536 0.48718,0 0.32179,0.14526 0.62765,0.32351 0.94295,0.48236 0.64217,0.32351 1.28627,0.64313 1.92942,0.9647 m -30.62912,34.95482 c 1.57623,-0.15253 3.1473,-0.37333 4.72864,-0.4576 1.28447,-0.0684 2.5731,-0.0367 3.85884,0 1.77374,0.0507 4.74488,0.18114 6.75296,0.48234 0.88887,0.13335 1.76323,0.3547 2.65292,0.48236 0.36735,0.0527 0.74615,-0.0538 1.11334,0 1.5136,0.22183 3.01961,0.49295 4.53192,0.72353 1.12392,0.17137 2.25504,0.29546 3.3765,0.48236 0.0655,0.0109 1.85071,0.46734 1.92051,0.48234 0.1216,0.0262 0.29686,0 0.42296,0 0.87453,0 1.75027,-0.0462 2.62358,0 4.85685,0.25728 0.72105,0.24116 2.31868,0.24116 m -17.81252,32.19749 c 1.88198,-1.34207 3.92507,-2.42638 5.88291,-3.64722 0.34398,-0.2145 0.76356,-0.55626 1.1707,-0.70223 0.0563,-0.0201 0.12327,0.0206 0.17944,0 1.09733,-0.40127 2.79821,-1.17579 3.79484,-1.62428 0.88432,-0.40196 1.76866,-0.80391 2.65298,-1.20587 0.24116,-0.16078 0.46516,-0.35091 0.72353,-0.48233 0.0668,-0.034 0.15544,0.0285 0.22471,0 0.0687,-0.0283 0.0929,-0.1211 0.15766,-0.15767 0.0352,-0.0198 0.0827,0.0119 0.12129,0 0.70207,-0.21722 1.39771,-0.45471 2.09528,-0.68588 1.44791,-0.47979 2.88439,-0.99494 4.34118,-1.44703 0.8754,-0.2717 1.77157,-0.47173 2.65293,-0.72353 2.54222,-0.72636 1.6411,-0.72353 3.25133,-0.72353 m -95.21481,90.67162 c 4.11102,-0.20227 8.18229,0.44077 12.24283,0.96473 1.28563,0.16589 2.56727,0.37163 3.85884,0.48233 1.52397,0.13063 3.06213,0.0723 4.58234,0.2412 1.1956,0.13284 2.28431,0.72353 3.5002,0.72353 m -27.00853,-22.27321 c 0.78914,0.0804 1.57533,0.19857 2.36741,0.24117 0.70387,0.0379 1.40981,0 2.11471,0 0.11406,0 0.23691,-0.0439 0.34218,0 2.95709,1.23372 -1.92952,0.19293 5.54705,1.68822 0.47302,0.0946 0.97253,-0.0863 1.44711,0 2.37654,0.4321 3.48893,0.89824 5.54704,1.44706 0.64056,0.17082 1.294,0.2934 1.92942,0.48237 0.16119,0.0479 0.29668,0.15938 0.45125,0.22563 0.37227,0.15955 0.7552,0.29337 1.12818,0.45128 1.6914,0.71609 3.3491,1.5146 5.06474,2.17058 1.02134,0.3905 2.10648,0.59434 3.13531,0.9647 0.9833,0.35399 1.9159,0.83794 2.89406,1.20589 0.30658,0.11533 0.635,0.16103 0.95261,0.24117 0.25818,0.0652 0.51424,0.1393 0.77467,0.19473 0.0457,0.01 0.0971,-0.018 0.14031,0 0.23445,0.0972 0.44418,0.24924 0.68099,0.34052 2.27308,0.87609 5.00271,2.16771 7.57983,2.16771 m 2.19131,4.02971 c 3.81079,-3.08962 2.13029,-1.66188 5.07611,-4.23945 0.64312,-0.56274 1.30709,-1.10252 1.92942,-1.68822 0.74512,-0.70128 1.39028,-1.50869 2.17059,-2.17059 1.88844,-1.6019 3.94412,-3.00006 5.82451,-4.61137 0.94964,-0.81376 1.72556,-1.81391 2.65292,-2.65295 0.76343,-0.69073 1.60788,-1.28628 2.41181,-1.9294 0.88432,-0.72353 1.80565,-1.40401 2.65293,-2.17059 0.84307,-0.76276 1.59091,-1.62515 2.41173,-2.41178 0.0323,-0.0309 4.32551,-3.93838 5.06473,-4.82351 0.29932,-0.35841 0.44426,-0.82529 0.72353,-1.19952 0.0342,-0.0458 0.12634,0.035 0.17156,0 0.57359,-0.44397 1.11376,-0.92996 1.65452,-1.41338 2.67909,-2.39503 5.32193,-4.83864 7.86246,-7.38012 m -80.48667,71.33129 c 0.724,0.13041 1.45253,0.23797 2.17207,0.39124 0.64839,0.13809 1.2724,0.39378 1.92942,0.48234 0.56938,0.0767 1.3957,0 2.05682,0 0.35118,0 0.7104,-0.0747 1.05357,0 1.14371,0.24905 2.23501,0.70527 3.37642,0.96469 1.67035,0.37963 3.41482,0.21585 5.06474,0.72353 0.72353,0.24117 1.44703,0.48236 2.17056,0.72353 0.24119,0 0.48773,-0.0505 0.72358,0 0.89625,0.19206 1.7598,0.51742 2.65293,0.72353 0.20201,0.13626 0.43973,-0.0478 0.65159,0 0.59065,0.13333 0.47275,0.16894 0.95533,0.16894 M 166.9515,550.8307 c 1.72509,0 3.4502,0 5.17531,0 0.48236,0 0.96565,0.0301 1.44708,0 0.80635,-0.0504 1.60539,-0.19077 2.41173,-0.24117 0.48141,-0.0301 0.9647,0 1.44704,0 1.28627,0 2.57257,0 3.85884,0 0.96469,0 1.92942,0 2.89412,0 0.64315,0 1.28817,0.0493 1.92942,0 0.99846,-0.0768 1.83589,-0.57227 2.81445,-0.69458 0.31909,-0.0399 0.64476,0.0323 0.96472,0 4.17349,-0.70599 -1.01724,0.0905 2.63163,-0.24117 0.48699,-0.0443 0.96295,-0.17203 1.44703,-0.2412 0.64164,-0.0917 1.28781,-0.14951 1.92942,-0.24116 0.48411,-0.0692 0.95978,-0.20058 1.44709,-0.2412 0.48069,-0.04 0.96612,0.037 1.44703,0 0.56679,-0.0436 1.12104,-0.20336 1.68823,-0.24116 0.64172,-0.0428 1.2863,0 1.92942,0 0.64315,0 1.28627,0 1.92942,0 2.57037,0 5.14077,0 7.71115,0 m -57.58943,53.13312 c 0.54592,-0.18198 1.09185,-0.36396 1.63778,-0.54594 0.37338,-0.22403 0.70885,-0.52912 1.12014,-0.6721 4.21243,-1.46452 1.49825,-0.25395 4.3412,-0.9647 3.67747,-0.9194 -1.13437,-0.0626 3.37646,-0.96472 0.55742,-0.11147 1.13432,-0.11335 1.68822,-0.24117 0.49544,-0.11432 0.96473,-0.32155 1.44709,-0.48233 0.72353,-0.2412 1.44261,-0.49607 2.17056,-0.72356 0.55864,-0.17457 1.12887,-0.31022 1.68828,-0.48236 0.86977,-0.2676 2.91595,-1.00536 3.61765,-1.20587 0.39412,-0.1126 0.80568,-0.15224 1.20584,-0.24116 0.32356,-0.0719 0.6427,-0.16251 0.9647,-0.2412 0.31337,-0.0765 0.63447,-0.12509 0.94136,-0.22444 0.15803,-0.0512 0.28461,-0.18098 0.44497,-0.22429 0.71552,-0.19331 1.44838,-0.3157 2.17059,-0.48236 0.32298,-0.0745 0.63582,-0.1999 0.96472,-0.24114 0.31687,-0.0398 0.64485,0.0623 0.95809,0 0.49384,-0.0982 0.94218,-0.36643 1.43372,-0.47573 0.003,0 1.40711,0 1.40949,0 0.90572,-0.11559 1.13633,-0.22476 1.909,-0.4823 0.24116,-0.0804 0.47714,-0.17852 0.72352,-0.2412 0.25297,-0.0644 0.61614,0.0408 0.86228,0 0.79219,-0.15687 1.58438,-0.31374 2.37654,-0.47061 0.40198,0 0.80706,0.05 1.20592,0 0.25019,-0.0314 0.47313,-0.17711 0.71699,-0.24117 0.17474,-0.0459 0.36129,0 0.54192,0 m 468.4381,-181.09636 c 0.64047,-0.38428 1.24528,-0.8355 1.92143,-1.15287 1.70775,-0.80158 4.41372,-1.72405 6.27057,-2.41176 2.9496,-1.09244 3.45681,-1.35818 6.02938,-2.17059 0.80036,-0.25273 1.62591,-0.42883 2.41181,-0.72353 1.50704,-0.56515 3.93684,-1.72169 5.54704,-2.41178 0.96059,-0.41166 1.93093,-0.80031 2.89412,-1.20586 0.15335,-0.0646 1.84176,-0.84508 2.41175,-0.9647 0.22067,-0.0463 0.76047,0.0578 0.95684,0 12.37163,-3.63911 -1.27357,-0.0209 6.64972,-1.88518 1.25593,-0.29549 1.2528,-0.48234 2.09349,-0.48234 M 594.64355,299.1961 c 1.70582,1.06821 5.16469,3.15571 6.80892,4.47106 0.11409,0.0913 5.24034,4.61987 6.27057,5.54707 0.88834,0.79949 1.77927,1.59631 2.65298,2.41176 0.55523,0.51821 1.10072,1.25775 1.81457,1.61171 5.84559,2.89875 2.05681,0.97269 7.17645,3.10589 4.52326,1.88468 1.0011,0.65521 4.08173,1.68212 m -90.52828,-53.03097 c -1.59625,3.64016 -3.11464,7.3138 -4.68055,10.96756 -0.82151,1.91688 -0.52578,1.10887 -0.9647,2.39501 m 68.28321,43.51208 c -0.55163,0.84531 -1.07603,1.70907 -1.65488,2.53597 -0.8576,1.22505 -1.76589,2.41382 -2.65296,3.61768 -0.23844,0.32361 -0.50053,0.63026 -0.7235,0.96472 -0.21955,0.3293 -0.23775,0.55253 -0.42608,0.88384 -0.55187,0.97097 -1.10519,1.94154 -1.68823,2.89412 -0.99454,1.62494 -0.9647,0.84953 -0.9647,1.60121 M 504.48268,228.60905 c 0.42762,0.0781 0.86514,0.11412 1.28286,0.23445 0.41603,0.1198 0.81029,0.30652 1.20589,0.48234 1.05185,0.46749 2.10579,0.93231 3.13531,1.44706 1.54387,0.77194 3.08063,1.56077 4.58238,2.41175 0.91193,0.51679 1.7458,1.16308 2.65292,1.68826 0.62227,0.36025 1.33112,0.56583 1.92942,0.96469 0.37838,0.25226 0.61569,0.67318 0.9647,0.96473 0.005,0.70887 0.45098,0.1031 0.63177,0.23688 0.47821,0.35383 0.88051,0.80745 1.37671,1.13554 1.2682,0.83849 3.3419,1.96911 4.82354,2.65295 3.5675,1.64653 -0.0926,-0.16693 1.68822,0.72353 m -81.19684,-54.90509 c 0.0917,1.95945 -0.82092,3.69012 -1.20589,5.54061 -0.0138,0.0656 0.0175,0.13642 0,0.20116 -0.0262,0.097 -0.10848,0.17447 -0.12798,0.27308 -0.42124,2.12889 -0.85812,4.25606 -1.19248,6.4003 -0.22431,1.43859 -0.27619,2.89988 -0.48238,4.34117 -0.26255,1.83539 -0.24117,0.18415 -0.24117,0.91777 m -67.73709,-85.04211 c -0.69943,1.39287 -1.42203,2.77431 -2.09823,4.17859 -0.26474,0.54977 -0.49606,1.11529 -0.72353,1.6815 -0.0921,0.22926 -0.1697,0.46472 -0.23444,0.70316 -0.014,0.0516 0.0249,0.11306 0,0.16028 -0.8105,1.53276 -4.03551,7.31079 -4.94406,9.18472 -3.73764,7.70882 0.006,0.80889 -2.89414,6.02941 m 48.77151,8.92389 c 2.14091,0.94909 4.12639,2.27513 6.34548,3.05218 0.11893,0.0417 0.25201,0 0.37804,0 0.0569,0 0.12186,-0.0292 0.17073,0 1.27913,0.76229 2.5033,1.61531 3.79185,2.36151 1.18266,0.6849 2.39527,1.31824 3.61765,1.92942 1.50206,0.75105 1.10455,0.72353 1.8978,0.72353 m -29.25029,-54.16938 c -0.10285,1.09944 -0.1981,2.19961 -0.30853,3.29829 -0.22427,2.23097 -0.28657,2.27042 -0.48239,4.58237 -0.0257,0.30369 0,0.62717 0,0.93406 0,0.79486 0,1.58975 0,2.38461 0,1.44481 0,2.8896 0,4.33441 m 12.50759,-28.452608 c 3.81077,0.582348 7.59637,1.282065 11.33049,2.250176 0.57132,0.148113 5.37171,1.635627 5.54707,1.688226 0.5606,0.168196 1.11279,0.375841 1.68828,0.482362 0.30089,0.05567 0.61198,0 0.91797,0 0.10367,0 0.21413,-0.03688 0.31105,0 0.15631,0.05951 0.28739,0.180578 0.44884,0.22442 1.16538,0.316468 -0.51417,-0.445929 0.7933,0.207883 m 28.05871,33.839761 c -0.265,2.047 -0.3444,4.11522 -0.60047,6.16349 -0.14102,1.12816 -0.33533,2.24912 -0.48239,3.37648 -0.0941,0.72187 -0.10697,1.45508 -0.24111,2.17059 -0.10787,0.57523 -0.36341,1.11519 -0.48239,1.68823 -0.0431,0.20733 0.036,0.42659 0,0.63521 -0.0214,0.12382 -0.13787,0.21545 -0.16804,0.33745 -0.17303,0.69943 0.0758,0.0931 0,0.49173 -0.21608,1.13588 -0.43373,2.27166 -0.67572,3.4023 -0.22447,1.04881 -0.46339,2.09476 -0.72352,3.13531 -1.39806,5.59234 -0.6055,1.89209 -1.2059,4.77626 m 48.42502,-42.74857 c 0.4767,0 0.95338,0 1.43005,0 9.46174,0 -0.31422,-0.0707 9.97865,0.2412 0.88392,0.0268 1.76927,-0.0327 2.65298,0 0.85942,0.0318 4.96226,0.27577 6.27057,0.48233 0.73211,0.1156 1.44272,0.3424 2.17057,0.48236 1.36281,0.26207 2.7311,0.49538 4.10001,0.72353 1.57085,0.26181 1.18694,0.24117 2.12587,0.24117 m 25.38201,61.17601 c -0.12526,1.1531 -0.31628,2.30094 -0.37574,3.45929 -0.066,1.28458 0,2.57254 0,3.85884 0,2.02113 0,4.04228 0,6.06343 0,1.00693 0.041,2.0147 0,3.0208 -0.27879,6.83816 -0.24114,0.29086 -0.24114,4.25397 m 61.0402,15.10319 c -0.4413,2.02634 -0.8826,4.05265 -1.32393,6.07898 -0.0804,0.64313 -0.12493,1.29178 -0.24119,1.9294 -0.0452,0.24789 -0.17497,0.47331 -0.24111,0.71646 -0.0634,0.23278 0.0317,0.57444 0,0.80553 -0.15116,1.10133 -0.7088,3.89091 -0.7088,5.19589 M 597.10333,190.5689 c 1.43412,0.57629 2.85258,1.19317 4.30234,1.72892 1.33395,0.49297 1.36448,0.31192 2.35172,0.71705 0.15555,0.0638 0.3008,0.15039 0.45119,0.22558 1.26545,0.63273 2.54122,1.24524 3.79635,1.8982 1.21092,0.62992 2.35868,1.37743 3.61066,1.9294 0.0613,0.027 0.13634,-0.0175 0.20101,0 0.19902,0.054 0.3874,0.1415 0.5811,0.21225 M 599.22397,86.980244 c 0.98647,0.160787 1.96432,0.388805 2.95941,0.482361 1.19825,0.11266 2.41284,-0.117977 3.61059,0 0.32043,0.03157 0.62211,0.167561 0.93715,0.23413 0.0557,0.01191 0.11382,0 0.17074,0 0.19219,0 0.38899,-0.0418 0.57658,0 6.92187,1.54305 -1.44651,-0.02196 5.03224,1.195044 0.47823,0.08985 0.95726,0.178117 1.43976,0.241194 0.1339,0.01746 0.27471,-0.035 0.40513,0 0.99478,0.266912 0.10395,0.234606 0.68598,0.234606 m 68.78063,7.549832 c 4.65207,0 9.30413,0 13.95619,0 M 683.13585,222.86283 c 1.37571,0.0691 2.75736,-0.0764 4.13288,0 0.72686,0.0404 1.45153,0.12764 2.17058,0.24117 0.80981,0.12787 1.60343,0.34544 2.41176,0.48236 0.14335,0.0243 0.2908,0 0.43622,0 0.60309,0.0782 1.20973,0.13272 1.80927,0.23456 5.21555,1.04312 -0.11591,0.0378 4.34118,0.72353 0.40516,0.0623 0.80058,0.17986 1.20589,0.24116 0.23072,0.0349 0.52052,0 0.76018,0 m -19.75268,14.1949 c -0.20307,1.68569 -0.71319,3.31684 -0.96465,4.9933 -0.11983,0.79898 -0.10835,1.61483 -0.24119,2.41175 -0.0296,0.17733 -0.19357,0.30898 -0.2412,0.48234 -0.05,0.18208 0,0.37766 0,0.5665 0,0.42095 0.0377,0.84357 0,1.26285 -0.12324,1.37054 -0.36803,2.72865 -0.48231,4.09999 -0.0467,0.56078 0,1.12548 0,1.68822 0,0.4563 0,0.9126 0,1.3689 m -25.46503,-522.58023 c -0.32692,1.74585 -0.24111,3.5086 -0.24111,5.2702 0,0.40196 0,0.80391 0,1.20587 0,0.30593 -0.0447,0.61515 0,0.91779 0.0346,0.23397 0.19499,0.43647 0.23444,0.66966 0.0901,0.5329 -0.078,1.08659 0,1.62139 0.0356,0.24437 0.19381,0.45921 0.23445,0.70279 0.0385,0.23092 -0.0338,0.47068 0,0.70234 0.0737,0.50531 0.29893,1.08992 0.46919,1.5768 M 467.05904,-109.1404 c 1.37292,3.08921 0.63153,1.24754 2.0107,5.39996 0.32054,0.96505 0.71808,1.90759 0.96472,2.89411 0.31739,1.269622 0.47638,2.573689 0.7235,3.858834 0.15484,0.805087 0.31512,1.609151 0.48234,2.411757 0.23474,1.126849 0.46842,2.254059 0.7235,3.376477 0.14693,0.646449 0.36716,1.27657 0.48239,1.929416 0.12652,0.716902 0.0865,1.459214 0.24119,2.170578 0.24866,1.143815 0.66924,2.243852 0.9647,3.376477 0.18709,0.717175 0.32131,1.447107 0.48234,2.170579 0.51152,2.298321 0.48239,1.424244 0.48239,2.565741 m -58.6758,51.070028 c 3.26802,-1.496272 6.70928,-2.483988 10.15251,-3.467788 3.10473,-0.887069 0.22894,-0.15875 3.61765,-0.72353 0.32694,-0.0545 0.63992,-0.174916 0.96469,-0.241167 0.14034,-0.02866 0.33687,0 0.48385,0 m -34.8628,0.170603 c 0.0702,0.350864 0.16449,0.697759 0.2105,1.052618 0.17757,1.369034 0.29292,2.745555 0.45988,4.115911 0.14711,1.207638 0.32663,2.411095 0.48231,3.617648 0.16589,1.285637 0.30723,2.574422 0.48238,3.858842 0.0661,0.484505 0.17905,0.962025 0.2412,1.447059 0.0411,0.320437 0,0.68924 0,1.017138 m -4.73379,32.663368 c -0.0775,1.14927 -0.14341,2.299388 -0.23257,3.447812 -0.0688,0.885295 -0.19445,1.766226 -0.2412,2.65295 -0.0548,1.040395 0,2.138125 0,3.192013 0,2.171859 0,4.343744 0,6.515603 m 52.85235,-41.957863 c -0.0665,0.8106833 -0.1325,1.6214195 -0.1996,2.4320499 -0.0799,0.9647767 -0.18394,1.9277806 -0.2412,2.8941448 -0.0233,0.3916098 0,0.7845954 0,1.1768931 0,1.6332729 0.10623,3.30795306 0,4.92228179 -0.005,0.0739246 -0.18404,-0.0634735 -0.22217,0 -0.0979,0.16311561 0,0.38049731 0,0.57075911 M 411.58189,46.512752 c 0.76317,-0.07832 1.52308,-0.200263 2.28944,-0.235003 0.96372,-0.04368 1.92942,0 2.89415,0 0.80391,0 1.60784,0 2.41178,0 0.80391,0 1.60782,0 2.41175,0 0.46252,0 0.92673,-0.03953 1.38756,0 0.8903,0.07641 1.78292,0.133298 2.66951,0.244767 0.41275,0.05191 0.81585,0.163168 1.22375,0.244739 1.04511,0.160787 2.08436,0.365601 3.13532,0.482362 0.59309,0.06591 1.26918,0 1.88325,0 1.28902,0 2.57802,0 3.86704,0 M 445.59596,59.371 c -0.70051,4.986205 -0.68358,10.020829 -0.68358,15.042197 M 554.682,59.126313 c -0.0729,0.947817 -0.17518,1.893834 -0.21873,2.84345 -0.0346,0.754989 0,1.552311 0,2.323254 0,0.17944 0,0.358854 0,0.538295 0,0.221588 0.056,0.450373 0,0.664765 -0.028,0.107156 -0.20627,0.127953 -0.23498,0.23495 -0.0553,0.206243 0.0534,0.433864 0,0.640636 -0.10623,0.411215 -0.33724,0.780785 -0.4713,1.183798 -0.45305,1.361917 -0.01,0.491305 -0.46914,1.608138 -0.0622,0.151209 -0.18613,0.27813 -0.22105,0.437859 -0.0717,0.327951 0,0.671407 0,1.00711 0,0.715089 0,1.430179 0,2.145242 0,1.271799 0,2.543571 0,3.815344 m 129.19196,-12.09421 c 0.19344,1.16041 1.08421,6.292321 1.22314,7.820713 0.0582,0.640503 0,1.286272 0,1.929421 0.0804,0.643149 0.16743,1.285478 0.2412,1.929421 0.0415,0.362268 0,0.729245 0,1.093893 0,0.401955 0,0.803937 0,1.205892 0,0.472519 -0.0432,0.946997 0,1.417532 0.26961,2.933276 0.24114,0.234288 0.24114,1.64166 m -177.73743,-51.7643 c 5.85547,0 7.20292,-0.139144 13.48531,0.556816 1.84735,0.204655 6.80726,1.415917 8.44114,1.688226 4.5439,0.757317 -1.64912,-0.718661 2.16408,0.241195 m 66.32514,-12.889257 c 1.53233,-0.10459 2.99201,-0.649896 4.50972,-0.832035 1.19999,-0.143986 2.41003,-0.194733 3.6177,-0.241168 0.88365,-0.034 1.76985,0.04649 2.65295,0 0.64725,-0.03408 1.28317,-0.191426 1.92939,-0.241167 0.5338,-0.04112 1.11747,0 1.66682,0 M 686.75072,0.77711609 c 1.21748,0 2.43496,0 3.65242,0 0.44479,0 0.89257,-0.0514615 1.33437,0 0.52184,0.0608012 1.03743,0.16893646 1.5593,0.22936731 0.2677,0.030983 0.54427,-0.0532077 0.80846,0 0.22098,0.044476 0.42468,0.1538287 0.64362,0.2074862 0.0658,0.01614 0.13891,-0.021431 0.20318,0 1.31799,0.4377267 -0.78653,-0.051673 1.01732,0.4201848 0.0718,0.018785 0.15362,-0.027331 0.22259,0 0.1922,0.0762 1.03355,0.617511 1.37102,0.617511 M 506.79114,-77.705697 c 3.76952,0 7.53907,0 11.30861,0 m 40.13507,16.854558 c 0.0804,1.536894 0.1774,3.073006 0.2412,4.61068 0.0334,0.805733 0,1.625356 0,2.434 0,0.237924 -0.0486,0.780068 0,0.985059 0.18174,0.76681 0.46529,1.069907 0.71019,1.896658 0.0393,0.132829 -0.0531,0.287639 0,0.415605 0.10499,0.253174 0.30406,0.456104 0.45612,0.684157 0.15253,0.305088 0.3307,0.598654 0.45762,0.915262 0.0281,0.07004 0,0.150921 0,0.22638 0.15364,0.385467 0.29112,0.77777 0.4609,1.156396 -0.27836,0.719799 0.48795,0.713015 0.68276,1.097211 0.76803,1.514682 -0.30012,-0.122271 0.44736,1.123429 0.14914,0.248547 0.36377,0.459039 0.48239,0.723517 0.048,0.107076 0,0.234711 0,0.352081 0,0.350837 -0.0403,0.130519 0.38198,0.552741 m 92.4035,-59.910617 c -0.018,1.4085 -0.0316,2.78054 0.15661,4.180178 0.0546,0.40626 0.20709,0.797373 0.24111,1.205871 0.0565,0.678621 0,1.361945 0,2.042916 0,0.199673 -0.05,0.642422 0,0.850887 0.0682,0.283816 0.17235,0.55844 0.23511,0.843494 0.0161,0.07305 -0.0236,0.15343 0,0.224388 0.0529,0.158644 0.14957,0.299143 0.22434,0.448715 0.0789,0.219607 0.17174,0.434713 0.2368,0.65882 0.0729,0.250974 -0.0705,0.564473 0,0.816163 0.0754,0.269285 0.30975,0.478499 0.37524,0.75038 0.0251,0.104735 -0.0287,0.21935 0,0.323191 0.1326,0.480094 0.36777,0.929743 0.48013,1.414978 0.0495,0.21386 0,0.439037 0,0.658556 0,0.719908 0,1.439818 0,2.159728 m 26.6251,-103.983065 c 3.31463,-1.09904 0.27467,-0.13518 2.58144,-0.77952 0.23773,-0.0664 0.46363,-0.17652 0.70593,-0.22355 0.55804,-0.10832 1.13081,-0.12969 1.68823,-0.24118 2.26338,-0.45268 -1.76559,-0.13424 2.41173,-0.48235 0.74229,-0.0619 1.5381,0 2.28896,0 1.64995,0 3.29986,0 4.94978,0 m -99.1775,52.63949 c 1.17271,-0.43034 2.34542,-0.86068 3.51813,-1.29102 0.0746,-0.0746 0.12925,-0.1771 0.22384,-0.22385 0.21455,-0.10601 0.45019,-0.16505 0.68218,-0.22384 0.13742,-0.0348 0.3506,0.0554 0.48191,0 0.69643,-0.29394 1.37287,-0.63402 2.07065,-0.92475 0.23352,-0.0973 0.47295,-0.1865 0.7206,-0.23823 0.137,-0.0286 0.27993,0 0.41989,0 0.0716,0 0.14817,0.0263 0.21474,0 0.0615,-0.0243 0.0785,-0.11662 0.1403,-0.14027 0.81778,-0.31326 2.41906,-0.96305 3.44856,-0.96305 m -94.22638,3.59893 c 1.81464,1.58284 3.14314,3.59832 4.76327,5.35347 0.46267,0.50125 0.98816,0.94232 1.44703,1.44707 0.34626,0.38089 0.62272,0.82114 0.9647,1.20588 0.30215,0.3399 0.67278,0.61602 0.96472,0.96471 0.0401,0.0479 0,0.12501 0,0.18752 0.1451,0.1451 0.29022,0.2902 0.43534,0.4353 m 65.53285,-80.38142 c 0.28874,0.86298 0.61132,1.71536 0.86625,2.58892 0.11483,0.39351 0.16078,0.80393 0.24119,1.20589 0.16076,0.48235 0.33618,0.96007 0.48231,1.44706 0.0948,0.31592 0.17407,0.63679 0.24003,0.95997 0.1724,0.84499 -0.51155,-1.05817 0.17492,0.80731 0.14401,0.39137 0.3362,0.76451 0.46929,1.15974 0.0249,0.0739 0,0.15604 0,0.23406 0.16078,0.46962 0.30525,0.94515 0.48239,1.40885 0.063,0.16485 0.18933,0.30355 0.23672,0.47354 0.0336,0.12053 -0.0293,0.25374 0,0.3754 0.0304,0.1263 0.11364,0.23371 0.17433,0.34857 0.14491,0.2742 0.27512,0.55734 0.44244,0.81847 0.058,0.0906 0.15211,0.1521 0.22817,0.22815 0.13457,0.19204 0.28919,0.37147 0.40373,0.5761 1.97062,3.52111 -0.19695,0.15018 1.15949,1.84336 0.51062,0.63736 0.0177,0.0794 0.15692,0.46088 0.0507,0.13911 0.13242,0.26489 0.19865,0.39733 0.49392,0.98787 0.21463,0.66847 0.64405,1.09788" />
  </g>
</svg>
