<?xml version="1.0" encoding="UTF-8" standalone="no"?>
<!-- Created with Inkscape (http://www.inkscape.org/) -->

<svg
   width="135.65919mm"
   height="80.403831mm"
   viewBox="0 0 135.65919 80.403831"
   version="1.1"
   id="svg5"
   xml:space="preserve"
   inkscape:version="1.2.2 (b0a8486541, 2022-12-01)"
   sodipodi:docname="drawing.svg"
   xmlns:inkscape="http://www.inkscape.org/namespaces/inkscape"
   xmlns:sodipodi="http://sodipodi.sourceforge.net/DTD/sodipodi-0.dtd"
   xmlns="http://www.w3.org/2000/svg"
   xmlns:svg="http://www.w3.org/2000/svg"><sodipodi:namedview
     id="namedview7"
     pagecolor="#ffffff"
     bordercolor="#666666"
     borderopacity="1.0"
     inkscape:showpageshadow="2"
     inkscape:pageopacity="0.0"
     inkscape:pagecheckerboard="0"
     inkscape:deskcolor="#d1d1d1"
     inkscape:document-units="mm"
     showgrid="false"
     inkscape:zoom="1.0022271"
     inkscape:cx="378.65669"
     inkscape:cy="84.811117"
     inkscape:window-width="2560"
     inkscape:window-height="1510"
     inkscape:window-x="0"
     inkscape:window-y="54"
     inkscape:window-maximized="1"
     inkscape:current-layer="layer1" /><defs
     id="defs2" /><g
     inkscape:label="Layer 1"
     inkscape:groupmode="layer"
     id="layer1"
     transform="translate(-9.2135578,-3.5190166)"><path
       style="fill:#000000;stroke-width:0.264583"
       d="m 67.411959,83.857898 c -0.048,-0.78858 -0.152313,-0.984 -0.458994,-0.8599 -0.218281,0.0883 -0.575469,0.23287 -0.79375,0.3212 -0.218281,0.0883 -0.396875,0.0288 -0.396875,-0.13229 0,-0.17088 -0.57863,-0.31276 -1.389062,-0.34058 l -1.389063,-0.0477 1.317802,-0.10159 c 0.724792,-0.0559 1.389513,-0.21762 1.477161,-0.35944 0.102965,-0.1666 0.409072,-0.16291 0.86501,0.0104 l 0.705652,0.26828 v -7.24268 -7.24269 l -2.009534,-3.39473 c -1.105242,-1.86711 -2.249324,-3.73149 -2.542405,-4.14309 -0.293079,-0.41159 -0.467942,-0.81328 -0.388586,-0.89263 0.208256,-0.20826 2.280288,2.94587 3.851627,5.86309 0.235093,0.43645 0.498885,0.85317 0.586206,0.92604 0.08732,0.0729 0.226748,0.31109 0.30984,0.52937 0.08309,0.21828 0.160475,-0.37894 0.171963,-1.32715 0.0199,-1.6412 -0.05524,-1.85579 -1.563571,-4.46653 -1.731153,-2.9964 -2.152629,-3.4457 -3.244186,-3.45832 -0.722733,-0.008 -0.969669,0.33992 -0.463021,0.65304 0.145521,0.0899 0.261935,0.36486 0.258699,0.61093 -0.0046,0.35054 -0.119885,0.3042 -0.532474,-0.21405 -0.52156,-0.65514 -0.53051,-0.65641 -0.936588,-0.1323 -0.557172,0.71913 -0.324643,1.69032 0.807048,3.37079 0.512866,0.76156 0.932482,1.46957 0.932482,1.57336 0,0.10378 0.357187,0.71795 0.79375,1.36481 0.436563,0.64687 0.79375,1.23373 0.79375,1.30413 0,0.0704 0.416719,0.82004 0.926042,1.66586 0.509323,0.84581 0.926041,1.61503 0.926041,1.70937 0,0.0943 -0.306969,0.3114 -0.682151,0.48235 -0.595884,0.2715 -0.745342,0.23505 -1.181822,-0.28826 -0.27482,-0.32949 -0.503632,-0.67823 -0.508474,-0.77498 -0.0048,-0.0967 -0.633881,-0.62859 -1.397865,-1.18189 -0.763985,-0.5533 -1.448594,-1.07187 -1.521354,-1.1524 -0.295807,-0.32737 -1.762879,-0.84199 -3.346887,-1.17403 l -1.680197,-0.3522 v 3.25294 c 0,2.35478 0.09132,3.28978 0.330729,3.38638 0.264584,0.10677 0.264584,0.13763 0,0.15434 -0.197609,0.0125 -0.330729,0.39363 -0.330729,0.94693 0,0.50933 -0.119062,0.92605 -0.264583,0.92605 -0.145521,0 -0.264584,-0.41672 -0.264584,-0.92605 v -0.92604 H 45.961632 36.74426 l -1.036846,1.12448 c -1.623799,1.76104 -3.279532,3.81746 -3.165481,3.93151 0.05705,0.057 -0.451975,0.0466 -1.131164,-0.0231 -1.168283,-0.12002 -1.183596,-0.13146 -0.283911,-0.21212 0.828837,-0.0743 1.211978,-0.38893 2.983136,-2.44968 l 2.032159,-2.36444 -9.59772,-0.0729 -9.597719,-0.0729 9.676434,-0.0627 9.676432,-0.0627 1.227511,-1.31649 c 0.675129,-0.72406 1.406252,-1.66214 1.624719,-2.0846 0.36807,-0.71177 1.136457,-1.25909 1.399024,-0.99653 0.203864,0.20387 -0.574119,1.22538 -1.047734,1.3757 -0.255024,0.0809 -0.463677,0.28418 -0.463677,0.45164 0,0.16746 -0.267891,0.54739 -0.595313,0.84429 -0.327422,0.29691 -0.822124,0.80671 -1.099341,1.13291 l -0.504028,0.59308 7.118612,-0.036 c 3.915238,-0.0198 6.820955,-0.0813 6.457153,-0.1366 -1.211521,-0.18418 -2.645833,-0.70263 -2.645833,-0.95636 0,-0.1378 0.208359,-0.16409 0.463021,-0.0584 0.945303,0.39223 5.119796,1.18741 6.233636,1.18741 h 0.711676 v -3.175 c 0,-3.56126 0.142923,-3.37029 -2.153771,-2.87774 -2.232367,0.47875 -4.713743,2.16795 -6.088079,4.14445 -0.373068,0.53653 -0.499859,0.56926 -1.116587,0.28826 -0.382651,-0.17435 -0.695729,-0.38908 -0.695729,-0.4772 0,-0.0881 0.714375,-1.39669 1.5875,-2.90796 0.873125,-1.51127 1.5875,-2.795 1.5875,-2.85275 0,-0.0577 0.41394,-0.75207 0.919869,-1.54297 1.055311,-1.64971 1.323252,-2.49465 1.088149,-3.43138 -0.206219,-0.82164 -0.753967,-0.84951 -1.300411,-0.0662 -0.335876,0.4815 -0.41792,0.50978 -0.429147,0.14791 -0.0076,-0.24607 0.105185,-0.52099 0.250706,-0.61093 0.425858,-0.26319 0.304417,-0.66226 -0.198437,-0.65208 -0.943076,0.0191 -1.663168,0.71269 -2.964725,2.85562 -0.734116,1.20867 -1.334754,2.25383 -1.334754,2.32256 0,0.0687 -0.416719,0.74378 -0.926042,1.50008 -0.509323,0.7563 -0.92869,1.49574 -0.931926,1.64321 -0.0032,0.14746 -0.231331,0.56149 -0.506878,0.92006 -0.463558,0.60323 -0.552786,0.62423 -1.193994,0.28107 -0.474331,-0.25385 -0.636481,-0.50131 -0.513889,-0.78424 1.352584,-3.12164 1.487908,-5.50056 0.48143,-8.46326 -0.574167,-1.69014 -0.91736,-2.23234 -2.189739,-3.45948 -1.471464,-1.41914 -4.021431,-2.90893 -4.984078,-2.91189 -0.263821,-7.9e-4 -0.926161,-0.12547 -1.471864,-0.27702 -0.860325,-0.23892 -0.992187,-0.37938 -0.992187,-1.05686 v -0.78131 h 5.579985 c 5.463112,0 5.590387,-0.0125 6.076615,-0.59531 0.592939,-0.71076 0.659468,-2.01512 0.139115,-2.72756 -0.34788,-0.4763 -0.789723,-0.51945 -6.085417,-0.59432 l -5.710298,-0.0807 v -0.7602 c 0,-0.71256 0.09533,-0.77992 1.521354,-1.07506 2.728015,-0.5646 3.842112,-1.10765 5.3912,-2.62786 0.818727,-0.80346 1.680324,-1.76492 1.91466,-2.13656 0.79256,-1.25696 1.478431,-3.79775 1.48503,-5.50127 0.0067,-1.720699 -0.613712,-4.400163 -1.086417,-4.692308 -0.35973,-0.222327 0.522383,-1.169249 1.089221,-1.169249 0.243899,0 0.607518,0.327421 0.808046,0.727604 0.200527,0.400182 0.87549,1.58878 1.499917,2.64133 0.624428,1.052549 1.135322,1.979983 1.135322,2.060963 0,0.081 0.416719,0.76602 0.926042,1.52232 0.509323,0.7563 0.926042,1.51876 0.926042,1.69435 0,0.49788 1.095745,1.14302 1.941385,1.14302 0.755513,0 0.759762,-0.008 0.331904,-0.66146 -0.524304,-0.80019 -0.2711,-0.87442 0.388501,-0.1139 0.473535,0.546 0.475713,0.54604 0.758637,0.0174 0.581748,-1.087 0.425204,-1.59921 -1.635741,-5.352175 -0.367075,-0.668438 -0.978329,-1.707869 -1.358339,-2.309847 -0.380011,-0.60199 -0.690931,-1.158967 -0.690931,-1.237739 0,-0.07877 -0.315079,-0.61934 -0.700177,-1.201261 -0.385096,-0.581921 -0.652987,-1.085384 -0.595313,-1.118806 1.336493,-0.774477 1.340996,-0.775001 1.741705,-0.20291 1.642287,2.344697 3.831759,3.764071 6.763681,4.38471 l 1.521354,0.322045 V 26.633658 23.35556 l -1.656974,0.136348 c -0.911333,0.07499 -2.042427,0.246896 -2.513542,0.38201 -0.805939,0.23114 -1.241536,-0.04713 -0.525838,-0.335922 0.181901,-0.0734 -1.127786,-0.142852 -2.910417,-0.154341 l -3.241145,-0.02089 -0.04038,0.727604 c -0.18623,3.355489 -0.02477,4.018146 1.543217,6.333721 0.277047,0.409135 0.736856,1.220134 1.021797,1.802217 0.28494,0.582081 0.577606,1.117871 0.650367,1.190631 0.328731,0.32873 1.096957,1.90165 0.983967,2.01464 -0.1156,0.1156 -0.984457,-1.23695 -2.059025,-3.205271 -0.238334,-0.436563 -1.047065,-1.805781 -1.79718,-3.042708 -0.750115,-1.236928 -1.30506,-2.403971 -1.233209,-2.59343 0.07185,-0.189459 0.02117,-0.276814 -0.112636,-0.194122 -0.133797,0.08269 -0.312756,0.03792 -0.397685,-0.0995 -0.08493,-0.137418 0.08544,-0.325977 0.378592,-0.419021 0.428681,-0.136058 0.533009,-0.398725 0.533009,-1.341966 V 23.362767 H 31.338198 c -9.866706,0 -12.435549,0.06891 -12.328507,0.330729 0.07437,0.181901 0.218908,0.539089 0.321198,0.79375 0.109408,0.272383 0.06664,0.463021 -0.103873,0.463021 -0.204011,0 -0.311269,3.114812 -0.36216,10.517191 l -0.07231,10.51718 -0.06302,-10.51718 c -0.03962,-6.6122 -0.158805,-10.517191 -0.320991,-10.517191 -0.144011,0 -0.189641,-0.34164 -0.103293,-0.773377 0.138851,-0.694258 0.07727,-0.78494 -0.601928,-0.886399 -0.416131,-0.06216 5.269636,-0.13086 12.635039,-0.152664 l 13.391641,-0.03964 0.169569,-1.237139 c 0.09326,-0.680426 0.24643,-2.755763 0.34037,-4.611861 l 0.170799,-3.374725 -1.03201,-0.10616 c -0.966454,-0.09942 -0.949835,-0.108985 0.261615,-0.150637 l 1.293625,-0.04448 -0.168003,1.389062 c -0.0924,0.763985 -0.246388,2.90711 -0.342188,4.762499 l -0.174186,3.373438 h 5.46471 5.464709 v -0.926042 c 0,-0.509323 0.119063,-0.926042 0.264584,-0.926042 0.145521,0 0.264583,0.399636 0.264583,0.88808 v 0.888079 l 2.315104,0.180526 c 1.335969,0.104175 3.098412,0.454453 4.167188,0.82821 1.68189,0.588167 1.742673,0.633101 0.661458,0.48898 -0.654843,-0.08729 -1.309687,-0.250196 -1.455208,-0.362018 -0.308308,-0.236913 -1.707047,-0.479635 -4.034896,-0.700172 l -1.653646,-0.156663 v 3.355944 c 0,3.071563 0.03923,3.344417 0.463021,3.219931 0.254661,-0.07481 0.939271,-0.219067 1.521354,-0.320575 2.383348,-0.41562 5.144178,-2.250654 6.4945,-4.316685 0.425519,-0.651055 0.393623,-0.654015 1.812449,0.168173 0.05767,0.03342 -0.210217,0.536885 -0.595313,1.118806 -0.385098,0.581921 -0.700177,1.179654 -0.700177,1.328295 0,0.148641 -0.119063,0.270256 -0.264584,0.270256 -0.14552,0 -0.264583,0.150955 -0.264583,0.335457 0,0.1845 -0.322339,0.809578 -0.716309,1.389063 -0.625798,0.920472 -1.22409,1.97136 -2.633377,4.625481 -0.477882,0.9 -0.443913,1.41843 0.140211,2.1398 l 0.494694,0.61092 0.184594,-0.58161 c 0.101529,-0.31989 0.295635,-0.58161 0.431351,-0.58161 0.328091,0 0.315819,0.45525 -0.01783,0.66146 -0.492199,0.30419 -0.268447,0.66146 0.414268,0.66146 0.80191,0 1.702398,-0.43456 1.702398,-0.82154 0,-0.15056 0.337659,-0.77145 0.750356,-1.37975 0.412695,-0.6083 0.928963,-1.46319 1.14726,-1.89976 0.218297,-0.43656 1.071263,-1.953571 1.895478,-3.371137 l 1.498576,-2.577389 v -8.089015 -8.089013 l -0.727604,0.05682 c -1.569035,0.122538 -3.50573,-0.03632 -3.50573,-0.287558 0,-0.14552 0.595313,-0.264583 1.322917,-0.264583 0.790795,0 1.322917,-0.117811 1.322917,-0.292891 0,-0.16109 0.148828,-0.232043 0.330729,-0.157674 1.288812,0.526923 1.256771,0.53495 1.256771,-0.3148773 0,-0.452132 0.119062,-0.822058 0.264583,-0.822058 0.171413,0 0.264583,3.3029093 0.264583,9.3795613 0,8.484101 0.04216,9.403152 0.441556,9.626667 0.412348,0.230762 0.412348,0.308648 0,1.177611 -0.583536,1.229712 -0.662771,7.060356 -0.08822,6.491836 0.448236,-0.44353 2.385425,-2.01805 3.445878,-2.80075 0.730339,-0.53905 2.307627,-1.342324 3.741413,-1.905394 0.29104,-0.114295 0.85659,-0.339146 1.25677,-0.499666 l 0.7276,-0.291854 v -6.621263 -6.621262 l -0.7276,0.0494 c -1.54129,0.104637 -3.241146,-0.05898 -3.241146,-0.311965 0,-0.145521 0.535781,-0.264584 1.190626,-0.264584 0.69408,0 1.19062,-0.122149 1.19062,-0.29289 0,-0.16109 0.14883,-0.232044 0.33073,-0.157675 1.28882,0.526923 1.25677,0.534951 1.25677,-0.314877 0,-0.554329 0.12926,-0.822058 0.39688,-0.822058 0.26458,0 0.39687,0.264584 0.39687,0.79375 0,0.842713 0.24828,0.962696 1.07573,0.519858 0.35278,-0.188801 0.51177,-0.188801 0.51177,0 0,0.150641 0.35719,0.273892 0.79375,0.273892 h 0.79375 v -5.454817 c 0,-5.4503774 -5.3e-4,-5.4546964 -0.5685,-5.3061494 -0.70278,0.183781 -2.07733,-0.07071 -2.07733,-0.384607 0,-0.12733 0.23813,-0.23151 0.52917,-0.23151 0.29104,0 0.52916,-0.131801 0.52916,-0.292891 0,-0.173405 0.1889,-0.217019 0.46302,-0.106909 0.25467,0.10229 0.61185,0.246829 0.79375,0.321198 0.22264,0.09102 0.33073,-0.133468 0.33073,-0.686841 0,-0.452131 0.11907,-0.822057 0.26459,-0.822057 0.16342,0 0.26458,1.37645 0.26458,3.600183 0,3.0951504 0.0557,3.5776534 0.39688,3.4395834 0.21828,-0.08833 0.57546,-0.232869 0.79375,-0.321198 0.21828,-0.08833 0.39687,-0.0288 0.39687,0.132291 0,0.17508 0.53212,0.292891 1.32292,0.292891 0.7276,0 1.32291,0.119063 1.32291,0.264583 0,0.251239 -1.93669,0.410096 -3.50573,0.287558 l -0.7276,-0.05682 v 2.662759 2.662758 h 1.85208 c 1.05834,0 1.85209,0.113393 1.85209,0.264584 0,0.15119 -0.79375,0.264583 -1.85209,0.264583 h -1.85208 v 5.291666 c 0,3.351389 -0.097,5.291667 -0.26458,5.291667 -0.16755,0 -0.26459,-1.935294 -0.26459,-5.276713 V 17.04268 l -1.5875,0.02251 -1.5875,0.02251 v 6.607978 6.607979 l 0.59532,-0.159536 c 0.32742,-0.08775 1.04179,-0.161166 1.5875,-0.163153 0.95685,-0.0035 0.99218,-0.03659 0.99218,-0.929653 0,-0.509323 0.11907,-0.926042 0.26459,-0.926042 0.14552,0 0.26458,0.416719 0.26458,0.926042 0,1.13579 0.35367,1.194737 0.79375,0.132292 0.18083,-0.436563 0.46317,-0.795158 0.62741,-0.79688 0.16425,-0.0017 0.9348,-0.770199 1.71234,-1.707729 0.77754,-0.937529 1.65091,-1.977918 1.94081,-2.311975 0.28991,-0.334056 0.78483,-0.933716 1.09983,-1.332578 0.41291,-0.522833 0.81269,-0.725873 1.43263,-0.727604 0.47294,-0.0013 0.8599,0.116663 0.8599,0.262184 0,0.145521 -0.36569,0.264583 -0.81265,0.264583 -0.88514,0 -0.94036,0.04386 -2.49464,1.981594 -0.58209,0.725684 -1.23693,1.508091 -1.45521,1.738684 -1.13417,1.198134 -1.85209,2.128372 -1.85209,2.399826 0,0.167119 -0.20836,0.462018 -0.46302,0.655333 -0.3912,0.296969 0.19837,0.35279 3.80118,0.3599 3.77194,0.0074 4.42862,-0.0578 5.68854,-0.565208 0.78339,-0.315492 1.53746,-0.67268 1.6757,-0.79375 0.13824,-0.121071 0.41267,-0.220128 0.60983,-0.220128 0.19716,0 0.85796,-0.22475 1.46844,-0.499444 0.61048,-0.274694 1.764799,-0.765181 2.565169,-1.08997 2.0024,-0.812577 3.17104,-1.313443 4.07554,-1.746733 0.42254,-0.202411 0.88693,-0.36802 1.03197,-0.36802 0.14504,0 0.87088,-0.282326 1.61299,-0.627392 1.9972,-0.928658 4.56649,-2.018442 4.75869,-2.018442 0.0925,0 0.73249,-0.24999 1.42213,-0.555535 0.68964,-0.305544 1.49201,-0.653782 1.78305,-0.773863 0.29104,-0.12008 1.51144,-0.630881 2.71198,-1.135111 1.20055,-0.50423 2.18281,-0.859686 2.18281,-0.789901 0,0.06978 -0.26403,0.340679 -0.58673,0.601987 -0.49484,0.400699 -0.53271,0.540195 -0.2418,0.890717 0.18971,0.228585 0.27111,0.535045 0.18089,0.681021 -0.0902,0.145976 -0.0439,0.478613 0.10284,0.739194 0.62285,1.105762 1.0727,2.560006 0.83696,2.705699 -0.13701,0.08468 -0.30309,0.510105 -0.36907,0.945396 -0.066,0.435291 -0.0912,0.205866 -0.0561,-0.509834 0.0649,-1.322128 -0.69504,-3.59352 -1.20229,-3.59352 -0.13871,0 -0.25221,-0.231098 -0.25221,-0.513551 0,-0.764053 -0.29483,-0.817962 -1.46019,-0.266994 -0.57934,0.273904 -1.19899,0.502047 -1.377,0.506985 -0.17801,0.0049 -0.83285,0.237807 -1.45521,0.517488 -0.62235,0.279681 -1.6078,0.704452 -2.18989,0.943936 -1.78351,0.733782 -2.07394,0.857135 -3.37055,1.431601 -0.68964,0.305545 -1.31581,0.555536 -1.3915,0.555536 -0.12331,0 -4.04867,1.617905 -6.08586,2.508392 -0.43657,0.190827 -1.4486,0.611218 -2.248959,0.934202 -0.80037,0.322983 -2.2071,0.900919 -3.12608,1.284303 l -1.67086,0.697061 11.460449,0.136517 c 6.30324,0.07508 11.09118,0.16438 10.63985,0.198437 l -0.8206,0.06192 -0.0567,8.587487 -0.0567,8.58747 1.67101,-0.67629 c 0.91906,-0.37196 2.1705,-0.90258 2.78098,-1.17915 0.61048,-0.27657 1.20882,-0.50285 1.32965,-0.50285 0.12083,0 0.93104,-0.35345 1.80046,-0.78544 0.86942,-0.432 1.78209,-0.78919 2.02816,-0.79375 0.24608,-0.005 0.51533,-0.11821 0.59835,-0.25253 0.083,-0.13433 0.51481,-0.32415 0.95954,-0.42183 0.91998,-0.20206 1.24541,-0.7489 0.77966,-1.3101 -0.17433,-0.21005 -0.24715,-0.49488 -0.16182,-0.63295 0.0853,-0.13806 -0.0719,-0.70883 -0.34932,-1.26836 -0.44879,-0.90505 -0.93486,-2.02017 -1.59673,-3.66316 -0.11724,-0.29104 -0.46264,-1.06495 -0.76755,-1.71979 -0.30492,-0.65485 -0.63085,-1.51918 -0.72429,-1.920737 -0.0935,-0.401558 -0.27578,-0.795536 -0.40518,-0.875511 -0.30336,-0.187487 -0.30533,-0.643342 -0.003,-0.643342 0.12786,0 0.38385,0.386953 0.56885,0.859895 0.5101,1.303995 0.93535,2.325445 1.51461,3.638025 0.28899,0.65484 0.61729,1.48828 0.72955,1.85208 0.11226,0.3638 0.60404,1.48481 1.09285,2.49113 0.4888,1.00632 0.88873,1.98859 0.88873,2.18281 0,0.41374 0.4253,0.47068 0.66146,0.0886 0.0899,-0.14552 0.33509,-0.26458 0.54479,-0.26458 0.20969,0 0.38125,0.11906 0.38125,0.26458 0,0.14552 -0.21431,0.26459 -0.47625,0.26459 -0.26193,0 -0.58935,0.10436 -0.7276,0.23191 -0.13824,0.12754 -0.9578,0.49123 -1.82125,0.80819 -0.86343,0.31696 -2.20642,0.86744 -2.9844,1.2233 -0.77798,0.35586 -1.48229,0.64701 -1.56512,0.64701 -0.2135,0 -2.0558,0.86881 -2.21496,1.04455 -0.0728,0.0803 -0.37042,0.18258 -0.66146,0.2272 -0.29104,0.0446 -0.88635,0.23705 -1.32291,0.42762 -0.43657,0.19056 -1.18071,0.51054 -1.65365,0.71106 l -0.8599,0.36458 -0.0532,2.11823 -0.0532,2.11822 -0.0899,-2.03458 -0.0899,-2.03458 -1.7751,0.66638 c -2.05571,0.77173 -3.22177,1.26692 -4.64437,1.97235 -0.55945,0.27741 -1.18966,0.50439 -1.40046,0.50439 -0.31616,0 -0.37455,0.55702 -0.33344,3.18066 0.0274,1.74937 -0.0335,3.26397 -0.13528,3.36578 -0.43125,0.43125 -0.59001,-0.65576 -0.47463,-3.24989 0.085,-1.91181 0.033,-2.76738 -0.16814,-2.76738 -0.16017,0 -0.71518,0.23812 -1.23336,0.52916 -0.51817,0.29104 -1.0652,0.52917 -1.21562,0.52917 -0.15042,0 -0.89094,0.28125 -1.6456,0.62501 -0.75466,0.34375 -1.63204,0.70644 -1.94973,0.80596 -0.32605,0.10215 -0.822969,0.68777 -1.140939,1.34461 -0.30982,0.64001 -0.80268,1.46795 -1.09523,1.83987 l -0.53191,0.67622 h 5.619549 c 3.09075,0 5.5633,0.0562 5.49454,0.12501 -0.0688,0.0688 -2.94611,0.13587 -6.3941,0.14914 -5.696139,0.0219 -6.268709,0.0649 -6.265029,0.4703 0.003,0.3779 0.0417,0.38662 0.2502,0.057 0.13538,-0.21407 0.3204,-0.31496 0.41115,-0.2242 0.0908,0.0907 0.0157,0.40413 -0.16684,0.69639 -0.2558,0.4096 -0.26347,0.76415 -0.0335,1.54712 0.16412,0.55865 0.38011,1.75988 0.47999,2.66938 l 0.18158,1.65365 10.086139,0.0629 10.08614,0.0629 -10.0151,0.0726 c -9.386589,0.0681 -10.003949,0.10149 -9.837439,0.53245 0.0977,0.2529 0.29051,1.05512 0.42842,1.78273 0.43271,2.28282 0.3691,2.215 2.173989,2.318 l 1.63971,0.0936 -1.91823,0.051 c -1.754339,0.0466 -1.918229,0.006 -1.918229,-0.47439 0,-0.28895 -0.11716,-1.0331 -0.26037,-1.65365 -0.1432,-0.62055 -0.32406,-1.45569 -0.40191,-1.85588 l -0.14155,-0.7276 h -6.74183 -6.74184 v 0.79375 c 0,0.43656 -0.11906,0.79375 -0.26458,0.79375 -0.14552,0 -0.26459,-0.3433 -0.26459,-0.76289 0,-0.88588 -0.45175,-1.07997 -2.52677,-1.08558 -0.73488,-0.002 -1.44925,-0.104 -1.5875,-0.2267 -0.13824,-0.1227 -0.96573,-0.43869 -1.83885,-0.70219 -0.87313,-0.26351 -1.672655,-0.6096 -1.776731,-0.7691 -0.243369,-0.37297 -1.627352,0.42772 -1.747684,1.0111 -0.04802,0.2328 0.578119,1.01562 1.442976,1.80404 0.840289,0.76603 1.889669,1.77973 2.331959,2.25267 0.74144,0.79284 0.93325,0.8599 2.45963,0.8599 0.92726,0 1.65547,0.11638 1.65547,0.26458 0,0.14844 -0.73297,0.26459 -1.66974,0.26459 -1.61815,0 -1.7032,-0.0348 -2.75265,-1.12448 -2.011151,-2.08836 -3.709946,-3.63802 -3.988121,-3.63802 -0.152151,0 -0.329792,0.14882 -0.394755,0.33073 -0.06497,0.1819 -0.210916,0.2443 -0.324337,0.13868 -0.113419,-0.10562 -0.07302,-0.35253 0.08978,-0.54869 0.29823,-0.35935 -0.04236,-0.97906 -0.538086,-0.97906 -0.116417,0 -0.211667,4.12254 -0.211667,9.1612 v 9.1612 l 0.79375,-0.15875 c 0.436563,-0.0873 0.79375,-0.0481 0.79375,0.0871 0,0.13523 0.803672,0.28753 1.785938,0.33844 l 1.785938,0.0926 -1.785938,0.0518 c -1.0981,0.0319 -1.785938,0.16462 -1.785938,0.34471 0,0.17341 -0.188891,0.21702 -0.463021,0.10691 -0.254661,-0.10229 -0.60408,-0.24385 -0.776486,-0.31457 -0.200371,-0.0822 -0.351374,0.2372 -0.418544,0.88527 -0.05779,0.55763 -0.125092,-3.81313 -0.149556,-9.71281 l -0.04448,-10.72668 -1.217163,-1.17957 -1.217163,-1.17957 0.137285,1.05834 c 0.232092,1.78921 0.631756,3.33534 0.942488,3.64607 0.462193,0.46219 0.349861,1.08793 -0.264142,1.47138 -0.666885,0.41648 -0.821015,0.29464 -1.860343,-1.47048 l -0.745273,-1.26572 -0.0045,1.77032 c -0.0024,0.97368 0.114551,1.84391 0.260072,1.93384 0.145521,0.0899 0.264583,0.34212 0.264583,0.5604 0,0.21828 -0.117308,0.32438 -0.260683,0.23576 -0.168394,-0.10407 -0.286909,2.67715 -0.334756,7.85574 -0.04074,4.40927 -0.102026,7.55763 -0.136192,6.99636 z m -20.38353,-14.73529 c 0.830131,-1.12281 3.311388,-2.95885 4.578702,-3.38807 0.582084,-0.19715 1.594115,-0.43527 2.248959,-0.52917 0.970124,-0.13911 1.206283,-0.28097 1.275172,-0.76604 0.102381,-0.72086 0.576911,-0.79856 0.576911,-0.0944 0,0.5587 0.491495,0.82206 1.534147,0.82206 1.751674,0 4.705853,1.6448 6.598219,3.67369 0.847651,0.90881 1.195417,1.12727 1.426546,0.89614 0.231132,-0.23113 0.110614,-0.61577 -0.494371,-1.57784 -0.440008,-0.69971 -0.843828,-1.39126 -0.89738,-1.53679 -0.05355,-0.14552 -0.901041,-1.60551 -1.883307,-3.24444 -1.293849,-2.1588 -1.785937,-3.2341 -1.785937,-3.9026 0,-0.50751 0.116795,-0.92275 0.259543,-0.92275 0.142748,0 0.334042,-0.29683 0.425098,-0.65963 0.09106,-0.36279 0.282668,-0.58725 0.425802,-0.49879 0.143137,0.0885 0.77212,0.18121 1.397741,0.20609 1.18867,0.0473 1.989733,0.497 1.989733,1.11702 0,0.20046 0.0893,0.36541 0.198437,0.36654 0.109141,0.001 0.328581,0.26903 0.487648,0.59532 0.531297,1.08983 1.296514,2.44345 1.457056,2.57742 0.08732,0.0729 0.223237,0.31108 0.302035,0.52937 0.0788,0.21828 0.157046,-3.08571 0.173881,-7.34219 l 0.03061,-7.73906 h -4.854236 -4.854239 l -0.296257,0.65021 c -0.28017,0.6149 -0.106497,0.82836 3.198678,3.93142 1.922211,1.80467 4.169801,3.86356 4.994643,4.57531 0.824843,0.71175 1.509453,1.38339 1.521354,1.49254 0.05085,0.46629 -0.498253,0.10714 -1.976046,-1.29247 -0.865804,-0.82 -2.109968,-1.98014 -2.764811,-2.57809 -0.654844,-0.59795 -2.244474,-2.09994 -3.532513,-3.33774 l -2.341888,-2.25056 0.820533,1.40071 c 0.451295,0.77039 0.820534,1.46158 0.820534,1.53599 0,0.0744 0.605761,1.07962 1.346137,2.2338 0.740375,1.15418 1.299673,2.23791 1.24288,2.40829 -0.10019,0.30056 -3.118183,-4.63399 -3.118183,-5.09837 0,-0.1273 -0.09,-0.23146 -0.199996,-0.23146 -0.109998,0 -0.358103,-0.35719 -0.551344,-0.79375 -0.193242,-0.43656 -0.519962,-0.79375 -0.726046,-0.79375 -0.311023,0 -0.374698,0.92173 -0.374698,5.42396 0,3.43958 -0.0968,5.42396 -0.264583,5.42396 -0.167786,0 -0.264584,-1.98438 -0.264584,-5.42396 0,-4.16394 -0.07683,-5.42345 -0.330729,-5.42178 -0.310086,0.002 -0.616598,0.47099 -2.241865,3.42988 -0.35742,0.6507 -0.853342,1.48414 -1.10205,1.85208 -0.248708,0.36794 -0.61083,1.02617 -0.804717,1.46273 -0.193884,0.43657 -0.404704,0.6499 -0.468487,0.47407 -0.06378,-0.17582 0.727324,-1.78317 1.758016,-3.57187 1.03069,-1.78871 1.971611,-3.42595 2.090936,-3.63832 0.131627,-0.23425 0.05219,-0.67586 -0.20197,-1.1228 l -0.418925,-0.73669 -4.796547,-0.002 -4.796547,-0.002 -0.333949,0.80623 c -0.587888,1.41911 -1.268198,1.57485 -6.880259,1.57485 -4.67592,0 -5.052932,0.0351 -4.971375,0.46302 0.05082,0.26664 0.367646,0.49371 0.747005,0.53539 2.590464,0.28461 4.43007,1.25082 6.61188,3.47275 1.161703,1.18306 1.579478,1.85551 2.071349,3.33404 1.076888,3.23707 1.05674,4.99963 -0.08798,7.69683 -0.223162,0.52582 -0.259387,0.95077 -0.101486,1.19062 0.338246,0.5138 0.928608,-0.22474 2.511158,-3.14148 0.688263,-1.26851 1.529202,-2.67481 1.868755,-3.12511 0.339555,-0.4503 0.617371,-0.95631 0.617371,-1.12448 0,-0.16816 0.119062,-0.30575 0.264583,-0.30575 0.145521,0 0.264583,-0.16402 0.264583,-0.36448 0,-0.5927 0.658379,-0.96893 2.092177,-1.19558 1.060223,-0.1676 1.347407,-0.13683 1.347407,0.14436 0,0.19656 0.114284,0.35737 0.253963,0.35737 0.139678,0 0.393626,0.46615 0.564324,1.0359 0.338619,1.13021 0.487646,0.7489 -1.921801,4.91722 -0.504698,0.87313 -1.087953,1.88516 -1.296122,2.24896 -0.208169,0.3638 -0.438021,0.72132 -0.510781,0.79449 -0.420899,0.42326 -1.320893,2.43432 -1.18663,2.65156 0.273003,0.44172 0.619361,0.28823 1.238136,-0.54871 z m 8.150577,-6.99838 c 0,-0.65485 0.119063,-1.19063 0.264584,-1.19063 0.145521,0 0.264583,0.53578 0.264583,1.19063 0,0.65484 -0.119062,1.19062 -0.264583,1.19062 -0.145521,0 -0.264584,-0.53578 -0.264584,-1.19062 z m 14.973719,4.5288 c 0.07724,-0.20129 -0.0524,-0.82637 -0.288097,-1.38906 -0.235699,-0.56269 -0.499584,-1.77942 -0.586415,-2.70384 -0.126881,-1.35081 -0.292703,-1.80605 -0.844687,-2.319 l -0.686811,-0.63823 -0.07622,1.9299 c -0.064,1.62037 0.02551,2.12125 0.558065,3.12284 1.287946,2.4223 1.626325,2.77356 1.924169,1.99739 z m 13.336696,-4.92568 v -3.43958 h -0.66145 c -0.59145,0 -0.66146,0.10822 -0.66146,1.02248 0,2.11842 -2.40408,3.54898 -4.50304,2.67957 -1.28891,-0.53389 -1.3979,-1.04552 -0.58052,-2.72503 0.39486,-0.81133 0.86165,-1.53597 1.0373,-1.6103 0.38398,-0.16248 0.16109,0.48405 -0.7512,2.17895 -0.60648,1.12675 -0.60856,1.15594 -0.10883,1.52135 0.60299,0.44092 2.60036,0.49247 3.35858,0.0867 0.57157,-0.30589 1.28312,-1.74523 1.28312,-2.59552 0,-0.36646 -0.2891,-0.60686 -0.99218,-0.82506 -1.92281,-0.59674 -2.7595,-1.07974 -2.59827,-1.49992 0.25447,-0.66313 -1.50964,0.49464 -1.90786,1.25212 -0.19793,0.37649 -0.279833,1.06177 -0.19591,1.63916 0.1648,1.13375 -0.256124,1.37036 -0.470693,0.26458 -0.319747,-1.64779 0.717593,-3.38199 2.200393,-3.67855 0.59337,-0.11867 0.75441,-0.37527 1.13726,-1.81208 0.24531,-0.9206 0.44601,-1.93739 0.44601,-2.25953 0,-0.53994 -0.0879,-0.57212 -1.12448,-0.41184 -1.71754,0.26555 -2.844267,0.69127 -2.844267,1.07467 0,0.93918 -1.469642,2.78785 -2.216256,2.78785 -1.11805,0 -1.223328,0.24047 -1.223328,2.79431 v 2.47312 l 1.228672,0.93816 c 0.67577,0.51599 1.300848,0.93634 1.389063,0.93411 0.326932,-0.008 0.751848,-0.41032 1.06826,-1.0108 0.179094,-0.33988 0.387116,-0.55648 0.462266,-0.48133 0.0751,0.0752 -0.0833,0.51007 -0.35217,0.96649 -0.47947,0.81403 -0.478697,0.83571 0.04037,1.13582 1.47605,0.8534 3.39715,1.37881 7.34219,2.00805 0.10914,0.0174 0.19843,-1.51616 0.19843,-3.40793 z m 2.77813,3.04828 c 2.68195,-0.34708 5.81832,-1.72015 8.06979,-3.53285 1.51864,-1.22269 1.83329,-1.62541 1.84367,-2.3597 0.008,-0.57133 -0.0822,-0.59531 -2.24054,-0.59531 h -2.24896 l -0.001,0.7276 c -0.001,0.91068 -0.81894,2.27899 -1.71136,2.86372 -0.92861,0.60845 -2.86029,0.38345 -3.73106,-0.43459 -0.66908,-0.62858 -1.31688,-2.44235 -1.03511,-2.89825 0.0882,-0.14253 -0.14391,-0.25848 -0.51726,-0.25848 h -0.67707 v 3.45741 c 0,3.16511 0.0391,3.4466 0.46302,3.32954 0.25466,-0.0703 1.05833,-0.20493 1.78594,-0.29909 z m 10.98021,-0.13406 c 0,-0.28896 -0.13115,-1.09263 -0.29145,-1.78594 -0.16029,-0.69331 -0.36865,-1.59819 -0.46302,-2.01083 l -0.17157,-0.75027 -0.79375,0.70809 c -1.11371,0.9935 -4.13944,2.93831 -4.9112,3.1567 -0.62672,0.17735 -0.98564,0.31295 -2.36485,0.89342 -0.49791,0.20955 0.5324,0.28281 4.16719,0.29629 4.64664,0.0172 4.82865,-0.002 4.82865,-0.50746 z m -22.996706,-1.08418 c 0.30317,-0.30317 0.511529,-0.58153 0.46302,-0.61858 -0.04851,-0.0371 -0.65374,-0.44957 -1.344964,-0.91671 l -1.256771,-0.84934 v 1.09936 c 0,0.86347 0.08429,1.067 0.39284,0.9486 0.230913,-0.0886 0.507397,0.0633 0.670767,0.36857 0.346207,0.64689 0.397846,0.64536 1.075108,-0.0319 z m -3.291478,-3.67505 -0.921956,-1.0205 -0.22483,0.95068 c -0.210349,0.88945 -0.156319,1.01478 0.838922,1.94603 l 1.063752,0.99535 0.08303,-0.92553 c 0.06723,-0.74936 -0.09246,-1.11979 -0.838922,-1.94603 z m 19.392184,1.11741 c 0.99202,-0.91917 1.26241,-2.59197 0.41371,-2.55936 -0.29105,0.0112 -0.81197,0.11323 -1.15762,0.22678 -0.43455,0.14276 -0.57259,0.11608 -0.4474,-0.0865 0.12596,-0.20381 -0.39751,-0.29293 -1.72048,-0.29293 h -1.90151 l 0.17933,1.12151 c 0.2627,1.64281 1.01312,2.31807 2.57608,2.31807 1.02156,0 1.42754,-0.14354 2.05789,-0.7276 z m -20.493568,-2.84427 c 0.565148,-1.6994 1.018509,-2.61592 1.520431,-3.07375 0.379847,-0.34646 0.469133,-0.86261 0.469133,-2.71198 v -2.28406 h -0.993934 c -1.260557,0 -2.741956,-0.41967 -3.018308,-0.85507 -0.117145,-0.18456 -0.214813,1.91601 -0.217041,4.66792 l -0.0041,5.00349 0.859896,0.77064 0.859896,0.77065 0.08601,-0.61476 c 0.0473,-0.33811 0.24439,-1.091 0.437967,-1.67308 z m 1.989564,-0.39688 c 0,-1.30968 -0.09784,-2.38125 -0.217419,-2.38125 -0.213749,0 -1.370081,2.33921 -1.370081,2.77161 0,0.24924 1.284814,1.99089 1.468673,1.99089 0.06536,0 0.118827,-1.07156 0.118827,-2.38125 z m 11.641664,-0.52916 c 0,-0.43657 0.11907,-0.79375 0.26459,-0.79375 0.14552,0 0.26458,0.35859 0.26458,0.79687 0,0.78687 0.0141,0.79482 1.12448,0.63272 1.36496,-0.19927 4.71276,-1.78188 5.54636,-2.62193 1.64167,-1.65441 2.79138,-3.98069 3.23556,-6.54673 l 0.17175,-0.99218 -4.04689,-0.0587 -4.04688,-0.0587 4.04558,-0.0805 4.04558,-0.0805 -0.15483,-0.98523 c -0.22288,-1.41838 -0.99819,-3.76337 -1.24425,-3.76337 -0.11539,0 -0.20979,-0.15321 -0.20979,-0.34048 0,-0.46834 -2.85897,-3.36368 -3.32143,-3.36368 -0.0928,0 -0.48589,-0.22582 -0.87349,-0.50182 -0.63918,-0.45513 -1.41436,-0.71683 -3.54415,-1.19648 -0.68695,-0.15471 -0.7276,-0.11185 -0.7276,0.76721 0,0.5121 -0.11906,0.93109 -0.26458,0.93109 -0.14552,0 -0.26459,-0.42946 -0.26459,-0.95435 0,-0.70009 -0.0967,-0.91723 -0.36304,-0.81504 -0.19968,0.0766 -0.91406,0.22194 -1.5875,0.32294 l -1.22446,0.18361 v 4.86475 4.86475 h 0.61899 c 0.40482,0 0.72411,-0.23071 0.92279,-0.66677 0.16709,-0.36672 0.60292,-0.78049 0.96851,-0.91949 0.61616,-0.23426 0.66471,-0.37883 0.66471,-1.97906 0,-0.97451 0.11523,-1.72634 0.26459,-1.72634 0.14938,0 0.26458,0.75242 0.26458,1.72809 0,1.40263 0.0872,1.76112 0.46302,1.90343 0.82298,0.31163 1.12448,0.80733 1.12448,1.84878 0,0.85296 -0.13011,1.09705 -0.79375,1.48907 -0.75131,0.4438 -0.79375,0.56004 -0.79375,2.17371 0,0.96017 -0.11557,1.70483 -0.26458,1.70483 -0.14915,0 -0.26459,-0.74738 -0.26459,-1.71299 0,-1.62652 -0.0391,-1.73323 -0.775,-2.11377 -0.42624,-0.22042 -0.85099,-0.6402 -0.94387,-0.93283 -0.10479,-0.33019 -0.40013,-0.53207 -0.77837,-0.53207 -0.57859,0 -0.61919,0.12413 -0.8005,2.44739 -0.10893,1.39571 -0.46468,3.26332 -0.82788,4.34613 -0.35028,1.0443 -0.63688,2.017 -0.63688,2.16155 0,0.14455 0.56555,0.44518 1.25677,0.66807 1.09595,0.35339 1.71118,0.4805 3.175,0.65596 0.1999,0.024 0.33073,-0.27435 0.33073,-0.7541 z m 0,-2.51355 c 0,-0.65484 0.11907,-1.19062 0.26459,-1.19062 0.14552,0 0.26458,0.53578 0.26458,1.19062 0,0.65485 -0.11906,1.19063 -0.26458,1.19063 -0.14552,0 -0.26459,-0.53578 -0.26459,-1.19063 z m 0,-14.2875 c 0,-0.65484 0.11907,-1.19062 0.26459,-1.19062 0.14552,0 0.26458,0.53578 0.26458,1.19062 0,0.65485 -0.11906,1.19063 -0.26458,1.19063 -0.14552,0 -0.26459,-0.53578 -0.26459,-1.19063 z m 7.30253,17.28736 c 0.2707,-0.438 -0.84253,-1.25929 -1.48073,-1.09239 -0.29157,0.0762 -0.53013,0.22992 -0.53013,0.34149 0,0.11158 -0.26789,0.29395 -0.59531,0.40528 -1.59916,0.54374 -1.56404,0.60147 0.38126,0.62668 1.28684,0.0167 2.10475,-0.0866 2.22491,-0.28106 z m 5.02891,-0.11108 c -0.0883,-0.23018 -0.1606,-0.58737 -0.1606,-0.79375 0,-0.53817 -0.43957,-0.46092 -2.38125,0.41852 l -1.71979,0.77893 2.21112,0.007 c 1.90933,0.006 2.1892,-0.0497 2.05052,-0.41111 z m 2.3018,-0.44138 c 0.70594,-0.95258 1.57239,-2.63565 1.28985,-2.50552 -0.2088,0.0962 -1.10412,0.49088 -2.44377,1.07735 -0.86387,0.3782 -0.93155,0.48814 -0.83095,1.3499 0.0906,0.77597 0.21655,0.93817 0.72857,0.93817 0.39131,0 0.85349,-0.31635 1.2563,-0.8599 z m -5.22686,-0.20466 c 0.64639,-0.29447 1.50306,-0.66908 1.90371,-0.83246 l 0.72846,-0.29708 -0.97132,-0.29201 c -0.53422,-0.16061 -1.2955,-0.57402 -1.69172,-0.91869 -0.67971,-0.59126 -0.73558,-0.59956 -0.98892,-0.14688 -0.14768,0.26389 -0.55768,0.7478 -0.91113,1.07536 -0.63289,0.58654 -0.63526,0.60567 -0.15644,1.26304 0.59235,0.81323 0.62375,0.81547 2.08736,0.14872 z m -19.803722,-1.906 c 1.230257,-0.53981 2.522744,-2.32111 1.684168,-2.32111 -0.396221,0 -2.62854,1.95239 -2.64704,2.3151 -0.02088,0.40916 0.04316,0.40956 0.962872,0.006 z m 22.871972,-0.0503 c 1.42347,-0.59477 1.94517,-1.34741 1.94517,-2.80627 0,-1.07715 -0.11826,-1.37528 -0.76648,-1.93227 -0.87821,-0.75463 -2.27623,-1.07962 -2.27623,-0.52915 0,0.19308 0.11906,0.35106 0.26458,0.35106 0.38041,0 0.32691,0.72887 -0.063,0.85885 -0.25394,0.0847 -0.25875,0.26036 -0.0214,0.78132 0.16843,0.36966 0.39118,1.2386 0.49501,1.93097 0.15178,1.01216 0.11709,1.23446 -0.17706,1.13436 -0.2012,-0.0685 -0.37955,-0.47061 -0.39633,-0.89364 -0.0168,-0.42304 -0.0465,-1.08807 -0.0662,-1.47786 -0.0196,-0.38979 -0.21423,-0.8873 -0.43251,-1.10558 -0.21829,-0.21828 -0.40762,-0.55421 -0.42074,-0.7465 -0.0131,-0.1923 -0.14218,0.0627 -0.28678,0.56674 -0.14461,0.50401 -0.50373,1.25455 -0.79803,1.66787 -0.52113,0.73185 -0.52234,0.7656 -0.0462,1.29176 0.26892,0.29715 0.84713,0.69776 1.28491,0.89024 0.43779,0.19248 0.8112,0.35968 0.82981,0.37155 0.0186,0.0119 0.43774,-0.14718 0.93141,-0.35345 z m 2.5787,-0.36934 c 1.32149,-0.65814 1.461079,-0.8187 1.883199,-2.16604 0.25076,-0.80037 0.50904,-2.19935 0.57397,-3.10886 0.0975,-1.3652 0.0459,-1.659 -0.2957,-1.68434 -0.34259,-0.0254 -0.33741,-0.0509 0.0301,-0.14799 0.32803,-0.0867 0.4171,-0.33758 0.34134,-0.9615 -0.0564,-0.4643 -0.16319,-1.48611 -0.23737,-2.27068 -0.13131,-1.3889 -2.119159,-6.00349 -2.939539,-6.82388 -0.248,-0.24799 -1.22697,-0.34859 -3.39237,-0.34859 -2.73978,0 -3.05944,0.0494 -3.20065,0.49428 -0.0863,0.27184 -0.3822,0.69818 -0.65758,0.9474 -0.48649,0.44027 -0.47056,0.48239 0.56155,1.48401 l 1.06226,1.03089 0.85924,-0.65537 c 1.26963,-0.9684 2.8968,-0.90716 4.18859,0.15764 0.90822,0.74863 0.98632,0.92205 0.98632,2.18999 0,1.16617 -0.11841,1.4974 -0.77344,2.16355 -1.23251,1.25343 -1.38905,1.33642 -2.31646,1.22815 -0.79709,-0.093 -0.87885,-0.0384 -0.87885,0.58781 0,0.65026 0.0808,0.69325 1.38906,0.73935 l 1.38907,0.0489 -1.38907,0.0972 c -1.2709,0.0889 -1.38906,0.15227 -1.38906,0.74481 0,0.5098 0.13711,0.64763 0.64423,0.64763 0.95203,0 1.85438,0.406 2.63309,1.18471 0.55813,0.55813 0.69143,0.94238 0.69143,1.99311 0,1.07869 -0.14068,1.46191 -0.82116,2.23693 -0.97276,1.10792 -0.83384,1.13299 1.05782,0.19088 z m -0.43146,-7.1184 c 0.40218,-0.0608 0.9975,-0.0592 1.32292,0.004 0.32542,0.0628 -0.004,0.11256 -0.73124,0.11058 -0.72761,-0.002 -0.99386,-0.0534 -0.59168,-0.11419 z M 73.1907,53.366318 c 0.953045,-1.02243 3.488141,-2.06931 5.533521,-2.28509 0.3809,-0.0402 0.69598,-0.26479 0.74701,-0.53251 0.0807,-0.42322 -0.23184,-0.46302 -3.635325,-0.46302 H 72.11234 v 1.98437 c 0,1.09141 0.09831,1.98438 0.218464,1.98438 0.120153,0 0.507106,-0.30966 0.859896,-0.68813 z m 30.01018,-0.66283 c 0.29104,-0.11962 1.24354,-0.49659 2.11667,-0.83772 l 1.5875,-0.62024 0.0777,-1.90283 c 0.0967,-2.36608 0.5322,-2.49952 0.63777,-0.1954 l 0.0782,1.70743 0.79375,-0.35166 c 1.2256,-0.54298 3.86646,-1.62734 4.89479,-2.00983 0.50932,-0.18944 1.03915,-0.44442 1.1774,-0.56662 0.13824,-0.12219 0.46566,-0.22217 0.7276,-0.22217 0.44803,0 0.47625,-0.47037 0.47625,-7.9375 0,-5.70325 -0.0838,-7.937504 -0.29766,-7.937504 -0.18961,0 -0.24003,-0.288102 -0.1389,-0.79375 l 0.15875,-0.79375 h -10.97719 c -6.076169,0 -11.182299,0.107431 -11.436609,0.24062 -0.25269,0.132342 -0.85306,0.41276 -1.33417,0.623149 l -0.87473,0.382527 1.47005,0.71923 c 0.80852,0.395578 1.47004,0.829528 1.47004,0.964348 0,0.31347 -0.45225,0.31905 -0.64452,0.008 -0.25339,-0.41 -2.25561,-1.350436 -2.86935,-1.347734 -0.67004,0.003 -3.51182,1.261994 -3.30815,1.465674 0.0737,0.0737 0.43291,0.0204 0.79819,-0.11846 1.57366,-0.5983 3.90717,1.14722 3.90717,2.92267 v 0.75462 h 2.81052 c 2.63844,0 2.78832,-0.0283 2.4479,-0.46302 -0.59335,-0.75762 -1.80027,-1.78814 -2.84493,-2.4291 -0.20054,-0.12304 -0.28348,-0.35501 -0.1843,-0.51548 0.18459,-0.29867 1.62038,0.85627 3.16721,2.5477 l 0.78638,0.8599 5.706009,0.0423 c 3.1383,0.0233 5.34166,0.0887 4.89636,0.14531 l -0.80964,0.10296 -0.0643,3.08779 c -0.0601,2.8904 -0.13698,3.48824 -0.41287,3.21235 -0.0616,-0.0616 -0.15048,-1.51021 -0.19747,-3.2191 l -0.0855,-3.10707 h -4.28532 -4.285309 l 1.17381,2.31511 c 0.645599,1.2733 1.174579,2.49965 1.175499,2.72521 7.9e-4,0.22555 0.11554,0.52395 0.2547,0.66312 0.13915,0.13915 0.33487,1.23453 0.43491,2.43416 l 0.1819,2.18115 0.95415,0.0445 0.95415,0.0445 -0.95695,0.10168 -0.95695,0.10169 -0.18271,2.01626 c -0.10049,1.10894 -0.27847,2.20403 -0.39552,2.43352 -0.11704,0.2295 -0.28968,0.73915 -0.38364,1.13257 l -0.17085,0.7153 1.12643,-0.55443 c 0.61954,-0.30494 1.36456,-0.6523 1.6556,-0.77192 z m 0.18521,-7.16863 c -0.56474,-0.56474 -0.37314,-1.52057 0.37294,-1.86051 0.58165,-0.26502 0.74259,-0.24328 1.02136,0.13796 0.182,0.24891 0.52615,0.45255 0.76476,0.45255 0.30567,0 0.43386,0.23452 0.43386,0.79375 0,0.75889 -0.05,0.79375 -1.13771,0.79375 -0.62574,0 -1.28058,-0.14287 -1.45521,-0.3175 z m 1.53458,-0.74913 c 0,-0.62405 -0.6997,-0.98533 -1.11125,-0.57378 -0.41154,0.41154 -0.0503,1.11125 0.57378,1.11125 0.36385,0 0.53747,-0.17363 0.53747,-0.53747 z m 1.67887,0.27288 c 0.0386,-0.87415 0.0928,-0.92604 0.96697,-0.92604 0.85137,0 0.93273,0.0693 1.00895,0.8599 0.1004,1.04127 -0.39912,1.16036 -0.55486,0.13229 l -0.11022,-0.72761 -0.0397,0.72761 c -0.0451,0.82699 -0.56881,1.00971 -0.56881,0.19844 0,-0.72082 -0.4624,-0.67132 -0.61783,0.0661 -0.069,0.32742 -0.10706,0.1786 -0.0846,-0.33073 z m 2.81905,-0.39687 c 0,-1.08908 0.0556,-1.19063 0.65215,-1.19063 0.60395,0 1.19993,0.63905 1.19993,1.28663 0,0.44119 -0.80099,1.09462 -1.34181,1.09462 -0.42838,0 -0.51027,-0.19108 -0.51027,-1.19062 z m 1.19063,0 c 0,-0.26679 -0.14883,-0.53468 -0.33073,-0.59531 -0.20947,-0.0698 -0.33073,0.14846 -0.33073,0.59531 0,0.44685 0.12126,0.66513 0.33073,0.59531 0.1819,-0.0606 0.33073,-0.32853 0.33073,-0.59531 z m 0.98742,0.39687 c 0,-0.50932 0.0545,-0.71768 0.121,-0.46302 0.0666,0.25466 0.0666,0.67138 0,0.92604 -0.0665,0.25466 -0.121,0.0463 -0.121,-0.46302 z m 0.46778,0 c 0,-0.67027 0.1029,-0.79375 0.66146,-0.79375 0.48507,0 0.66146,0.14111 0.66146,0.52917 0,0.29104 0.11906,0.52917 0.26458,0.52917 0.14553,0 0.26459,0.11906 0.26459,0.26458 0,0.14552 -0.41672,0.26458 -0.92604,0.26458 -0.85255,0 -0.92605,-0.063 -0.92605,-0.79375 z m -0.52916,-1.32291 c 0,-0.14552 0.11906,-0.26459 0.26458,-0.26459 0.14552,0 0.26458,0.11907 0.26458,0.26459 0,0.14552 -0.11906,0.26458 -0.26458,0.26458 -0.14552,0 -0.26458,-0.11906 -0.26458,-0.26458 z m -40.613545,5.35839 c 0.291042,-0.17337 0.380339,-0.31884 0.198438,-0.32326 -0.181901,-0.004 -0.330729,-0.13233 -0.330729,-0.28423 0,-0.1519 0.194341,-0.2412 0.431871,-0.19844 0.656413,0.11816 0.730403,-1.01007 0.09541,-1.45484 -0.288153,-0.20183 -0.46514,-0.44558 -0.393306,-0.54167 0.07183,-0.0961 0.05308,-0.11702 -0.04167,-0.0465 -0.09475,0.0705 -0.310216,-0.0605 -0.478808,-0.29103 -0.258054,-0.35291 -0.304033,-0.29996 -0.290743,0.33484 0.01048,0.50089 -0.117456,0.75405 -0.38109,0.75405 -0.25614,0 -0.392046,-0.24807 -0.383257,-0.69956 l 0.01363,-0.69955 -0.873514,0.82392 c -0.480441,0.45316 -0.873522,0.83089 -0.873522,0.83941 0,0.009 0.89339,0.0108 1.985309,0.005 1.22428,-0.006 1.951075,0.0921 1.896002,0.25702 -0.04912,0.14706 -0.85321,0.28078 -1.786869,0.29716 -2.128369,0.0374 -2.161916,0.0439 -1.95421,0.37995 0.116618,0.18869 0.294463,0.17535 0.555996,-0.0417 0.273235,-0.22676 0.46651,-0.23715 0.667766,-0.0359 0.324334,0.32434 0.08124,0.86048 -0.387422,0.85446 -0.192392,-0.002 -0.163533,-0.0999 0.0741,-0.2502 0.214067,-0.13538 0.296889,-0.33847 0.184053,-0.45131 -0.11284,-0.11284 -0.315529,-0.03 -0.450424,0.18405 -0.533379,0.84644 1.351703,1.28594 2.522992,0.58823 z m -1.698085,-0.22518 c 0.158636,-0.19115 0.229769,-0.44246 0.15807,-0.55848 -0.0717,-0.11601 0.193963,-0.21524 0.590362,-0.22051 0.562375,-0.007 0.712079,0.10779 0.681371,0.52463 -0.03001,0.40735 -0.238697,0.54224 -0.878798,0.56805 -0.665194,0.0268 -0.779568,-0.0383 -0.551005,-0.31369 z m 1.103029,-0.31473 c -0.07702,-0.20072 -0.214156,-0.26567 -0.304739,-0.14433 -0.09058,0.12135 -0.266065,0.30354 -0.389961,0.40488 -0.123897,0.10133 0.01323,0.16628 0.304739,0.14432 0.333298,-0.0251 0.478028,-0.17537 0.389961,-0.40487 z m -2.183069,-1.55859 c 0,-0.0365 0.218281,-0.18311 0.485069,-0.32589 0.348334,-0.18642 0.485071,-0.16773 0.485071,0.0663 0,0.17924 -0.218281,0.32589 -0.485071,0.32589 -0.266788,0 -0.485069,-0.0298 -0.485069,-0.0663 z m 2.20486,-0.26598 c 0,-0.26732 0.08925,-0.27198 0.418926,-0.0219 0.230407,0.17479 0.462145,0.34511 0.514974,0.37849 0.05283,0.0334 -0.135686,0.0432 -0.418923,0.0219 -0.283236,-0.0213 -0.514977,-0.19166 -0.514977,-0.37849 z m 9.172221,1.90087 v -0.92604 h -3.704164 c -3.685646,0 -3.704167,0.003 -3.704167,0.60674 0,0.86189 1.138785,1.16333 4.564061,1.20814 l 2.84427,0.0372 z m 5.17868,0.19438 c 0.15613,-0.10691 0.36076,-0.40274 0.45472,-0.6574 0.13358,-0.36207 0.0284,-0.46302 -0.48232,-0.46302 -0.52031,0 -0.65316,0.13453 -0.65316,0.66145 0,0.67819 0.18171,0.80069 0.68076,0.45897 z m -27.672312,-0.92199 c 0.0021,-0.10914 -0.235082,-0.19843 -0.527357,-0.19843 -0.461573,0 -0.488847,0.0682 -0.207531,0.51861 0.233661,0.37415 0.380561,0.42943 0.527357,0.19844 0.111913,-0.1761 0.205303,-0.40948 0.207531,-0.51862 z m -3.13804,-1.22197 c 0.426778,-0.75032 0.415903,-0.77948 -1.5533,-4.16552 -2.243066,-3.85694 -2.346571,-4.07136 -1.965331,-4.07136 0.151284,0 0.358929,0.26789 0.461431,0.59531 0.102502,0.32742 0.527246,1.09302 0.943872,1.70132 0.416626,0.6083 0.757502,1.17749 0.757502,1.26486 0,0.42434 2.220545,3.81387 2.418419,3.69158 0.125079,-0.0773 0.227414,-2.39571 0.227414,-5.15202 0,-3.16459 0.09751,-5.01147 0.264584,-5.01147 0.167105,0 0.264583,1.85209 0.264583,5.02709 0,3.84644 0.07767,5.02657 0.330729,5.0249 0.310087,-0.002 0.616599,-0.47099 2.241865,-3.42988 0.357421,-0.6507 0.861685,-1.48414 1.120585,-1.85208 0.258902,-0.36794 0.553905,-0.93688 0.655563,-1.2643 0.161912,-0.52148 0.678342,-0.85761 0.678342,-0.44151 0,0.0846 -0.903251,1.70765 -2.007225,3.60681 l -2.007224,3.45301 0.47989,0.89111 0.479894,0.8911 h 4.841237 4.84124 l 0.157636,-0.78818 c 0.118393,-0.59196 0.381434,-0.8691 1.056587,-1.11324 l 0.898951,-0.32507 -0.05666,-8.39536 c -0.03117,-4.617444 -0.152419,-8.336173 -0.269452,-8.263844 -0.117031,0.07233 -0.212786,0.303078 -0.212786,0.512771 0,0.209692 -0.09296,0.381259 -0.206576,0.381259 -0.113617,0 -0.343397,0.327422 -0.510625,0.727604 -0.39829,0.953138 -1.21462,2.29175 -1.465611,2.4033 -0.109141,0.0485 -0.198438,0.20288 -0.198438,0.34306 0,0.14017 -0.551307,1.21066 -1.225124,2.37886 -1.300221,2.2542 -1.842122,2.65929 -3.406444,2.54644 -0.683464,-0.0493 -0.935556,-0.20789 -1.049449,-0.6602 -0.08244,-0.32742 -0.266692,-0.59531 -0.40944,-0.59531 -0.142748,0 -0.259543,-0.4285 -0.259543,-0.95221 0,-0.94296 0.873916,-2.77343 2.742004,-5.743295 0.475446,-0.755859 1.246193,-2.061651 1.712767,-2.901757 0.740164,-1.332726 0.792816,-1.548765 0.41298,-1.694522 -0.261252,-0.100252 -0.529352,9.26e-4 -0.670435,0.253036 -0.389435,0.695883 -2.228715,2.456987 -3.176424,3.041416 -1.14232,0.70444 -3.072797,1.373968 -3.975814,1.378895 -1.220952,0.0067 -1.542995,0.261871 -1.542995,1.222782 0,0.493753 -0.119062,0.897734 -0.264583,0.897734 -0.145521,0 -0.264584,-0.403981 -0.264584,-0.897734 0,-0.975741 -0.322201,-1.218932 -1.614947,-1.218932 -1.347706,0 -4.236705,-1.493169 -5.473767,-2.829098 -0.624575,-0.674489 -1.234913,-1.403827 -1.356309,-1.620749 -0.128151,-0.228994 -0.401344,-0.325094 -0.651397,-0.229139 -0.486349,0.186629 -0.334467,0.504322 2.820477,5.899641 0.945692,1.617242 1.802022,3.200632 1.902955,3.518642 0.106839,0.33662 -0.0095,1.11484 -0.278358,1.86262 l -0.461869,1.28441 -1.234515,-0.0631 c -0.678981,-0.0347 -1.371076,-0.14747 -1.537988,-0.25063 -0.166913,-0.10316 -0.733343,-0.95623 -1.258734,-1.89572 -0.525391,-0.93948 -1.064072,-1.70816 -1.19707,-1.70816 -0.132996,0 -0.241811,-0.14112 -0.241811,-0.3136 0,-0.55995 -2.95656,-5.507231 -3.291192,-5.507231 -0.615894,0 -0.613868,0.297484 0.01468,2.155325 0.902354,2.667126 0.803347,4.179326 -0.506171,7.731216 -0.588928,1.59739 -3.057274,4.32323 -4.551696,5.02653 -1.159156,0.54552 -2.590941,0.96135 -3.326077,0.96598 -0.775557,0.005 -1.15377,0.23923 -1.381273,0.85585 -0.159241,0.43159 0.202287,0.46302 5.327221,0.46302 5.100804,0 5.538401,0.0376 6.056442,0.52021 0.307113,0.28612 0.635244,0.76237 0.729179,1.05834 0.163517,0.51519 0.375745,0.53804 4.981609,0.53644 l 4.810816,-0.002 0.429784,-0.7556 z m 1.290007,-12.86709 c 0,-0.65484 0.119063,-1.19062 0.264584,-1.19062 0.145521,0 0.264583,0.53578 0.264583,1.19062 0,0.65484 -0.119062,1.19063 -0.264583,1.19063 -0.145521,0 -0.264584,-0.53579 -0.264584,-1.19063 z m -0.318471,13.10891 c -0.177625,-0.28443 -0.331388,-0.49278 -0.341693,-0.46302 -0.01032,0.0298 -0.178221,0.26247 -0.373142,0.51713 -0.31646,0.41345 -0.279879,0.46302 0.341694,0.46302 0.624467,0 0.662863,-0.0532 0.373141,-0.51713 z m 24.660136,-0.42541 v -0.94255 l -2.84427,0.12642 c -1.564347,0.0695 -3.342379,0.20777 -3.951177,0.3072 -1.05377,0.17211 -1.09301,0.21129 -0.817425,0.81613 0.285308,0.62619 0.342259,0.63534 3.951179,0.63534 h 3.661693 z m 3.96875,0.1164 c 0,-0.74876 -0.0434,-0.79213 -0.46302,-0.46302 -1.04154,0.81683 -1.11424,1.28916 -0.19843,1.28916 0.56433,0 0.66145,-0.12131 0.66145,-0.82614 z m -10.646392,-0.94315 c -0.252965,-0.0662 -0.729215,-0.0686 -1.058333,-0.005 -0.329118,0.0633 -0.122147,0.11747 0.459936,0.1204 0.582083,0.003 0.851363,-0.0488 0.598397,-0.11506 z m 23.588442,-0.20343 c 1.71565,-0.8872 2.04343,-3.57966 0.56403,-4.63308 -1.29446,-0.92174 -2.25296,-0.96591 -3.47086,-0.15994 l -1.07244,0.70971 0.63034,1.10979 c 0.34669,0.61038 0.78991,1.6158 0.98492,2.23426 0.39693,1.25879 0.99668,1.44634 2.36401,0.73926 z m -16.9108,-0.66807 c 0,-0.3606 -0.22701,-0.56889 -0.7276,-0.66762 -2.6091,-0.51454 -3.49266,-0.7907 -4.431772,-1.38517 -1.419199,-0.89838 -3.242258,-2.87038 -3.855003,-4.16996 l -0.499002,-1.05833 -0.0058,3.9026 -0.0058,3.90261 h 4.762501 c 4.570846,0 4.762496,-0.0211 4.762496,-0.52413 z m -0.23027,-2.85134 c -0.16084,-0.30055 -0.16853,-0.6372 -0.0199,-0.87212 0.38302,-0.60541 0.3158,-2.96307 -0.0806,-2.82529 -0.33223,0.1155 -0.34719,0.44535 -0.0868,1.9135 0.14075,0.79345 0.14069,0.79349 -0.15483,0.10588 -0.17265,-0.40173 -0.66539,-0.82158 -1.18456,-1.00931 -0.48892,-0.1768 -0.88895,-0.41035 -0.88895,-0.51901 0,-0.10867 -0.25797,-0.47447 -0.57326,-0.8129 -0.718128,-0.77082 -0.769145,-2.5091 -0.10346,-3.52507 0.43204,-0.65937 2.11217,-1.41037 2.99183,-1.33731 0.21961,0.0182 0.33073,-0.37218 0.33073,-1.162068 0,-1.028179 -0.0628,-1.164011 -0.46303,-1.001379 -0.25466,0.103486 -0.76067,0.279024 -1.12447,0.390088 -2.145321,0.654934 -4.178771,1.965609 -6.865501,4.425219 -0.913636,0.8364 -0.919882,0.85701 -0.561719,1.85209 0.630603,1.75198 1.046287,2.1969 2.052585,2.1969 0.502981,0 1.071314,0.14882 1.262962,0.33073 0.191649,0.1819 0.603171,0.54075 0.914498,0.79745 0.311327,0.25671 0.63563,0.81464 0.720675,1.23986 0.17377,0.86885 0.414327,1.00806 2.4765,1.43307 l 1.4552,0.29993 0.082,-0.71538 c 0.0451,-0.39346 -0.0359,-0.93566 -0.17997,-1.20488 z m -4.201649,0.33923 c -0.155435,-0.81311 -1.261634,-1.94882 -2.104131,-2.16027 -0.347787,-0.0873 -0.684691,-0.10636 -0.748675,-0.0424 -0.213517,0.21352 2.507996,2.85764 2.941283,2.85764 0.02021,0 -0.01961,-0.29475 -0.08848,-0.65499 z m 3.222769,-3.66351 c -0.0766,-0.19961 0.15414,-0.48113 0.53747,-0.65579 0.63793,-0.29066 0.67168,-0.41269 0.67168,-2.42837 0,-2.38975 -0.0902,-2.47102 -1.87135,-1.68519 -1.951797,0.86113 -2.079186,3.30707 -0.24895,4.77995 0.53567,0.43109 1.07822,0.42478 0.91115,-0.0106 z m 12.62005,-1.03636 c 0.23013,-0.42999 0.0597,-0.46436 -2.20732,-0.44509 -1.35118,0.0115 -2.27811,0.08 -2.05983,0.15222 0.78955,0.26127 2.67877,1.25362 2.81919,1.48083 0.16245,0.26285 1.07001,-0.48175 1.44796,-1.18796 z m -9.40488,-0.46598 c 0.25411,0 0.37523,-0.30603 0.37523,-0.94809 0,-0.6643 -0.099,-0.90194 -0.33073,-0.79392 -0.1819,0.0848 -0.53908,0.22767 -0.79375,0.31749 -0.30133,0.10629 -0.46302,0.43961 -0.46302,0.95452 0,0.61277 0.0944,0.75498 0.41852,0.6306 0.23018,-0.0883 0.58737,-0.1606 0.79375,-0.1606 z m 1.71979,-0.26458 c 0.13362,0 0.24294,-0.47625 0.24294,-1.05833 0,-1.06344 -0.13176,-1.19423 -0.9044,-0.89774 -0.28511,0.10941 -0.41851,0.49795 -0.41851,1.21893 0,0.85636 0.0799,1.02769 0.41851,0.89774 0.23018,-0.0883 0.52784,-0.1606 0.66146,-0.1606 z m 2.01329,-0.97345 c 0.0278,-0.53408 0.29926,-1.30745 0.60324,-1.7186 0.30397,-0.41114 0.43707,-0.74753 0.29578,-0.74753 -0.14129,0 -0.32481,0.1099 -0.40783,0.24422 -0.083,0.13433 -0.50676,0.32238 -0.94165,0.4179 -0.74724,0.16412 -0.79072,0.24526 -0.79072,1.47557 0,1.17407 0.0584,1.30177 0.59531,1.3007 0.4998,-10e-4 0.60343,-0.15699 0.64587,-0.97226 z m 5.93186,0.64272 c 0.13007,-1.46886 -0.19991,-2.09748 -1.4207,-2.70649 -1.01235,-0.50503 -1.47408,-0.50469 -2.68671,0.002 -0.99294,0.41501 -1.47813,1.19985 -1.47813,2.39114 0,0.64168 0.011,0.64423 2.77813,0.64423 2.03049,0 2.786,-0.089 2.80741,-0.33073 z m -9.68002,-1.53196 c 0.14956,-0.242 -0.58217,-1.04773 -0.9515,-1.04773 -0.13513,0 -0.24569,0.34604 -0.24569,0.76898 0,0.6407 0.089,0.74572 0.53329,0.62952 0.29331,-0.0767 0.59206,-0.23455 0.6639,-0.35077 z m 1.51479,-0.62229 c 0.36492,-0.27701 0.46302,-0.75172 0.46302,-2.240543 v -1.889061 h -0.76067 c -0.41838,0 -1.13275,0.07441 -1.5875,0.165364 -0.7992,0.159838 -0.82683,0.211471 -0.82683,1.54503 0,1.21897 0.0779,1.41516 0.66889,1.68443 0.36788,0.16762 0.73781,0.48439 0.82205,0.70393 0.18694,0.48715 0.606,0.49774 1.22104,0.0309 z m 3.50573,-1.48377 c 0.87313,-0.43547 1.66905,-0.792208 1.76872,-0.792756 0.0997,-5.29e-4 0.51638,-0.128807 0.92604,-0.285022 0.7444,-0.283869 0.74401,-0.284319 -0.71038,-0.80122 -0.80037,-0.284456 -2.13982,-0.590322 -2.97657,-0.679706 l -1.52135,-0.162513 v 1.757482 c 0,2.098155 0.13513,2.149965 2.51354,0.963735 z m 5.02709,-2.116667 1.05833,-0.489921 -2.3592,-0.01963 c -1.29756,-0.01079 -2.30477,0.03481 -2.23824,0.101341 0.11982,0.119819 2.09385,0.865315 2.34848,0.886907 0.0728,0.0062 0.60854,-0.209245 1.19063,-0.478702 z m -13.06085,51.924477 c -0.0323,-1.0087 0.0253,-1.12132 0.55928,-1.09379 0.44799,0.0231 0.48073,0.0606 0.13229,0.1517 -0.25466,0.0666 -0.46302,0.2226 -0.46302,0.34678 0,0.12418 0.20836,0.28023 0.46302,0.34678 0.4131,0.10796 0.41509,0.12431 0.0184,0.15169 -0.24454,0.0169 -0.49621,0.29859 -0.55928,0.62601 -0.0631,0.32742 -0.13087,0.0893 -0.15069,-0.52917 z m 1.33358,0.28404 c 0.0685,-0.59765 0.21789,-0.74706 0.74706,-0.74706 0.52916,0 0.66146,0.13229 0.66146,0.66146 0,0.52917 -0.14941,0.67858 -0.74706,0.74706 -0.67956,0.0779 -0.73932,0.0181 -0.66146,-0.66146 z m 1.01164,-0.10122 c 0,-0.13693 -0.17859,-0.24896 -0.39687,-0.24896 -0.40916,0 -0.52565,0.31219 -0.22768,0.61017 0.21138,0.21138 0.62455,-0.0276 0.62455,-0.36121 z m 0.86942,-0.38126 c 0.002,-0.7276 0.0534,-0.99385 0.11419,-0.59167 0.0608,0.40218 0.0592,0.9975 -0.004,1.32292 -0.0628,0.32542 -0.11256,-0.004 -0.11057,-0.73125 z m 0.4535,-0.0429 c 0,-0.63126 0.11906,-1.14775 0.26458,-1.14775 0.14552,0 0.26458,0.21042 0.26458,0.46761 0,0.36642 0.20063,0.45817 0.92719,0.424 0.50996,-0.024 1.00109,0.076 1.09141,0.22209 0.10138,0.16403 0.25281,0.12834 0.39573,-0.0933 0.19196,-0.29765 0.27602,-0.29117 0.49204,0.0379 0.14329,0.21828 0.26236,0.26734 0.26458,0.10902 0.002,-0.15832 0.42077,-0.30353 0.9301,-0.32267 0.85825,-0.0323 0.92604,0.0227 0.92604,0.75088 0,0.61345 -0.11787,0.78569 -0.53769,0.78569 -0.31057,0 -0.62767,-0.24322 -0.7507,-0.5758 l -0.213,-0.5758 -0.15058,0.5758 c -0.16012,0.61231 -0.72652,0.80159 -0.73333,0.24507 -0.003,-0.22116 -0.0904,-0.19924 -0.26459,0.0661 -0.21602,0.32907 -0.30008,0.33555 -0.49204,0.0379 -0.15606,-0.24199 -0.28879,-0.2663 -0.40727,-0.0746 -0.0967,0.15641 -0.5878,0.26889 -1.0914,0.24996 -0.89847,-0.0338 -0.91565,-0.056 -0.91565,-1.18218 z m 1.5875,0.43975 c 0,-0.14552 -0.11907,-0.26458 -0.26459,-0.26458 -0.14552,0 -0.26458,0.11906 -0.26458,0.26458 0,0.14552 0.11906,0.26458 0.26458,0.26458 0.14552,0 0.26459,-0.11906 0.26459,-0.26458 z m 4.26936,0.0661 c -0.0253,-0.60398 0.0821,-0.8599 0.36085,-0.8599 0.21828,0 0.39687,0.11906 0.39687,0.26458 0,0.14552 -0.11078,0.26459 -0.24618,0.26459 -0.1354,0 -0.29778,0.26789 -0.36085,0.59531 -0.0829,0.4305 -0.12463,0.35726 -0.15069,-0.26458 z m 1.55147,-0.3475 c 0,-1.05354 0.0172,-1.07343 0.8599,-0.99219 0.72802,0.0702 0.87329,0.20024 0.94723,0.84795 0.0954,0.83548 -0.27702,1.20893 -1.21182,1.21529 -0.52035,0.004 -0.59531,-0.13132 -0.59531,-1.07105 z m 1.41705,0.15309 c 0.0886,-0.23091 -0.0633,-0.50739 -0.36857,-0.67076 -0.45255,-0.2422 -0.51931,-0.1917 -0.51931,0.39284 0,0.73231 0.637,0.93171 0.88788,0.27792 z m 0.69962,0.12826 c 0,-0.85913 0.41466,-1.08345 0.61136,-0.33073 0.11524,0.44097 0.12246,0.44097 0.1517,0 0.0183,-0.2764 0.24397,-0.46302 0.55985,-0.46302 0.41158,0 0.52917,0.17639 0.52917,0.79375 0,0.73075 -0.0735,0.79375 -0.92604,0.79375 -0.85255,0 -0.92604,-0.063 -0.92604,-0.79375 z m 2.11666,0.52917 c 0,-0.14552 0.11907,-0.26459 0.26459,-0.26459 0.14552,0 0.26458,0.11907 0.26458,0.26459 0,0.14552 -0.11906,0.26458 -0.26458,0.26458 -0.14552,0 -0.26459,-0.11906 -0.26459,-0.26458 z m -2.11666,-1.85209 c 0,-0.14552 0.11906,-0.26458 0.26458,-0.26458 0.14552,0 0.26458,0.11906 0.26458,0.26458 0,0.14552 -0.11906,0.26459 -0.26458,0.26459 -0.14552,0 -0.26458,-0.11907 -0.26458,-0.26459 z m -72.835996,-3.60335 c -0.410312,-0.41031 -0.185784,-1.47412 0.340157,-1.61165 0.291042,-0.0761 0.529167,-0.24356 0.529167,-0.37211 0,-0.12854 0.119062,-0.23372 0.264583,-0.23372 0.145521,0 0.264584,0.15068 0.264584,0.33484 0,0.23305 0.438951,0.32517 1.443955,0.30301 1.282444,-0.0283 1.417004,0.0185 1.203008,0.41837 -0.156317,0.29208 -0.133236,0.55792 0.06571,0.75687 0.232491,0.23249 0.149505,0.30318 -0.343113,0.29228 -0.357375,-0.008 -1.308859,0.0566 -2.114409,0.14337 -0.80555,0.0868 -1.54969,0.0727 -1.653646,-0.0313 z m 0.869324,-0.91018 c 0,-0.13693 -0.119063,-0.24897 -0.264583,-0.24897 -0.145521,0 -0.264584,0.18562 -0.264584,0.41249 0,0.22687 0.119063,0.33891 0.264584,0.24897 0.14552,-0.0899 0.264583,-0.27556 0.264583,-0.41249 z m 2.032824,-0.034 c -0.08446,-0.21107 -0.147157,-0.14838 -0.159853,0.15985 -0.01149,0.27891 0.05105,0.43518 0.138965,0.34727 0.08792,-0.0879 0.09732,-0.31613 0.02089,-0.50712 z m 4.447035,0.77721 c -0.234676,-0.6571 0.05741,-1.38911 0.5582,-1.39891 0.27676,-0.005 0.651885,-0.10174 0.833612,-0.21405 0.181727,-0.11231 0.479098,-0.11231 0.660825,0 0.181727,0.11231 0.56868,0.20864 0.859896,0.21405 0.409738,0.008 0.529483,0.18936 0.529483,0.8036 0,0.72881 -0.0748,0.79375 -0.914291,0.79375 -0.749837,0 -0.947353,-0.11898 -1.098105,-0.66146 l -0.183815,-0.66146 -0.02637,0.72761 c -0.0198,0.5463 -0.160296,0.7276 -0.563845,0.7276 -0.295608,0 -0.590623,-0.14883 -0.655587,-0.33073 z m 2.167548,-0.77721 c -0.08446,-0.21107 -0.147156,-0.14838 -0.159852,0.15985 -0.01149,0.27891 0.05105,0.43518 0.138964,0.34727 0.08792,-0.0879 0.09732,-0.31613 0.02089,-0.50712 z m -12.08699,-0.21498 c 0,-0.58208 0.119062,-1.05833 0.264583,-1.05833 0.145521,0 0.264583,0.47625 0.264583,1.05833 0,0.58209 -0.119062,1.05834 -0.264583,1.05834 -0.145521,0 -0.264583,-0.47625 -0.264583,-1.05834 z m 0.79375,0.26459 c 0,-0.67028 0.102893,-0.79375 0.661458,-0.79375 0.577263,0 0.656872,0.10945 0.625427,0.85989 -0.02606,0.62184 -0.06777,0.69509 -0.150694,0.26459 -0.142021,-0.73736 -0.607025,-0.78803 -0.607025,-0.0661 0,0.29104 -0.119062,0.52917 -0.264583,0.52917 -0.145521,0 -0.264583,-0.35719 -0.264583,-0.79375 z m 6.909858,-0.21684 c -0.02796,-1.04113 0.02231,-1.13536 0.564621,-1.05834 0.797002,0.1132 1.012272,1.27518 0.23624,1.27518 -0.290493,0 -0.582619,0.20836 -0.649168,0.46302 -0.06655,0.25466 -0.134812,-0.0513 -0.151693,-0.67986 z m 0.763058,-0.31233 c 0,-0.14552 -0.119062,-0.26458 -0.264583,-0.26458 -0.145521,0 -0.264583,0.11906 -0.264583,0.26458 0,0.14552 0.119062,0.26458 0.264583,0.26458 0.145521,0 0.264583,-0.11906 0.264583,-0.26458 z m 0.865813,0.26458 c 0,-0.65484 0.0516,-0.92273 0.114663,-0.59531 0.06306,0.32742 0.06306,0.8632 0,1.19063 -0.06307,0.32742 -0.114663,0.0595 -0.114663,-0.59532 z m 57.702556,-3.83705 c -0.0839,-0.2186 -0.0779,-0.69485 0.0133,-1.05833 0.12113,-0.48261 0.34292,-0.66087 0.82228,-0.66087 0.36103,0 0.65642,0.11907 0.65642,0.26459 0,0.14552 -0.24641,0.26458 -0.54757,0.26458 -0.41655,0 -0.52731,0.14244 -0.46289,0.59531 0.0536,0.37696 0.25446,0.58184 0.54757,0.55857 0.25459,-0.0202 0.46289,0.0691 0.46289,0.19843 0,0.40227 -1.33096,0.25751 -1.49205,-0.16228 z m 1.75663,-0.39628 c 0,-0.99498 0.45598,-1.0449 0.60425,-0.0662 l 0.11022,0.72761 0.0396,-0.69675 c 0.0404,-0.71089 0.88503,-1.18588 1.46799,-0.8256 0.15299,0.0946 0.57881,0.17812 0.94627,0.18568 0.52795,0.0109 0.68565,0.16638 0.75181,0.74136 0.0803,0.69829 0.0358,0.7276 -1.10608,0.7276 -1.0235,0 -1.20582,-0.0832 -1.30446,-0.59531 l -0.11466,-0.59532 -0.036,0.59532 c -0.0272,0.449 -0.19859,0.59531 -0.69749,0.59531 -0.55856,0 -0.66146,-0.12347 -0.66146,-0.79375 z m 2.29741,-0.0496 c -0.0845,-0.21107 -0.14716,-0.14837 -0.15985,0.15985 -0.0115,0.27892 0.0511,0.43519 0.13896,0.34727 0.0879,-0.0879 0.0973,-0.31613 0.0209,-0.50712 z m 1.14218,0.1819 c 0,-0.21828 -0.11907,-0.39687 -0.26459,-0.39687 -0.14552,0 -0.26458,0.17859 -0.26458,0.39687 0,0.21828 0.11906,0.39688 0.26458,0.39688 0.14552,0 0.26459,-0.1786 0.26459,-0.39688 z m 0.82444,-0.19844 c 0.0199,-0.55678 0.0756,-0.67336 0.15797,-0.33073 0.20586,0.85585 0.60484,1.10797 0.60715,0.38365 0.001,-0.43151 0.22252,-0.75048 0.66146,-0.95406 0.69158,-0.32077 0.70569,-0.30277 0.75861,0.96729 0.0386,0.9256 -0.53514,1.0868 -0.70624,0.19844 l -0.11466,-0.59532 -0.036,0.59532 c -0.0272,0.449 -0.19859,0.59531 -0.69748,0.59531 -0.57617,0 -0.6575,-0.11088 -0.63077,-0.8599 z m 3.14431,-0.19843 c 0,-0.95428 0.0654,-1.05834 0.66566,-1.05834 0.56489,0 0.65718,0.1113 0.60964,0.73518 -0.0308,0.40435 0.0339,0.8806 0.14371,1.05833 0.10984,0.17774 0.0795,0.32316 -0.0673,0.32316 -0.14688,0 -0.38841,-0.20836 -0.53674,-0.46302 -0.25684,-0.44097 -0.27007,-0.44097 -0.27773,0 -0.004,0.25466 -0.12711,0.46302 -0.27263,0.46302 -0.14552,0 -0.26458,-0.47625 -0.26458,-1.05833 z m -35.96129,-0.36006 c 0.06063,-0.0525 0.646025,-0.16632 1.300869,-0.2529 0.795017,-0.10512 1.014799,-0.0796 0.661458,0.0769 -0.505317,0.22374 -2.192152,0.37505 -1.962327,0.17602 z m 2.623786,-0.3867 c 0,-0.11968 0.803671,-0.35137 1.785937,-0.51488 0.982266,-0.16351 2.053828,-0.37714 2.38125,-0.47473 0.327422,-0.0976 0.595313,-0.0732 0.595313,0.0543 0,0.12743 -0.922735,0.43903 -2.050521,0.69244 -2.306416,0.51825 -2.711979,0.55457 -2.711979,0.2429 z M 18.32465,70.790008 c -0.07643,-0.39982 -0.03229,-0.79286 0.09809,-0.87344 0.130465,-0.0806 0.269834,-4.48269 0.30996,-9.79026 l 0.07291,-9.64375 0.06274,9.70139 c 0.04308,6.66078 0.152324,9.73125 0.348564,9.79666 0.198692,0.0662 0.185745,0.31492 -0.04247,0.8158 -0.417034,0.91529 -0.673971,0.91335 -0.849793,-0.006 z m 86.95468,-0.39755 c 0.0358,-1.05416 0.0837,-1.12137 0.76582,-1.07467 0.47958,0.0328 0.72761,-0.0799 0.72761,-0.33073 0,-0.2093 0.11906,-0.38054 0.26458,-0.38054 0.14552,0 0.26458,0.11104 0.26458,0.24675 0,0.43281 1.10587,0.63288 1.3519,0.24458 0.12513,-0.19747 0.23692,-0.23998 0.24844,-0.0945 0.0115,0.14553 0.059,0.65154 0.10558,1.12448 0.10254,1.04177 -0.30258,1.15876 -0.45807,0.1323 l -0.11023,-0.72761 -0.0396,0.72761 c -0.0495,0.90877 -0.56881,0.96915 -0.56881,0.0661 0,-0.3638 -0.11906,-0.66146 -0.26458,-0.66146 -0.14552,0 -0.26459,0.29766 -0.26459,0.66146 0,0.41158 -0.14993,0.66146 -0.39687,0.66146 -0.21828,0 -0.39688,0.11906 -0.39688,0.26458 0,0.14552 -0.28509,0.26459 -0.63353,0.26459 -0.57494,0 -0.63,-0.104 -0.59531,-1.12448 z m 0.89808,-0.6174 c -0.25214,-0.25214 -0.75763,0.15626 -0.56973,0.4603 0.11169,0.18071 0.25968,0.17614 0.4497,-0.0139 0.15577,-0.15577 0.20979,-0.35667 0.12003,-0.44642 z m 5.60154,1.16497 c -0.0115,-0.33755 -0.0809,-0.46489 -0.15434,-0.28299 -0.23714,0.58769 -0.61852,0.35113 -0.61852,-0.38365 0,-0.7787 -0.39072,-0.57368 -0.60508,0.3175 -0.085,0.35358 -0.13747,0.25322 -0.15798,-0.30242 -0.0325,-0.87996 0.61716,-1.40452 1.11851,-0.90317 0.17706,0.17706 0.37362,0.17844 0.58368,0.004 0.62817,-0.52133 1.21072,0.0153 1.12536,1.03671 -0.0637,0.76273 -0.20172,0.9758 -0.67543,1.04307 -0.46614,0.0662 -0.59984,-0.0486 -0.6162,-0.52916 z m 0.81464,-0.8783 c 0,-0.21828 -0.11906,-0.39688 -0.26458,-0.39688 -0.14552,0 -0.26459,0.1786 -0.26459,0.39688 0,0.21828 0.11907,0.39687 0.26459,0.39687 0.14552,0 0.26458,-0.17859 0.26458,-0.39687 z m -9.525,-0.26459 c 0,-0.65484 0.11906,-1.19062 0.26458,-1.19062 0.14553,0 0.26459,0.41672 0.26459,0.92604 0,0.64676 0.11969,0.92604 0.39687,0.92604 0.21828,0 0.39688,0.11907 0.39688,0.26459 0,0.14552 -0.29766,0.26458 -0.66146,0.26458 -0.60756,0 -0.66146,-0.097 -0.66146,-1.19063 z m 1.64888,0.39688 c 0,-0.50932 0.0545,-0.71768 0.12101,-0.46302 0.0665,0.25466 0.0665,0.67138 0,0.92604 -0.0666,0.25466 -0.12101,0.0463 -0.12101,-0.46302 z m 4.70112,0 c 0,-0.43656 0.11906,-0.79375 0.26458,-0.79375 0.14553,0 0.26459,0.35719 0.26459,0.79375 0,0.43656 -0.11906,0.79375 -0.26459,0.79375 -0.14552,0 -0.26458,-0.35719 -0.26458,-0.79375 z m 4.7625,-0.39688 c 0,-0.65484 0.11906,-1.19062 0.26458,-1.19062 0.14553,0 0.26459,0.17859 0.26459,0.39687 0,0.55359 0.72837,0.49859 0.87595,-0.0661 0.0666,-0.25466 0.1186,0.13229 0.11566,0.85989 -0.003,0.72761 -0.0569,1.05503 -0.12,0.72761 -0.14193,-0.73686 -0.87161,-0.79224 -0.87161,-0.0661 0,0.29104 -0.11906,0.52917 -0.26459,0.52917 -0.14552,0 -0.26458,-0.53578 -0.26458,-1.19063 z m 2.03963,1.0254 c -0.10315,-0.10315 -0.18755,-0.47327 -0.18755,-0.82248 0,-0.53657 0.11273,-0.62197 0.72761,-0.55122 0.5774,0.0664 0.7276,0.22027 0.7276,0.74518 0,0.46426 -0.161,0.68451 -0.54005,0.73876 -0.29703,0.0425 -0.62445,-0.007 -0.72761,-0.11024 z m 0.87079,-0.76081 c 0,-0.21828 -0.11906,-0.39688 -0.26459,-0.39688 -0.14552,0 -0.26458,0.1786 -0.26458,0.39688 0,0.21828 0.11906,0.39687 0.26458,0.39687 0.14553,0 0.26459,-0.17859 0.26459,-0.39687 z m 0.79375,-0.30746 c 0,-0.63126 0.11906,-1.14775 0.26458,-1.14775 0.14552,0 0.26458,0.17859 0.26458,0.39687 0,0.24695 0.24989,0.39688 0.66146,0.39688 0.76059,0 0.91652,0.68829 0.19844,0.87595 -0.44097,0.11524 -0.44097,0.12246 0,0.15169 0.8934,0.0592 0.45293,0.54337 -0.46302,0.50893 -0.91067,-0.0342 -0.92604,-0.0539 -0.92604,-1.18257 z m 2.64583,0.0429 c 0,-0.99731 0.0824,-1.19062 0.50753,-1.19062 0.94028,0 1.34455,0.31082 1.34455,1.03372 0,0.87307 -0.43784,1.34753 -1.24354,1.34753 -0.54484,0 -0.60854,-0.12462 -0.60854,-1.19063 z m 1.28423,0.31121 c 0.21227,-0.25577 0.20673,-0.4342 -0.0205,-0.66146 -0.48704,-0.48706 -0.73452,-0.36905 -0.73452,0.35025 0,0.72738 0.30525,0.8532 0.75506,0.31121 z m 0.83244,0.0428 c 0,-0.41298 0.11906,-0.75088 0.26458,-0.75088 0.14552,0 0.26458,0.11906 0.26458,0.26458 0,0.14552 0.2679,0.25622 0.59532,0.24599 0.56803,-0.0178 0.57106,-0.029 0.0661,-0.24599 -0.50492,-0.21697 -0.50189,-0.22824 0.0661,-0.24598 0.48789,-0.0152 0.59531,0.12318 0.59531,0.76709 0,0.72818 -0.0678,0.78315 -0.92604,0.75088 -0.83262,-0.0313 -0.92604,-0.11056 -0.92604,-0.78569 z m 2.11666,0.57204 c 0,-0.14552 0.11907,-0.26459 0.26459,-0.26459 0.14552,0 0.26458,0.11907 0.26458,0.26459 0,0.14552 -0.11906,0.26458 -0.26458,0.26458 -0.14552,0 -0.26459,-0.11906 -0.26459,-0.26458 z m -41.222079,-0.3175 c -0.71079,-0.71079 -0.19042,-2.06375 0.79375,-2.06375 0.26194,0 0.47625,0.11906 0.47625,0.26458 0,0.14552 -0.24641,0.26458 -0.54757,0.26458 -0.41655,0 -0.52731,0.14245 -0.46289,0.59532 0.0536,0.37695 0.25446,0.58183 0.54757,0.55856 0.25459,-0.0202 0.46289,0.12862 0.46289,0.33073 0,0.45098 -0.83609,0.48388 -1.27,0.05 z m 1.60335,-0.54211 c 0.0621,-0.54349 0.26207,-0.89117 0.54387,-0.94544 0.35074,-0.0675 0.4457,0.1156 0.4457,0.85961 0,0.77756 -0.0966,0.94544 -0.54387,0.94544 -0.4573,0 -0.52824,-0.13681 -0.4457,-0.85961 z m -42.931268,0.34606 c 0,-0.13694 0.1177,-0.32172 0.261554,-0.41062 0.149981,-0.0927 0.194336,0.0135 0.103984,0.24897 -0.175893,0.45836 -0.365538,0.54223 -0.365538,0.16165 z m 26.089767,-0.16955 c -0.248373,-0.64725 -0.194522,-0.73277 0.236275,-0.37524 0.439838,0.36504 0.526579,0.79375 0.1606,0.79375 -0.129953,0 -0.308547,-0.18833 -0.396875,-0.41851 z m 18.095651,-0.39045 c 0,-0.78809 0.029,-0.80686 1.12448,-0.7276 1.00619,0.0728 1.13329,0.15789 1.2082,0.80896 0.046,0.40018 -0.0433,0.7276 -0.19844,0.7276 -0.15519,0 -0.28216,-0.23812 -0.28216,-0.52916 0,-0.72189 -0.465,-0.67122 -0.60702,0.0661 l -0.11466,0.59531 -0.036,-0.59531 c -0.0446,-0.7361 -0.56519,-0.79703 -0.56519,-0.0661 0,0.29104 -0.11907,0.52916 -0.26459,0.52916 -0.14552,0 -0.26458,-0.36403 -0.26458,-0.80896 z M 42.74359,69.021008 c 0,-0.16834 1.556189,-2.75461 2.424647,-4.02959 0.412694,-0.60587 0.750353,-1.23095 0.750353,-1.38906 0,-0.15811 0.119062,-0.28748 0.264583,-0.28748 0.145521,0 0.264583,-0.13093 0.264583,-0.29096 0,-0.40693 1.67381,-3.13197 1.929382,-3.14112 0.218159,-0.008 -0.290608,0.92107 -2.645749,4.83045 -0.770165,1.27842 -1.400299,2.43928 -1.400299,2.57969 0,0.1404 -0.119063,0.25528 -0.264584,0.25528 -0.145521,0 -0.264583,0.17859 -0.264583,0.39687 0,0.21828 -0.119063,0.39688 -0.264583,0.39688 -0.145521,0 -0.264584,0.17859 -0.264584,0.39687 0,0.21828 -0.119062,0.39688 -0.264583,0.39688 -0.145521,0 -0.264583,-0.0516 -0.264583,-0.11471 z m 66.675,-0.14988 c 0,-0.14552 0.11906,-0.26458 0.26458,-0.26458 0.14553,0 0.26459,0.11906 0.26459,0.26458 0,0.14552 -0.11906,0.26459 -0.26459,0.26459 -0.14552,0 -0.26458,-0.11907 -0.26458,-0.26459 z m 13.22917,0 c 0,-0.14552 0.11906,-0.26458 0.26458,-0.26458 0.14552,0 0.26458,0.11906 0.26458,0.26458 0,0.14552 -0.11906,0.26459 -0.26458,0.26459 -0.14552,0 -0.26458,-0.11907 -0.26458,-0.26459 z m -7.18495,-4.61496 c -0.27469,-0.60289 -0.27936,-0.79034 -0.0218,-0.87618 0.23407,-0.078 0.34087,-1.0662 0.37402,-3.46059 l 0.0464,-3.35139 0.17012,3.83646 c 0.18234,4.1123 0.0276,5.1604 -0.56869,3.8517 z m 0.0496,-10.00327 c -0.005,-0.40018 -0.12747,-0.7276 -0.273,-0.7276 -0.14552,0 -0.26458,0.23812 -0.26458,0.52917 0,0.29104 -0.11906,0.52916 -0.26458,0.52916 -0.14552,0 -0.26459,-0.35718 -0.26459,-0.79375 0,-0.60586 0.12005,-0.79375 0.50712,-0.79375 0.27892,0 0.56422,-0.14883 0.63402,-0.33073 0.0841,-0.21911 0.28154,-0.12072 0.58509,0.29153 0.36028,0.48928 0.5075,0.54582 0.6889,0.26459 0.19372,-0.30034 0.26782,-0.30013 0.46222,10e-4 0.13976,0.21672 0.29558,0.25531 0.39318,0.0974 0.20657,-0.33426 2.28572,-0.37329 2.28572,-0.0429 0,0.1364 -0.11906,0.248 -0.26458,0.248 -0.14552,0 -0.26458,0.22522 -0.26458,0.50048 0,0.76715 -1.32491,1.01 -1.86582,0.34201 -0.38631,-0.47707 -0.44868,-0.48434 -0.74125,-0.0864 -0.2463,0.33504 -0.35401,0.35559 -0.47041,0.0898 -0.11398,-0.26029 -0.23958,-0.22789 -0.51271,0.13229 -0.3341,0.4406 -0.36237,0.42146 -0.37015,-0.25056 z m 3.23273,-0.10908 c -0.1819,-0.0734 -0.47955,-0.0734 -0.66145,0 -0.18191,0.0734 -0.0331,0.13345 0.33072,0.13345 0.36381,0 0.51263,-0.0601 0.33073,-0.13345 z m 4.69636,0.17523 c 0,-0.3205 0.18259,-0.5365 0.46302,-0.54776 0.40373,-0.0162 0.39751,-0.0443 -0.0486,-0.21894 -0.36715,-0.14378 -0.4196,-0.25721 -0.18577,-0.40173 0.50101,-0.30964 1.09424,0.0324 1.09424,0.63096 0,0.29561 0.11907,0.53747 0.26459,0.53747 0.14552,0 0.26458,0.11906 0.26458,0.26458 0,0.14552 -0.41672,0.26459 -0.92604,0.26459 -0.74965,0 -0.92604,-0.1008 -0.92604,-0.52917 z m -10.84792,-0.79375 c 0,-1.0368 0.0377,-1.08914 0.72761,-1.00976 0.63921,0.0735 0.7276,0.19622 0.7276,1.00976 0,0.81354 -0.0884,0.93621 -0.7276,1.00976 -0.68989,0.0794 -0.72761,0.027 -0.72761,-1.00976 z m 0.98474,0.49692 c 0.36909,-0.36908 0.14397,-1.02609 -0.35159,-1.02609 -0.21675,0 -0.36857,0.27247 -0.36857,0.66146 0,0.71252 0.24715,0.83765 0.72016,0.36463 z m 7.21734,-0.49692 c 0,-0.92796 0.075,-1.05833 0.60855,-1.05833 0.33469,0 0.75141,0.14287 0.92604,0.3175 0.24694,0.24694 0.3175,0.24694 0.3175,0 0,-0.17463 0.11906,-0.3175 0.26458,-0.3175 0.14552,0 0.26458,0.47625 0.26458,1.05833 0,1.01695 -0.34025,1.41721 -0.61852,0.7276 -0.10676,-0.26458 -0.13763,-0.26458 -0.15434,0 -0.0118,0.18645 -0.36716,0.33073 -0.81464,0.33073 -0.74965,0 -0.79375,-0.0588 -0.79375,-1.05833 z m 1.19063,0.13229 c 0,-0.28706 -0.20836,-0.56205 -0.46302,-0.61109 -0.3468,-0.0668 -0.46302,0.0866 -0.46302,0.61109 0,0.5245 0.11622,0.67788 0.46302,0.61109 0.25466,-0.049 0.46302,-0.32403 0.46302,-0.61109 z m -110.463545,-4.6219 c 0,-0.14096 -0.178593,-0.18775 -0.396875,-0.10399 -0.275391,0.10568 -0.396875,-0.0183 -0.396875,-0.40518 0,-0.30661 -0.119062,-0.55747 -0.264583,-0.55747 -0.145521,0 -0.264583,0.23812 -0.264583,0.52917 0,0.29104 -0.119063,0.52916 -0.2645842,0.52916 -0.14552,0 -0.264583,-0.3489 -0.264583,-0.77535 0,-0.60202 0.133082,-0.7947 0.5953132,-0.86194 0.327421,-0.0476 0.740354,0.0929 0.917627,0.31233 0.223491,0.27661 0.324894,0.29752 0.330729,0.0682 0.0046,-0.1819 0.187008,-0.33073 0.405289,-0.33073 0.218282,0 0.396875,-0.11906 0.396875,-0.26458 0,-0.14552 0.119063,-0.26458 0.264584,-0.26458 0.145521,0 0.264583,0.2527 0.264583,0.56156 0,0.4304 0.08024,0.49497 0.343512,0.27647 0.188931,-0.1568 0.83462,-0.2655 1.434863,-0.24157 0.946639,0.0378 1.05887,0.10421 0.846397,0.50122 -0.166177,0.31051 -0.138362,0.52549 0.08649,0.66849 0.205973,0.13099 -0.119279,0.27476 -0.85918,0.37978 -0.670176,0.0951 -1.335195,0.0537 -1.521355,-0.0948 -0.224848,-0.17936 -0.330729,-0.16875 -0.330729,0.0332 0,0.16333 -0.297656,0.29698 -0.661458,0.29698 -0.363802,0 -0.661459,-0.11533 -0.661459,-0.25628 z m 0.79375,-0.66977 c 0,-0.21828 -0.119062,-0.39687 -0.264583,-0.39687 -0.145521,0 -0.264583,0.17859 -0.264583,0.39687 0,0.21829 0.119062,0.39688 0.264583,0.39688 0.145521,0 0.264583,-0.17859 0.264583,-0.39688 z m 2.247086,0.13533 c 0.09269,-0.14999 -0.01351,-0.19434 -0.248969,-0.10399 -0.458368,0.17589 -0.542233,0.36554 -0.161648,0.36554 0.136933,0 0.32171,-0.1177 0.410617,-0.26155 z m 4.036769,0.59737 c -0.34368,-0.0817 -0.463021,-0.37782 -0.463021,-1.14897 0,-0.57142 0.119062,-1.03893 0.264583,-1.03893 0.145521,0 0.264584,0.29765 0.264584,0.66145 0,0.46153 0.13995,0.65515 0.46302,0.64057 0.276606,-0.0125 0.329867,-0.0746 0.132292,-0.15434 -0.501313,-0.20228 -0.395554,-0.66244 0.132292,-0.57561 0.254661,0.0419 0.611849,-0.0172 0.79375,-0.13127 0.181901,-0.1141 0.479557,-0.1141 0.661458,0 0.181901,0.1141 0.555485,0.17039 0.830187,0.1251 0.45865,-0.0756 0.941883,0.34235 0.951699,0.82316 0.0022,0.10914 -0.263839,0.2068 -0.591261,0.21703 -0.546975,0.0171 -0.553772,0.0349 -0.08371,0.21894 0.64583,0.25291 0.257026,0.4812 -0.764293,0.44876 -0.597984,-0.019 -0.825116,-0.18039 -0.965813,-0.68629 l -0.183959,-0.66146 -0.02637,0.6713 c -0.02655,0.67589 -0.400253,0.83181 -1.415436,0.59056 z m 2.363553,-0.9146 c -0.08446,-0.21106 -0.147157,-0.14837 -0.159853,0.15986 -0.01149,0.27891 0.05105,0.43518 0.138965,0.34726 0.08792,-0.0879 0.09732,-0.31612 0.02089,-0.50712 z m 5.287315,0.93156 c -0.342395,-0.3424 -0.170588,-0.88218 0.286632,-0.90054 0.403735,-0.0162 0.397514,-0.0443 -0.04858,-0.21894 -0.367142,-0.14378 -0.419597,-0.25721 -0.185767,-0.40173 0.501016,-0.30964 1.094247,0.0324 1.094247,0.63096 0,0.29561 0.119062,0.53747 0.264583,0.53747 0.145521,0 0.264584,0.11906 0.264584,0.26458 0,0.29339 -1.396975,0.36692 -1.675695,0.0882 z M 9.2135578,47.969048 c 0,-0.65484 0.0516,-0.92274 0.114663,-0.59531 0.06306,0.32742 0.06306,0.8632 0,1.19062 -0.06306,0.32742 -0.114663,0.0595 -0.114663,-0.59531 z m 7.3362712,-0.0184 c 0,-0.96394 0.06208,-1.06788 0.592609,-0.99219 0.787003,0.11228 0.91128,0.93495 0.236243,1.56384 -0.754231,0.70267 -0.828852,0.65121 -0.828852,-0.57165 z m 6.879167,0.0184 c 0,-0.93797 0.07155,-1.05833 0.629061,-1.05833 0.84034,0 1.322179,0.62724 1.115235,1.45177 -0.131545,0.52412 -0.33387,0.66489 -0.955587,0.66489 -0.743772,0 -0.788709,-0.0603 -0.788709,-1.05833 z m 1.190625,0.13229 c 0,-0.28706 -0.20836,-0.56205 -0.463021,-0.61109 -0.346803,-0.0668 -0.463021,0.0866 -0.463021,0.61109 0,0.5245 0.116218,0.67788 0.463021,0.61109 0.254661,-0.049 0.463021,-0.32403 0.463021,-0.61109 z m 0.926041,-0.13229 c 0,-0.58208 0.09244,-1.05833 0.20543,-1.05833 0.112986,0 0.160011,0.47625 0.104501,1.05833 -0.05551,0.58208 -0.147954,1.05833 -0.205429,1.05833 -0.05748,0 -0.104502,-0.47625 -0.104502,-1.05833 z m 7.342188,-0.46172 c 1.346068,-0.048 3.548724,-0.048 4.894792,0 1.346068,0.048 0.244739,0.0873 -2.447396,0.0873 -2.692135,0 -3.793464,-0.0393 -2.447396,-0.0873 z m 8.202084,0.0104 c 0.327422,-0.0631 0.863203,-0.0631 1.190625,0 0.327422,0.0631 0.05953,0.11466 -0.595313,0.11466 -0.654844,0 -0.922734,-0.0516 -0.595312,-0.11466 z m 21.232813,-12.04464 c 0,-0.0882 0.535781,-1.06655 1.190625,-2.17417 0.654843,-1.107626 1.190625,-2.067651 1.190625,-2.133394 0,-0.06574 0.416718,-0.770972 0.926041,-1.567172 0.509323,-0.7962 0.926042,-1.572417 0.926042,-1.724928 0,-0.152512 0.09083,-0.277293 0.201843,-0.277293 0.111014,0 0.319373,-0.260189 0.463021,-0.578196 0.143647,-0.318008 0.422701,-0.629818 0.620117,-0.692911 0.197416,-0.06309 -0.07048,0.522928 -0.595313,1.302269 -0.524838,0.779341 -0.954251,1.496584 -0.954251,1.593877 0,0.09729 -0.535782,1.045908 -1.190625,2.108033 -0.654844,1.062125 -1.190625,2.085435 -1.190625,2.274035 0,0.18859 -0.119063,0.34289 -0.264584,0.34289 -0.14552,0 -0.264583,0.12404 -0.264583,0.27565 0,0.1516 -0.238125,0.53124 -0.529167,0.84364 -0.291041,0.3124 -0.529166,0.49585 -0.529166,0.40767 z m 65.352083,-6.286994 c -0.48285,-0.115784 -0.66146,-0.333997 -0.66146,-0.808142 0,-0.59036 0.11449,-0.654806 1.25677,-0.707449 1.21911,-0.05618 1.25677,-0.0353 1.25677,0.69676 0,0.831605 -0.63255,1.111264 -1.85208,0.818831 z m 0.52917,-0.796213 c 0,-0.145521 -0.1786,-0.264584 -0.39688,-0.264584 -0.21828,0 -0.39687,0.119063 -0.39687,0.264584 0,0.14552 0.17859,0.264583 0.39687,0.264583 0.21828,0 0.39688,-0.119063 0.39688,-0.264583 z m -9.26042,-0.264584 c 0,-1.072461 0.0153,-1.090387 0.8599,-1.008951 0.79055,0.07622 0.85989,0.157582 0.85989,1.008951 0,0.851369 -0.0693,0.932728 -0.85989,1.008952 -0.84462,0.08144 -0.8599,0.06351 -0.8599,-1.008952 z m 1.41705,0.136328 c 0.0886,-0.230914 -0.0633,-0.507399 -0.36857,-0.670767 -0.45255,-0.2422 -0.51931,-0.191698 -0.51931,0.392838 0,0.732318 0.637,0.931716 0.88788,0.277929 z m 0.69962,0.163757 c 0,-0.654268 0.10245,-0.751636 0.81209,-0.771813 0.44665,-0.0127 0.98243,-0.164459 1.19062,-0.337244 0.2082,-0.172785 0.39159,-0.210279 0.40754,-0.08332 0.24113,1.918961 0.26344,1.880864 -1.12,1.912032 -1.24683,0.02809 -1.29025,0.0039 -1.29025,-0.719655 z m 2.91041,-0.0355 c 0,-0.617361 0.1176,-0.79375 0.52917,-0.79375 0.41158,0 0.52917,0.176389 0.52917,0.79375 0,0.61736 -0.11759,0.79375 -0.52917,0.79375 -0.41157,0 -0.52917,-0.17639 -0.52917,-0.79375 z m 1.32292,0 c 0,-0.670278 0.1029,-0.79375 0.66146,-0.79375 0.57726,0 0.65687,0.109454 0.62543,0.859895 -0.0261,0.62184 -0.0678,0.695087 -0.1507,0.264584 -0.14202,-0.737359 -0.60702,-0.788029 -0.60702,-0.06615 0,0.291042 -0.11906,0.529167 -0.26459,0.529167 -0.14552,0 -0.26458,-0.357188 -0.26458,-0.79375 z m -4.18168,-2.315105 c 0.0738,-1.150913 0.14193,-1.263822 0.80824,-1.34049 0.67145,-0.07726 0.72761,-0.01205 0.72761,0.844892 0,0.659666 -0.17031,1.047902 -0.58804,1.340491 -0.90234,0.632021 -1.03499,0.513768 -0.94781,-0.844893 z m 1.00668,-0.610927 c 0,-0.136933 -0.11906,-0.248968 -0.26458,-0.248968 -0.14552,0 -0.26459,0.18562 -0.26459,0.412489 0,0.22687 0.11907,0.338906 0.26459,0.248969 0.14552,-0.08994 0.26458,-0.275557 0.26458,-0.41249 z m 5.66051,1.22859 c -0.079,-0.205989 -0.10508,-0.712004 -0.0578,-1.124479 0.0682,-0.595297 0.23592,-0.767219 0.81348,-0.833674 0.66624,-0.07666 0.7276,-0.0086 0.7276,0.806979 0,0.928985 -0.38613,1.525699 -0.98726,1.525699 -0.19375,0 -0.41694,-0.168536 -0.49598,-0.374525 z m 0.95407,-1.22859 c 0,-0.136933 -0.11906,-0.248968 -0.26458,-0.248968 -0.14552,0 -0.26458,0.18562 -0.26458,0.412489 0,0.22687 0.11906,0.338906 0.26458,0.248969 0.14552,-0.08994 0.26458,-0.275557 0.26458,-0.41249 z m -4.26936,0.346344 c -0.0309,-0.623846 -0.0524,-0.642712 -0.15069,-0.132292 -0.14203,0.737359 -0.60703,0.788029 -0.60703,0.06615 0,-0.721883 -0.465,-0.671213 -0.60702,0.06615 -0.0631,0.327422 -0.12906,0.05953 -0.14665,-0.595312 -0.0177,-0.658759 0.0602,-1.045573 0.17431,-0.865914 0.22731,0.357823 2.16686,0.384043 2.16686,0.02929 0,-0.121942 0.11906,-0.221713 0.26458,-0.221713 0.45636,0 0.3149,2.040745 -0.15393,2.220651 -0.73269,0.28116 -0.90353,0.178156 -0.94043,-0.567005 z m 0.82978,-0.198437 c 0,-0.218282 -0.11906,-0.396875 -0.26458,-0.396875 -0.14552,0 -0.26459,0.178593 -0.26459,0.396875 0,0.218281 0.11907,0.396875 0.26459,0.396875 0.14552,0 0.26458,-0.178594 0.26458,-0.396875 z m 7.02766,0.687663 c -0.091,-0.147223 -0.34022,-0.200608 -0.55384,-0.118634 -0.24218,0.09293 -0.3884,-0.01102 -0.3884,-0.276139 0,-0.23385 -0.1786,-0.425182 -0.39688,-0.425182 -0.21828,0 -0.39687,0.178594 -0.39687,0.396875 0,0.218281 -0.11906,0.396875 -0.26459,0.396875 -0.14552,0 -0.26458,-0.47625 -0.26458,-1.058333 0,-0.582084 0.11906,-1.058334 0.26458,-1.058334 0.14553,0 0.26459,0.178594 0.26459,0.396875 0,0.218281 0.17859,0.396875 0.39687,0.396875 0.21828,0 0.39688,-0.178594 0.39688,-0.396875 0,-0.218281 0.11906,-0.396875 0.26458,-0.396875 0.14552,0 0.26641,0.267891 0.26864,0.595313 0.003,0.431975 0.0661,0.497427 0.23014,0.23855 0.41304,-0.651766 1.22101,-0.240608 1.22101,0.621346 0,0.793971 -0.69358,1.251637 -1.04213,0.687663 z m 0.64526,-0.687663 c 0,-0.218282 -0.11906,-0.396875 -0.26459,-0.396875 -0.14552,0 -0.26458,0.178593 -0.26458,0.396875 0,0.218281 0.11906,0.396875 0.26458,0.396875 0.14553,0 0.26459,-0.178594 0.26459,-0.396875 z m 1.38906,0.739316 c -0.4951,-0.09536 -0.59531,-0.287087 -0.59531,-1.138979 0,-0.563374 0.11906,-1.097901 0.26458,-1.187837 0.14552,-0.08994 0.26458,0.06512 0.26458,0.344569 0,0.391174 0.14361,0.48064 0.62406,0.388795 0.7031,-0.134405 1.01147,0.348737 0.7822,1.225491 -0.14539,0.555975 -0.23551,0.580717 -1.34011,0.367961 z m 2.64583,-0.0035 c -0.49037,-0.175622 -0.41857,-1.836108 0.0878,-2.030418 0.62925,-0.241467 1.16899,-0.193457 1.16899,0.103985 0,0.14552 -0.22539,0.264583 -0.50086,0.264583 -0.60496,0 -0.89498,0.615001 -0.48389,1.026092 0.4541,0.454099 0.70941,0.359565 0.98475,-0.364634 0.2658,-0.699106 1.17748,-0.912605 1.41227,-0.330729 0.10676,0.264583 0.13763,0.264583 0.15434,0 0.0115,-0.181901 0.31854,-0.330729 0.68234,-0.330729 0.57727,0 0.65688,0.109454 0.62543,0.859896 -0.0261,0.621839 -0.0678,0.695087 -0.15069,0.264583 -0.14203,-0.737359 -0.60703,-0.788029 -0.60703,-0.06615 0,0.291042 -0.11906,0.529167 -0.26458,0.529167 -0.14552,0 -0.26641,-0.148828 -0.26864,-0.330729 -0.003,-0.227967 -0.0793,-0.211855 -0.2461,0.05185 -0.23317,0.368549 -1.91276,0.597248 -2.59412,0.353225 z m 4.6256,-0.669663 c -0.15236,-1.001478 -0.0186,-1.343215 0.41977,-1.072295 0.17184,0.10621 0.87799,0.170234 1.56922,0.142276 0.69122,-0.02796 1.25677,0.06568 1.25677,0.208083 0,0.142404 -0.11906,0.258916 -0.26458,0.258916 -0.14553,0 -0.26459,0.225217 -0.26459,0.500483 0,0.315601 -0.24884,0.56294 -0.67362,0.669553 -0.79669,0.199957 -1.12641,0.03504 -1.46767,-0.73409 -0.21924,-0.494105 -0.23342,-0.473314 -0.10871,0.159366 0.0789,0.400182 0.0356,0.727604 -0.0962,0.727604 -0.13177,0 -0.29846,-0.386953 -0.37041,-0.859896 z m -22.68341,-0.46302 c 0,-0.582084 0.11906,-1.058334 0.26458,-1.058334 0.14553,0 0.26459,0.407989 0.26459,0.906642 0,0.640983 0.13567,0.942095 0.46302,1.027641 0.28487,0.07444 0.18306,0.132809 -0.26458,0.151692 -0.6776,0.02858 -0.72761,-0.04204 -0.72761,-1.027641 z m 7.14375,0.264583 c 0,-0.670278 0.1029,-0.79375 0.66146,-0.79375 0.55856,0 0.66146,0.123472 0.66146,0.79375 0,0.925557 -0.43932,1.06917 -0.60703,0.198437 l -0.11466,-0.595312 -0.036,0.595312 c -0.0542,0.895405 -0.5652,0.715995 -0.5652,-0.198437 z m -83.714167,-0.15875 c -0.09416,-0.245386 -0.111675,-0.505687 -0.03891,-0.578447 0.07276,-0.07276 0.209336,0.06848 0.303498,0.313864 0.09416,0.245385 0.111676,0.505686 0.03892,0.578446 -0.07276,0.07276 -0.209336,-0.06848 -0.303498,-0.313863 z m 25.774468,0.243795 c 0.0076,-0.405451 0.495374,-0.996732 0.674518,-0.817586 0.098,0.098 -0.01458,0.370944 -0.250195,0.606549 -0.235606,0.235605 -0.426551,0.330571 -0.424323,0.211037 z M 48.29984,24.308148 c 0.363802,-0.218605 0.89363,-0.401682 1.177396,-0.406839 0.798634,-0.01451 0.144536,0.439919 -0.912813,0.634172 -0.920276,0.169072 -0.921925,0.167656 -0.264583,-0.227333 z m 45.243751,-1.606839 c 0,-0.999537 0.0819,-1.190625 0.51027,-1.190625 0.28065,0 0.6676,0.155213 0.85989,0.344919 0.1923,0.189705 0.81185,0.356961 1.37678,0.371678 0.56493,0.01472 1.12865,0.186926 1.25272,0.382685 0.13768,0.217244 0.22715,0.238575 0.22962,0.05475 0.002,-0.177665 0.4652,-0.300253 1.12853,-0.298921 0.61847,0.0012 1.332839,-0.08432 1.587499,-0.190148 0.278,-0.115522 0.46302,-0.07537 0.46302,0.100483 0,0.16109 -0.11906,0.292891 -0.26458,0.292891 -0.14552,0 -0.26458,0.297656 -0.26458,0.661459 0,0.363802 -0.11906,0.661458 -0.26459,0.661458 -0.14552,0 -0.264579,-0.178594 -0.264579,-0.396875 0,-0.244279 -0.22889,-0.385074 -0.59531,-0.366183 -0.44799,0.02309 -0.48073,0.06064 -0.13229,0.151692 0.62503,0.163338 0.58962,0.611366 -0.0483,0.611366 -0.29679,0 -0.59004,-0.24796 -0.6989,-0.590967 l -0.18757,-0.590967 -0.21861,0.590967 c -0.28106,0.759761 -0.69593,0.757622 -0.84269,-0.0043 l -0.11466,-0.595312 -0.036,0.595312 c -0.0494,0.816696 -0.5652,0.756335 -0.5652,-0.06615 0,-0.363803 -0.11907,-0.661459 -0.26459,-0.661459 -0.14552,0 -0.26458,0.297656 -0.26458,0.661459 0,0.363802 -0.11906,0.661458 -0.26458,0.661458 -0.14552,0 -0.26459,-0.187098 -0.26459,-0.415774 0,-0.377976 -0.0378,-0.377976 -0.41577,0 -0.22867,0.228676 -0.64539,0.415774 -0.92604,0.415774 -0.42838,0 -0.51027,-0.191088 -0.51027,-1.190625 z m 1.19063,0 c 0,-0.287056 -0.20836,-0.562046 -0.46303,-0.61109 -0.3468,-0.06679 -0.46302,0.0866 -0.46302,0.61109 0,0.524494 0.11622,0.677877 0.46302,0.611089 0.25467,-0.04904 0.46303,-0.324033 0.46303,-0.611089 z m 1.71979,-0.926042 c 0,-0.145521 0.11906,-0.264583 0.26458,-0.264583 0.14552,0 0.26458,0.119062 0.26458,0.264583 0,0.145521 -0.11906,0.264583 -0.26458,0.264583 -0.14552,0 -0.26458,-0.119062 -0.26458,-0.264583 z M 55.179006,12.117976 c 0,-5.5562504 0.09362,-8.5989584 0.264584,-8.5989584 0.145521,0 0.264583,0.357188 0.264583,0.79375 0,0.876141 0.06618,0.918553 0.811144,0.519858 0.352777,-0.188801 0.511773,-0.188801 0.511773,0 0,0.15064 0.297656,0.273892 0.661458,0.273892 0.363802,0 0.661459,0.119063 0.661459,0.264583 0,0.262709 -0.909106,0.393816 -2.050521,0.295719 l -0.595313,-0.05116 V 13.1663 c 0,4.85737 -0.09437,7.550638 -0.264583,7.550638 -0.170961,0 -0.264584,-3.042708 -0.264584,-8.598958 z m 33.709875,4.759065 c -0.0957,-0.381348 -0.0276,-0.832678 0.15965,-1.058334 0.36552,-0.440435 1.58464,-0.539568 1.58464,-0.128856 0,0.145521 0.23813,0.264584 0.52917,0.264584 0.41158,0 0.52917,0.176389 0.52917,0.79375 0,0.775706 -0.03,0.79375 -1.31788,0.79375 -1.18689,0 -1.33446,-0.06609 -1.48475,-0.664894 z m 1.81426,-0.02243 c 0.29189,-0.29189 -0.12155,-0.900174 -0.61182,-0.900174 -0.55693,0 -0.88857,0.405749 -0.64877,0.79375 0.17872,0.289178 1.00784,0.359176 1.26059,0.106424 z m 1.55356,-0.04028 c -0.0349,-0.832829 -0.003,-0.859896 1.02231,-0.859896 0.99954,0 1.05833,0.0441 1.05833,0.79375 0,0.925557 -0.43931,1.06917 -0.60702,0.198437 l -0.11467,-0.595312 -0.036,0.595312 c -0.0446,0.736103 -0.5652,0.797035 -0.5652,0.06615 0,-0.721883 -0.465,-0.671213 -0.60702,0.06615 -0.0829,0.430504 -0.12464,0.357256 -0.1507,-0.264583 z m 2.96984,0.330137 c -0.0839,-0.218607 -0.0779,-0.694857 0.0133,-1.058333 0.13049,-0.519874 0.33414,-0.660867 0.95458,-0.660867 0.43379,0 0.78871,0.119063 0.78871,0.264583 0,0.145521 -0.29765,0.264584 -0.66145,0.264584 -0.48507,0 -0.66146,0.141111 -0.66146,0.529166 0,0.388056 0.17639,0.529167 0.66146,0.529167 0.3638,0 0.66145,0.119063 0.66145,0.264583 0,0.429393 -1.58693,0.309347 -1.75663,-0.132883 z m 2.05252,-0.902722 c 0.0284,-1.100118 0.0502,-1.139277 0.23328,-0.419603 0.11109,0.436563 0.21606,0.656351 0.23328,0.488418 0.0189,-0.184292 0.55573,-0.309394 1.35422,-0.315579 1.295319,-0.01003 1.322919,0.0063 1.322919,0.782222 v 0.792469 l -1.587499,-0.05729 -1.5875,-0.05729 z m 3.444309,0.572585 c -0.0349,-0.832829 -0.003,-0.859896 1.0223,-0.859896 0.99954,0 1.05834,0.0441 1.05834,0.79375 0,0.679712 -0.0995,0.79375 -0.69232,0.79375 -0.56205,0 -0.66628,-0.09956 -0.55394,-0.529167 0.0874,-0.334284 0.008,-0.529167 -0.21532,-0.529167 -0.19453,0 -0.4053,0.267891 -0.46836,0.595313 -0.0829,0.430504 -0.12464,0.357256 -0.1507,-0.264583 z m 2.38125,0 c -0.0314,-0.750442 0.0482,-0.859896 0.62543,-0.859896 0.55856,0 0.66146,0.123472 0.66146,0.79375 0,0.436562 -0.11906,0.79375 -0.26459,0.79375 -0.14552,0 -0.26458,-0.238125 -0.26458,-0.529167 0,-0.721883 -0.465,-0.671213 -0.60702,0.06615 -0.0829,0.430504 -0.12464,0.357256 -0.1507,-0.264583 z m 1.55147,0.05784 c 0,-0.36837 0.18373,-0.740266 0.40829,-0.826437 0.5975,-0.229284 0.85855,0.167854 0.31155,0.473971 -0.25651,0.143551 -0.39612,0.374688 -0.31025,0.513638 0.0859,0.138951 0.26698,0.184138 0.40244,0.100416 0.13547,-0.08372 0.2463,-0.02613 0.2463,0.127976 0,0.154108 -0.23812,0.280198 -0.52916,0.280198 -0.38981,0 -0.52917,-0.176389 -0.52917,-0.669762 z m 1.37149,-0.05784 c 0.0602,-0.523309 0.2323,-0.727605 0.61289,-0.727605 0.38058,0 0.55267,0.204296 0.61288,0.727605 0.0726,0.630711 -0.009,0.727604 -0.61288,0.727604 -0.60385,0 -0.68546,-0.09689 -0.61289,-0.727604 z M 14.72906,14.168497 c -0.03554,-1.276809 0.352604,-1.468186 0.834161,-0.411282 l 0.324954,0.713196 0.167236,-0.779342 c 0.147492,-0.687333 0.170932,-0.646587 0.19854,0.345137 0.03555,1.276809 -0.352603,1.468185 -0.834161,0.411282 L 15.094836,13.734292 14.9276,14.513634 c -0.147492,0.687333 -0.170932,0.646586 -0.19854,-0.345137 z m 2.116054,0.132292 c 0.01987,-0.556787 0.07556,-0.673367 0.157974,-0.330729 0.214357,0.891183 0.605084,1.096205 0.605084,0.3175 0,-0.392906 0.119063,-0.714375 0.264584,-0.714375 0.14552,0 0.264583,0.357187 0.264583,0.79375 0,0.670277 -0.102894,0.79375 -0.661458,0.79375 -0.576168,0 -0.657501,-0.110878 -0.630767,-0.859896 z m 1.59284,0.132292 c -0.0349,-0.832829 -0.0027,-0.859896 1.022302,-0.859896 0.999537,0 1.058333,0.0441 1.058333,0.79375 0,0.925557 -0.439314,1.06917 -0.607025,0.198437 l -0.114662,-0.595312 -0.03603,0.595312 c -0.04455,0.736103 -0.565198,0.797035 -0.565198,0.06615 0,-0.721883 -0.465003,-0.671213 -0.607025,0.06615 -0.08292,0.430504 -0.124637,0.357256 -0.150693,-0.264583 z m 2.345218,-0.353739 c 0,-0.569428 0.119063,-1.035324 0.264584,-1.035324 0.145521,0 0.264583,0.119063 0.264583,0.264583 0,0.145521 0.178594,0.264584 0.396875,0.264584 0.218281,0 0.396875,0.133641 0.396875,0.29698 0,0.199932 0.108077,0.211974 0.330729,0.03685 0.434424,-0.341692 2.315104,-0.391398 2.315104,-0.06119 0,0.14109 -0.119062,0.256526 -0.264583,0.256526 -0.145521,0 -0.264583,0.233711 -0.264583,0.519357 0,0.464174 -0.182734,0.517955 -1.719792,0.506158 l -1.719792,-0.0132 z m 1.058334,0.271978 c 0,-0.136933 -0.119063,-0.248969 -0.264584,-0.248969 -0.14552,0 -0.264583,0.185621 -0.264583,0.41249 0,0.22687 0.119063,0.338906 0.264583,0.248969 0.145521,-0.08994 0.264584,-0.275557 0.264584,-0.41249 z m 1.780425,0.384929 c -0.08792,-0.08792 -0.316122,-0.09732 -0.507118,-0.02089 -0.211067,0.08446 -0.148372,0.147157 0.159853,0.159853 0.278914,0.01149 0.435184,-0.05105 0.347265,-0.138965 z m 1.972313,-0.303168 c 0.06644,-0.577397 0.220272,-0.727605 0.745178,-0.727605 0.381225,0 0.741917,-0.196164 0.85137,-0.46302 0.296312,-0.722433 0.713988,-0.543659 0.618155,0.264583 -0.04745,0.400182 -0.09985,0.935963 -0.11644,1.190625 -0.02346,0.360117 -0.269283,0.463021 -1.106075,0.463021 -1.017625,0 -1.071373,-0.03942 -0.992188,-0.727604 z m 1.009762,0.06614 c 0,-0.218281 -0.112036,-0.396875 -0.248969,-0.396875 -0.333633,0 -0.572583,0.413171 -0.361199,0.624555 0.297969,0.297969 0.610168,0.181475 0.610168,-0.22768 z m 2.411942,-0.330729 c -0.0259,-0.949032 0.04982,-1.124479 0.485327,-1.124479 0.283811,0 0.611233,0.148828 0.727605,0.330729 0.116371,0.181901 0.50924,0.330729 0.873043,0.330729 0.529166,0 0.661458,0.132292 0.661458,0.661459 0,0.524906 -0.150207,0.678741 -0.727604,0.745178 -0.576163,0.06629 -0.727604,-0.02492 -0.727604,-0.43825 0,-0.386921 -0.133246,-0.487127 -0.514996,-0.387297 -0.283247,0.07407 -0.567092,0.330815 -0.630766,0.570542 -0.06367,0.239728 -0.129583,-0.07015 -0.146463,-0.688611 z m 2.350558,0.330729 c 0,-0.218281 -0.119063,-0.396875 -0.264583,-0.396875 -0.145521,0 -0.264584,0.178594 -0.264584,0.396875 0,0.218282 0.119063,0.396875 0.264584,0.396875 0.14552,0 0.264583,-0.178593 0.264583,-0.396875 z m -1.731091,-0.643176 c 0.08372,-0.135465 0.03122,-0.321086 -0.116677,-0.41249 -0.147894,-0.0914 -0.268899,0.01943 -0.268899,0.246302 0,0.464747 0.158765,0.533177 0.385576,0.166188 z m 2.586224,0.510885 c 0,-0.509323 0.05445,-0.717683 0.121002,-0.463021 0.06655,0.254661 0.06655,0.67138 0,0.926042 -0.06655,0.254661 -0.121002,0.0463 -0.121002,-0.463021 z m 0.467784,0 c 0,-0.670278 0.102893,-0.79375 0.661458,-0.79375 0.577263,0 0.656873,0.109454 0.625427,0.859896 -0.02606,0.621839 -0.06777,0.695087 -0.150693,0.264583 -0.142023,-0.737359 -0.607026,-0.788029 -0.607026,-0.06615 0,0.291042 -0.119062,0.529167 -0.264583,0.529167 -0.145521,0 -0.264583,-0.357188 -0.264583,-0.79375 z m 1.774605,0.06615 c -0.163946,-0.857153 0.166669,-1.698589 0.414078,-1.053853 0.09986,0.260237 0.381511,0.349041 0.833171,0.2627 0.68876,-0.131665 0.965999,0.301857 0.351583,0.549778 -0.264583,0.106762 -0.264583,0.13763 0,0.154341 0.181901,0.01149 0.330729,0.199482 0.330729,0.417763 0,0.274578 -0.275854,0.396875 -0.895196,0.396875 -0.766453,0 -0.915212,-0.104642 -1.034365,-0.727604 z m 1.364155,0.373961 c -0.05283,-0.03337 -0.304411,-0.220159 -0.559073,-0.415081 -0.389604,-0.298208 -0.463021,-0.295265 -0.463021,0.01856 0,0.205132 0.251582,0.391919 0.559073,0.415081 0.307491,0.02316 0.51585,0.01481 0.463021,-0.01856 z m 4.055163,-0.638545 c 0.06596,-0.796982 0.199242,-1.008821 0.677431,-1.076735 0.697685,-0.09909 0.81157,0.386108 0.132292,0.563622 -0.440973,0.115238 -0.440973,0.122462 0,0.151692 0.309316,0.0205 0.46302,0.250271 0.46302,0.69215 0,0.533326 -0.131228,0.661459 -0.677431,0.661459 -0.621017,0 -0.670592,-0.08262 -0.595312,-0.992188 z m -2.431423,0.463021 c 0,-0.145521 0.297656,-0.264583 0.661458,-0.264583 0.363802,0 0.661458,0.119062 0.661458,0.264583 0,0.145521 -0.297656,0.264583 -0.661458,0.264583 -0.363802,0 -0.661458,-0.119062 -0.661458,-0.264583 z m 0,-0.630614 c 0,-0.0558 0.297656,-0.158348 0.661458,-0.227893 0.363802,-0.06955 0.661458,-0.02389 0.661458,0.101447 0,0.125341 -0.297656,0.227893 -0.661458,0.227893 -0.363802,0 -0.661458,-0.04565 -0.661458,-0.101447 z M 74.49359,12.117976 c 0,-1.066002 0.0637,-1.190625 0.608542,-1.190625 0.758195,0 1.243539,0.464694 1.243539,1.190625 0,0.725932 -0.485344,1.190625 -1.243539,1.190625 -0.544846,0 -0.608542,-0.124622 -0.608542,-1.190625 z m 1.275173,-0.08687 c 0.05615,-0.381584 -0.05494,-0.574588 -0.330729,-0.574588 -0.270145,0 -0.415277,0.238873 -0.415277,0.683507 0,0.828865 0.621366,0.738144 0.746006,-0.108919 z m 0.841498,0.08687 c 0,-0.654843 0.11906,-1.190625 0.26458,-1.190625 0.14552,0 0.26458,0.170283 0.26458,0.378406 0,0.299503 0.17565,0.328031 0.84238,0.136816 1.01929,-0.29233 1.11695,-0.211846 1.15743,0.953915 0.0337,0.969102 -0.11132,1.107261 -0.62397,0.594613 -0.24695,-0.246944 -0.3175,-0.246944 -0.3175,0 0,0.176389 -0.35278,0.3175 -0.79375,0.3175 -0.76436,0 -0.79375,-0.0441 -0.79375,-1.190625 z m 1.85208,0.132292 c 0,-0.145521 -0.12609,-0.264583 -0.2802,-0.264583 -0.15411,0 -0.20661,0.119062 -0.11668,0.264583 0.0899,0.145521 0.21603,0.264583 0.2802,0.264583 0.0642,0 0.11668,-0.119062 0.11668,-0.264583 z M 73.161686,9.7258957 c -0.446818,-0.538381 -0.03447,-1.312086 0.699283,-1.312086 0.379023,0 0.50033,0.191568 0.50033,0.790126 0,0.9131203 -0.642845,1.1928263 -1.199613,0.52196 z m 0.698008,-0.843553 c -0.268955,-0.268953 -0.490869,0.135967 -0.270198,0.493019 0.166695,0.269721 0.229018,0.26993 0.318637,0.0011 0.06128,-0.183829 0.03948,-0.406168 -0.04844,-0.494087 z m 2.15525,1.068874 c -0.341817,-0.08933 -0.46302,-0.392957 -0.46302,-1.159933 0,-0.571413 0.119062,-1.0389331 0.264583,-1.0389331 0.145521,0 0.264583,0.119063 0.264583,0.264584 0,0.1455211 0.231101,0.2645831 0.513551,0.2645831 0.28245,0 0.59499,0.131774 0.69453,0.292831 0.12616,0.204134 0.24988,0.184099 0.40844,-0.06615 0.19079,-0.301101 0.22811,-0.300433 0.23151,0.0041 0.003,0.30057 0.0759,0.303501 0.42109,0.01701 0.34563,-0.286843 0.4582,-0.281063 0.65741,0.03375 0.14272,0.225548 0.24201,0.254858 0.24442,0.07215 0.002,-0.17894 0.3639,-0.289663 0.86395,-0.264584 0.76946,0.03859 0.85989,0.1266 0.85989,0.836878 0,1.0324193 -0.93971,1.1344453 -1.21847,0.132291 -0.10725,-0.385589 -0.19499,-0.474862 -0.21036,-0.214052 -0.0361,0.613155 -0.56366,0.8916073 -0.84566,0.446387 -0.18316,-0.289189 -0.23178,-0.292513 -0.235,-0.01607 -0.003,0.222533 -0.18732,0.290389 -0.51095,0.187675 -0.2788,-0.08849 -0.58348,-0.03698 -0.67707,0.114462 -0.17488,0.2829543 -0.45697,0.3037103 -1.263427,0.09296 z m 1.124477,-0.743657 c 0,-0.218282 -0.11203,-0.396875 -0.24896,-0.396875 -0.33364,0 -0.57259,0.41317 -0.36121,0.624554 0.29798,0.297969 0.61017,0.181475 0.61017,-0.227679 z m -5.556247,-0.396875 c 0,-0.9525001 0.06614,-1.0583341 0.661458,-1.0583341 0.363802,0 0.661458,0.119063 0.661458,0.264584 0,0.1455211 -0.208359,0.2664061 -0.463021,0.2686351 -0.399552,0.0035 -0.408619,0.04252 -0.06614,0.284726 0.298664,0.211219 0.315034,0.313883 0.06614,0.414872 -0.181901,0.07381 -0.330729,0.302869 -0.330729,0.509024 0,0.206154 -0.119062,0.374826 -0.264583,0.374826 -0.145521,0 -0.264583,-0.47625 -0.264583,-1.058333 z m 3.175,0 c 0,-0.582084 0.119062,-1.0583341 0.264583,-1.0583341 0.145521,0 0.264583,0.4762501 0.264583,1.0583341 0,0.582083 -0.119062,1.058333 -0.264583,1.058333 -0.145521,0 -0.264583,-0.47625 -0.264583,-1.058333 z m 6.616217,0.330729 c -0.001,-0.588687 0.12354,-0.859896 0.39524,-0.859896 0.48943,0 0.48948,0.02655 0.002,0.961944 l -0.3952,0.7578483 -0.002,-0.8598963 z M 60.03696,5.5028006 c -0.08389,-0.218606 -0.07788,-0.694856 0.01333,-1.058333 0.121137,-0.482611 0.342932,-0.660867 0.822294,-0.660867 0.361029,0 0.656418,0.119063 0.656418,0.264584 0,0.145521 -0.246407,0.264583 -0.547569,0.264583 -0.416549,0 -0.527309,0.142443 -0.462894,0.595313 0.05362,0.376955 0.254463,0.581833 0.547569,0.558564 0.254592,-0.02021 0.462894,0.06909 0.462894,0.198438 0,0.402268 -1.330958,0.257507 -1.492047,-0.162282 z m 1.805202,-0.330137 c 0.06,-0.521444 0.232627,-0.727604 0.609262,-0.727604 0.678336,0 0.893722,0.918724 0.221461,0.944638 -0.434845,0.01676 -0.430236,0.04102 0.04675,0.245987 0.465034,0.199831 0.438853,0.229644 -0.216011,0.245987 -0.660382,0.01648 -0.735653,-0.0642 -0.661459,-0.709008 z m 1.574959,-0.03084 c -0.03302,-0.816346 0.01974,-0.880079 0.631743,-0.763088 0.367273,0.07021 0.732689,0.02262 0.812033,-0.105763 0.07934,-0.128379 0.28145,-0.148626 0.449133,-0.04499 0.167682,0.103633 0.635703,0.163215 1.04005,0.132405 0.653717,-0.04981 0.735177,0.0324 0.735177,0.741934 0,0.752203 -0.05962,0.797953 -1.039932,0.797953 -0.868085,0 -1.058878,-0.09837 -1.154594,-0.595312 l -0.114662,-0.595313 -0.03603,0.595313 c -0.04455,0.736102 -0.565198,0.797034 -0.565198,0.06615 0,-0.721883 -0.465003,-0.671213 -0.607026,0.06615 -0.07987,0.414692 -0.125592,0.325057 -0.150693,-0.295427 z m 2.345219,0.09699 c 0,-0.218282 -0.119062,-0.396875 -0.264583,-0.396875 -0.145521,0 -0.264584,0.178593 -0.264584,0.396875 0,0.218281 0.119063,0.396875 0.264584,0.396875 0.145521,0 0.264583,-0.178594 0.264583,-0.396875 z m 1.623531,-0.06615 c -0.02531,-0.603977 0.08208,-0.859896 0.360844,-0.859896 0.218281,0 0.396875,0.119063 0.396875,0.264583 0,0.145521 -0.110781,0.264584 -0.246181,0.264584 -0.135401,0 -0.297778,0.26789 -0.360845,0.595312 -0.08292,0.430504 -0.124637,0.357256 -0.150693,-0.264583 z m 1.551469,-0.330729 c 0,-1.027476 0.04231,-1.088429 0.700918,-1.009762 0.385504,0.04605 0.831379,0.292079 0.990833,0.546741 0.399653,0.638279 -0.08933,1.365103 -0.990833,1.472782 -0.658608,0.07867 -0.700918,0.01772 -0.700918,-1.009761 z m 0.982739,-0.453572 c -0.428373,-0.428373 -0.453572,-0.403174 -0.453572,0.453572 0,0.856746 0.02519,0.881944 0.453572,0.453571 0.428371,-0.428373 0.428371,-0.47877 0,-0.907143 z m 1.133928,0.745946 c 0,-0.703746 0.08827,-0.774377 1.086742,-0.869597 0.597707,-0.057 1.490675,-0.05648 1.984375,0.0012 0.789262,0.09214 0.897633,0.197128 0.897633,0.869597 0,0.715881 -0.0677,0.764803 -1.058333,0.764803 -0.881944,0 -1.058334,-0.08819 -1.058334,-0.529167 0,-0.291041 -0.107915,-0.529166 -0.239813,-0.529166 -0.131897,0 -0.177543,0.238125 -0.101433,0.529166 0.11652,0.445575 0.0081,0.529167 -0.686229,0.529167 -0.733195,0 -0.824608,-0.08491 -0.824608,-0.765959 z m 2.741515,0.104501 c 0.08376,-0.218282 0.03697,-0.396875 -0.103984,-0.396875 -0.140955,0 -0.256281,0.178593 -0.256281,0.396875 0,0.218281 0.04679,0.396875 0.103984,0.396875 0.05719,0 0.172516,-0.178594 0.256281,-0.396875 z m 1.491818,-0.132292 c 0,-0.670278 0.102894,-0.79375 0.661459,-0.79375 0.558562,0 0.661462,0.123472 0.661462,0.79375 0,0.925557 -0.43932,1.06917 -0.60703,0.198438 l -0.114662,-0.595313 -0.03603,0.595313 c -0.05419,0.895404 -0.565198,0.715994 -0.565199,-0.198438 z m 1.587501,0.09859 c 0,-0.3544 0.18373,-0.714868 0.40829,-0.801038 0.62375,-0.239357 0.8057,0.133415 0.25992,0.532503 -0.33427,0.244422 -0.38998,0.411735 -0.18025,0.541353 0.1812,0.111988 0.42997,-0.08989 0.61724,-0.500894 0.21487,-0.471588 0.48527,-0.663836 0.85832,-0.610232 0.79603,0.114387 0.88717,0.997177 0.1064,1.030675 -0.60931,0.02614 -0.6089,0.02817 0.0468,0.230692 0.50285,0.155324 0.32837,0.206355 -0.7276,0.212812 -1.29778,0.0079 -1.38907,-0.03385 -1.38907,-0.635871 z"
       id="path308" /></g></svg>
